<svg width="16" height="16" viewBox="0 0 16 16" fill="none" xmlns="http://www.w3.org/2000/svg">
  <path transform="translate(-588, -924)" d="M598.577 926.58C599.424 925.733 600.648 925.733 601.495 926.58C602.342 927.333 602.342 928.651 601.495 929.498L596.13 934.862L593.777 936.18L593.965 938.721C594.06 939.38 593.307 939.756 592.836 939.286L591.33 937.78L590.671 938.251C590.107 938.627 589.354 937.968 589.73 937.309L590.201 936.651L588.695 935.145C588.224 934.768 588.601 933.921 589.26 934.015L591.801 934.203L593.213 931.945L594.718 930.439L588.883 926.58L590.483 924.886C590.954 924.415 591.707 924.415 592.271 924.698L597.165 927.992L598.577 926.58Z" fill="#333333"/>
  <path transform="translate(-588, -924)" d="M598.671 934.956L601.118 932.509L603.283 935.898C603.66 936.368 603.565 937.121 603.095 937.592L601.495 939.192L598.671 934.956Z" fill="#333333"/>
</svg>