<svg width="16" height="16" viewBox="0 0 16 16" fill="none" xmlns="http://www.w3.org/2000/svg">
  <path transform="translate(-84, -924)" fill-rule="evenodd" clip-rule="evenodd" d="M88.5499 931.761L88.4638 931.876L87.1566 934.287L85.0344 934.129C84.4534 934.084 84.1304 934.786 84.5424 935.198L85.9222 936.565L84.9338 938.388C84.6968 938.825 85.1743 939.303 85.6117 939.066L87.435 938.077L88.8014 939.457C89.2134 939.869 89.9154 939.546 89.8704 938.965L89.7122 936.843L92.1237 935.536L92.239 935.45L93.3409 934.348L96.8754 939.651L96.9334 939.723C97.1232 939.918 97.4442 939.928 97.645 939.727L99.315 938.057L99.4291 937.932C99.9678 937.291 100.026 936.361 99.5532 935.653L96.5457 931.142L99.109 928.578C100.127 927.56 100.127 925.908 99.109 924.89L98.952 924.745C97.9212 923.869 96.3829 923.928 95.4209 924.89L92.8571 927.453L88.3468 924.446L88.2024 924.359C87.4672 923.957 86.544 924.082 85.9425 924.685L84.2729 926.355L84.2137 926.426C84.0594 926.65 84.1128 926.967 84.3491 927.124L89.6514 930.659L88.5499 931.761ZM90.7567 930.967C90.78 930.948 90.8017 930.926 90.8216 930.902L93.2501 928.474C93.2668 928.46 93.2827 928.444 93.2976 928.427L96.128 925.597C96.6839 925.041 97.5526 924.974 98.182 925.413L98.2934 925.498L98.4164 925.611L98.5183 925.723C99.0274 926.343 98.9927 927.28 98.4019 927.871L91.5834 934.69L86.6154 937.383L89.3084 932.415L90.7567 930.967ZM94.062 933.626L97.3694 938.587L98.6082 937.349C98.8829 937.075 98.9489 936.66 98.7847 936.319L98.7214 936.208L95.8247 931.863L94.062 933.626ZM92.136 928.175L90.3726 929.938L85.4114 926.629L86.65 925.392L86.7464 925.308C87.0494 925.08 87.4692 925.063 87.7917 925.278L92.136 928.175Z" fill="#333333"/>
</svg>