<svg width="16" height="16" viewBox="0 0 16 16" fill="none" xmlns="http://www.w3.org/2000/svg">
  <path transform="translate(-1208, -420)" d="M1224 422C1224 421.724 1223.78 421.5 1223.5 421.5H1208.5L1208.41 421.508C1208.18 421.55 1208 421.755 1208 422C1208 422.276 1208.22 422.5 1208.5 422.5H1223.5L1223.59 422.492C1223.82 422.45 1224 422.245 1224 422Z" fill="#333333"/>
  <path transform="translate(-1208, -420)" d="M1223.5 429.5C1223.78 429.5 1224 429.724 1224 430C1224 430.245 1223.82 430.45 1223.59 430.492L1223.5 430.5H1208.5C1208.22 430.5 1208 430.276 1208 430C1208 429.755 1208.18 429.55 1208.41 429.508L1208.5 429.5H1223.5Z" fill="#333333"/>
  <path transform="translate(-1208, -420)" d="M1224 426C1224 425.724 1223.78 425.5 1223.5 425.5H1214.5L1214.41 425.508C1214.18 425.55 1214 425.755 1214 426C1214 426.276 1214.22 426.5 1214.5 426.5H1223.5L1223.59 426.492C1223.82 426.45 1224 426.245 1224 426Z" fill="#333333"/>
  <path transform="translate(-1208, -420)" d="M1224 434C1224 433.724 1223.78 433.5 1223.5 433.5H1214.5L1214.41 433.508C1214.18 433.55 1214 433.755 1214 434C1214 434.276 1214.22 434.5 1214.5 434.5H1223.5L1223.59 434.492C1223.82 434.45 1224 434.245 1224 434Z" fill="#333333"/>
</svg>