<svg width="16" height="16" viewBox="0 0 16 16" fill="none" xmlns="http://www.w3.org/2000/svg">
  <path transform="translate(-1208, -252)" d="M1224 254C1224 253.724 1223.78 253.5 1223.5 253.5H1208.5L1208.41 253.508C1208.18 253.55 1208 253.755 1208 254C1208 254.276 1208.22 254.5 1208.5 254.5H1223.5L1223.59 254.492C1223.82 254.45 1224 254.245 1224 254Z" fill="#333333"/>
  <path transform="translate(-1208, -252)" d="M1221 258C1221 257.724 1220.78 257.5 1220.5 257.5H1211.5L1211.41 257.508C1211.18 257.55 1211 257.755 1211 258C1211 258.276 1211.22 258.5 1211.5 258.5H1220.5L1220.59 258.492C1220.82 258.45 1221 258.245 1221 258Z" fill="#333333"/>
  <path transform="translate(-1208, -252)" d="M1223.5 261.5C1223.78 261.5 1224 261.724 1224 262C1224 262.245 1223.82 262.45 1223.59 262.492L1223.5 262.5H1208.5C1208.22 262.5 1208 262.276 1208 262C1208 261.755 1208.18 261.55 1208.41 261.508L1208.5 261.5H1223.5Z" fill="#333333"/>
  <path transform="translate(-1208, -252)" d="M1221 266C1221 265.724 1220.78 265.5 1220.5 265.5H1211.5L1211.41 265.508C1211.18 265.55 1211 265.755 1211 266C1211 266.276 1211.22 266.5 1211.5 266.5H1220.5L1220.59 266.492C1220.82 266.45 1221 266.245 1221 266Z" fill="#333333"/>
</svg>