<svg width="16" height="16" viewBox="0 0 16 16" fill="none" xmlns="http://www.w3.org/2000/svg">
  <path transform="translate(-620, -420)" d="M623.2 429.4C622.9 429.8 623 430.5 623.4 430.8C623.8 431.1 624.5 431 624.8 430.6L627.1 427.5L629.3 429.7C629.7 430.1 630.5 430 630.8 429.5L632.8 426.5C633.1 426 633 425.4 632.5 425.1C632 424.8 631.4 424.9 631.1 425.4L629.8 427.4L627.7 425.3C627.3 424.9 626.6 424.9 626.2 425.4L623.2 429.4Z" fill="#333333"/>
  <path transform="translate(-620, -420)" fill-rule="evenodd" clip-rule="evenodd" d="M635 436H621C620.4 436 620 435.6 620 435V421C620 420.4 620.4 420 621 420H635C635.6 420 636 420.4 636 421V435C636 435.6 635.6 436 635 436ZM622 434H634V422H622V434Z" fill="#333333"/>
</svg>