<svg width="16" height="16" viewBox="0 0 16 16" fill="none" xmlns="http://www.w3.org/2000/svg">
  <path transform="translate(-116, -420)" d="M125.9 429.8C125.717 430.043 125.362 430.069 125.146 429.854L122.554 427.261L119.9 430.8C119.734 431.021 119.421 431.066 119.2 430.9C118.979 430.734 118.934 430.421 119.1 430.2L122.1 426.2C122.283 425.957 122.638 425.931 122.854 426.146L125.446 428.739L128.1 425.2C128.266 424.979 128.579 424.934 128.8 425.1C129.021 425.266 129.066 425.579 128.9 425.8L125.9 429.8Z" fill="#333333"/>
  <path transform="translate(-116, -420)" fill-rule="evenodd" clip-rule="evenodd" d="M130.5 420H117.5C116.672 420 116 420.672 116 421.5V434.5C116 435.328 116.672 436 117.5 436H130.5C131.328 436 132 435.328 132 434.5V421.5C132 420.672 131.328 420 130.5 420ZM117 421.5C117 421.224 117.224 421 117.5 421H130.5C130.776 421 131 421.224 131 421.5V434.5C131 434.776 130.776 435 130.5 435H117.5C117.224 435 117 434.776 117 434.5V421.5Z" fill="#333333"/>
</svg>