<svg width="16" height="16" viewBox="0 0 16 16" fill="none" xmlns="http://www.w3.org/2000/svg">
  <path transform="translate(-116, -588)" d="M126.146 601.354C125.951 601.158 125.951 600.842 126.146 600.646L130.293 596.5H116.5C116.224 596.5 116 596.276 116 596C116 595.724 116.224 595.5 116.5 595.5H130.293L126.146 591.354C125.951 591.158 125.951 590.842 126.146 590.646C126.342 590.451 126.658 590.451 126.854 590.646L131.854 595.646C131.901 595.694 131.938 595.75 131.962 595.809C131.987 595.868 132 595.932 132 596C132 596.068 131.987 596.132 131.962 596.191C131.938 596.25 131.901 596.306 131.854 596.354L126.854 601.354C126.658 601.549 126.342 601.549 126.146 601.354Z" fill="#333333"/>
</svg>