<svg width="16" height="16" viewBox="0 0 16 16" fill="none" xmlns="http://www.w3.org/2000/svg">
  <path transform="translate(-1240, -1092)" fill-rule="evenodd" clip-rule="evenodd" d="M1243.15 1092.15C1243.34 1091.95 1243.66 1091.95 1243.85 1092.15L1246.85 1095.15C1247.05 1095.34 1247.05 1095.66 1246.85 1095.85C1246.66 1096.05 1246.34 1096.05 1246.15 1095.85L1244 1093.71V1104.5C1244 1104.78 1243.78 1105 1243.5 1105C1243.22 1105 1243 1104.78 1243 1104.5V1093.71L1240.85 1095.85C1240.66 1096.05 1240.34 1096.05 1240.15 1095.85C1239.95 1095.66 1239.95 1095.34 1240.15 1095.15L1243.15 1092.15ZM1252.5 1095C1252.78 1095 1253 1095.22 1253 1095.5V1106.29L1255.15 1104.15C1255.34 1103.95 1255.66 1103.95 1255.85 1104.15C1256.05 1104.34 1256.05 1104.66 1255.85 1104.85L1252.85 1107.85C1252.66 1108.05 1252.34 1108.05 1252.15 1107.85L1249.15 1104.85C1248.95 1104.66 1248.95 1104.34 1249.15 1104.15C1249.34 1103.95 1249.66 1103.95 1249.85 1104.15L1252 1106.29V1095.5C1252 1095.22 1252.22 1095 1252.5 1095Z" fill="#333333"/>
</svg>