<svg width="16" height="16" viewBox="0 0 16 16" fill="none" xmlns="http://www.w3.org/2000/svg">
  <path transform="translate(-116, -252)" d="M123.5 266.293V252.5C123.5 252.224 123.724 252 124 252C124.276 252 124.5 252.224 124.5 252.5V266.293L128.646 262.146C128.842 261.951 129.158 261.951 129.354 262.146C129.549 262.342 129.549 262.658 129.354 262.854L124.354 267.854C124.306 267.901 124.25 267.938 124.191 267.962C124.132 267.987 124.068 268 124 268C123.932 268 123.868 267.987 123.809 267.962C123.75 267.938 123.694 267.901 123.646 267.854L118.646 262.854C118.451 262.658 118.451 262.342 118.646 262.146C118.842 261.951 119.158 261.951 119.354 262.146L123.5 266.293Z" fill="#333333"/>
</svg>