<svg width="16" height="16" viewBox="0 0 16 16" fill="none" xmlns="http://www.w3.org/2000/svg">
  <path transform="translate(-4580, -1426)" fill-rule="evenodd" clip-rule="evenodd" d="M4582.24 1428.56C4584.76 1426.02 4588.56 1425.27 4591.85 1426.65C4594.6 1427.77 4596.27 1430.57 4595.97 1433.5C4595.81 1436.05 4594.93 1437.74 4593 1437.89C4591.7 1437.99 4590.97 1437.46 4590.57 1436.44L4590.53 1436.35L4590.52 1436.38C4589.45 1437.7 4587.65 1438.31 4586.16 1437.63L4585.99 1437.55C4584.31 1436.65 4584.02 1434.68 4584.69 1432.71C4585.49 1430.35 4587.61 1429.08 4591.19 1430.17C4591.42 1430.24 4591.57 1430.47 4591.54 1430.71C4591.34 1432.14 4591.24 1433.57 4591.21 1434.93C4591.41 1436.33 4591.82 1436.98 4592.93 1436.9C4594.14 1436.8 4594.79 1435.64 4594.96 1433.66L4594.98 1433.41C4595.23 1430.91 4593.81 1428.53 4591.47 1427.57C4588.55 1426.35 4585.18 1427.01 4582.98 1429.23C4580.69 1431.89 4580.2 1436.3 4582.47 1438.92C4584.58 1441.35 4588.66 1441.47 4591.69 1440.32C4591.95 1440.22 4592.24 1440.35 4592.34 1440.6C4592.44 1440.86 4592.31 1441.15 4592.05 1441.25C4588.67 1442.54 4584.17 1442.4 4581.72 1439.57C4579.08 1436.54 4579.63 1431.59 4582.24 1428.56ZM4590.38 1430.98C4587.68 1430.32 4586.24 1431.26 4585.64 1433.03C4585.11 1434.59 4585.32 1436.06 4586.46 1436.67C4587.75 1437.35 4589.55 1436.52 4590.18 1435L4590.22 1434.9L4590.24 1434.26C4590.27 1433.27 4590.34 1432.29 4590.46 1431.31L4590.49 1431.01L4590.38 1430.98Z" fill="#333333"/>
</svg>