<svg width="16" height="16" viewBox="0 0 16 16" fill="none" xmlns="http://www.w3.org/2000/svg">
  <path transform="translate(-5084, -1426)" fill-rule="evenodd" clip-rule="evenodd" d="M5099.44 1435.69C5099.05 1437.08 5097.81 1438.07 5096.37 1438.13C5095.4 1438.18 5094.52 1437.55 5094.27 1436.61C5093.61 1437.56 5092.54 1438.13 5091.39 1438.13C5090.45 1438.18 5089.53 1437.8 5088.89 1437.11C5088.25 1436.33 5087.92 1435.34 5087.98 1434.34C5087.93 1433.13 5088.36 1431.95 5089.19 1431.07C5090.49 1429.73 5092.23 1429.68 5094.08 1429.95C5094.63 1430.03 5095.16 1430.15 5095.69 1430.32C5095.67 1430.71 5095.47 1434.72 5095.47 1435.09C5095.47 1436.13 5095.81 1436.65 5096.49 1436.65C5097 1436.65 5097.41 1436.32 5097.71 1435.65C5098.39 1433.87 5098.31 1431.89 5097.48 1430.18C5096.5 1428.46 5094.63 1427.44 5092.65 1427.56C5090.18 1427.39 5087.85 1428.69 5086.69 1430.87C5086.13 1432.02 5085.85 1433.29 5085.88 1434.57C5085.88 1438.22 5087.83 1440.44 5091.73 1440.44C5093.27 1440.42 5094.8 1440.12 5096.23 1439.56V1441.16C5094.81 1441.73 5093.3 1442.02 5091.77 1442C5087.1 1442 5084.12 1439.42 5084.12 1434.63C5084.09 1433.05 5084.47 1431.49 5085.21 1430.1C5086.72 1427.44 5089.58 1425.86 5092.63 1426C5095.2 1425.87 5097.65 1427.17 5098.97 1429.38C5099.99 1431.33 5100.16 1433.61 5099.44 1435.69ZM5089.85 1434.38C5089.85 1435.89 5090.44 1436.65 5091.63 1436.65C5092.89 1436.65 5093.58 1435.7 5093.69 1433.79L5093.81 1431.46C5092.69 1431.03 5091.41 1431.29 5090.55 1432.12C5090.05 1432.77 5089.8 1433.57 5089.85 1434.38Z" fill="#333333"/>
</svg>