<svg width="16" height="16" viewBox="0 0 16 16" fill="none" xmlns="http://www.w3.org/2000/svg">
  <path transform="translate(-3960, -1260)" fill-rule="evenodd" clip-rule="evenodd" d="M3968 1260C3963.6 1260 3960 1263.6 3960 1268C3960 1272.4 3963.6 1276 3968 1276C3972.4 1276 3976 1272.4 3976 1268C3976 1263.6 3972.4 1260 3968 1260ZM3968 1262C3969.3 1262 3970.5 1262.4 3971.5 1263.1L3963.1 1271.5C3962.4 1270.5 3962 1269.3 3962 1268C3962 1264.7 3964.7 1262 3968 1262ZM3968 1274C3966.7 1274 3965.5 1273.6 3964.5 1272.9L3972.9 1264.5C3973.6 1265.5 3974 1266.7 3974 1268C3974 1271.3 3971.3 1274 3968 1274Z" fill="#333333"/>
</svg>