<svg width="16" height="16" viewBox="0 0 16 16" fill="none" xmlns="http://www.w3.org/2000/svg">
  <path transform="translate(-3456, -1260)" fill-rule="evenodd" clip-rule="evenodd" d="M3472 1268C3472 1272.42 3468.42 1276 3464 1276C3459.58 1276 3456 1272.42 3456 1268C3456 1263.58 3459.58 1260 3464 1260C3468.42 1260 3472 1263.58 3472 1268ZM3459.42 1273.29C3460.64 1274.36 3462.25 1275 3464 1275C3467.87 1275 3471 1271.87 3471 1268C3471 1266.25 3470.36 1264.64 3469.29 1263.42L3459.42 1273.29ZM3458.71 1272.58L3468.58 1262.71C3467.36 1261.64 3465.75 1261 3464 1261C3460.13 1261 3457 1264.13 3457 1268C3457 1269.75 3457.64 1271.36 3458.71 1272.58Z" fill="#333333"/>
</svg>