<svg width="16" height="16" viewBox="0 0 16 16" fill="none" xmlns="http://www.w3.org/2000/svg">
  <path transform="translate(-116, -588)" fill-rule="evenodd" clip-rule="evenodd" d="M116 597.5C116 597.224 116.224 597 116.5 597H119.5C119.776 597 120 597.224 120 597.5V602.5C120 602.776 119.776 603 119.5 603H116.5C116.224 603 116 602.776 116 602.5V597.5ZM117 598V602H119V598H117Z" fill="#333333"/>
  <path transform="translate(-116, -588)" fill-rule="evenodd" clip-rule="evenodd" d="M122 593.5C122 593.224 122.224 593 122.5 593H125.5C125.776 593 126 593.224 126 593.5V602.5C126 602.776 125.776 603 125.5 603H122.5C122.224 603 122 602.776 122 602.5V593.5ZM123 602H125V594H123V602Z" fill="#333333"/>
  <path transform="translate(-116, -588)" fill-rule="evenodd" clip-rule="evenodd" d="M128.5 589C128.224 589 128 589.224 128 589.5V602.5C128 602.776 128.224 603 128.5 603H131.5C131.776 603 132 602.776 132 602.5V589.5C132 589.224 131.776 589 131.5 589H128.5ZM129 602V590H131V602H129Z" fill="#333333"/>
</svg>