<svg width="16" height="16" viewBox="0 0 16 16" fill="none" xmlns="http://www.w3.org/2000/svg">
  <path transform="translate(-588, -84)" d="M602.5 95H603C603.6 95 604 95.4 604 96C604 96.6 603.6 97 603 97H589C588.4 97 588 96.6 588 96C588 95.4 588.4 95 589 95H589.5C590.2 94.3 591 93.3 591 92V89C591 86.2 593.2 84 596 84C598.8 84 601 86.2 601 89V92C601 93.3 601.8 94.3 602.5 95Z" fill="#333333"/>
  <path transform="translate(-588, -84)" d="M596 100C594.9 100 594 99.1 594 98H598C598 99.1 597.1 100 596 100Z" fill="#333333"/>
</svg>