<svg width="16" height="16" viewBox="0 0 16 16" fill="none" xmlns="http://www.w3.org/2000/svg">
  <path transform="translate(-84, -84)" fill-rule="evenodd" clip-rule="evenodd" d="M97 93.5C97 94.2203 98.049 95 99 95H99.5C99.7761 95 100 95.2239 100 95.5C100 95.7761 99.7761 96 99.5 96H84.5C84.2239 96 84 95.7761 84 95.5C84 95.2239 84.2239 95 84.5 95H85.5C86.3289 95 87 94.3289 87 93.5V89C87 86.2389 89.2389 84 92 84C94.7611 84 97 86.2389 97 89V93.5ZM87.5004 95H96.6746C96.2634 94.5779 96 94.0556 96 93.5V89C96 86.7911 94.2089 85 92 85C89.7911 85 88 86.7911 88 89V93.5C88 94.0629 87.8142 94.5822 87.5004 95Z" fill="#333333"/>
  <path transform="translate(-84, -84)" d="M93.5 97.5C93.5 98.3289 92.8289 99 92 99C91.1711 99 90.5 98.3289 90.5 97.5C90.5 97.2239 90.2761 97 90 97C89.7239 97 89.5 97.2239 89.5 97.5C89.5 98.8811 90.6189 100 92 100C93.3811 100 94.5 98.8811 94.5 97.5C94.5 97.2239 94.2761 97 94 97C93.7239 97 93.5 97.2239 93.5 97.5Z" fill="#333333"/>
</svg>