<svg width="16" height="16" viewBox="0 0 16 16" fill="none" xmlns="http://www.w3.org/2000/svg">
  <path transform="translate(-1712, -420)" d="M1717 422H1713V424H1717V422Z" fill="#333333"/>
  <path transform="translate(-1712, -420)" fill-rule="evenodd" clip-rule="evenodd" d="M1724 420.8L1725.9 429.3C1727.1 429.8 1728 431.1 1728 432.5C1728 434.4 1726.4 436 1724.5 436C1722.6 436 1721 434.4 1721 432.5C1721 430.8 1722.2 429.4 1723.8 429.1L1723.3 427H1717V428.1C1718.7 428.6 1720 430.1 1720 432C1720 434.2 1718.2 436 1716 436C1713.8 436 1712 434.2 1712 432C1712 430.1 1713.3 428.5 1715 428.1V426C1715 425.4 1715.4 425 1716 425H1722.9L1722.2 422H1719V420H1723C1723.5 420 1723.9 420.3 1724 420.8ZM1716 434C1717.1 434 1718 433.1 1718 432C1718 430.9 1717.1 430 1716 430C1714.9 430 1714 430.9 1714 432C1714 433.1 1714.9 434 1716 434ZM1724.5 434C1723.7 434 1723 433.3 1723 432.5C1723 431.7 1723.7 431 1724.5 431C1725.3 431 1726 431.7 1726 432.5C1726 433.3 1725.3 434 1724.5 434Z" fill="#333333"/>
</svg>