<svg width="16" height="16" viewBox="0 0 16 16" fill="none" xmlns="http://www.w3.org/2000/svg">
  <path transform="translate(-1208, -420)" d="M1212.5 424C1212.61 424 1212.71 424.034 1212.79 424.095L1212.85 424.146L1214.85 426.146C1215.05 426.342 1215.05 426.658 1214.85 426.854C1214.68 427.027 1214.41 427.046 1214.22 426.911L1214.15 426.854L1212.29 425H1210.5C1210.25 425 1210.05 424.823 1210.01 424.59L1210 424.5C1210 424.255 1210.18 424.05 1210.41 424.008L1210.5 424H1212.5Z" fill="#333333"/>
  <path transform="translate(-1208, -420)" fill-rule="evenodd" clip-rule="evenodd" d="M1217.95 421.28C1217.87 421.111 1217.69 421 1217.5 421H1214.5L1214.41 421.008C1214.18 421.05 1214 421.255 1214 421.5L1214.01 421.59C1214.05 421.823 1214.25 422 1214.5 422H1217.13L1218.12 425.295L1213.83 428.89C1213.21 428.337 1212.4 428 1211.5 428C1209.57 428 1208 429.567 1208 431.5C1208 433.433 1209.57 435 1211.5 435C1213.43 435 1215 433.433 1215 431.5C1215 430.823 1214.81 430.191 1214.48 429.656L1218.43 426.338L1219.03 428.325C1217.83 428.881 1217 430.094 1217 431.5C1217 433.433 1218.57 435 1220.5 435C1222.43 435 1224 433.433 1224 431.5C1224 429.567 1222.43 428 1220.5 428C1220.32 428 1220.15 428.013 1219.98 428.038L1219.17 425.339C1219.17 425.328 1219.17 425.316 1219.16 425.305L1217.98 421.356L1217.95 421.28ZM1213.05 429.542L1211.18 431.117L1211.11 431.181C1210.96 431.363 1210.96 431.633 1211.12 431.821C1211.29 432.033 1211.61 432.061 1211.82 431.883L1213.7 430.308C1213.89 430.662 1214 431.068 1214 431.5C1214 432.881 1212.88 434 1211.5 434C1210.12 434 1209 432.881 1209 431.5C1209 430.119 1210.12 429 1211.5 429C1212.09 429 1212.63 429.203 1213.05 429.542ZM1219.32 429.297L1220.02 431.644L1220.05 431.727C1220.16 431.939 1220.41 432.049 1220.64 431.979C1220.91 431.9 1221.06 431.621 1220.98 431.356L1220.28 429.01C1220.35 429.003 1220.42 429 1220.5 429C1221.88 429 1223 430.119 1223 431.5C1223 432.881 1221.88 434 1220.5 434C1219.12 434 1218 432.881 1218 431.5C1218 430.547 1218.53 429.719 1219.32 429.297Z" fill="#333333"/>
</svg>