<svg width="16" height="16" viewBox="0 0 16 16" fill="none" xmlns="http://www.w3.org/2000/svg">
  <path transform="translate(-1208, -756)" fill-rule="evenodd" clip-rule="evenodd" d="M1216.5 757C1218.43 757 1220 758.567 1220 760.5C1220 761.527 1219.56 762.451 1218.85 763.091C1220.65 763.482 1222 765.084 1222 767C1222 769.142 1220.32 770.891 1218.2 770.995L1218 771H1210.5C1210.22 771 1210 770.776 1210 770.5C1210 770.255 1210.18 770.05 1210.41 770.008L1210.5 770H1212V758H1210.5C1210.22 758 1210 757.776 1210 757.5C1210 757.255 1210.18 757.05 1210.41 757.008L1210.5 757H1216.5ZM1213 758H1216.5L1216.66 758.005C1217.97 758.09 1219 759.175 1219 760.5C1219 761.881 1217.88 763 1216.5 763H1213V758ZM1213 764V770H1218C1219.66 770 1221 768.657 1221 767C1221 765.402 1219.75 764.096 1218.18 764.005L1218 764H1213Z" fill="#333333"/>
</svg>