<svg width="16" height="16" viewBox="0 0 16 16" fill="none" xmlns="http://www.w3.org/2000/svg">
  <path transform="translate(-1712, -756)" fill-rule="evenodd" clip-rule="evenodd" d="M1723.56 763.316C1724.53 762.609 1725.12 761.428 1724.98 760.109C1724.78 758.305 1723.14 757 1721.33 757H1714V758L1715.45 758.724C1715.79 758.893 1716 759.239 1716 759.618V768.382C1716 768.761 1715.79 769.107 1715.45 769.276L1714 770V771H1721.82C1723.93 771 1725.8 769.453 1725.98 767.357C1726.14 765.551 1725.1 763.968 1723.56 763.316ZM1719 759H1720C1721.1 759 1722 759.895 1722 761C1722 762.105 1721.1 763 1720 763H1719V759ZM1721 769H1719V765H1721C1722.1 765 1723 765.895 1723 767C1723 768.105 1722.1 769 1721 769Z" fill="#333333"/>
</svg>