<svg width="16" height="16" viewBox="0 0 16 16" fill="none" xmlns="http://www.w3.org/2000/svg">
  <path transform="translate(-84, -756)" fill-rule="evenodd" clip-rule="evenodd" d="M92 769.059L97.7764 771.947C98.1088 772.113 98.5 771.872 98.5 771.5V758.5C98.5 757.119 97.3807 756 96 756H88C86.6193 756 85.5 757.119 85.5 758.5V771.5C85.5 771.872 85.8912 772.113 86.2236 771.947L92 769.059ZM86.5 770.691V758.5C86.5 757.672 87.1716 757 88 757H96C96.8284 757 97.5 757.672 97.5 758.5V770.691L92.2236 768.053C92.0828 767.982 91.9172 767.982 91.7764 768.053L86.5 770.691Z" fill="#333333"/>
</svg>