<svg width="16" height="16" viewBox="0 0 16 16" fill="none" xmlns="http://www.w3.org/2000/svg">
  <path transform="translate(-4580, -1090)" d="M4590.75 1091.8C4590.27 1090.71 4589.19 1090 4588 1090C4586.81 1090 4585.73 1090.71 4585.25 1091.8C4585.14 1092.05 4585.25 1092.35 4585.51 1092.46C4585.76 1092.57 4586.06 1092.45 4586.17 1092.2C4586.48 1091.47 4587.2 1091 4588 1091C4588.79 1091 4589.51 1091.47 4589.83 1092.2C4589.94 1092.45 4590.24 1092.57 4590.49 1092.46C4590.74 1092.35 4590.86 1092.05 4590.75 1091.8Z" fill="#333333"/>
  <path transform="translate(-4580, -1090)" fill-rule="evenodd" clip-rule="evenodd" d="M4582.02 1100H4580.5C4580.22 1100 4580 1099.78 4580 1099.5C4580 1099.26 4580.18 1099.05 4580.41 1099.01L4580.5 1099H4582.02C4582.12 1097.55 4582.66 1096.23 4583.5 1095.2L4582.15 1093.85C4581.95 1093.66 4581.95 1093.34 4582.15 1093.15C4582.32 1092.97 4582.59 1092.95 4582.78 1093.09L4582.85 1093.15L4584.19 1094.48C4585.22 1093.56 4586.55 1093 4588 1093C4589.45 1093 4590.78 1093.56 4591.81 1094.48L4593.15 1093.15C4593.34 1092.95 4593.66 1092.95 4593.85 1093.15C4594.03 1093.32 4594.05 1093.59 4593.91 1093.78L4593.85 1093.85L4592.5 1095.2C4593.34 1096.23 4593.88 1097.55 4593.98 1099H4595.5C4595.78 1099 4596 1099.22 4596 1099.5C4596 1099.75 4595.82 1099.95 4595.59 1099.99L4595.5 1100H4593.98C4593.88 1101.45 4593.34 1102.77 4592.5 1103.8L4593.85 1105.15C4594.05 1105.34 4594.05 1105.66 4593.85 1105.85C4593.68 1106.03 4593.41 1106.05 4593.22 1105.91L4593.15 1105.85L4591.81 1104.52C4590.78 1105.44 4589.45 1106 4588 1106C4586.55 1106 4585.22 1105.44 4584.19 1104.52L4582.85 1105.85C4582.66 1106.05 4582.34 1106.05 4582.15 1105.85C4581.97 1105.68 4581.95 1105.41 4582.09 1105.22L4582.15 1105.15L4583.5 1103.8C4582.66 1102.77 4582.12 1101.45 4582.02 1100ZM4588 1094C4589.33 1094 4590.54 1094.57 4591.44 1095.51C4591.45 1095.52 4591.46 1095.53 4591.46 1095.54L4591.47 1095.54C4592.41 1096.54 4593 1097.94 4593 1099.5C4593 1101.06 4592.41 1102.46 4591.47 1103.46L4591.46 1103.46C4591.46 1103.47 4591.45 1103.48 4591.44 1103.49C4590.54 1104.43 4589.33 1105 4588 1105C4586.67 1105 4585.46 1104.43 4584.56 1103.49C4584.55 1103.48 4584.54 1103.47 4584.54 1103.46L4584.53 1103.46C4583.59 1102.46 4583 1101.06 4583 1099.5C4583 1097.94 4583.59 1096.54 4584.53 1095.54L4584.54 1095.54C4584.54 1095.53 4584.55 1095.52 4584.56 1095.51C4585.46 1094.57 4586.67 1094 4588 1094Z" fill="#333333"/>
</svg>