<svg width="16" height="16" viewBox="0 0 16 16" fill="none" xmlns="http://www.w3.org/2000/svg">
  <path transform="translate(-5084, -1090)" fill-rule="evenodd" clip-rule="evenodd" d="M5099.53 1099.84V1097.95H5097.65C5097.55 1097.2 5097.36 1096.54 5097.08 1095.88L5098.96 1094.28L5097.74 1092.87L5096.05 1094.28C5095.76 1094 5095.48 1093.72 5095.2 1093.44C5095.29 1092.02 5093.69 1090.42 5092 1090.42C5090.31 1090.42 5088.71 1092.02 5088.71 1093.44C5088.42 1093.72 5088.14 1093.91 5087.86 1094.28L5086.26 1092.87L5085.04 1094.28L5086.92 1095.88C5086.64 1096.54 5086.45 1097.2 5086.35 1097.95H5084.47V1099.84H5086.35C5086.45 1100.78 5086.82 1101.72 5087.2 1102.56L5085.69 1103.88L5086.92 1105.29L5088.33 1104.07C5089.27 1105.01 5090.59 1105.58 5091.91 1105.58C5093.22 1105.58 5094.54 1105.01 5095.48 1104.07L5096.89 1105.29L5098.12 1103.88L5096.61 1102.56C5097.27 1101.72 5097.55 1100.78 5097.65 1099.84H5099.53Z" fill="#333333"/>
</svg>