<svg width="16" height="16" viewBox="0 0 16 16" fill="none" xmlns="http://www.w3.org/2000/svg">
  <path transform="translate(-1712, -252)" fill-rule="evenodd" clip-rule="evenodd" d="M1725.33 252.888H1714.67C1713.69 252.891 1712.89 253.685 1712.89 254.665V264.443C1712.87 264.683 1712.96 264.918 1713.13 265.088C1713.3 265.258 1713.54 265.347 1713.78 265.332V266.221C1713.76 266.461 1713.85 266.695 1714.02 266.865C1714.19 267.035 1714.43 267.124 1714.67 267.11H1716.44C1716.68 267.124 1716.92 267.035 1717.09 266.865C1717.26 266.695 1717.35 266.461 1717.33 266.221V265.332H1722.67V266.221C1722.65 266.461 1722.74 266.695 1722.91 266.865C1723.08 267.035 1723.32 267.124 1723.56 267.11H1725.33C1725.57 267.124 1725.81 267.035 1725.98 266.865C1726.15 266.695 1726.24 266.461 1726.22 266.221V265.332C1726.46 265.347 1726.7 265.258 1726.87 265.088C1727.04 264.918 1727.13 264.683 1727.11 264.443V254.665C1727.11 253.685 1726.31 252.891 1725.33 252.888ZM1717.33 263.554H1714.67V261.777H1717.33V263.554ZM1725.33 263.554H1722.67V261.777H1725.33V263.554ZM1725.33 259.999H1714.67V254.665H1725.33V259.999Z" fill="#333333"/>
</svg>