<svg width="16" height="16" viewBox="0 0 16 16" fill="none" xmlns="http://www.w3.org/2000/svg">
  <path transform="translate(-1208, -252)" d="M1213 263.5C1213 263.224 1212.78 263 1212.5 263H1210.5L1210.41 263.008C1210.18 263.05 1210 263.255 1210 263.5C1210 263.776 1210.22 264 1210.5 264H1212.5L1212.59 263.992C1212.82 263.95 1213 263.745 1213 263.5Z" fill="#333333"/>
  <path transform="translate(-1208, -252)" d="M1219 254.5C1219 254.224 1218.78 254 1218.5 254H1213.5L1213.41 254.008C1213.18 254.05 1213 254.255 1213 254.5C1213 254.776 1213.22 255 1213.5 255H1218.5L1218.59 254.992C1218.82 254.95 1219 254.745 1219 254.5Z" fill="#333333"/>
  <path transform="translate(-1208, -252)" fill-rule="evenodd" clip-rule="evenodd" d="M1221.5 252H1210.5C1209.12 252 1208 253.119 1208 254.5V267.5L1208.01 267.59C1208.05 267.823 1208.25 268 1208.5 268H1211.5L1211.59 267.992C1211.82 267.95 1212 267.745 1212 267.5V266H1220V267.5L1220.01 267.59C1220.05 267.823 1220.25 268 1220.5 268H1223.5L1223.59 267.992C1223.82 267.95 1224 267.745 1224 267.5V254.5C1224 253.119 1222.88 252 1221.5 252ZM1209 265V262H1223V265H1209ZM1209 261H1223V254.5C1223 253.72 1222.41 253.08 1221.64 253.007L1221.5 253H1210.5C1209.67 253 1209 253.672 1209 254.5V261ZM1221 266V267H1223V266H1221ZM1211 267V266H1209V267H1211Z" fill="#333333"/>
  <path transform="translate(-1208, -252)" d="M1221.5 263C1221.78 263 1222 263.224 1222 263.5C1222 263.745 1221.82 263.95 1221.59 263.992L1221.5 264H1219.5C1219.22 264 1219 263.776 1219 263.5C1219 263.255 1219.18 263.05 1219.41 263.008L1219.5 263H1221.5Z" fill="#333333"/>
</svg>