<svg width="16" height="16" viewBox="0 0 16 16" fill="none" xmlns="http://www.w3.org/2000/svg">
  <path transform="translate(-84, -84)" fill-rule="evenodd" clip-rule="evenodd" d="M87.5 91C87.2239 91 87 91.2239 87 91.5V93.5C87 93.7761 87.2239 94 87.5 94H91.5C91.7761 94 92 93.7761 92 93.5V91.5C92 91.2239 91.7761 91 91.5 91H87.5ZM88 93V92H91V93H88Z" fill="#333333"/>
  <path transform="translate(-84, -84)" fill-rule="evenodd" clip-rule="evenodd" d="M87 95.5C87 95.2239 87.2239 95 87.5 95H91.5C91.7761 95 92 95.2239 92 95.5V97.5C92 97.7761 91.7761 98 91.5 98H87.5C87.2239 98 87 97.7761 87 97.5V95.5ZM88 96V97H91V96H88Z" fill="#333333"/>
  <path transform="translate(-84, -84)" fill-rule="evenodd" clip-rule="evenodd" d="M87 86.5C87 86.2239 87.2239 86 87.5 86H96.5C96.7761 86 97 86.2239 97 86.5V89.5C97 89.7761 96.7761 90 96.5 90H87.5C87.2239 90 87 89.7761 87 89.5V86.5ZM88 87V89H96V87H88Z" fill="#333333"/>
  <path transform="translate(-84, -84)" fill-rule="evenodd" clip-rule="evenodd" d="M86.5 84H97.5C98.3284 84 99 84.6716 99 85.5V98.5C99 99.3284 98.3284 100 97.5 100H86.5C85.6716 100 85 99.3284 85 98.5V85.5C85 84.6716 85.6716 84 86.5 84ZM86.5 85C86.2239 85 86 85.2239 86 85.5V98.5C86 98.7761 86.2239 99 86.5 99H97.5C97.7761 99 98 98.7761 98 98.5V85.5C98 85.2239 97.7761 85 97.5 85H86.5Z" fill="#333333"/>
  <path transform="translate(-84, -84)" fill-rule="evenodd" clip-rule="evenodd" d="M93.5 91C93.2239 91 93 91.2239 93 91.5V97.5C93 97.7761 93.2239 98 93.5 98H96.5C96.7761 98 97 97.7761 97 97.5V91.5C97 91.2239 96.7761 91 96.5 91H93.5ZM94 97V92H96V97H94Z" fill="#333333"/>
</svg>