<svg width="16" height="16" viewBox="0 0 16 16" fill="none" xmlns="http://www.w3.org/2000/svg">
  <path transform="translate(-1208, -1764)" fill-rule="evenodd" clip-rule="evenodd" d="M1212.99 1764.41C1212.95 1764.18 1212.75 1764 1212.5 1764C1212.22 1764 1212 1764.22 1212 1764.5V1766H1209.5L1209.36 1766.01C1208.59 1766.08 1208 1766.72 1208 1767.5V1778.5L1208.01 1778.64C1208.08 1779.41 1208.72 1780 1209.5 1780H1214.5L1214.59 1779.99C1214.82 1779.95 1215 1779.75 1215 1779.5C1215 1779.22 1214.78 1779 1214.5 1779H1209.5L1209.41 1778.99C1209.18 1778.95 1209 1778.75 1209 1778.5V1770H1223.5C1223.53 1770 1223.57 1770 1223.6 1769.99C1223.83 1769.94 1224 1769.74 1224 1769.5V1767.5L1223.99 1767.36C1223.92 1766.59 1223.28 1766 1222.5 1766H1220V1764.5L1219.99 1764.41C1219.95 1764.18 1219.75 1764 1219.5 1764C1219.22 1764 1219 1764.22 1219 1764.5V1766H1213V1764.5L1212.99 1764.41ZM1222.5 1767L1222.59 1767.01C1222.82 1767.05 1223 1767.25 1223 1767.5V1769H1209V1767.5L1209.01 1767.41C1209.05 1767.18 1209.25 1767 1209.5 1767H1222.5Z" fill="#333333"/>
  <path transform="translate(-1208, -1764)" d="M1219.5 1773C1219.75 1773 1219.95 1773.18 1219.99 1773.41L1220 1773.5V1775H1221.5C1221.78 1775 1222 1775.22 1222 1775.5C1222 1775.75 1221.82 1775.95 1221.59 1775.99L1221.5 1776H1220V1777.5C1220 1777.78 1219.78 1778 1219.5 1778C1219.25 1778 1219.05 1777.82 1219.01 1777.59L1219 1777.5V1776H1217.5C1217.22 1776 1217 1775.78 1217 1775.5C1217 1775.25 1217.18 1775.05 1217.41 1775.01L1217.5 1775H1219V1773.5C1219 1773.22 1219.22 1773 1219.5 1773Z" fill="#333333"/>
  <path transform="translate(-1208, -1764)" fill-rule="evenodd" clip-rule="evenodd" d="M1219.5 1771C1217.01 1771 1215 1773.01 1215 1775.5C1215 1777.99 1217.01 1780 1219.5 1780C1221.99 1780 1224 1777.99 1224 1775.5C1224 1773.01 1221.99 1771 1219.5 1771ZM1219.5 1772C1221.43 1772 1223 1773.57 1223 1775.5C1223 1777.43 1221.43 1779 1219.5 1779C1217.57 1779 1216 1777.43 1216 1775.5C1216 1773.57 1217.57 1772 1219.5 1772Z" fill="#333333"/>
</svg>