<svg width="16" height="16" viewBox="0 0 16 16" fill="none" xmlns="http://www.w3.org/2000/svg">
  <path transform="translate(-1712, -1764)" d="M1721 1773H1723V1775H1721V1777H1719V1775H1717V1773H1719V1771H1721V1773Z" fill="#333333"/>
  <path transform="translate(-1712, -1764)" fill-rule="evenodd" clip-rule="evenodd" d="M1727 1766H1725V1764H1723V1766H1721V1764H1719V1766H1717V1764H1715V1766H1713C1712.45 1766 1712 1766.45 1712 1767V1779C1712 1779.55 1712.45 1780 1713 1780H1727C1727.55 1780 1728 1779.55 1728 1779V1767C1728 1766.45 1727.55 1766 1727 1766ZM1726 1778H1714V1769H1726V1778Z" fill="#333333"/>
</svg>