<svg width="16" height="16" viewBox="0 0 16 16" fill="none" xmlns="http://www.w3.org/2000/svg">
  <path transform="translate(-1712, -1596)" d="M1719 1612C1718.74 1612 1718.49 1611.9 1718.29 1611.71L1716.29 1609.71L1717.71 1608.29L1719 1609.59L1722.29 1606.29L1723.71 1607.71L1719.71 1611.71C1719.51 1611.9 1719.26 1612 1719 1612Z" fill="#333333"/>
  <path transform="translate(-1712, -1596)" d="M1727 1598H1725V1596H1722V1598H1718V1596H1715V1598H1713C1712.45 1598 1712 1598.45 1712 1599V1611C1712 1611.55 1712.45 1612 1713 1612H1715V1610H1714V1603H1726V1610H1725V1612H1727C1727.55 1612 1728 1611.55 1728 1611V1599C1728 1598.45 1727.55 1598 1727 1598Z" fill="#333333"/>
</svg>