<svg width="16" height="16" viewBox="0 0 16 16" fill="none" xmlns="http://www.w3.org/2000/svg">
  <path transform="translate(-84, -1932)" fill-rule="evenodd" clip-rule="evenodd" d="M88 1932.5V1934H85.5C84.6719 1934 84 1934.67 84 1935.5V1946.5C84 1947.33 84.6719 1948 85.5 1948H98.5C99.3281 1948 100 1947.33 100 1946.5V1935.5C100 1934.67 99.3281 1934 98.5 1934H96V1932.5C96 1932.22 95.7761 1932 95.5 1932C95.2239 1932 95 1932.22 95 1932.5V1934H89V1932.5C89 1932.22 88.7761 1932 88.5 1932C88.2239 1932 88 1932.22 88 1932.5ZM85.5 1935C85.2241 1935 85 1935.22 85 1935.5V1937H99V1935.5C99 1935.22 98.7759 1935 98.5 1935H85.5ZM85 1938V1946.5C85 1946.78 85.2241 1947 85.5 1947H98.5C98.7759 1947 99 1946.78 99 1946.5V1938H85Z" fill="#333333"/>
</svg>