<svg width="16" height="16" viewBox="0 0 16 16" fill="none" xmlns="http://www.w3.org/2000/svg">
  <path transform="translate(-1208, -1596)" fill-rule="evenodd" clip-rule="evenodd" d="M1212.99 1596.41C1212.95 1596.18 1212.75 1596 1212.5 1596C1212.22 1596 1212 1596.22 1212 1596.5V1598H1209.5L1209.36 1598.01C1208.59 1598.08 1208 1598.72 1208 1599.5V1610.5L1208.01 1610.64C1208.08 1611.41 1208.72 1612 1209.5 1612H1214.5L1214.59 1611.99C1214.82 1611.95 1215 1611.75 1215 1611.5C1215 1611.22 1214.78 1611 1214.5 1611H1209.5L1209.41 1610.99C1209.18 1610.95 1209 1610.75 1209 1610.5V1602H1223V1604.5L1223.01 1604.59C1223.05 1604.82 1223.25 1605 1223.5 1605C1223.78 1605 1224 1604.78 1224 1604.5V1599.5L1223.99 1599.36C1223.92 1598.59 1223.28 1598 1222.5 1598H1220V1596.5L1219.99 1596.41C1219.95 1596.18 1219.75 1596 1219.5 1596C1219.22 1596 1219 1596.22 1219 1596.5V1598H1213V1596.5L1212.99 1596.41ZM1222.5 1599L1222.59 1599.01C1222.82 1599.05 1223 1599.25 1223 1599.5V1601H1209V1599.5L1209.01 1599.41C1209.05 1599.18 1209.25 1599 1209.5 1599H1222.5Z" fill="#333333"/>
  <path transform="translate(-1208, -1596)" d="M1223.91 1607.78C1224.05 1607.59 1224.03 1607.32 1223.85 1607.15C1223.66 1606.95 1223.34 1606.95 1223.15 1607.15L1219.5 1610.79L1217.85 1609.15L1217.78 1609.09C1217.59 1608.95 1217.32 1608.97 1217.15 1609.15C1216.95 1609.34 1216.95 1609.66 1217.15 1609.85L1219.15 1611.85L1219.22 1611.91C1219.41 1612.05 1219.68 1612.03 1219.85 1611.85L1223.85 1607.85L1223.91 1607.78Z" fill="#333333"/>
</svg>