<svg width="16" height="16" viewBox="0 0 16 16" fill="none" xmlns="http://www.w3.org/2000/svg">
  <path transform="translate(-588, -420)" d="M594 420H590V422H594V420Z" fill="#333333"/>
  <path transform="translate(-588, -420)" fill-rule="evenodd" clip-rule="evenodd" d="M603 423H589C588.4 423 588 423.4 588 424V435C588 435.6 588.4 436 589 436H603C603.6 436 604 435.6 604 435V424C604 423.4 603.6 423 603 423ZM597.5 433C595.6 433 594 431.4 594 429.5C594 427.6 595.6 426 597.5 426C599.4 426 601 427.6 601 429.5C601 431.4 599.4 433 597.5 433Z" fill="#333333"/>
</svg>