<svg width="16" height="16" viewBox="0 0 16 16" fill="none" xmlns="http://www.w3.org/2000/svg">
  <path transform="translate(-84, -420)" d="M86.5 421H90.5C90.7761 421 91 420.776 91 420.5C91 420.224 90.7761 420 90.5 420H86.5C86.2239 420 86 420.224 86 420.5C86 420.776 86.2239 421 86.5 421Z" fill="#333333"/>
  <path transform="translate(-84, -420)" fill-rule="evenodd" clip-rule="evenodd" d="M85.5 436H98.5C99.3281 436 100 435.328 100 434.5V424.5C100 423.672 99.3281 423 98.5 423H85.5C84.6719 423 84 423.672 84 424.5V434.5C84 435.328 84.6719 436 85.5 436ZM99 434.5C99 434.776 98.7759 435 98.5 435H85.5C85.2241 435 85 434.776 85 434.5V424.5C85 424.224 85.2241 424 85.5 424H98.5C98.7759 424 99 424.224 99 424.5V434.5Z" fill="#333333"/>
  <path transform="translate(-84, -420)" fill-rule="evenodd" clip-rule="evenodd" d="M93.5 433C95.433 433 97 431.433 97 429.5C97 427.567 95.433 426 93.5 426C91.567 426 90 427.567 90 429.5C90 431.433 91.567 433 93.5 433ZM93.5 432C92.1193 432 91 430.881 91 429.5C91 428.119 92.1193 427 93.5 427C94.8807 427 96 428.119 96 429.5C96 430.881 94.8807 432 93.5 432Z" fill="#333333"/>
</svg>