<svg width="16" height="16" viewBox="0 0 16 16" fill="none" xmlns="http://www.w3.org/2000/svg">
  <path transform="translate(-2364, -1260)" d="M2372.58 1260.12C2372.37 1259.94 2372.05 1259.96 2371.87 1260.17L2365.37 1267.67L2365.32 1267.75C2365.21 1267.93 2365.23 1268.16 2365.37 1268.33L2371.87 1275.83L2371.94 1275.89C2372.12 1276.04 2372.39 1276.04 2372.58 1275.88L2372.64 1275.81C2372.79 1275.63 2372.79 1275.36 2372.63 1275.17L2366.41 1268L2372.63 1260.83L2372.68 1260.75C2372.8 1260.55 2372.76 1260.28 2372.58 1260.12Z" fill="#333333"/>
  <path transform="translate(-2364, -1260)" d="M2378.58 1260.12C2378.37 1259.94 2378.05 1259.96 2377.87 1260.17L2371.37 1267.67L2371.32 1267.75C2371.21 1267.93 2371.23 1268.16 2371.37 1268.33L2377.87 1275.83L2377.94 1275.89C2378.12 1276.04 2378.39 1276.04 2378.58 1275.88L2378.64 1275.81C2378.79 1275.63 2378.79 1275.36 2378.63 1275.17L2372.41 1268L2378.63 1260.83L2378.68 1260.75C2378.8 1260.55 2378.76 1260.28 2378.58 1260.12Z" fill="#333333"/>
</svg>