<svg width="16" height="16" viewBox="0 0 16 16" fill="none" xmlns="http://www.w3.org/2000/svg">
  <path transform="translate(-2868, -1260)" d="M2875.24 1275.65C2875.44 1275.88 2875.72 1276 2876 1276C2876.23 1276 2876.46 1275.92 2876.65 1275.76C2877.07 1275.4 2877.12 1274.77 2876.76 1274.35L2871.32 1268L2876.76 1261.65C2877.12 1261.23 2877.07 1260.6 2876.65 1260.24C2876.23 1259.88 2875.6 1259.93 2875.24 1260.35L2869.24 1267.35C2868.92 1267.72 2868.92 1268.28 2869.24 1268.65L2875.24 1275.65Z" fill="#333333"/>
  <path transform="translate(-2868, -1260)" d="M2881.24 1275.65C2881.44 1275.88 2881.72 1276 2882 1276C2882.23 1276 2882.46 1275.92 2882.65 1275.76C2883.07 1275.4 2883.12 1274.77 2882.76 1274.35L2877.32 1268L2882.76 1261.65C2883.12 1261.23 2883.07 1260.6 2882.65 1260.24C2882.23 1259.88 2881.6 1259.93 2881.24 1260.35L2875.24 1267.35C2874.92 1267.72 2874.92 1268.28 2875.24 1268.65L2881.24 1275.65Z" fill="#333333"/>
</svg>