<svg width="16" height="16" viewBox="0 0 16 16" fill="none" xmlns="http://www.w3.org/2000/svg">
  <path transform="translate(-3488, -84)" d="M3490.06 84.1099C3489.88 83.9614 3489.61 83.9614 3489.42 84.1222L3489.36 84.1871C3489.21 84.3719 3489.21 84.642 3489.37 84.8275L3495.59 92L3489.37 99.1725L3489.32 99.2457C3489.2 99.4497 3489.24 99.7171 3489.42 99.8779C3489.63 100.059 3489.95 100.036 3490.13 99.8275L3496.63 92.3275L3496.68 92.2531C3496.79 92.0712 3496.77 91.837 3496.63 91.6725L3490.13 84.1725L3490.06 84.1099Z" fill="#333333"/>
  <path transform="translate(-3488, -84)" d="M3496.06 84.1099C3495.88 83.9614 3495.61 83.9614 3495.42 84.1222L3495.36 84.1871C3495.21 84.3719 3495.21 84.642 3495.37 84.8275L3501.59 91.999L3495.37 99.1725L3495.32 99.2457C3495.2 99.4497 3495.24 99.7171 3495.42 99.8779C3495.63 100.059 3495.95 100.036 3496.13 99.8275L3502.63 92.3275L3502.68 92.2531C3502.79 92.0712 3502.77 91.837 3502.63 91.6725L3496.13 84.1725L3496.06 84.1099Z" fill="#333333"/>
</svg>