<svg width="16" height="16" viewBox="0 0 16 16" fill="none" xmlns="http://www.w3.org/2000/svg">
  <path transform="translate(-3992, -84)" d="M3993.35 99.7592C3993.54 99.9212 3993.77 100 3994 100C3994.28 100 3994.56 99.8822 3994.76 99.6502L4000.76 92.6502C4001.08 92.2762 4001.08 91.7232 4000.76 91.3492L3994.76 84.3492C3994.4 83.9292 3993.77 83.8812 3993.35 84.2412C3992.93 84.6012 3992.88 85.2312 3993.24 85.6502L3998.68 92.0002L3993.24 98.3502C3992.88 98.7692 3992.93 99.4002 3993.35 99.7592Z" fill="#333333"/>
  <path transform="translate(-3992, -84)" d="M3999.35 99.7592C3999.54 99.9212 3999.77 100 4000 100C4000.28 100 4000.56 99.8822 4000.76 99.6512L4006.76 92.6512C4007.08 92.2772 4007.08 91.7242 4006.76 91.3502L4000.76 84.3502C4000.4 83.9292 3999.77 83.8812 3999.35 84.2412C3998.93 84.6012 3998.88 85.2312 3999.24 85.6502L4004.68 92.0002L3999.24 98.3502C3998.88 98.7692 3998.93 99.4002 3999.35 99.7592Z" fill="#333333"/>
</svg>