<svg width="16" height="16" viewBox="0 0 16 16" fill="none" xmlns="http://www.w3.org/2000/svg">
  <path transform="translate(-84, -2268)" fill-rule="evenodd" clip-rule="evenodd" d="M88 2279.5V2283C88 2283.43 88.501 2283.66 88.8254 2283.38L93.352 2279.5H98.5C99.3281 2279.5 100 2278.83 100 2278V2270C100 2269.17 99.3281 2268.5 98.5 2268.5H85.5C84.6719 2268.5 84 2269.17 84 2270V2278C84 2278.83 84.6719 2279.5 85.5 2279.5H88ZM89 2281.91V2279C89 2278.72 88.7761 2278.5 88.5 2278.5H85.5C85.2241 2278.5 85 2278.28 85 2278V2270C85 2269.72 85.2241 2269.5 85.5 2269.5H98.5C98.7759 2269.5 99 2269.72 99 2270V2278C99 2278.28 98.7759 2278.5 98.5 2278.5H93.167C93.0477 2278.5 92.9322 2278.54 92.8416 2278.62L89 2281.91Z" fill="#333333"/>
</svg>