<svg width="16" height="16" viewBox="0 0 16 16" fill="none" xmlns="http://www.w3.org/2000/svg">
  <path transform="translate(-1208, -1094)" fill-rule="evenodd" clip-rule="evenodd" d="M1211.5 1094H1208.5C1208.22 1094 1208 1094.22 1208 1094.5V1097.5C1208 1097.78 1208.22 1098 1208.5 1098H1211.5C1211.78 1098 1212 1097.78 1212 1097.5V1094.5C1212 1094.22 1211.78 1094 1211.5 1094ZM1211 1095V1097H1209V1095H1211Z" fill="#333333"/>
  <path transform="translate(-1208, -1094)" fill-rule="evenodd" clip-rule="evenodd" d="M1211.5 1100H1208.5C1208.22 1100 1208 1100.22 1208 1100.5V1103.5C1208 1103.78 1208.22 1104 1208.5 1104H1211.5C1211.78 1104 1212 1103.78 1212 1103.5V1100.5C1212 1100.22 1211.78 1100 1211.5 1100ZM1211 1101V1103H1209V1101H1211Z" fill="#333333"/>
  <path transform="translate(-1208, -1094)" fill-rule="evenodd" clip-rule="evenodd" d="M1208.5 1106H1211.5C1211.78 1106 1212 1106.22 1212 1106.5V1109.5C1212 1109.78 1211.78 1110 1211.5 1110H1208.5C1208.22 1110 1208 1109.78 1208 1109.5V1106.5C1208 1106.22 1208.22 1106 1208.5 1106ZM1211 1109V1107H1209V1109H1211Z" fill="#333333"/>
  <path transform="translate(-1208, -1094)" d="M1224 1096.5C1224 1096.22 1223.78 1096 1223.5 1096H1214.5L1214.41 1096.01C1214.18 1096.05 1214 1096.25 1214 1096.5C1214 1096.78 1214.22 1097 1214.5 1097H1223.5L1223.59 1096.99C1223.82 1096.95 1224 1096.75 1224 1096.5Z" fill="#333333"/>
  <path transform="translate(-1208, -1094)" d="M1223.5 1102C1223.78 1102 1224 1102.22 1224 1102.5C1224 1102.75 1223.82 1102.95 1223.59 1102.99L1223.5 1103H1214.5C1214.22 1103 1214 1102.78 1214 1102.5C1214 1102.25 1214.18 1102.05 1214.41 1102.01L1214.5 1102H1223.5Z" fill="#333333"/>
  <path transform="translate(-1208, -1094)" d="M1224 1108.5C1224 1108.22 1223.78 1108 1223.5 1108H1214.5L1214.41 1108.01C1214.18 1108.05 1214 1108.25 1214 1108.5C1214 1108.78 1214.22 1109 1214.5 1109H1223.5L1223.59 1108.99C1223.82 1108.95 1224 1108.75 1224 1108.5Z" fill="#333333"/>
</svg>