<svg width="16" height="16" viewBox="0 0 16 16" fill="none" xmlns="http://www.w3.org/2000/svg">
  <path transform="translate(-3456, -1428)" fill-rule="evenodd" clip-rule="evenodd" d="M3472 1436C3472 1440.42 3468.42 1444 3464 1444C3459.58 1444 3456 1440.42 3456 1436C3456 1431.58 3459.58 1428 3464 1428C3468.42 1428 3472 1431.58 3472 1436ZM3457 1436C3457 1439.87 3460.13 1443 3464 1443C3467.87 1443 3471 1439.87 3471 1436C3471 1432.13 3467.87 1429 3464 1429C3460.13 1429 3457 1432.13 3457 1436Z" fill="#333333"/>
  <path transform="translate(-3456, -1428)" d="M3460.15 1435.15C3460.34 1434.95 3460.66 1434.95 3460.85 1435.15L3463 1437.29L3467.65 1432.65C3467.84 1432.45 3468.16 1432.45 3468.35 1432.65C3468.55 1432.84 3468.55 1433.16 3468.35 1433.35L3463.35 1438.35C3463.16 1438.55 3462.84 1438.55 3462.65 1438.35L3460.15 1435.85C3459.95 1435.66 3459.95 1435.34 3460.15 1435.15Z" fill="#333333"/>
</svg>