<svg width="16" height="16" viewBox="0 0 16 16" fill="none" xmlns="http://www.w3.org/2000/svg">
  <path transform="translate(-1712, -1094)" d="M1713 1094H1715C1715.6 1094 1716 1094.4 1716 1095V1097C1716 1097.6 1715.6 1098 1715 1098H1713C1712.4 1098 1712 1097.6 1712 1097V1095C1712 1094.4 1712.4 1094 1713 1094Z" fill="#333333"/>
  <path transform="translate(-1712, -1094)" d="M1715 1100H1713C1712.4 1100 1712 1100.4 1712 1101V1103C1712 1103.6 1712.4 1104 1713 1104H1715C1715.6 1104 1716 1103.6 1716 1103V1101C1716 1100.4 1715.6 1100 1715 1100Z" fill="#333333"/>
  <path transform="translate(-1712, -1094)" d="M1713 1106H1715C1715.6 1106 1716 1106.4 1716 1107V1109C1716 1109.6 1715.6 1110 1715 1110H1713C1712.4 1110 1712 1109.6 1712 1109V1107C1712 1106.4 1712.4 1106 1713 1106Z" fill="#333333"/>
  <path transform="translate(-1712, -1094)" d="M1728 1095H1718V1097H1728V1095Z" fill="#333333"/>
  <path transform="translate(-1712, -1094)" d="M1728 1101H1718V1103H1728V1101Z" fill="#333333"/>
  <path transform="translate(-1712, -1094)" d="M1718 1107H1728V1109H1718V1107Z" fill="#333333"/>
</svg>