<svg width="16" height="16" viewBox="0 0 16 16" fill="none" xmlns="http://www.w3.org/2000/svg">
  <path transform="translate(-1240, -588)" d="M1242.28 589.589C1242.09 589.454 1241.82 589.473 1241.65 589.646C1241.45 589.842 1241.45 590.158 1241.65 590.354L1247.65 596.354L1247.72 596.411C1247.91 596.546 1248.18 596.527 1248.35 596.354L1254.35 590.354L1254.41 590.284C1254.55 590.089 1254.53 589.82 1254.35 589.646L1254.28 589.589C1254.09 589.454 1253.82 589.473 1253.65 589.646L1248 595.293L1242.35 589.646L1242.28 589.589Z" fill="#333333"/>
  <path transform="translate(-1240, -588)" d="M1242.28 595.589C1242.09 595.454 1241.82 595.473 1241.65 595.646C1241.45 595.842 1241.45 596.158 1241.65 596.354L1247.65 602.354L1247.72 602.411C1247.91 602.546 1248.18 602.527 1248.35 602.354L1254.35 596.354L1254.41 596.284C1254.55 596.089 1254.53 595.82 1254.35 595.646L1254.28 595.589C1254.09 595.454 1253.82 595.473 1253.65 595.646L1248 601.293L1242.35 595.646L1242.28 595.589Z" fill="#333333"/>
</svg>