<svg width="16" height="16" viewBox="0 0 16 16" fill="none" xmlns="http://www.w3.org/2000/svg">
  <path transform="translate(-4580, -924)" fill-rule="evenodd" clip-rule="evenodd" d="M4595.99 924.41C4595.95 924.177 4595.75 924 4595.5 924H4583.5L4583.41 924.008C4583.18 924.05 4583 924.255 4583 924.5V934.5L4583.01 934.59C4583.05 934.823 4583.25 935 4583.5 935L4583.59 934.992C4583.82 934.95 4584 934.745 4584 934.5V925H4595V937.5L4594.99 937.645C4594.92 938.405 4594.28 939 4593.5 939C4592.67 939 4592 938.329 4592 937.5V936.5C4592 936.224 4591.78 936 4591.5 936H4580.5C4580.22 936 4580 936.224 4580 936.5V937.5C4580 938.881 4581.12 940 4582.5 940H4593.5C4594.88 940 4596 938.881 4596 937.5V924.5L4595.99 924.41ZM4591.01 937.664L4591 937.5V937H4581V937.5C4581 938.28 4581.59 938.92 4582.36 938.993L4582.5 939H4591.5L4591.48 938.977C4591.21 938.604 4591.04 938.154 4591.01 937.664Z" fill="#333333"/>
  <path transform="translate(-4580, -924)" d="M4593 928.5C4593 928.224 4592.78 928 4592.5 928H4586.5L4586.41 928.008C4586.18 928.05 4586 928.255 4586 928.5C4586 928.776 4586.22 929 4586.5 929H4592.5L4592.59 928.992C4592.82 928.95 4593 928.745 4593 928.5Z" fill="#333333"/>
  <path transform="translate(-4580, -924)" d="M4593 931.5C4593 931.224 4592.78 931 4592.5 931H4586.5L4586.41 931.008C4586.18 931.05 4586 931.255 4586 931.5C4586 931.776 4586.22 932 4586.5 932H4592.5L4592.59 931.992C4592.82 931.95 4593 931.745 4593 931.5Z" fill="#333333"/>
</svg>