<svg width="16" height="16" viewBox="0 0 16 16" fill="none" xmlns="http://www.w3.org/2000/svg">
  <path transform="translate(-84, -2100)" fill-rule="evenodd" clip-rule="evenodd" d="M99.5 2108C99.5 2112.14 96.1421 2115.5 92 2115.5C87.8579 2115.5 84.5 2112.14 84.5 2108C84.5 2103.86 87.8579 2100.5 92 2100.5C96.1421 2100.5 99.5 2103.86 99.5 2108ZM85.5 2108C85.5 2111.59 88.4101 2114.5 92 2114.5C95.5899 2114.5 98.5 2111.59 98.5 2108C98.5 2104.41 95.5899 2101.5 92 2101.5C88.4101 2101.5 85.5 2104.41 85.5 2108Z" fill="#333333"/>
  <path transform="translate(-84, -2100)" d="M92.5 2104V2107.5H96C96.2761 2107.5 96.5 2107.72 96.5 2108C96.5 2108.28 96.2761 2108.5 96 2108.5H92C91.7239 2108.5 91.5 2108.28 91.5 2108V2104C91.5 2103.72 91.7239 2103.5 92 2103.5C92.2761 2103.5 92.5 2103.72 92.5 2104Z" fill="#333333"/>
</svg>