<svg width="16" height="16" viewBox="0 0 16 16" fill="none" xmlns="http://www.w3.org/2000/svg">
  <path transform="translate(-2836, -1764)" d="M2850.7 1765.3C2850.3 1764.9 2849.7 1764.9 2849.3 1765.3L2844 1770.6L2838.7 1765.3C2838.3 1764.9 2837.7 1764.9 2837.3 1765.3C2836.9 1765.7 2836.9 1766.3 2837.3 1766.7L2842.6 1772L2837.3 1777.3C2836.9 1777.7 2836.9 1778.3 2837.3 1778.7C2837.5 1778.9 2837.7 1779 2838 1779C2838.3 1779 2838.5 1778.9 2838.7 1778.7L2844 1773.4L2849.3 1778.7C2849.5 1778.9 2849.8 1779 2850 1779C2850.2 1779 2850.5 1778.9 2850.7 1778.7C2851.1 1778.3 2851.1 1777.7 2850.7 1777.3L2845.4 1772L2850.7 1766.7C2851.1 1766.3 2851.1 1765.7 2850.7 1765.3Z" fill="#333333"/>
</svg>