<svg width="16" height="16" viewBox="0 0 16 16" fill="none" xmlns="http://www.w3.org/2000/svg">
  <path transform="translate(-2332, -1764)" d="M2340 1771.29L2345.15 1766.15C2345.34 1765.95 2345.66 1765.95 2345.85 1766.15C2346.05 1766.34 2346.05 1766.66 2345.85 1766.85L2340.71 1772L2345.85 1777.15C2346.05 1777.34 2346.05 1777.66 2345.85 1777.85C2345.66 1778.05 2345.34 1778.05 2345.15 1777.85L2340 1772.71L2334.85 1777.85C2334.66 1778.05 2334.34 1778.05 2334.15 1777.85C2333.95 1777.66 2333.95 1777.34 2334.15 1777.15L2339.29 1772L2334.15 1766.85C2333.95 1766.66 2333.95 1766.34 2334.15 1766.15C2334.34 1765.95 2334.66 1765.95 2334.85 1766.15L2340 1771.29Z" fill="#333333"/>
</svg>