<svg width="16" height="16" viewBox="0 0 16 16" fill="none" xmlns="http://www.w3.org/2000/svg">
  <path transform="translate(-3456, -420)" fill-rule="evenodd" clip-rule="evenodd" d="M3469 426.5C3469 423.739 3466.76 421.5 3464 421.5C3461.52 421.5 3459.45 423.326 3459.08 425.743C3457.26 426.346 3456 428.044 3456 430C3456 432.485 3458.01 434.5 3460.5 434.5H3468C3470.21 434.5 3472 432.709 3472 430.5C3472 428.654 3470.74 427.087 3469 426.642C3469 426.595 3469 426.549 3469 426.5ZM3468.38 427.541C3469.87 427.733 3471 428.992 3471 430.5C3471 432.157 3469.66 433.5 3468 433.5H3460.5C3458.57 433.5 3457 431.933 3457 430C3457 428.388 3458.11 427.001 3459.66 426.615C3459.87 426.563 3460.02 426.385 3460.04 426.171C3460.21 424.1 3461.92 422.5 3464 422.5C3466.21 422.5 3468 424.291 3468 426.5C3468 426.583 3467.99 426.662 3467.97 426.822L3467.97 426.842C3467.96 426.91 3467.96 426.91 3467.95 426.984C3467.92 427.257 3468.11 427.506 3468.38 427.541Z" fill="#333333"/>
  <path transform="translate(-3456, -420)" d="M3462.35 429.293C3462.16 429.098 3461.84 429.098 3461.65 429.293C3461.45 429.488 3461.45 429.805 3461.65 430L3464.15 432.5C3464.34 432.695 3464.66 432.695 3464.85 432.5L3467.35 430C3467.55 429.805 3467.55 429.488 3467.35 429.293C3467.16 429.098 3466.84 429.098 3466.65 429.293L3465 430.939V426C3465 425.724 3464.78 425.5 3464.5 425.5C3464.22 425.5 3464 425.724 3464 426V430.939L3462.35 429.293Z" fill="#333333"/>
</svg>