<svg width="16" height="16" viewBox="0 0 16 16" fill="none" xmlns="http://www.w3.org/2000/svg">
  <path transform="translate(-3960, -252)" fill-rule="evenodd" clip-rule="evenodd" d="M3973 258.6V258.5C3973 255.7 3970.8 253.5 3968 253.5C3965.5 253.5 3963.4 255.3 3963.1 257.8C3961.3 258.4 3960 260 3960 262C3960 264.5 3962 266.5 3964.5 266.5C3966.2 266.5 3970.4 266.5 3972 266.5C3974.2 266.5 3976 264.7 3976 262.5C3976 260.6 3974.7 259.1 3973 258.6ZM3969 261.5V264.5H3967V261.5H3964L3968 257.5L3972 261.5H3969Z" fill="#333333"/>
</svg>