<svg width="16" height="16" viewBox="0 0 16 16" fill="none" xmlns="http://www.w3.org/2000/svg">
  <path transform="translate(-3456, -82)" fill-rule="evenodd" clip-rule="evenodd" d="M3463.5 84.5C3460.57 84.5 3458.18 86.7856 3458.01 89.6683C3456.83 90.0813 3456 91.2054 3456 92.5C3456 94.1571 3457.34 95.5 3459 95.5H3469C3470.66 95.5 3472 94.1571 3472 92.5C3472 90.8429 3470.66 89.5 3469 89.5C3468.99 89.5 3468.99 89.5 3468.98 89.5001C3468.72 86.6971 3466.37 84.5 3463.5 84.5ZM3463.5 85.5C3465.98 85.5 3467.98 87.4998 3468 89.9716C3468 89.9851 3468 90.0009 3467.99 90.051C3467.99 90.367 3468.28 90.6038 3468.59 90.5411C3468.73 90.5139 3468.86 90.5 3469 90.5C3470.1 90.5 3471 91.3951 3471 92.5C3471 93.6049 3470.1 94.5 3469 94.5H3459C3457.9 94.5 3457 93.6049 3457 92.5C3457 91.5439 3457.68 90.7265 3458.6 90.5402C3458.84 90.4932 3459.01 90.2881 3459.01 90.05C3459 90.0011 3459 89.9841 3459 89.9713C3459.02 87.4996 3461.02 85.5 3463.5 85.5Z" fill="#333333"/>
</svg>