<svg width="16" height="16" viewBox="0 0 16 16" fill="none" xmlns="http://www.w3.org/2000/svg">
  <path transform="translate(-3456, -251)" d="M3463.15 256.644C3463.2 256.597 3463.25 256.562 3463.31 256.538L3463.15 256.644Z" fill="#333333"/>
  <path transform="translate(-3456, -251)" fill-rule="evenodd" clip-rule="evenodd" d="M3464 258.207V263C3464 263.276 3463.78 263.5 3463.5 263.5C3463.22 263.5 3463 263.276 3463 263V258.207L3461.35 259.854C3461.16 260.049 3460.84 260.049 3460.65 259.854C3460.45 259.658 3460.45 259.342 3460.65 259.146L3463.15 256.647M3464 258.207L3465.65 259.854C3465.84 260.049 3466.16 260.049 3466.35 259.854C3466.55 259.658 3466.55 259.342 3466.35 259.146L3463.85 256.647" fill="#333333"/>
  <path transform="translate(-3456, -251)" d="M3463.69 256.538C3463.63 256.513 3463.57 256.5 3463.5 256.5C3463.43 256.5 3463.37 256.513 3463.31 256.538" fill="#333333"/>
  <path transform="translate(-3456, -251)" d="M3463.69 256.538C3463.75 256.562 3463.8 256.597 3463.85 256.644L3463.69 256.538Z" fill="#333333"/>
  <path transform="translate(-3456, -251)" fill-rule="evenodd" clip-rule="evenodd" d="M3469 257.5C3469 254.739 3466.76 252.5 3464 252.5C3461.52 252.5 3459.45 254.326 3459.08 256.743C3457.26 257.346 3456 259.044 3456 261C3456 263.485 3458.01 265.5 3460.5 265.5H3468C3470.21 265.5 3472 263.709 3472 261.5C3472 259.654 3470.74 258.087 3469 257.642C3469 257.595 3469 257.549 3469 257.5ZM3468.38 258.541C3469.87 258.733 3471 259.992 3471 261.5C3471 263.157 3469.66 264.5 3468 264.5H3460.5C3458.57 264.5 3457 262.933 3457 261C3457 259.388 3458.11 258.001 3459.66 257.615C3459.87 257.563 3460.02 257.385 3460.04 257.171C3460.21 255.1 3461.92 253.5 3464 253.5C3466.21 253.5 3468 255.291 3468 257.5C3468 257.583 3467.99 257.662 3467.97 257.822L3467.97 257.842C3467.96 257.91 3467.96 257.91 3467.95 257.984C3467.92 258.257 3468.11 258.506 3468.38 258.541Z" fill="#333333"/>
</svg>