<svg width="16" height="16" viewBox="0 0 16 16" fill="none" xmlns="http://www.w3.org/2000/svg">
  <path transform="translate(-3960, -420)" fill-rule="evenodd" clip-rule="evenodd" d="M3973 426.6V426.5C3973 423.7 3970.8 421.5 3968 421.5C3965.5 421.5 3963.4 423.3 3963.1 425.8C3961.3 426.4 3960 428 3960 430C3960 432.5 3962 434.5 3964.5 434.5C3966.2 434.5 3970.4 434.5 3972 434.5C3974.2 434.5 3976 432.7 3976 430.5C3976 428.6 3974.7 427.1 3973 426.6ZM3968 432.5L3964 428.5H3967V425.5H3969V428.5H3972L3968 432.5Z" fill="#333333"/>
</svg>