<svg width="16" height="16" viewBox="0 0 16 16" fill="none" xmlns="http://www.w3.org/2000/svg">
  <path transform="translate(-2816, -84)" d="M2819.3 95.7314L2816.3 92.7314C2815.9 92.3314 2815.9 91.7314 2816.3 91.3314L2819.3 88.3314L2820.7 89.7314L2818.4 92.0314L2820.7 94.3314L2819.3 95.7314Z" fill="#333333"/>
  <path transform="translate(-2816, -84)" d="M2821.7 98.9314C2821.8 99.0314 2821.9 99.0314 2822 99.0314C2822.4 99.0314 2822.8 98.7314 2823 98.3314L2827 86.3314C2827.2 85.7314 2826.9 85.2314 2826.4 85.0314C2825.8 84.8314 2825.3 85.1314 2825.1 85.6314L2821.1 97.6314C2820.9 98.2314 2821.2 98.7314 2821.7 98.9314Z" fill="#333333"/>
  <path transform="translate(-2816, -84)" d="M2828.7 95.7314L2827.3 94.3314L2829.6 92.0314L2827.3 89.7314L2828.7 88.3314L2831.7 91.3314C2832.1 91.7314 2832.1 92.3314 2831.7 92.7314L2828.7 95.7314Z" fill="#333333"/>
</svg>