<svg width="16" height="16" viewBox="0 0 16 16" fill="none" xmlns="http://www.w3.org/2000/svg">
  <path transform="translate(-2312, -84)" d="M2315.15 88.1466C2315.34 87.9513 2315.66 87.9513 2315.85 88.1466C2316.03 88.3201 2316.05 88.5896 2315.91 88.7844L2315.85 88.8537L2313.21 91.5001L2315.85 94.1466C2316.03 94.3201 2316.05 94.5896 2315.91 94.7844L2315.85 94.8537C2315.68 95.0273 2315.41 95.0465 2315.22 94.9115L2315.15 94.8537L2312.15 91.8537C2311.97 91.6801 2311.95 91.4107 2312.09 91.2158L2312.15 91.1466L2315.15 88.1466Z" fill="#333333"/>
  <path transform="translate(-2312, -84)" d="M2322.03 85.3206C2322.13 85.0629 2322.42 84.9343 2322.68 85.0335C2322.91 85.1216 2323.04 85.3599 2322.99 85.5928L2322.97 85.6796L2317.97 98.6796C2317.87 98.9374 2317.58 99.0659 2317.32 98.9668C2317.09 98.8787 2316.96 98.6403 2317.01 98.4074L2317.03 98.3206L2322.03 85.3206Z" fill="#333333"/>
  <path transform="translate(-2312, -84)" d="M2324.78 88.0887C2324.59 87.9537 2324.32 87.973 2324.15 88.1466L2324.09 88.2158C2323.95 88.4107 2323.97 88.6801 2324.15 88.8537L2326.79 91.5001L2324.15 94.1466L2324.09 94.2158C2323.95 94.4107 2323.97 94.6801 2324.15 94.8537C2324.34 95.049 2324.66 95.049 2324.85 94.8537L2327.85 91.8537L2327.91 91.7844C2328.05 91.5896 2328.03 91.3201 2327.85 91.1466L2324.85 88.1466L2324.78 88.0887Z" fill="#333333"/>
</svg>