<svg width="16" height="16" viewBox="0 0 16 16" fill="none" xmlns="http://www.w3.org/2000/svg">
  <path transform="translate(-1744, -252)" d="M1752 258C1754.9 258 1758 257.1 1758 255C1758 252.9 1754.9 252 1752 252C1749.1 252 1746 252.9 1746 255C1746 257.1 1749.1 258 1752 258Z" fill="#333333"/>
  <path transform="translate(-1744, -252)" d="M1746 258.5V260C1746 262.1 1749.1 263 1752 263C1754.9 263 1758 262.1 1758 260V258.5C1756.6 259.4 1754.5 260 1752 260C1749.5 260 1747.4 259.4 1746 258.5Z" fill="#333333"/>
  <path transform="translate(-1744, -252)" d="M1746 265V263.5C1747.4 264.4 1749.5 265 1752 265C1754.5 265 1756.6 264.5 1758 263.5V265C1758 267.1 1754.9 268 1752 268C1749.1 268 1746 267.1 1746 265Z" fill="#333333"/>
</svg>