<svg width="16" height="16" viewBox="0 0 16 16" fill="none" xmlns="http://www.w3.org/2000/svg">
  <path transform="translate(-1240, -252)" fill-rule="evenodd" clip-rule="evenodd" d="M1248 252.5C1244.72 252.5 1242 253.735 1242 255.5C1242 257.265 1244.72 258.5 1248 258.5C1251.28 258.5 1254 257.265 1254 255.5C1254 253.735 1251.28 252.5 1248 252.5ZM1248 253.5C1250.79 253.5 1253 254.503 1253 255.5C1253 256.497 1250.79 257.5 1248 257.5C1245.21 257.5 1243 256.497 1243 255.5C1243 254.503 1245.21 253.5 1248 253.5Z" fill="#333333"/>
  <path transform="translate(-1240, -252)" d="M1253.99 257.91C1253.95 257.677 1253.75 257.5 1253.5 257.5C1253.22 257.5 1253 257.724 1253 258V258.5L1252.99 258.593C1252.86 259.559 1250.71 260.5 1248 260.5C1245.21 260.5 1243 259.497 1243 258.5V258L1242.99 257.91C1242.95 257.677 1242.75 257.5 1242.5 257.5C1242.22 257.5 1242 257.724 1242 258V258.5L1242.01 258.646C1242.15 260.332 1244.81 261.5 1248 261.5C1251.28 261.5 1254 260.265 1254 258.5V258L1253.99 257.91Z" fill="#333333"/>
  <path transform="translate(-1240, -252)" d="M1253.5 260.5C1253.75 260.5 1253.95 260.677 1253.99 260.91L1254 261V261.5C1254 263.265 1251.28 264.5 1248 264.5C1244.81 264.5 1242.15 263.332 1242.01 261.646L1242 261.5V261C1242 260.724 1242.22 260.5 1242.5 260.5C1242.75 260.5 1242.95 260.677 1242.99 260.91L1243 261V261.5C1243 262.497 1245.21 263.5 1248 263.5C1250.71 263.5 1252.86 262.559 1252.99 261.593L1253 261.5V261C1253 260.724 1253.22 260.5 1253.5 260.5Z" fill="#333333"/>
  <path transform="translate(-1240, -252)" d="M1253.99 263.91C1253.95 263.677 1253.75 263.5 1253.5 263.5C1253.22 263.5 1253 263.724 1253 264V264.5L1252.99 264.593C1252.86 265.559 1250.71 266.5 1248 266.5C1245.21 266.5 1243 265.497 1243 264.5V264L1242.99 263.91C1242.95 263.677 1242.75 263.5 1242.5 263.5C1242.22 263.5 1242 263.724 1242 264V264.5L1242.01 264.646C1242.15 266.332 1244.81 267.5 1248 267.5C1251.28 267.5 1254 266.265 1254 264.5V264L1253.99 263.91Z" fill="#333333"/>
</svg>