<svg width="16" height="16" viewBox="0 0 16 16" fill="none" xmlns="http://www.w3.org/2000/svg">
  <path transform="translate(-1240, -252)" d="M1252.17 256.874L1248 253.169L1243.83 256.874C1243.63 257.057 1243.31 257.039 1243.13 256.832C1242.94 256.626 1242.96 256.31 1243.17 256.126L1247.67 252.126C1247.86 251.958 1248.14 251.958 1248.33 252.126L1252.83 256.126C1253.04 256.31 1253.06 256.626 1252.87 256.832C1252.69 257.039 1252.37 257.057 1252.17 256.874Z" fill="#333333"/>
  <path transform="translate(-1240, -252)" d="M1243.13 263.168C1243.31 262.961 1243.63 262.943 1243.83 263.126L1248 266.831L1252.17 263.126C1252.37 262.943 1252.69 262.961 1252.87 263.168C1253.06 263.374 1253.04 263.69 1252.83 263.874L1248.33 267.874C1248.14 268.042 1247.86 268.042 1247.67 267.874L1243.17 263.874C1242.96 263.69 1242.94 263.374 1243.13 263.168Z" fill="#333333"/>
</svg>