<svg width="16" height="16" viewBox="0 0 16 16" fill="none" xmlns="http://www.w3.org/2000/svg">
  <path transform="translate(-84, -420)" d="M97 434.5V429.5C97 429.224 97.2239 429 97.5 429C97.7761 429 98 429.224 98 429.5V434.5C98 435.328 97.3281 436 96.5 436H85.5C84.6719 436 84 435.328 84 434.5V423.5C84 422.672 84.6719 422 85.5 422H90.5C90.7761 422 91 422.224 91 422.5C91 422.776 90.7761 423 90.5 423H85.5C85.2241 423 85 423.224 85 423.5V434.5C85 434.776 85.2241 435 85.5 435H96.5C96.7759 435 97 434.776 97 434.5Z" fill="#333333"/>
  <path transform="translate(-84, -420)" fill-rule="evenodd" clip-rule="evenodd" d="M96.6464 420.146C96.8417 419.951 97.1583 419.951 97.3536 420.146L99.8536 422.646C100.049 422.842 100.049 423.158 99.8536 423.354L91.8536 431.354C91.7935 431.414 91.7191 431.457 91.6374 431.481L88.1374 432.481C87.7602 432.589 87.4115 432.24 87.5192 431.863L88.5192 428.363C88.5426 428.281 88.5864 428.207 88.6464 428.146L96.6464 420.146ZM98.7929 423L97.5 424.293L95.7071 422.5L97 421.207L98.7929 423ZM96.7929 425L95 423.207L89.4452 428.762L88.728 431.272L91.2381 430.555L96.7929 425Z" fill="#333333"/>
</svg>