<svg width="16" height="16" viewBox="0 0 16 16" fill="none" xmlns="http://www.w3.org/2000/svg">
  <path transform="translate(-588, -420)" d="M603 430C602.4 430 602 430.4 602 431V434H590V422H593C593.6 422 594 421.6 594 421C594 420.4 593.6 420 593 420H589C588.4 420 588 420.4 588 421V435C588 435.6 588.4 436 589 436H603C603.6 436 604 435.6 604 435V431C604 430.4 603.6 430 603 430Z" fill="#333333"/>
  <path transform="translate(-588, -420)" d="M600.7 420.3C600.3 419.9 599.7 419.9 599.3 420.3L592.3 427.3C592.1 427.5 592 427.7 592 428V431C592 431.6 592.4 432 593 432H596C596.3 432 596.5 431.9 596.7 431.7L603.7 424.7C604.1 424.3 604.1 423.7 603.7 423.3L600.7 420.3ZM595.6 430H594V428.4L600 422.4L601.6 424L595.6 430Z" fill="#333333"/>
</svg>