<svg width="16" height="16" viewBox="0 0 16 16" fill="none" xmlns="http://www.w3.org/2000/svg">
  <path transform="translate(-84, -420)" fill-rule="evenodd" clip-rule="evenodd" d="M95.9642 424.686C96.1275 424.278 95.7225 423.872 95.3143 424.036L90.3143 426.036C90.1873 426.087 90.0866 426.187 90.0358 426.314L88.0358 431.314C87.8725 431.722 88.2775 432.128 88.6857 431.964L93.6857 429.964C93.8127 429.913 93.9134 429.813 93.9642 429.686L95.9642 424.686ZM90.8847 426.885L94.6025 425.398L93.1153 429.115L89.3975 430.602L90.8847 426.885Z" fill="#333333"/>
  <path transform="translate(-84, -420)" fill-rule="evenodd" clip-rule="evenodd" d="M100 428C100 432.418 96.4183 436 92 436C87.5817 436 84 432.418 84 428C84 423.582 87.5817 420 92 420C96.4183 420 100 423.582 100 428ZM85 428C85 431.866 88.134 435 92 435C95.866 435 99 431.866 99 428C99 424.134 95.866 421 92 421C88.134 421 85 424.134 85 428Z" fill="#333333"/>
</svg>