<svg width="16" height="16" viewBox="0 0 16 16" fill="none" xmlns="http://www.w3.org/2000/svg">
  <path transform="translate(-588, -420)" fill-rule="evenodd" clip-rule="evenodd" d="M596 420C591.6 420 588 423.6 588 428C588 432.4 591.6 436 596 436C600.4 436 604 432.4 604 428C604 423.6 600.4 420 596 420ZM599.2 425.8L597.8 428.8C597.5 429.2 597.2 429.5 596.8 429.7L593.8 431.1C593.2 431.4 592.6 430.8 592.9 430.2L594.3 427.2C594.5 426.8 594.8 426.4 595.2 426.3L598.2 424.9C598.8 424.6 599.4 425.2 599.2 425.8Z" fill="#333333"/>
</svg>