<svg width="16" height="16" viewBox="0 0 16 16" fill="none" xmlns="http://www.w3.org/2000/svg">
  <path transform="translate(-4580, -1258)" d="M4584.99 1258.41C4584.95 1258.18 4584.75 1258 4584.5 1258C4584.22 1258 4584 1258.22 4584 1258.5V1261H4580.5L4580.41 1261.01C4580.18 1261.05 4580 1261.25 4580 1261.5L4580.01 1261.59C4580.05 1261.82 4580.25 1262 4580.5 1262H4591L4591 1268H4585L4585 1264.5L4584.99 1264.41C4584.95 1264.18 4584.75 1264 4584.5 1264C4584.22 1264 4584 1264.22 4584 1264.5V1268.5L4584.01 1268.59C4584.05 1268.82 4584.25 1269 4584.5 1269H4595.5L4595.59 1268.99C4595.82 1268.95 4596 1268.75 4596 1268.5L4595.99 1268.41C4595.95 1268.18 4595.75 1268 4595.5 1268H4592V1261.5L4591.99 1261.41C4591.95 1261.18 4591.75 1261 4591.5 1261H4585V1258.5L4584.99 1258.41Z" fill="#333333"/>
  <path transform="translate(-4580, -1258)" d="M4591.99 1271.41C4591.95 1271.18 4591.75 1271 4591.5 1271C4591.22 1271 4591 1271.22 4591 1271.5V1273.5L4591.01 1273.59C4591.05 1273.82 4591.25 1274 4591.5 1274C4591.78 1274 4592 1273.78 4592 1273.5V1271.5L4591.99 1271.41Z" fill="#333333"/>
</svg>