<svg width="16" height="16" viewBox="0 0 16 16" fill="none" xmlns="http://www.w3.org/2000/svg">
  <path transform="translate(-84, -756)" fill-rule="evenodd" clip-rule="evenodd" d="M98.5 756H85.5C84.6716 756 84 756.672 84 757.5V767.5C84 768.328 84.6716 769 85.5 769H90V771H87.5C87.2239 771 87 771.224 87 771.5C87 771.776 87.2239 772 87.5 772H96.5C96.7761 772 97 771.776 97 771.5C97 771.224 96.7761 771 96.5 771H94V769H98.5C99.3284 769 100 768.328 100 767.5V757.5C100 756.672 99.3284 756 98.5 756ZM99 765V757.5C99 757.224 98.7761 757 98.5 757H85.5C85.2239 757 85 757.224 85 757.5V765H99ZM85 766H99V767.5C99 767.776 98.7761 768 98.5 768H85.5C85.2239 768 85 767.776 85 767.5V766ZM91 769V771H93V769H91Z" fill="#333333"/>
</svg>