<svg width="16" height="16" viewBox="0 0 16 16" fill="none" xmlns="http://www.w3.org/2000/svg">
  <path transform="translate(-1208, -420)" fill-rule="evenodd" clip-rule="evenodd" d="M1208 421.5C1208 421.224 1208.22 421 1208.5 421H1213.5C1213.78 421 1214 421.224 1214 421.5V434.5C1214 434.776 1213.78 435 1213.5 435H1208.5C1208.22 435 1208 434.776 1208 434.5V421.5ZM1213 422V431H1209V422H1213ZM1213 432H1209V434H1213V432Z" fill="#333333"/>
  <path transform="translate(-1208, -420)" fill-rule="evenodd" clip-rule="evenodd" d="M1214.96 421.966C1214.69 422.043 1214.54 422.32 1214.62 422.585L1217.38 432.189L1217.38 432.194L1217.39 432.198L1218.22 435.077C1218.29 435.342 1218.57 435.495 1218.83 435.419L1223.64 434.034C1223.9 433.958 1224.06 433.681 1223.98 433.415L1220.38 420.924C1220.3 420.658 1220.03 420.505 1219.76 420.582L1214.96 421.966ZM1218.48 432.397L1219.04 434.319L1222.88 433.212L1222.33 431.29L1218.48 432.397ZM1222.05 430.329L1219.56 421.681L1215.72 422.789L1218.21 431.436L1222.05 430.329Z" fill="#333333"/>
</svg>