<svg width="16" height="16" viewBox="0 0 16 16" fill="none" xmlns="http://www.w3.org/2000/svg">
  <path transform="translate(-1712, -420)" fill-rule="evenodd" clip-rule="evenodd" d="M1718 430V422C1718 421.4 1717.6 421 1717 421H1713C1712.4 421 1712 421.4 1712 422V430H1718ZM1714 423H1716V427H1714V423Z" fill="#333333"/>
  <path transform="translate(-1712, -420)" d="M1712 434V432H1718V434C1718 434.6 1717.6 435 1717 435H1713C1712.4 435 1712 434.6 1712 434Z" fill="#333333"/>
  <path transform="translate(-1712, -420)" fill-rule="evenodd" clip-rule="evenodd" d="M1726.5 428.7L1724 421.1C1723.8 420.6 1723.3 420.3 1722.7 420.5L1718.9 421.7L1718.87 421.713C1718.65 421.825 1718.01 422.136 1718.3 423L1720.9 430.6L1726.5 428.7ZM1722.4 422.7L1723.7 426.5L1721.8 427.1L1720.5 423.3L1722.4 422.7Z" fill="#333333"/>
  <path transform="translate(-1712, -420)" d="M1727.2 430.6L1721.5 432.5L1722.1 434.4C1722.2 434.8 1722.6 435.2 1723.4 435L1727.2 433.7C1727.7 433.5 1728 433 1727.8 432.4L1727.2 430.6Z" fill="#333333"/>
</svg>