<svg width="16" height="16" viewBox="0 0 16 16" fill="none" xmlns="http://www.w3.org/2000/svg">
  <path transform="translate(-2868, -252)" fill-rule="evenodd" clip-rule="evenodd" d="M2871.4 254H2876V256H2878V253C2878 252.4 2877.6 252 2877 252H2869C2868.4 252 2868 252.4 2868 253V262C2868 262.3 2868.1 262.5 2868.3 262.7L2873.3 267.7C2873.5 267.9 2873.7 268 2874 268C2874.1 268 2874.3 268 2874.4 267.9C2874.8 267.8 2875 267.4 2875 267V258C2875 257.7 2874.9 257.5 2874.7 257.3L2871.4 254ZM2873 264.6L2870 261.6V255.4L2873 258.4V264.6Z" fill="#333333"/>
  <path transform="translate(-2868, -252)" d="M2880 255.6L2883.7 259.3C2884.1 259.7 2884.1 260.3 2883.7 260.7L2880 264.4L2878.6 263L2880.6 261H2876V259H2880.6L2878.6 257L2880 255.6Z" fill="#333333"/>
</svg>