<svg width="16" height="16" viewBox="0 0 16 16" fill="none" xmlns="http://www.w3.org/2000/svg">
  <path transform="translate(-2367, -253)" fill-rule="evenodd" clip-rule="evenodd" d="M2367.5 253.264H2375.5C2375.78 253.264 2376 253.488 2376 253.764V257.764C2376 258.04 2375.78 258.264 2375.5 258.264C2375.22 258.264 2375 258.04 2375 257.764V254.264H2368.71L2372.85 258.411C2372.95 258.504 2373 258.632 2373 258.764V268.764C2373 268.956 2372.89 269.132 2372.72 269.215C2372.54 269.298 2372.34 269.275 2372.19 269.155L2367.19 265.155C2367.07 265.06 2367 264.916 2367 264.764V253.764C2367 253.488 2367.22 253.264 2367.5 253.264ZM2368 254.971V264.524L2372 267.724V258.971L2368 254.971ZM2379.15 258.411C2379.34 258.215 2379.66 258.215 2379.85 258.411L2382.85 261.411C2383.05 261.606 2383.05 261.922 2382.85 262.118L2379.85 265.118C2379.66 265.313 2379.34 265.313 2379.15 265.118C2378.95 264.922 2378.95 264.606 2379.15 264.411L2381.29 262.264H2375.5C2375.22 262.264 2375 262.04 2375 261.764C2375 261.488 2375.22 261.264 2375.5 261.264H2381.29L2379.15 259.118C2378.95 258.922 2378.95 258.606 2379.15 258.411Z" fill="#333333"/>
</svg>