<svg width="16" height="16" viewBox="0 0 16 16" fill="none" xmlns="http://www.w3.org/2000/svg">
  <path transform="translate(-1744, -84)" fill-rule="evenodd" clip-rule="evenodd" d="M1753 91.2V88.1C1753.6 88.3 1754 88.9 1754 89.5C1754 90.1 1754.4 90.5 1755 90.5C1755.6 90.5 1756 90.1 1756 89.5C1756 87.7 1754.7 86.3 1753 86.1V85C1753 84.4 1752.6 84 1752 84C1751.4 84 1751 84.4 1751 85V86.1C1749.3 86.3 1748 87.7 1748 89.5C1748 91.6 1749.6 92.4 1751 92.8V95.9C1750.4 95.7 1750 95.1 1750 94.5C1750 93.9 1749.6 93.5 1749 93.5C1748.4 93.5 1748 93.9 1748 94.5C1748 96.3 1749.3 97.7 1751 97.9V99C1751 99.6 1751.4 100 1752 100C1752.6 100 1753 99.6 1753 99V97.9C1754.7 97.7 1756 96.2 1756 94.5C1756 92.4 1754.4 91.6 1753 91.2ZM1750 89.5C1750 88.8 1750.4 88.3 1751 88.1V90.7C1750.3 90.4 1750 90.1 1750 89.5ZM1753 95.9V93.3C1753.7 93.6 1754 93.9 1754 94.5C1754 95.2 1753.6 95.7 1753 95.9Z" fill="#333333"/>
</svg>