<svg width="16" height="16" viewBox="0 0 16 16" fill="none" xmlns="http://www.w3.org/2000/svg">
  <path transform="translate(-1240, -84)" fill-rule="evenodd" clip-rule="evenodd" d="M1248.99 84.4101C1248.95 84.1769 1248.75 84 1248.5 84C1248.22 84 1248 84.2239 1248 84.5V86.0034C1247.89 86.0064 1247.78 86.0118 1247.67 86.0197C1245.65 86.1647 1244.32 87.0966 1244.32 88.861C1244.32 90.7573 1245.38 91.5419 1248 92.4221V96.9997C1246.87 96.9951 1245.55 96.7387 1244.32 96.2937C1244.06 96.2 1243.77 96.3346 1243.68 96.5943C1243.58 96.8541 1243.72 97.1406 1243.98 97.2343C1245.31 97.716 1246.74 97.9953 1248 97.9997V99.5L1248.01 99.5899C1248.05 99.8231 1248.25 100 1248.5 100C1248.78 100 1249 99.7761 1249 99.5V97.9385C1249.03 97.9344 1249.06 97.93 1249.09 97.9255C1250.96 97.645 1252.1 96.5687 1252.1 94.732C1252.1 93.1558 1251.25 92.4903 1249 91.704V87.0376C1250.01 87.1311 1251.02 87.3925 1251.61 87.7181C1251.85 87.8512 1252.16 87.763 1252.29 87.521C1252.42 87.2791 1252.34 86.975 1252.09 86.8419C1251.36 86.4376 1250.18 86.1316 1249 86.0337V84.5L1248.99 84.4101ZM1248 87.0038C1247.91 87.0065 1247.82 87.0109 1247.74 87.0171C1246.18 87.1291 1245.32 87.7307 1245.32 88.861C1245.32 90.0955 1246.01 90.6664 1248 91.365V87.0038ZM1249 92.7661V96.9277C1250.38 96.7051 1251.1 96.0078 1251.1 94.732C1251.1 93.814 1250.59 93.3506 1249 92.7661Z" fill="#333333"/>
</svg>