<svg width="16" height="16" viewBox="0 0 16 16" fill="none" xmlns="http://www.w3.org/2000/svg">
  <path transform="translate(-3456, -588)" d="M3463.5 588.5V598.293L3459.35 594.146C3459.16 593.951 3458.84 593.951 3458.65 594.146C3458.45 594.342 3458.45 594.658 3458.65 594.854L3463.65 599.854C3463.69 599.901 3463.75 599.938 3463.81 599.962C3463.87 599.987 3463.93 600 3464 600C3464.07 600 3464.13 599.987 3464.19 599.962C3464.25 599.938 3464.31 599.901 3464.35 599.854L3469.35 594.854C3469.55 594.658 3469.55 594.342 3469.35 594.146C3469.16 593.951 3468.84 593.951 3468.65 594.146L3464.5 598.293V588.5C3464.5 588.224 3464.28 588 3464 588C3463.72 588 3463.5 588.224 3463.5 588.5Z" fill="#333333"/>
  <path transform="translate(-3456, -588)" d="M3456.5 603.5C3456.5 603.224 3456.72 603 3457 603H3471C3471.28 603 3471.5 603.224 3471.5 603.5C3471.5 603.776 3471.28 604 3471 604H3457C3456.72 604 3456.5 603.776 3456.5 603.5Z" fill="#333333"/>
</svg>