<svg width="16" height="16" viewBox="0 0 16 16" fill="none" xmlns="http://www.w3.org/2000/svg">
  <path transform="translate(-1240, -924)" fill-rule="evenodd" clip-rule="evenodd" d="M1247.65 924.646C1247.84 924.451 1248.16 924.451 1248.35 924.646L1250.85 927.146C1251.05 927.342 1251.05 927.658 1250.85 927.854C1250.66 928.049 1250.34 928.049 1250.15 927.854L1248.5 926.207V931.5H1253.79L1252.15 929.854C1251.95 929.658 1251.95 929.342 1252.15 929.146C1252.34 928.951 1252.66 928.951 1252.85 929.146L1255.35 931.646C1255.55 931.842 1255.55 932.158 1255.35 932.354L1252.85 934.854C1252.66 935.049 1252.34 935.049 1252.15 934.854C1251.95 934.658 1251.95 934.342 1252.15 934.146L1253.79 932.5H1248.5V937.793L1250.15 936.146C1250.34 935.951 1250.66 935.951 1250.85 936.146C1251.05 936.342 1251.05 936.658 1250.85 936.854L1248.35 939.354C1248.16 939.549 1247.84 939.549 1247.65 939.354L1245.15 936.854C1244.95 936.658 1244.95 936.342 1245.15 936.146C1245.34 935.951 1245.66 935.951 1245.85 936.146L1247.5 937.793V932.5H1242.21L1243.85 934.146C1244.05 934.342 1244.05 934.658 1243.85 934.854C1243.66 935.049 1243.34 935.049 1243.15 934.854L1240.65 932.354C1240.45 932.158 1240.45 931.842 1240.65 931.646L1243.15 929.146C1243.34 928.951 1243.66 928.951 1243.85 929.146C1244.05 929.342 1244.05 929.658 1243.85 929.854L1242.21 931.5H1247.5V926.207L1245.85 927.854C1245.66 928.049 1245.34 928.049 1245.15 927.854C1244.95 927.658 1244.95 927.342 1245.15 927.146L1247.65 924.646Z" fill="#333333"/>
</svg>