<svg width="16" height="16" viewBox="0 0 16 16" fill="none" xmlns="http://www.w3.org/2000/svg">
  <path transform="translate(-116, -1092)" d="M126.736 1093C127.737 1092.97 128.728 1093.22 129.598 1093.72C129.838 1093.85 129.921 1094.16 129.784 1094.4C129.647 1094.64 129.342 1094.72 129.102 1094.59C128.391 1094.18 127.582 1093.98 126.75 1094C124.227 1094 122.333 1095.6 121.664 1098H125.65C125.926 1098 126.15 1098.22 126.15 1098.5C126.15 1098.75 125.973 1098.95 125.74 1098.99L125.65 1099H121.463C121.421 1099.32 121.4 1099.66 121.4 1100C121.4 1100.34 121.421 1100.68 121.463 1101H125.65C125.926 1101 126.15 1101.22 126.15 1101.5C126.15 1101.75 125.973 1101.95 125.74 1101.99L125.65 1102H121.664C122.333 1104.4 124.227 1106 126.75 1106C127.575 1106 128.387 1105.8 129.115 1105.41C129.359 1105.28 129.661 1105.37 129.791 1105.62C129.921 1105.86 129.829 1106.16 129.585 1106.29C128.712 1106.76 127.739 1107 126.75 1107C123.649 1107 121.345 1104.96 120.631 1102H118.65C118.374 1102 118.15 1101.78 118.15 1101.5C118.15 1101.26 118.327 1101.05 118.56 1101.01L118.65 1101H120.456C120.419 1100.68 120.4 1100.34 120.4 1100C120.4 1099.66 120.419 1099.33 120.456 1099H118.65C118.374 1099 118.15 1098.78 118.15 1098.5C118.15 1098.26 118.327 1098.05 118.56 1098.01L118.65 1098H120.631C121.344 1095.04 123.647 1093 126.736 1093Z" fill="#333333"/>
</svg>