<svg width="16" height="16" viewBox="0 0 16 16" fill="none" xmlns="http://www.w3.org/2000/svg">
  <path transform="translate(-620, -1092)" fill-rule="evenodd" clip-rule="evenodd" d="M633.116 1104.2C632.216 1104.7 631.316 1105 630.316 1105C628.316 1105 626.516 1103.8 625.716 1102H629.316C629.916 1102 630.316 1101.6 630.316 1101C630.316 1100.4 629.916 1100 629.316 1100H625.316C625.316 1099.7 625.316 1099.3 625.416 1099H629.316C629.916 1099 630.316 1098.6 630.316 1098C630.316 1097.4 629.916 1097 629.316 1097H626.316C627.216 1095.8 628.616 1095 630.316 1095C631.316 1095 632.216 1095.3 633.116 1095.8C633.616 1096.1 634.216 1096 634.516 1095.5C634.816 1095 634.716 1094.4 634.216 1094.1C633.016 1093.4 631.716 1093 630.316 1093C627.516 1093 625.116 1094.6 624.016 1097H622.316C621.716 1097 621.316 1097.4 621.316 1098C621.316 1098.6 621.716 1099 622.316 1099H623.416C623.316 1099.3 623.316 1099.7 623.316 1100H622.316C621.716 1100 621.316 1100.4 621.316 1101C621.316 1101.6 621.716 1102 622.316 1102H623.616C624.516 1104.9 627.116 1107 630.316 1107C631.716 1107 633.016 1106.6 634.216 1105.8C634.716 1105.5 634.816 1104.9 634.516 1104.4C634.116 1104 633.516 1103.9 633.116 1104.2Z" fill="#333333"/>
</svg>