<svg width="16" height="16" viewBox="0 0 16 16" fill="none" xmlns="http://www.w3.org/2000/svg">
  <path transform="translate(-1240, -756)" d="M1253.72 770.411C1253.91 770.546 1254.18 770.527 1254.35 770.354C1254.55 770.158 1254.55 769.842 1254.35 769.646L1248.35 763.646L1248.28 763.589C1248.09 763.454 1247.82 763.473 1247.65 763.646L1241.65 769.646L1241.59 769.716C1241.45 769.911 1241.47 770.18 1241.65 770.354L1241.72 770.411C1241.91 770.546 1242.18 770.527 1242.35 770.354L1248 764.707L1253.65 770.354L1253.72 770.411Z" fill="#333333"/>
  <path transform="translate(-1240, -756)" d="M1253.72 764.411C1253.91 764.546 1254.18 764.527 1254.35 764.354C1254.55 764.158 1254.55 763.842 1254.35 763.646L1248.35 757.646L1248.28 757.589C1248.09 757.454 1247.82 757.473 1247.65 757.646L1241.65 763.646L1241.59 763.716C1241.45 763.911 1241.47 764.18 1241.65 764.354L1241.72 764.411C1241.91 764.546 1242.18 764.527 1242.35 764.354L1248 758.707L1253.65 764.354L1253.72 764.411Z" fill="#333333"/>
</svg>