<svg width="16" height="16" viewBox="0 0 16 16" fill="none" xmlns="http://www.w3.org/2000/svg">
  <path transform="translate(-1240, -84)" d="M1242 97.2929L1246.15 93.1464C1246.34 92.9512 1246.66 92.9512 1246.85 93.1464C1247.05 93.3417 1247.05 93.6583 1246.85 93.8536L1242.71 98H1247.5C1247.78 98 1248 98.2239 1248 98.5C1248 98.7761 1247.78 99 1247.5 99H1241.5C1241.43 99 1241.37 98.9865 1241.31 98.9621C1241.25 98.9377 1241.19 98.9015 1241.15 98.8536C1241.1 98.8056 1241.06 98.7504 1241.04 98.6914C1241.01 98.6324 1241 98.5678 1241 98.5V92.5C1241 92.2239 1241.22 92 1241.5 92C1241.78 92 1242 92.2239 1242 92.5V97.2929Z" fill="#333333"/>
  <path transform="translate(-1240, -84)" d="M1249.15 90.1464L1253.29 86H1248.5C1248.22 86 1248 85.7761 1248 85.5C1248 85.2239 1248.22 85 1248.5 85H1254.5C1254.57 85 1254.63 85.0135 1254.69 85.0379C1254.75 85.0623 1254.81 85.0985 1254.85 85.1464C1254.9 85.1944 1254.94 85.2496 1254.96 85.3086C1254.99 85.3676 1255 85.4322 1255 85.5V91.5C1255 91.7761 1254.78 92 1254.5 92C1254.22 92 1254 91.7761 1254 91.5V86.7071L1249.85 90.8536C1249.66 91.0488 1249.34 91.0488 1249.15 90.8536C1248.95 90.6583 1248.95 90.3417 1249.15 90.1464Z" fill="#333333"/>
</svg>