<svg width="16" height="16" viewBox="0 0 16 16" fill="none" xmlns="http://www.w3.org/2000/svg">
  <path transform="translate(-4580, -1932)" d="M4587 1935.5C4587 1935.22 4586.78 1935 4586.5 1935H4581.5L4581.36 1935.01C4580.6 1935.08 4580 1935.72 4580 1936.5V1946.5L4580.01 1946.64C4580.08 1947.4 4580.72 1948 4581.5 1948H4591.5L4591.64 1947.99C4592.4 1947.92 4593 1947.28 4593 1946.5V1941.5L4592.99 1941.41C4592.95 1941.18 4592.75 1941 4592.5 1941C4592.22 1941 4592 1941.22 4592 1941.5V1946.5L4591.99 1946.59C4591.95 1946.82 4591.75 1947 4591.5 1947H4581.5L4581.41 1946.99C4581.18 1946.95 4581 1946.75 4581 1946.5V1936.5L4581.01 1936.41C4581.05 1936.18 4581.25 1936 4581.5 1936H4586.5L4586.59 1935.99C4586.82 1935.95 4587 1935.75 4587 1935.5Z" fill="#333333"/>
  <path transform="translate(-4580, -1932)" fill-rule="evenodd" clip-rule="evenodd" d="M4595.5 1932C4595.57 1932 4595.63 1932.01 4595.69 1932.04L4596 1932.5V1939.5C4596 1939.78 4595.78 1940 4595.5 1940C4595.25 1940 4595.05 1939.82 4595.01 1939.59L4595 1939.5V1933.71L4587.85 1940.85C4587.66 1941.05 4587.34 1941.05 4587.15 1940.85C4586.97 1940.68 4586.95 1940.41 4587.09 1940.22L4587.15 1940.15L4594.29 1933H4588.5C4588.25 1933 4588.05 1932.82 4588.01 1932.59L4588 1932.5C4588 1932.25 4588.18 1932.05 4588.41 1932.01L4588.5 1932H4595.5ZM4596 1932.5C4596 1932.47 4596 1932.44 4595.99 1932.41L4596 1932.5Z" fill="#333333"/>
</svg>