<svg width="16" height="16" viewBox="0 0 16 16" fill="none" xmlns="http://www.w3.org/2000/svg">
  <path transform="translate(-2836, -924)" fill-rule="evenodd" clip-rule="evenodd" d="M2844 938C2847.6 938 2850.4 934.9 2851.6 933.1C2852.1 932.4 2852.1 931.5 2851.6 930.8C2850.4 929.1 2847.6 926 2844 926C2840.4 926 2837.6 929.1 2836.4 930.9C2835.9 931.6 2835.9 932.5 2836.4 933.1C2837.6 934.9 2840.4 938 2844 938ZM2844 929C2845.7 929 2847 930.3 2847 932C2847 933.7 2845.7 935 2844 935C2842.3 935 2841 933.7 2841 932C2841 930.3 2842.3 929 2844 929Z" fill="#333333"/>
</svg>