<svg width="16" height="16" viewBox="0 0 16 16" fill="none" xmlns="http://www.w3.org/2000/svg">
  <path transform="translate(-2332, -1092)" d="M2340 1097.5C2338.62 1097.5 2337.5 1098.62 2337.5 1100C2337.5 1100.28 2337.28 1100.5 2337 1100.5C2336.72 1100.5 2336.5 1100.28 2336.5 1100C2336.5 1098.07 2338.07 1096.5 2340 1096.5C2340.28 1096.5 2340.5 1096.72 2340.5 1097C2340.5 1097.28 2340.28 1097.5 2340 1097.5Z" fill="#333333"/>
  <path transform="translate(-2332, -1092)" fill-rule="evenodd" clip-rule="evenodd" d="M2336.03 1104.68L2333.35 1107.35C2333.16 1107.55 2332.84 1107.55 2332.65 1107.35C2332.45 1107.16 2332.45 1106.84 2332.65 1106.65L2335.23 1104.06C2334.88 1103.77 2334.54 1103.45 2334.2 1103.1C2333.61 1102.47 2333.08 1101.81 2332.63 1101.14C2332.47 1100.91 2332.33 1100.69 2332.21 1100.49C2332.14 1100.38 2332.09 1100.29 2332.06 1100.24C2331.98 1100.09 2331.98 1099.91 2332.06 1099.76C2332.09 1099.71 2332.14 1099.62 2332.21 1099.51C2332.33 1099.31 2332.47 1099.09 2332.63 1098.86C2333.08 1098.19 2333.61 1097.53 2334.2 1096.9C2335.93 1095.1 2337.87 1094 2340 1094C2341.41 1094 2342.73 1094.48 2343.97 1095.32L2346.65 1092.65C2346.84 1092.45 2347.16 1092.45 2347.35 1092.65C2347.55 1092.84 2347.55 1093.16 2347.35 1093.35L2344.77 1095.94C2345.12 1096.23 2345.46 1096.55 2345.8 1096.9C2346.39 1097.53 2346.92 1098.19 2347.37 1098.86C2347.53 1099.09 2347.67 1099.31 2347.79 1099.51C2347.86 1099.62 2347.91 1099.71 2347.94 1099.76C2348.02 1099.91 2348.02 1100.09 2347.94 1100.24C2347.91 1100.29 2347.86 1100.38 2347.79 1100.49C2347.67 1100.69 2347.53 1100.91 2347.37 1101.14C2346.92 1101.81 2346.39 1102.47 2345.8 1103.1C2344.07 1104.9 2342.13 1106 2340 1106C2338.59 1106 2337.27 1105.52 2336.03 1104.68ZM2336.75 1103.95C2337.79 1104.63 2338.88 1105 2340 1105C2341.81 1105 2343.52 1104.03 2345.08 1102.4C2345.63 1101.82 2346.12 1101.2 2346.55 1100.58C2346.7 1100.35 2346.83 1100.15 2346.92 1100C2346.83 1099.85 2346.7 1099.65 2346.55 1099.42C2346.12 1098.8 2345.63 1098.18 2345.08 1097.6C2344.74 1097.25 2344.41 1096.93 2344.06 1096.65L2336.75 1103.95ZM2343.25 1096.05C2342.21 1095.37 2341.12 1095 2340 1095C2338.19 1095 2336.48 1095.97 2334.92 1097.6C2334.37 1098.18 2333.88 1098.8 2333.45 1099.42C2333.3 1099.65 2333.17 1099.85 2333.08 1100C2333.17 1100.15 2333.3 1100.35 2333.45 1100.58C2333.88 1101.2 2334.37 1101.82 2334.92 1102.4C2335.26 1102.75 2335.59 1103.07 2335.94 1103.35L2343.25 1096.05Z" fill="#333333"/>
  <path transform="translate(-2332, -1092)" d="M2342.5 1100C2342.5 1101.38 2341.38 1102.5 2340 1102.5C2339.72 1102.5 2339.5 1102.72 2339.5 1103C2339.5 1103.28 2339.72 1103.5 2340 1103.5C2341.93 1103.5 2343.5 1101.93 2343.5 1100C2343.5 1099.72 2343.28 1099.5 2343 1099.5C2342.72 1099.5 2342.5 1099.72 2342.5 1100Z" fill="#333333"/>
</svg>