<svg width="16" height="16" viewBox="0 0 16 16" fill="none" xmlns="http://www.w3.org/2000/svg">
  <path transform="translate(-2332, -924)" fill-rule="evenodd" clip-rule="evenodd" d="M2343 932C2343 933.657 2341.66 935 2340 935C2338.34 935 2337 933.657 2337 932C2337 930.343 2338.34 929 2340 929C2341.66 929 2343 930.343 2343 932ZM2338 932C2338 933.105 2338.9 934 2340 934C2341.1 934 2342 933.105 2342 932C2342 930.895 2341.1 930 2340 930C2338.9 930 2338 930.895 2338 932Z" fill="#333333"/>
  <path transform="translate(-2332, -924)" fill-rule="evenodd" clip-rule="evenodd" d="M2332.06 931.761C2331.98 931.91 2331.98 932.09 2332.06 932.239C2332.09 932.289 2332.14 932.376 2332.21 932.495C2332.33 932.69 2332.47 932.908 2332.63 933.141C2333.08 933.807 2333.61 934.472 2334.2 935.095C2335.93 936.903 2337.87 938 2340 938C2342.13 938 2344.07 936.903 2345.8 935.095C2346.39 934.472 2346.92 933.807 2347.37 933.141C2347.53 932.908 2347.67 932.69 2347.79 932.495C2347.86 932.376 2347.91 932.289 2347.94 932.239C2348.02 932.09 2348.02 931.91 2347.94 931.761C2347.91 931.711 2347.86 931.624 2347.79 931.505C2347.67 931.31 2347.53 931.092 2347.37 930.859C2346.92 930.193 2346.39 929.528 2345.8 928.905C2344.07 927.097 2342.13 926 2340 926C2337.87 926 2335.93 927.097 2334.2 928.905C2333.61 929.528 2333.08 930.193 2332.63 930.859C2332.47 931.092 2332.33 931.31 2332.21 931.505C2332.14 931.624 2332.09 931.711 2332.06 931.761ZM2334.92 934.405C2334.37 933.824 2333.88 933.201 2333.45 932.578C2333.3 932.35 2333.17 932.154 2333.08 932C2333.17 931.846 2333.3 931.65 2333.45 931.422C2333.88 930.799 2334.37 930.176 2334.92 929.595C2336.48 927.966 2338.19 927 2340 927C2341.81 927 2343.52 927.966 2345.08 929.595C2345.63 930.176 2346.12 930.799 2346.55 931.422C2346.7 931.65 2346.83 931.846 2346.92 932C2346.83 932.154 2346.7 932.35 2346.55 932.578C2346.12 933.201 2345.63 933.824 2345.08 934.405C2343.52 936.034 2341.81 937 2340 937C2338.19 937 2336.48 936.034 2334.92 934.405Z" fill="#333333"/>
</svg>