<svg width="16" height="16" viewBox="0 0 16 16" fill="none" xmlns="http://www.w3.org/2000/svg">
  <path transform="translate(-2836, -1092)" fill-rule="evenodd" clip-rule="evenodd" d="M2850.3 1092.3L2847.6 1095C2846.5 1094.4 2845.3 1094 2844 1094C2840.4 1094 2837.6 1097.1 2836.4 1098.9C2835.9 1099.6 2835.9 1100.5 2836.4 1101.1C2836.9 1101.9 2837.8 1102.9 2838.8 1103.8L2836.3 1106.3C2835.9 1106.7 2835.9 1107.3 2836.3 1107.7C2836.5 1107.9 2836.7 1108 2837 1108C2837.3 1108 2837.5 1107.9 2837.7 1107.7L2851.7 1093.7C2852.1 1093.3 2852.1 1092.7 2851.7 1092.3C2851.3 1091.9 2850.7 1091.9 2850.3 1092.3ZM2841.3 1101.3C2841.1 1100.9 2841 1100.5 2841 1100C2841 1098.3 2842.3 1097 2844 1097C2844.5 1097 2844.9 1097.1 2845.3 1097.3L2841.3 1101.3Z" fill="#333333"/>
  <path transform="translate(-2836, -1092)" d="M2842.4 1105.8L2850.6 1097.6C2850.78 1097.82 2850.95 1098.02 2851.11 1098.2C2851.31 1098.43 2851.49 1098.63 2851.6 1098.8C2852.1 1099.5 2852.1 1100.4 2851.6 1101.1C2850.4 1102.9 2847.6 1106 2844 1106C2843.5 1106 2842.9 1105.9 2842.4 1105.8Z" fill="#333333"/>
</svg>