<svg width="16" height="16" viewBox="0 0 16 16" fill="none" xmlns="http://www.w3.org/2000/svg">
  <path transform="translate(-1208, -756)" d="M1219.5 759C1219.78 759 1220 759.224 1220 759.5C1220 759.745 1219.82 759.95 1219.59 759.992L1219.5 760H1212.5C1212.22 760 1212 759.776 1212 759.5C1212 759.255 1212.18 759.05 1212.41 759.008L1212.5 759H1219.5Z" fill="#333333"/>
  <path transform="translate(-1208, -756)" d="M1220 762.5C1220 762.224 1219.78 762 1219.5 762H1212.5L1212.41 762.008C1212.18 762.05 1212 762.255 1212 762.5C1212 762.776 1212.22 763 1212.5 763H1219.5L1219.59 762.992C1219.82 762.95 1220 762.745 1220 762.5Z" fill="#333333"/>
  <path transform="translate(-1208, -756)" fill-rule="evenodd" clip-rule="evenodd" d="M1222.5 756H1209.5C1208.67 756 1208 756.672 1208 757.5V770.5C1208 771.328 1208.67 772 1209.5 772H1222.5C1223.33 772 1224 771.328 1224 770.5V757.5C1224 756.672 1223.33 756 1222.5 756ZM1223 765V757.5C1223 757.224 1222.78 757 1222.5 757H1209.5C1209.22 757 1209 757.224 1209 757.5V765H1213.5C1213.75 765 1213.95 765.177 1213.99 765.41L1214 765.5V768H1218V765.5C1218 765.255 1218.18 765.05 1218.41 765.008L1218.5 765H1223ZM1209 766H1213V768.5L1213.01 768.59C1213.05 768.823 1213.25 769 1213.5 769H1218.5L1218.59 768.992C1218.82 768.95 1219 768.745 1219 768.5V766H1223V770.5C1223 770.776 1222.78 771 1222.5 771H1209.5C1209.22 771 1209 770.776 1209 770.5V766Z" fill="#333333"/>
</svg>