<svg width="16" height="16" viewBox="0 0 16 16" fill="none" xmlns="http://www.w3.org/2000/svg">
  <path transform="translate(-588, -420)" d="M595 428H589C588.4 428 588 428.4 588 429V435C588 435.6 588.4 436 589 436H595C595.6 436 596 435.6 596 435V429C596 428.4 595.6 428 595 428Z" fill="#333333"/>
  <path transform="translate(-588, -420)" d="M599 424H590V426H598V434H600V425C600 424.4 599.6 424 599 424Z" fill="#333333"/>
  <path transform="translate(-588, -420)" d="M594 420H603C603.6 420 604 420.4 604 421V430H602V422H594V420Z" fill="#333333"/>
</svg>