<svg width="16" height="16" viewBox="0 0 16 16" fill="none" xmlns="http://www.w3.org/2000/svg">
  <path transform="translate(-84, -420)" fill-rule="evenodd" clip-rule="evenodd" d="M85 424.5C85 424.224 85.2239 424 85.5 424H94.5C94.7761 424 95 424.224 95 424.5V435.5C95 435.776 94.7761 436 94.5 436H85.5C85.2239 436 85 435.776 85 435.5V424.5ZM86 425V435H94V425H86Z" fill="#333333"/>
  <path transform="translate(-84, -420)" d="M96 423V433.5C96 433.776 96.2239 434 96.5 434C96.7761 434 97 433.776 97 433.5V422.5C97 422.224 96.7761 422 96.5 422H87.5C87.2239 422 87 422.224 87 422.5C87 422.776 87.2239 423 87.5 423H96Z" fill="#333333"/>
  <path transform="translate(-84, -420)" d="M98 430.5V421H90.5C90.2239 421 90 420.776 90 420.5C90 420.224 90.2239 420 90.5 420H98.5C98.7761 420 99 420.224 99 420.5V430.5C99 430.776 98.7761 431 98.5 431C98.2239 431 98 430.776 98 430.5Z" fill="#333333"/>
</svg>