<svg width="16" height="16" viewBox="0 0 16 16" fill="none" xmlns="http://www.w3.org/2000/svg">
  <path transform="translate(-1208, -588)" d="M1214 597.5C1214 597.224 1213.78 597 1213.5 597H1211.5L1211.41 597.008C1211.18 597.05 1211 597.255 1211 597.5C1211 597.776 1211.22 598 1211.5 598H1213.5L1213.59 597.992C1213.82 597.95 1214 597.745 1214 597.5Z" fill="#333333"/>
  <path transform="translate(-1208, -588)" d="M1213.5 600C1213.78 600 1214 600.224 1214 600.5C1214 600.745 1213.82 600.95 1213.59 600.992L1213.5 601H1211.5C1211.22 601 1211 600.776 1211 600.5C1211 600.255 1211.18 600.05 1211.41 600.008L1211.5 600H1213.5Z" fill="#333333"/>
  <path transform="translate(-1208, -588)" d="M1215.5 594C1215.78 594 1216 594.224 1216 594.5C1216 594.745 1215.82 594.95 1215.59 594.992L1215.5 595H1211.5C1211.22 595 1211 594.776 1211 594.5C1211 594.255 1211.18 594.05 1211.41 594.008L1211.5 594H1215.5Z" fill="#333333"/>
  <path transform="translate(-1208, -588)" d="M1221.99 588.41C1221.95 588.177 1221.75 588 1221.5 588H1208.5L1208.41 588.008C1208.18 588.05 1208 588.255 1208 588.5V603.5L1208.01 603.59C1208.05 603.823 1208.25 604 1208.5 604H1214.5L1214.59 603.992C1214.82 603.95 1215 603.745 1215 603.5L1214.99 603.41C1214.95 603.177 1214.75 603 1214.5 603H1209V589H1221V593.5L1221.01 593.59C1221.05 593.823 1221.25 594 1221.5 594C1221.78 594 1222 593.776 1222 593.5V588.5L1221.99 588.41Z" fill="#333333"/>
  <path transform="translate(-1208, -588)" d="M1219 591.5C1219 591.224 1218.78 591 1218.5 591H1211.5L1211.41 591.008C1211.18 591.05 1211 591.255 1211 591.5C1211 591.776 1211.22 592 1211.5 592H1218.5L1218.59 591.992C1218.82 591.95 1219 591.745 1219 591.5Z" fill="#333333"/>
  <path transform="translate(-1208, -588)" d="M1219.5 597C1219.75 597 1219.95 597.177 1219.99 597.41L1220 597.5V599H1221.5C1221.78 599 1222 599.224 1222 599.5C1222 599.745 1221.82 599.95 1221.59 599.992L1221.5 600H1220V601.5C1220 601.776 1219.78 602 1219.5 602C1219.25 602 1219.05 601.823 1219.01 601.59L1219 601.5V600H1217.5C1217.22 600 1217 599.776 1217 599.5C1217 599.255 1217.18 599.05 1217.41 599.008L1217.5 599H1219V597.5C1219 597.224 1219.22 597 1219.5 597Z" fill="#333333"/>
  <path transform="translate(-1208, -588)" fill-rule="evenodd" clip-rule="evenodd" d="M1219.5 595C1217.01 595 1215 597.015 1215 599.5C1215 601.985 1217.01 604 1219.5 604C1221.99 604 1224 601.985 1224 599.5C1224 597.015 1221.99 595 1219.5 595ZM1219.5 596C1221.43 596 1223 597.567 1223 599.5C1223 601.433 1221.43 603 1219.5 603C1217.57 603 1216 601.433 1216 599.5C1216 597.567 1217.57 596 1219.5 596Z" fill="#333333"/>
</svg>