<svg width="16" height="16" viewBox="0 0 16 16" fill="none" xmlns="http://www.w3.org/2000/svg">
  <path transform="translate(-84, -588)" d="M92.7576 594.788H88.8788C88.611 594.788 88.3939 594.571 88.3939 594.303C88.3939 594.035 88.611 593.818 88.8788 593.818H92.7576C93.0253 593.818 93.2424 594.035 93.2424 594.303C93.2424 594.571 93.0253 594.788 92.7576 594.788Z" fill="#333333"/>
  <path transform="translate(-84, -588)" d="M88.8788 597.697H92.7576C93.0253 597.697 93.2424 597.48 93.2424 597.212C93.2424 596.944 93.0253 596.727 92.7576 596.727H88.8788C88.611 596.727 88.3939 596.944 88.3939 597.212C88.3939 597.48 88.611 597.697 88.8788 597.697Z" fill="#333333"/>
  <path transform="translate(-84, -588)" d="M92.7576 600.606H88.8788C88.611 600.606 88.3939 600.389 88.3939 600.121C88.3939 599.853 88.611 599.636 88.8788 599.636H92.7576C93.0253 599.636 93.2424 599.853 93.2424 600.121C93.2424 600.389 93.0253 600.606 92.7576 600.606Z" fill="#333333"/>
  <path transform="translate(-84, -588)" fill-rule="evenodd" clip-rule="evenodd" d="M85.9697 590.424C85.4341 590.424 85 590.858 85 591.394V603.03C85 603.566 85.4341 604 85.9697 604H95.6667C96.2022 604 96.6364 603.566 96.6364 603.03V591.394C96.6364 590.858 96.2022 590.424 95.6667 590.424H85.9697ZM85.9697 603.03V591.394H95.6667V603.03H85.9697Z" fill="#333333"/>
  <path transform="translate(-84, -588)" d="M98.0909 588.97V601.091C98.0909 601.359 98.308 601.576 98.5758 601.576C98.8435 601.576 99.0606 601.359 99.0606 601.091V588.485C99.0606 588.217 98.8435 588 98.5758 588H87.9091C87.6413 588 87.4242 588.217 87.4242 588.485C87.4242 588.753 87.6413 588.97 87.9091 588.97H98.0909Z" fill="#333333"/>
</svg>