<svg width="16" height="16" viewBox="0 0 16 16" fill="none" xmlns="http://www.w3.org/2000/svg">
  <path transform="translate(-1208, -252)" fill-rule="evenodd" clip-rule="evenodd" d="M1212 255.5C1212 255.224 1212.22 255 1212.5 255H1219.5C1219.78 255 1220 255.224 1220 255.5V260.5C1220 260.776 1219.78 261 1219.5 261H1212.5C1212.22 261 1212 260.776 1212 260.5V255.5ZM1213 256V260H1219V256H1213Z" fill="#333333"/>
  <path transform="translate(-1208, -252)" fill-rule="evenodd" clip-rule="evenodd" d="M1208 266V254.5C1208 253.119 1209.12 252 1210.5 252H1221.5C1222.88 252 1224 253.119 1224 254.5V266C1224 267.105 1223.1 268 1222 268H1210C1208.9 268 1208 267.105 1208 266ZM1209 264.268V254.5C1209 253.671 1209.67 253 1210.5 253H1221.5C1222.33 253 1223 253.671 1223 254.5V264.268C1222.71 264.097 1222.36 264 1222 264H1210C1209.64 264 1209.29 264.097 1209 264.268ZM1223 266C1223 265.448 1222.55 265 1222 265H1210C1209.45 265 1209 265.448 1209 266C1209 266.552 1209.45 267 1210 267H1222C1222.55 267 1223 266.552 1223 266Z" fill="#333333"/>
</svg>