<svg width="16" height="16" viewBox="0 0 16 16" fill="none" xmlns="http://www.w3.org/2000/svg">
  <path transform="translate(-84, -252)" d="M98.5 252C98.7761 252 99 252.224 99 252.5V267.5C99 267.776 98.7761 268 98.5 268H85.5C85.2239 268 85 267.776 85 267.5V252.5C85 252.224 85.2239 252 85.5 252H98.5ZM86 267H98V253H86V267ZM91.5 264C91.7761 264 92 264.224 92 264.5C92 264.776 91.7761 265 91.5 265H88.5C88.2239 265 88 264.776 88 264.5C88 264.224 88.2239 264 88.5 264H91.5ZM95.5 261C95.7761 261 96 261.224 96 261.5C96 261.776 95.7761 262 95.5 262H88.5C88.2239 262 88 261.776 88 261.5C88 261.224 88.2239 261 88.5 261H95.5ZM95.5 258C95.7761 258 96 258.224 96 258.5C96 258.776 95.7761 259 95.5 259H88.5C88.2239 259 88 258.776 88 258.5C88 258.224 88.2239 258 88.5 258H95.5ZM95.5 255C95.7761 255 96 255.224 96 255.5C96 255.776 95.7761 256 95.5 256H88.5C88.2239 256 88 255.776 88 255.5C88 255.224 88.2239 255 88.5 255H95.5Z" fill="#333333"/>
</svg>