<svg width="16" height="16" viewBox="0 0 16 16" fill="none" xmlns="http://www.w3.org/2000/svg">
  <path transform="translate(-84, -84)" fill-rule="evenodd" clip-rule="evenodd" d="M85 84.5C85 84.2239 85.2239 84 85.5 84H93.5C93.6326 84 93.7598 84.0527 93.8536 84.1464L98.8536 89.1464C98.9473 89.2402 99 89.3674 99 89.5V99.5C99 99.7761 98.7761 100 98.5 100H85.5C85.2239 100 85 99.7761 85 99.5V84.5ZM86 85V99H98V90H93.5C93.2239 90 93 89.7761 93 89.5V85H86ZM94 85.7071L97.2929 89H94V85.7071Z" fill="#333333"/>
</svg>