<svg width="16" height="16" viewBox="0 0 16 16" fill="none" xmlns="http://www.w3.org/2000/svg">
  <path transform="translate(-1208, -420)" fill-rule="evenodd" clip-rule="evenodd" d="M1208 421C1208 420.724 1208.22 420.5 1208.5 420.5C1208.78 420.5 1209 420.724 1209 421V421.5H1211V421C1211 420.724 1211.22 420.5 1211.5 420.5H1220.5C1220.78 420.5 1221 420.724 1221 421V421.5H1223V421C1223 420.724 1223.22 420.5 1223.5 420.5C1223.78 420.5 1224 420.724 1224 421V435C1224 435.276 1223.78 435.5 1223.5 435.5C1223.22 435.5 1223 435.276 1223 435V434.5H1221V435C1221 435.276 1220.78 435.5 1220.5 435.5H1211.5C1211.22 435.5 1211 435.276 1211 435V434.5H1209V435C1209 435.276 1208.78 435.5 1208.5 435.5C1208.22 435.5 1208 435.276 1208 435V421ZM1223 433.5V431.5H1221V433.5H1223ZM1223 430.5V428.5H1221V430.5H1223ZM1223 427.5V425.5H1221V427.5H1223ZM1223 424.5V422.5H1221V424.5H1223ZM1212 434.5H1220V428.5H1212V434.5ZM1220 427.5H1212V421.5H1220V427.5ZM1211 431.5V433.5H1209V431.5H1211ZM1211 430.5V428.5H1209V430.5H1211ZM1211 427.5V425.5H1209V427.5H1211ZM1211 424.5V422.5H1209V424.5H1211Z" fill="#333333"/>
</svg>