<svg width="16" height="16" viewBox="0 0 16 16" fill="none" xmlns="http://www.w3.org/2000/svg">
  <path transform="translate(-1712, -420)" fill-rule="evenodd" clip-rule="evenodd" d="M1726 420V423H1724V421C1724 420.4 1723.6 420 1723 420H1717C1716.4 420 1716 420.4 1716 421V423H1714V420H1712V436H1714V433H1716V435C1716 435.6 1716.4 436 1717 436H1723C1723.6 436 1724 435.6 1724 435V433H1726V436H1728V420H1726ZM1726 425V427H1724V425H1726ZM1716 425V427H1714V425H1716ZM1714 431V429H1716V431H1714ZM1724 431V429H1726V431H1724Z" fill="#333333"/>
</svg>