<svg width="16" height="16" viewBox="0 0 16 16" fill="none" xmlns="http://www.w3.org/2000/svg">
  <path transform="translate(-84, -1092)" fill-rule="evenodd" clip-rule="evenodd" d="M86 1092.5C86 1092.22 86.2239 1092 86.5 1092C86.7761 1092 87 1092.22 87 1092.5V1093H97.5C97.8717 1093 98.1134 1093.39 97.9472 1093.72L96.059 1097.5L97.9472 1101.28C98.1134 1101.61 97.8717 1102 97.5 1102H87V1107.5C87 1107.78 86.7761 1108 86.5 1108C86.2239 1108 86 1107.78 86 1107.5V1092.5ZM87 1101H96.691L95.0528 1097.72C94.9824 1097.58 94.9824 1097.42 95.0528 1097.28L96.691 1094H87V1101Z" fill="#333333"/>
</svg>