<svg width="16" height="16" viewBox="0 0 16 16" fill="none" xmlns="http://www.w3.org/2000/svg">
  <path transform="translate(-1208, -588)" fill-rule="evenodd" clip-rule="evenodd" d="M1217.5 587.999H1212.5C1212.27 587.999 1212.07 588.155 1212.01 588.378L1210.01 596.378L1210 596.463C1209.98 596.746 1210.2 596.999 1210.5 596.999H1214.92L1214 603.428C1213.93 603.961 1214.63 604.222 1214.92 603.767L1221.92 592.767L1221.96 592.695C1222.1 592.375 1221.87 591.999 1221.5 591.999H1217.14L1217.98 588.62C1218.06 588.305 1217.83 587.999 1217.5 587.999ZM1216.86 588.999L1216.01 592.378L1216 592.463C1215.98 592.746 1216.2 592.999 1216.5 592.999H1220.59L1215.32 601.276L1215.99 596.57L1216 596.481C1215.99 596.217 1215.77 595.999 1215.5 595.999H1211.14L1212.89 588.999H1216.86Z" fill="#333333"/>
</svg>