<svg width="16" height="16" viewBox="0 0 16 16" fill="none" xmlns="http://www.w3.org/2000/svg">
  <path transform="translate(-1208, -84)" fill-rule="evenodd" clip-rule="evenodd" d="M1215.77 88L1213.92 85.2226C1213.82 85.0836 1213.67 85 1213.5 85H1208.5C1208.22 85 1208 85.2239 1208 85.5V96.5C1208 97.8811 1209.12 99 1210.5 99H1221.5C1222.88 99 1224 97.8811 1224 96.5V88.5C1224 88.2239 1223.78 88 1223.5 88H1215.77ZM1223 89V96.5C1223 97.3289 1222.33 98 1221.5 98H1210.5C1209.67 98 1209 97.3289 1209 96.5V86H1213.23L1215.08 88.7774C1215.18 88.9164 1215.33 89 1215.5 89H1223Z" fill="#333333"/>
</svg>