<svg width="16" height="16" viewBox="0 0 16 16" fill="none" xmlns="http://www.w3.org/2000/svg">
  <path transform="translate(-1208, -254)" fill-rule="evenodd" clip-rule="evenodd" d="M1214 263.167L1208.1 255.3C1207.85 254.97 1208.09 254.5 1208.5 254.5H1223.5C1223.91 254.5 1224.15 254.97 1223.9 255.3L1218 263.167V269C1218 269.276 1217.78 269.5 1217.5 269.5H1214.5C1214.22 269.5 1214 269.276 1214 269V263.167ZM1209.5 255.5L1214.9 262.7C1214.96 262.787 1215 262.892 1215 263V268.5H1217V263C1217 262.892 1217.04 262.787 1217.1 262.7L1222.5 255.5H1209.5Z" fill="#333333"/>
</svg>