<svg width="16" height="16" viewBox="0 0 16 16" fill="none" xmlns="http://www.w3.org/2000/svg">
  <path transform="translate(-84, -924)" d="M89 932C89.5523 932 90 931.552 90 931C90 930.448 89.5523 930 89 930C88.4477 930 88 930.448 88 931C88 931.552 88.4477 932 89 932Z" fill="#333333"/>
  <path transform="translate(-84, -924)" fill-rule="evenodd" clip-rule="evenodd" d="M93.5835 931.007C93.7275 931.031 93.8536 931.118 93.9287 931.243L96.9287 936.243C97.0214 936.397 97.0239 936.59 96.9351 936.746C96.8463 936.903 96.6801 937 96.5 937H87.5C87.2895 937 87.1015 936.868 87.0299 936.67C86.9582 936.472 87.0182 936.251 87.1799 936.116L93.1799 931.116C93.2921 931.022 93.4395 930.983 93.5835 931.007ZM88.881 936H95.6169L93.3716 932.258L88.881 936Z" fill="#333333"/>
  <path transform="translate(-84, -924)" fill-rule="evenodd" clip-rule="evenodd" d="M85 927.5C85 927.224 85.2239 927 85.5 927H98.5C98.7761 927 99 927.224 99 927.5V938.5C99 938.776 98.7761 939 98.5 939H85.5C85.2239 939 85 938.776 85 938.5V927.5ZM86 928V938H98V928H86Z" fill="#333333"/>
  <path transform="translate(-84, -924)" fill-rule="evenodd" clip-rule="evenodd" d="M88 924.5C88 924.224 88.2239 924 88.5 924H95.5C95.7761 924 96 924.224 96 924.5C96 924.776 95.7761 925 95.5 925H88.5C88.2239 925 88 924.776 88 924.5Z" fill="#333333"/>
</svg>