<svg width="16" height="16" viewBox="0 0 16 16" fill="none" xmlns="http://www.w3.org/2000/svg">
  <path transform="translate(-596, -925)" d="M601.002 935C601.554 935 602.002 934.552 602.002 934C602.002 933.448 601.554 933 601.002 933C600.449 933 600.002 933.448 600.002 934C600.002 934.552 600.449 935 601.002 935Z" fill="#333333"/>
  <path transform="translate(-596, -925)" d="M611.002 929H597.002C596.868 928.992 596.735 929.012 596.61 929.06C596.485 929.107 596.371 929.181 596.277 929.275C596.182 929.37 596.109 929.483 596.061 929.608C596.014 929.733 595.994 929.867 596.002 930V940C595.994 940.133 596.014 940.267 596.061 940.392C596.109 940.517 596.182 940.63 596.277 940.725C596.371 940.819 596.485 940.893 596.61 940.94C596.735 940.988 596.868 941.008 597.002 941H611.002C611.135 941.008 611.269 940.988 611.394 940.94C611.519 940.893 611.632 940.819 611.727 940.725C611.821 940.63 611.895 940.517 611.942 940.392C611.989 940.267 612.01 940.133 612.002 940V930C612.01 929.867 611.989 929.733 611.942 929.608C611.895 929.483 611.821 929.37 611.727 929.275C611.632 929.181 611.519 929.107 611.394 929.06C611.269 929.012 611.135 928.992 611.002 929ZM610.002 939H598.002V931H610.002V939Z" fill="#333333"/>
  <path transform="translate(-596, -925)" d="M610.002 925H598.002V927H610.002V925Z" fill="#333333"/>
  <path transform="translate(-596, -925)" d="M601.002 938L606.002 933L609.002 938H601.002Z" fill="#333333"/>
</svg>