<svg width="16" height="16" viewBox="0 0 16 16" fill="none" xmlns="http://www.w3.org/2000/svg">
  <path transform="translate(-84, -2436)" d="M92 2439C96.4181 2439 100 2442.58 100 2447C100 2447.54 99.9453 2448.07 99.8389 2448.6C99.7917 2448.83 99.5866 2449 99.3486 2449H84.6514C84.4138 2449 84.2087 2448.83 84.1611 2448.6C84.0543 2448.08 84 2447.54 84 2447C84 2442.58 87.5819 2439 92 2439ZM92 2440C88.1341 2440 85 2443.13 85 2447C85 2447.24 85.0116 2447.47 85.0352 2447.71L85.0723 2448H91.1914L89.0527 2443.72C88.9292 2443.48 89.0294 2443.18 89.2764 2443.05C89.4957 2442.94 89.7572 2443.01 89.8994 2443.2L89.9473 2443.28L92.3086 2448H98.9268L98.9648 2447.7C98.9766 2447.59 98.9853 2447.47 98.9912 2447.35L99 2447C99 2443.13 95.8659 2440 92 2440Z" fill="#333333"/>
</svg>