<svg width="16" height="16" viewBox="0 0 16 16" fill="none" xmlns="http://www.w3.org/2000/svg">
  <path transform="translate(-588, -2436)" fill-rule="evenodd" clip-rule="evenodd" d="M589.035 2449.18H603.059L603.247 2448.52C603.435 2447.86 603.529 2447.11 603.529 2446.35C603.529 2442.21 600.141 2438.82 596 2438.82C591.859 2438.82 588.471 2442.21 588.471 2446.35C588.471 2447.11 588.565 2447.76 588.753 2448.52L589.035 2449.18ZM596.094 2440.71C599.2 2440.71 601.741 2443.25 601.741 2446.35C601.741 2446.64 601.741 2447.01 601.647 2447.29H596.753L595.059 2443.15L593.365 2443.91L594.682 2447.29H590.541C590.447 2447.01 590.447 2446.64 590.447 2446.35C590.447 2443.25 592.988 2440.71 596.094 2440.71Z" fill="#333333"/>
</svg>