<svg width="16" height="16" viewBox="0 0 16 16" fill="none" xmlns="http://www.w3.org/2000/svg">
  <path transform="translate(-1712, -2100)" fill-rule="evenodd" clip-rule="evenodd" d="M1726 2103C1726 2103.4 1725.9 2103.7 1725.8 2104H1728V2108H1712V2104H1714.2C1714.1 2103.7 1714 2103.4 1714 2103C1714 2101.3 1715.3 2100 1717 2100C1718.4 2100 1719.4 2100.8 1720 2101.7C1720.6 2100.8 1721.6 2100 1723 2100C1724.7 2100 1726 2101.3 1726 2103ZM1724 2103C1724 2102.4 1723.6 2102 1723 2102C1721.9 2102 1721.4 2103.1 1721.2 2104H1723C1723.6 2104 1724 2103.6 1724 2103ZM1716 2103C1716 2102.4 1716.4 2102 1717 2102C1718.1 2102 1718.6 2103.1 1718.8 2104H1717C1716.4 2104 1716 2103.6 1716 2103Z" fill="#333333"/>
  <path transform="translate(-1712, -2100)" d="M1714 2110C1714 2109.4 1714.4 2109 1715 2109H1725C1725.6 2109 1726 2109.4 1726 2110V2115C1726 2115.6 1725.6 2116 1725 2116H1715C1714.4 2116 1714 2115.6 1714 2115V2110Z" fill="#333333"/>
</svg>