<svg width="16" height="16" viewBox="0 0 16 16" fill="none" xmlns="http://www.w3.org/2000/svg">
  <path transform="translate(-1208, -2100)" fill-rule="evenodd" clip-rule="evenodd" d="M1212.33 2100C1211.03 2100 1210 2101.13 1210 2102.5C1210 2103.06 1210.17 2103.58 1210.47 2104H1208.5C1208.22 2104 1208 2104.22 1208 2104.5V2107.5C1208 2107.78 1208.22 2108 1208.5 2108H1223.5C1223.78 2108 1224 2107.78 1224 2107.5V2104.5C1224 2104.22 1223.78 2104 1223.5 2104H1221.53C1221.83 2103.58 1222 2103.06 1222 2102.5C1222 2101.13 1220.97 2100 1219.67 2100C1218.27 2100 1217.19 2100.86 1216.38 2102.25C1216.24 2102.49 1216.11 2102.75 1216 2103C1215.89 2102.75 1215.76 2102.49 1215.62 2102.25C1214.81 2100.86 1213.73 2100 1212.33 2100ZM1219.67 2104C1220.35 2104 1220.93 2103.41 1220.99 2102.65L1221 2102.5C1221 2101.66 1220.39 2101 1219.67 2101C1218.69 2101 1217.89 2101.64 1217.25 2102.75C1217.02 2103.15 1216.83 2103.57 1216.68 2104H1219.67ZM1215.32 2104L1215.21 2103.71C1215.13 2103.49 1215.03 2103.27 1214.92 2103.06L1214.75 2102.75C1214.11 2101.64 1213.31 2101 1212.33 2101C1211.61 2101 1211 2101.66 1211 2102.5C1211 2103.34 1211.61 2104 1212.33 2104H1215.32ZM1209 2105V2107H1223V2105H1209Z" fill="#333333"/>
  <path transform="translate(-1208, -2100)" d="M1221.5 2109C1221.75 2109 1221.95 2109.18 1221.99 2109.41L1222 2109.5V2115.5C1222 2115.75 1221.82 2115.95 1221.59 2115.99L1221.5 2116H1210.5C1210.25 2116 1210.05 2115.82 1210.01 2115.59L1210 2115.5V2109.5C1210 2109.22 1210.22 2109 1210.5 2109C1210.75 2109 1210.95 2109.18 1210.99 2109.41L1211 2109.5V2115H1221V2109.5C1221 2109.25 1221.18 2109.05 1221.41 2109.01L1221.5 2109Z" fill="#333333"/>
</svg>