<svg width="16" height="16" viewBox="0 0 16 16" fill="none" xmlns="http://www.w3.org/2000/svg">
  <path transform="translate(-588, -84)" fill-rule="evenodd" clip-rule="evenodd" d="M596 84C591.6 84 588 87.6 588 92C588 96.4 591.6 100 596 100C600.4 100 604 96.4 604 92C604 87.6 600.4 84 596 84ZM601.9 91H600C599.9 89.5 599.6 88.1 599.2 86.9C600.6 87.8 601.6 89.3 601.9 91ZM596 98C595.4 98 594.2 96.1 594 93H598C597.8 96.1 596.6 98 596 98ZM594 91C594.2 87.9 595.3 86 596 86C596.7 86 597.8 87.9 598 91H594ZM592.9 86.9C592.4 88.1 592.1 89.5 592 91H590.1C590.4 89.3 591.4 87.8 592.9 86.9ZM590.1 93H592C592.1 94.5 592.4 95.9 592.8 97.1C591.4 96.2 590.4 94.7 590.1 93ZM599.1 97.1C599.6 95.9 599.8 94.5 599.9 93H601.8C601.6 94.7 600.6 96.2 599.1 97.1Z" fill="#333333"/>
</svg>