<svg width="16" height="16" viewBox="0 0 16 16" fill="none" xmlns="http://www.w3.org/2000/svg">
  <path transform="translate(-84, -84)" fill-rule="evenodd" clip-rule="evenodd" d="M99.9846 91.5H100V92.5H99.9846C99.7367 96.52 96.52 99.7367 92.5 99.9846V100H91.5V99.9846C87.48 99.7367 84.2633 96.52 84.0154 92.5H84V91.5H84.0154C84.2633 87.48 87.48 84.2633 91.5 84.0154V84H92.5V84.0154C96.52 84.2633 99.7367 87.48 99.9846 91.5ZM98.9824 91.5C98.8052 88.9882 97.3027 86.8424 95.17 85.7572C96.2282 87.1282 96.9052 89.1843 96.9908 91.5H98.9824ZM88.83 85.7572C86.6973 86.8424 85.1948 88.9882 85.0176 91.5H87.0092C87.0948 89.1843 87.7718 87.1282 88.83 85.7572ZM85.0176 92.5C85.1948 95.0118 86.6973 97.1576 88.83 98.2428C87.7718 96.8718 87.0948 94.8157 87.0092 92.5H85.0176ZM95.17 98.2428C97.3027 97.1576 98.8052 95.0118 98.9824 92.5H96.9908C96.9052 94.8157 96.2283 96.8718 95.17 98.2428ZM95.9901 92.5C95.8551 95.8824 94.361 98.5376 92.5 98.9455V92.5H95.9901ZM95.9901 91.5H92.5V85.0545C94.361 85.4624 95.8551 88.1176 95.9901 91.5ZM91.5 91.5V85.0545C89.639 85.4624 88.1449 88.1176 88.0099 91.5H91.5ZM91.5 98.9455V92.5H88.0099C88.1449 95.8824 89.639 98.5376 91.5 98.9455Z" fill="#333333"/>
</svg>