<svg width="16" height="16" viewBox="0 0 16 16" fill="none" xmlns="http://www.w3.org/2000/svg">
  <path transform="translate(-2332, -88)" fill-rule="evenodd" clip-rule="evenodd" d="M2332.5 88H2335.5C2335.78 88 2336 88.2239 2336 88.5V91.5C2336 91.7761 2335.78 92 2335.5 92H2332.5C2332.22 92 2332 91.7761 2332 91.5V88.5C2332 88.2239 2332.22 88 2332.5 88ZM2335 91V89H2333V91H2335Z" fill="#333333"/>
  <path transform="translate(-2332, -88)" fill-rule="evenodd" clip-rule="evenodd" d="M2332.5 94H2335.5C2335.78 94 2336 94.2239 2336 94.5V97.5C2336 97.7761 2335.78 98 2335.5 98H2332.5C2332.22 98 2332 97.7761 2332 97.5V94.5C2332 94.2239 2332.22 94 2332.5 94ZM2335 97V95H2333V97H2335Z" fill="#333333"/>
  <path transform="translate(-2332, -88)" fill-rule="evenodd" clip-rule="evenodd" d="M2335.5 100H2332.5C2332.22 100 2332 100.224 2332 100.5V103.5C2332 103.776 2332.22 104 2332.5 104H2335.5C2335.78 104 2336 103.776 2336 103.5V100.5C2336 100.224 2335.78 100 2335.5 100ZM2335 101V103H2333V101H2335Z" fill="#333333"/>
  <path transform="translate(-2332, -88)" fill-rule="evenodd" clip-rule="evenodd" d="M2338.5 88H2341.5C2341.78 88 2342 88.2239 2342 88.5V91.5C2342 91.7761 2341.78 92 2341.5 92H2338.5C2338.22 92 2338 91.7761 2338 91.5V88.5C2338 88.2239 2338.22 88 2338.5 88ZM2341 91V89H2339V91H2341Z" fill="#333333"/>
  <path transform="translate(-2332, -88)" fill-rule="evenodd" clip-rule="evenodd" d="M2341.5 94H2338.5C2338.22 94 2338 94.2239 2338 94.5V97.5C2338 97.7761 2338.22 98 2338.5 98H2341.5C2341.78 98 2342 97.7761 2342 97.5V94.5C2342 94.2239 2341.78 94 2341.5 94ZM2341 95V97H2339V95H2341Z" fill="#333333"/>
  <path transform="translate(-2332, -88)" fill-rule="evenodd" clip-rule="evenodd" d="M2338.5 100H2341.5C2341.78 100 2342 100.224 2342 100.5V103.5C2342 103.776 2341.78 104 2341.5 104H2338.5C2338.22 104 2338 103.776 2338 103.5V100.5C2338 100.224 2338.22 100 2338.5 100ZM2341 103V101H2339V103H2341Z" fill="#333333"/>
  <path transform="translate(-2332, -88)" fill-rule="evenodd" clip-rule="evenodd" d="M2347.5 88H2344.5C2344.22 88 2344 88.2239 2344 88.5V91.5C2344 91.7761 2344.22 92 2344.5 92H2347.5C2347.78 92 2348 91.7761 2348 91.5V88.5C2348 88.2239 2347.78 88 2347.5 88ZM2347 89V91H2345V89H2347Z" fill="#333333"/>
  <path transform="translate(-2332, -88)" fill-rule="evenodd" clip-rule="evenodd" d="M2344.5 94H2347.5C2347.78 94 2348 94.2239 2348 94.5V97.5C2348 97.7761 2347.78 98 2347.5 98H2344.5C2344.22 98 2344 97.7761 2344 97.5V94.5C2344 94.2239 2344.22 94 2344.5 94ZM2347 97V95H2345V97H2347Z" fill="#333333"/>
  <path transform="translate(-2332, -88)" fill-rule="evenodd" clip-rule="evenodd" d="M2347.5 100H2344.5C2344.22 100 2344 100.224 2344 100.5V103.5C2344 103.776 2344.22 104 2344.5 104H2347.5C2347.78 104 2348 103.776 2348 103.5V100.5C2348 100.224 2347.78 100 2347.5 100ZM2347 101V103H2345V101H2347Z" fill="#333333"/>
</svg>