<svg width="16" height="16" viewBox="0 0 16 16" fill="none" xmlns="http://www.w3.org/2000/svg">
  <path transform="translate(-2836, -88)" d="M2836 88H2840V92H2836V88Z" fill="#333333"/>
  <path transform="translate(-2836, -88)" d="M2836 94H2840V98H2836V94Z" fill="#333333"/>
  <path transform="translate(-2836, -88)" d="M2840 100H2836V104H2840V100Z" fill="#333333"/>
  <path transform="translate(-2836, -88)" d="M2842 88H2846V92H2842V88Z" fill="#333333"/>
  <path transform="translate(-2836, -88)" d="M2846 94H2842V98H2846V94Z" fill="#333333"/>
  <path transform="translate(-2836, -88)" d="M2842 100H2846V104H2842V100Z" fill="#333333"/>
  <path transform="translate(-2836, -88)" d="M2852 88H2848V92H2852V88Z" fill="#333333"/>
  <path transform="translate(-2836, -88)" d="M2848 94H2852V98H2848V94Z" fill="#333333"/>
  <path transform="translate(-2836, -88)" d="M2852 100H2848V104H2852V100Z" fill="#333333"/>
</svg>