<svg width="16" height="16" viewBox="0 0 16 16" fill="none" xmlns="http://www.w3.org/2000/svg">
  <path transform="translate(-1744, -420)" d="M1746 422.001V427.001C1746 427.554 1745.55 428.001 1745 428.001C1744.45 428.001 1744 427.554 1744 427.001V421.001C1744 420.449 1744.45 420.001 1745 420.001H1749C1749.55 420.001 1750 420.449 1750 421.001C1750 421.554 1749.55 422.001 1749 422.001H1746Z" fill="#333333"/>
  <path transform="translate(-1744, -420)" d="M1759 420.001C1759.55 420.001 1760 420.449 1760 421.001V430.007C1759.96 430.906 1759.54 431.744 1758.84 432.307L1755.76 434.937C1755.04 435.562 1754.11 435.905 1753.15 435.902C1752.68 435.899 1752.22 435.813 1751.78 435.649C1750.98 436.192 1749.91 436.094 1749.23 435.415L1745.65 431.829C1745.14 431.324 1744.95 430.587 1745.13 429.897C1745.32 429.207 1745.85 428.668 1746.55 428.483C1747.24 428.298 1747.97 428.496 1748.48 429.001L1752.06 432.586C1752.39 432.919 1752.59 433.358 1752.63 433.826C1753.27 434.003 1753.95 433.85 1754.46 433.419L1754.59 433.301L1753.15 431.859C1752.95 431.664 1752.95 431.347 1753.15 431.151C1753.34 430.956 1753.66 430.956 1753.86 431.151L1755.36 432.651L1756.21 431.92L1754.65 430.355C1754.52 430.229 1754.47 430.044 1754.52 429.872C1754.56 429.699 1754.7 429.564 1754.87 429.518C1755.04 429.471 1755.23 429.521 1755.35 429.647L1756.97 431.269L1757.54 430.786C1757.8 430.569 1757.95 430.255 1757.96 429.921C1757.97 429.586 1757.85 429.262 1757.61 429.025L1753.42 424.832L1750.73 426.922C1749.69 427.729 1748.22 427.637 1747.29 426.708C1746.9 426.318 1746.9 425.685 1747.29 425.294L1751.27 421.319C1752.11 420.473 1753.26 419.998 1754.45 420.001H1759Z" fill="#333333"/>
</svg>