<svg width="16" height="16" viewBox="0 0 16 16" fill="none" xmlns="http://www.w3.org/2000/svg">
  <path transform="translate(-1240, -420)" d="M1241 426.003C1241 426.279 1240.78 426.503 1240.5 426.503C1240.25 426.503 1240.05 426.326 1240.01 426.093L1240 426.003V421.003C1240 420.758 1240.18 420.554 1240.41 420.511L1240.5 420.503H1245.55C1245.72 420.503 1245.89 420.514 1246.06 420.536C1246.34 420.572 1246.53 420.822 1246.5 421.096C1246.46 421.37 1246.21 421.563 1245.94 421.528L1245.74 421.509L1245.55 421.503H1241V426.003Z" fill="#333333"/>
  <path transform="translate(-1240, -420)" fill-rule="evenodd" clip-rule="evenodd" d="M1241.27 427.525L1241.52 427.275C1242.2 426.597 1243.3 426.597 1243.98 427.275L1244.08 427.386C1244.34 427.693 1244.47 428.07 1244.49 428.449C1244.96 428.426 1245.44 428.595 1245.8 428.956L1245.9 429.066C1246.21 429.43 1246.34 429.89 1246.3 430.338C1246.7 430.365 1247.1 430.534 1247.41 430.842L1247.51 430.953C1247.79 431.288 1247.93 431.705 1247.92 432.118C1248.29 432.14 1248.65 432.291 1248.93 432.573C1249.54 433.182 1249.54 434.17 1248.93 434.78L1248.67 435.04C1248.06 435.649 1247.07 435.649 1246.46 435.04C1246.19 434.766 1246.04 434.415 1246.01 434.057C1245.54 434.078 1245.06 433.909 1244.7 433.55L1244.6 433.439C1244.33 433.114 1244.19 432.711 1244.19 432.31C1243.75 432.313 1243.3 432.143 1242.95 431.801L1242.85 431.69C1242.56 431.346 1242.43 430.915 1242.45 430.49C1242.02 430.477 1241.6 430.308 1241.27 429.982L1241.17 429.872C1240.59 429.189 1240.63 428.168 1241.27 427.525ZM1245.41 431.801C1245.4 431.809 1245.39 431.817 1245.39 431.825C1245.12 432.114 1245.13 432.562 1245.41 432.842L1245.49 432.908C1245.78 433.129 1246.19 433.107 1246.45 432.843L1246.7 432.593C1246.99 432.305 1246.99 431.838 1246.7 431.55L1246.63 431.484C1246.35 431.272 1245.95 431.284 1245.69 431.522L1245.41 431.801ZM1245.09 430.706L1245 430.799C1244.98 430.813 1244.97 430.828 1244.95 430.842L1244.7 431.093C1244.7 431.101 1244.69 431.109 1244.68 431.117C1244.41 431.359 1244.02 431.373 1243.74 431.159L1243.66 431.093C1243.37 430.805 1243.37 430.339 1243.66 430.051L1244.05 429.663C1244.31 429.399 1244.73 429.377 1245.02 429.597L1245.09 429.663C1245.38 429.951 1245.38 430.418 1245.09 430.706ZM1242.23 427.982L1241.98 428.232C1241.69 428.52 1241.69 428.987 1241.98 429.275L1242.05 429.341C1242.34 429.561 1242.76 429.539 1243.02 429.275L1243.27 429.025C1243.56 428.737 1243.56 428.271 1243.27 427.983L1243.2 427.917C1242.91 427.696 1242.49 427.718 1242.23 427.982ZM1247.17 433.54L1247.43 433.28C1247.65 433.061 1248 433.061 1248.22 433.28C1248.44 433.499 1248.44 433.854 1248.22 434.073L1247.96 434.333C1247.74 434.552 1247.39 434.552 1247.17 434.333C1246.95 434.114 1246.95 433.759 1247.17 433.54Z" fill="#333333"/>
  <path transform="translate(-1240, -420)" d="M1250.36 423.155C1250.33 423.12 1250.29 423.091 1250.25 423.068C1250.18 423.031 1250.11 423.01 1250.04 423.004C1249.96 422.999 1249.89 423.01 1249.82 423.037C1249.77 423.054 1249.73 423.078 1249.69 423.108L1246.25 425.69L1246.17 425.743C1245.99 425.833 1245.79 425.837 1245.61 425.748C1245.43 425.66 1245.31 425.491 1245.28 425.296C1245.24 425.101 1245.31 424.903 1245.45 424.763L1248.48 422.119L1248.64 421.993C1249.07 421.676 1249.59 421.503 1250.12 421.503H1255V426.003L1255.01 426.093C1255.05 426.326 1255.25 426.503 1255.5 426.503C1255.78 426.503 1256 426.279 1256 426.003V421.003L1255.99 420.913C1255.95 420.68 1255.75 420.503 1255.5 420.503H1250.12L1249.89 420.511C1249.13 420.561 1248.4 420.86 1247.82 421.365L1244.77 424.032L1244.65 424.153C1244.34 424.527 1244.21 424.995 1244.29 425.457C1244.37 425.969 1244.7 426.41 1245.16 426.642C1245.71 426.916 1246.36 426.857 1246.85 426.49L1249.95 424.163L1254.27 428.482L1254.34 428.564C1254.56 428.853 1254.53 429.263 1254.27 429.525C1253.98 429.812 1253.52 429.812 1253.23 429.525L1251.85 428.15L1251.78 428.092C1251.59 427.957 1251.32 427.976 1251.15 428.15C1250.95 428.345 1250.95 428.661 1251.15 428.857L1252.66 430.37L1252.73 430.452C1252.94 430.741 1252.92 431.151 1252.66 431.413C1252.37 431.7 1251.9 431.7 1251.62 431.412L1250.09 429.886L1250.02 429.828C1249.83 429.693 1249.56 429.712 1249.38 429.886C1249.19 430.081 1249.19 430.397 1249.38 430.593L1250.52 431.732L1250.59 431.814C1250.81 432.103 1250.78 432.513 1250.52 432.775L1250.46 432.844C1250.33 433.039 1250.35 433.308 1250.52 433.482C1250.72 433.677 1251.03 433.677 1251.23 433.482C1251.49 433.224 1251.65 432.907 1251.71 432.574C1252.28 432.721 1252.92 432.569 1253.37 432.12C1253.74 431.741 1253.91 431.231 1253.87 430.736C1254.27 430.709 1254.67 430.541 1254.98 430.232C1255.66 429.553 1255.66 428.453 1254.98 427.775L1250.36 423.155Z" fill="#333333"/>
</svg>