<svg width="16" height="16" viewBox="0 0 16 16" fill="none" xmlns="http://www.w3.org/2000/svg">
  <path transform="translate(-588, -252)" d="M591.292 257.29V260C591.253 261.101 590.738 262.131 589.881 262.823H589.41C588.89 262.823 588.469 263.245 588.469 263.764C588.469 264.284 588.89 264.706 589.41 264.706H598.708L591.292 257.29Z" fill="#333333"/>
  <path transform="translate(-588, -252)" d="M602.253 266.921C602.342 267.009 602.462 267.059 602.586 267.059C602.777 267.059 602.949 266.944 603.022 266.768C603.095 266.592 603.055 266.389 602.92 266.255L589.743 253.078C589.559 252.894 589.261 252.894 589.077 253.078C588.893 253.262 588.893 253.561 589.077 253.745L602.253 266.921Z" fill="#333333"/>
  <path transform="translate(-588, -252)" d="M594.116 265.647H597.881C597.881 266.686 597.038 267.529 595.998 267.529C594.959 267.529 594.116 266.686 594.116 265.647Z" fill="#333333"/>
  <path transform="translate(-588, -252)" d="M603.53 263.71C603.555 264.211 603.18 264.642 602.681 264.687L592.297 254.302C593.523 252.708 595.628 252.073 597.531 252.723C599.434 253.374 600.711 255.165 600.704 257.176V260C600.743 261.101 601.258 262.131 602.116 262.823H602.586C603.088 262.817 603.505 263.209 603.53 263.71Z" fill="#333333"/>
</svg>