<svg width="16" height="16" viewBox="0 0 16 16" fill="none" xmlns="http://www.w3.org/2000/svg">
  <path transform="translate(-1712, -84)" d="M1720 84C1715.59 84 1712 87.589 1712 92V97C1712 98.654 1713.35 100 1715 100H1716C1716.55 100 1717 99.552 1717 99V94C1717 93.448 1716.55 93 1716 93H1714V92C1714 88.691 1716.69 86 1720 86C1723.31 86 1726 88.691 1726 92V93H1724C1723.45 93 1723 93.448 1723 94V99C1723 99.552 1723.45 100 1724 100H1725C1726.65 100 1728 98.654 1728 97V92C1728 87.589 1724.41 84 1720 84Z" fill="#333333"/>
</svg>