<svg width="16" height="16" viewBox="0 0 16 16" fill="none" xmlns="http://www.w3.org/2000/svg">
  <path transform="translate(-84, -252)" fill-rule="evenodd" clip-rule="evenodd" d="M88.0373 255.08L85.6036 252.646C85.4083 252.451 85.0917 252.451 84.8964 252.646C84.7012 252.842 84.7012 253.158 84.8964 253.354L87.1025 255.56C86.8689 256.179 86.7491 256.837 86.75 257.501L86.75 261.5C86.75 262.328 86.0784 263 85.25 263H84.75C84.4739 263 84.25 263.224 84.25 263.5C84.25 263.776 84.4739 264 84.75 264H95.5429L98.8964 267.354C99.0917 267.549 99.4083 267.549 99.6036 267.354C99.7988 267.158 99.7988 266.842 99.6036 266.646L88.0537 255.097C88.0484 255.091 88.0429 255.086 88.0373 255.08ZM87.8972 256.354C87.7992 256.727 87.7495 257.112 87.75 257.5V261.5C87.75 262.063 87.564 262.582 87.2502 263H94.5429L87.8972 256.354Z" fill="#333333"/>
  <path transform="translate(-84, -252)" d="M93.75 265.5C93.75 266.328 93.0784 267 92.25 267C91.4216 267 90.75 266.328 90.75 265.5C90.75 265.224 90.5261 265 90.25 265C89.9739 265 89.75 265.224 89.75 265.5C89.75 266.881 90.8693 268 92.25 268C93.6307 268 94.75 266.881 94.75 265.5C94.75 265.224 94.5261 265 94.25 265C93.9739 265 93.75 265.224 93.75 265.5Z" fill="#333333"/>
  <path transform="translate(-84, -252)" d="M99.25 263C98.4216 263 97.75 262.328 97.75 261.5V257.5C97.75 254.462 95.2876 252 92.25 252C91.0599 251.998 89.901 252.385 88.9494 253.1C88.7287 253.266 88.6844 253.58 88.8504 253.801C89.0165 254.021 89.3299 254.066 89.5506 253.9C90.3285 253.314 91.2758 252.999 92.2493 253C94.7353 253 96.75 255.015 96.75 257.5V261.5C96.75 262.881 97.8693 264 99.25 264C99.5261 264 99.75 263.776 99.75 263.5C99.75 263.224 99.5261 263 99.25 263Z" fill="#333333"/>
</svg>