<svg width="16" height="16" viewBox="0 0 16 16" fill="none" xmlns="http://www.w3.org/2000/svg">
  <path transform="translate(-1208, -84)" fill-rule="evenodd" clip-rule="evenodd" d="M1216 85C1214.14 85 1212.36 85.7375 1211.05 87.0503C1209.74 88.363 1209 90.1435 1209 92V96.5C1209 97.163 1209.26 97.7989 1209.73 98.2678C1210.2 98.7366 1210.84 99 1211.5 99H1213V94H1210.5C1210.22 94 1210 93.7761 1210 93.5C1210 93.2239 1210.22 93 1210.5 93H1213.5C1213.78 93 1214 93.2239 1214 93.5V99.5C1214 99.7761 1213.78 100 1213.5 100H1211.5C1210.57 100 1209.68 99.6313 1209.03 98.9749C1208.37 98.3185 1208 97.4283 1208 96.5V92C1208 89.8783 1208.84 87.8434 1210.34 86.3431C1211.84 84.8429 1213.88 84 1216 84C1218.12 84 1220.16 84.8429 1221.66 86.3431C1223.16 87.8434 1224 89.8783 1224 92V96.5C1224 97.4283 1223.63 98.3185 1222.97 98.9749C1222.32 99.6313 1221.43 100 1220.5 100H1218.5C1218.22 100 1218 99.7761 1218 99.5V93.5C1218 93.2239 1218.22 93 1218.5 93H1221.5C1221.78 93 1222 93.2239 1222 93.5C1222 93.7761 1221.78 94 1221.5 94H1219V99H1220.5C1221.16 99 1221.8 98.7366 1222.27 98.2678C1222.74 97.7989 1223 97.163 1223 96.5V92C1223 90.1435 1222.26 88.363 1220.95 87.0503C1219.64 85.7375 1217.86 85 1216 85Z" fill="#333333"/>
</svg>