<svg width="16" height="16" viewBox="0 0 16 16" fill="none" xmlns="http://www.w3.org/2000/svg">
  <path transform="translate(-84, -1428)" fill-rule="evenodd" clip-rule="evenodd" d="M92.3174 1430.32C92.2043 1430.43 92.0993 1430.55 92.0001 1430.68C91.9005 1430.55 91.7949 1430.43 91.6809 1430.32C89.9243 1428.56 87.0747 1428.56 85.3174 1430.32C83.5602 1432.07 83.5602 1434.92 85.3174 1436.68L91.6509 1442.86C91.8451 1443.05 92.1549 1443.05 92.3491 1442.86L98.6771 1436.69C100.44 1434.92 100.44 1432.08 98.6815 1430.32C96.9242 1428.56 94.0747 1428.56 92.3174 1430.32ZM92 1441.8L86.0201 1435.97C84.6578 1434.61 84.6578 1432.39 86.0245 1431.02C87.3913 1429.66 89.6077 1429.66 90.9744 1431.02C91.1936 1431.24 91.3779 1431.5 91.5607 1431.84C91.7501 1432.19 92.2499 1432.19 92.4392 1431.84C92.6211 1431.51 92.8058 1431.24 93.0246 1431.03C94.3913 1429.66 96.6077 1429.66 97.9744 1431.03C99.3421 1432.39 99.3421 1434.61 97.9746 1435.97L92 1441.8Z" fill="#333333"/>
</svg>