<svg width="16" height="16" viewBox="0 0 16 16" fill="none" xmlns="http://www.w3.org/2000/svg">
  <path transform="translate(-588, -1766)" fill-rule="evenodd" clip-rule="evenodd" d="M596 1766C591.6 1766 588 1769.6 588 1774C588 1778.4 591.6 1782 596 1782C600.4 1782 604 1778.4 604 1774C604 1769.6 600.4 1766 596 1766ZM596 1779C595.4 1779 595 1778.6 595 1778C595 1777.4 595.4 1777 596 1777C596.6 1777 597 1777.4 597 1778C597 1778.6 596.6 1779 596 1779ZM597.5 1774.4C597 1774.7 597 1774.8 597 1775V1776H595V1775C595 1773.7 595.8 1773.1 596.4 1772.7C596.9 1772.4 597 1772.3 597 1772C597 1771.4 596.6 1771 596 1771C595.6 1771 595.3 1771.2 595.1 1771.5L594.6 1772.4L592.9 1771.4L593.4 1770.5C593.9 1769.6 594.9 1769 596 1769C597.7 1769 599 1770.3 599 1772C599 1773.4 598.1 1774 597.5 1774.4Z" fill="#333333"/>
</svg>