<svg width="16" height="16" viewBox="0 0 16 16" fill="none" xmlns="http://www.w3.org/2000/svg">
  <path transform="translate(-84, -1766)" d="M93 1778.5C93 1779.05 92.5523 1779.5 92 1779.5C91.4477 1779.5 91 1779.05 91 1778.5C91 1777.95 91.4477 1777.5 92 1777.5C92.5523 1777.5 93 1777.95 93 1778.5Z" fill="#333333"/>
  <path transform="translate(-84, -1766)" fill-rule="evenodd" clip-rule="evenodd" d="M92 1781.5C96.1421 1781.5 99.5 1778.14 99.5 1774C99.5 1769.86 96.1421 1766.5 92 1766.5C87.8579 1766.5 84.5 1769.86 84.5 1774C84.5 1778.14 87.8579 1781.5 92 1781.5ZM92 1780.5C88.4101 1780.5 85.5 1777.59 85.5 1774C85.5 1770.41 88.4101 1767.5 92 1767.5C95.5899 1767.5 98.5 1770.41 98.5 1774C98.5 1777.59 95.5899 1780.5 92 1780.5Z" fill="#333333"/>
  <path transform="translate(-84, -1766)" d="M93.4407 1770.84C93.18 1769.89 91.6526 1769.71 90.835 1770.45C90.63 1770.63 90.3138 1770.62 90.1288 1770.41C89.9438 1770.21 89.96 1769.89 90.165 1769.71C91.4783 1768.52 93.9209 1768.81 94.4052 1770.58C94.6411 1771.44 94.4374 1772.05 93.848 1772.74C93.7885 1772.81 93.6292 1772.98 93.5101 1773.11C93.4454 1773.18 93.3926 1773.24 93.3738 1773.26C92.7668 1773.95 92.5 1774.54 92.5 1775.5C92.5 1775.78 92.2761 1776 92 1776C91.7239 1776 91.5 1775.78 91.5 1775.5C91.5 1774.27 91.868 1773.46 92.6234 1772.6C92.648 1772.58 92.7117 1772.5 92.785 1772.42C92.9007 1772.3 93.0404 1772.14 93.089 1772.09C93.4811 1771.63 93.5771 1771.34 93.4407 1770.84Z" fill="#333333"/>
</svg>