<svg width="16" height="16" viewBox="0 0 16 16" fill="none" xmlns="http://www.w3.org/2000/svg">
  <path transform="translate(-84, -254)" d="M93 269.5V266H91V269.5C91 269.776 90.7761 270 90.5 270H86.5C86.2239 270 86 269.776 86 269.5V262.5C86 262.224 86.2239 262 86.5 262C86.7761 262 87 262.224 87 262.5V269H90V265.5C90 265.224 90.2239 265 90.5 265H93.5C93.7761 265 94 265.224 94 265.5V269H97V262.5C97 262.224 97.2239 262 97.5 262C97.7761 262 98 262.224 98 262.5V269.5C98 269.776 97.7761 270 97.5 270H93.5C93.2239 270 93 269.776 93 269.5Z" fill="#333333"/>
  <path transform="translate(-84, -254)" d="M99.1588 261.866L92 255.184L84.8412 261.866C84.6393 262.054 84.3229 262.043 84.1345 261.841C83.9461 261.639 83.957 261.323 84.1588 261.134L91.6588 254.134C91.8509 253.955 92.1491 253.955 92.3412 254.134L99.8412 261.134C100.043 261.323 100.054 261.639 99.8655 261.841C99.6771 262.043 99.3607 262.054 99.1588 261.866Z" fill="#333333"/>
</svg>