<svg width="16" height="16" viewBox="0 0 16 16" fill="none" xmlns="http://www.w3.org/2000/svg">
  <path transform="translate(-588, -254)" fill-rule="evenodd" clip-rule="evenodd" d="M597.881 269.542H601.645C602.21 269.542 602.586 269.166 602.586 268.601V260.131C602.586 259.848 602.492 259.566 602.21 259.378L596.563 254.672C596.186 254.389 595.716 254.389 595.339 254.672L589.692 259.378C589.504 259.566 589.41 259.848 589.41 260.131V268.601C589.41 269.166 589.786 269.542 590.351 269.542H594.116C594.681 269.542 595.057 269.166 595.057 268.601V265.778H596.939V268.601C596.939 269.166 597.316 269.542 597.881 269.542ZM594.116 263.895C593.551 263.895 593.175 264.272 593.175 264.836V267.66H591.292V260.601L595.998 256.648L600.704 260.601V267.66H598.822V264.836C598.822 264.272 598.445 263.895 597.881 263.895H594.116Z" fill="#333333"/>
</svg>