<svg width="16" height="16" viewBox="0 0 16 16" fill="none" xmlns="http://www.w3.org/2000/svg">
  <path transform="translate(-588, -2604)" fill-rule="evenodd" clip-rule="evenodd" d="M603 2606C603.6 2606 604 2605.6 604 2605C604 2604.4 603.6 2604 603 2604H589C588.4 2604 588 2604.4 588 2605C588 2605.6 588.4 2606 589 2606H590C590.1 2608.4 590.8 2610.5 592 2612C590.8 2613.4 590 2615.6 590 2618H589C588.4 2618 588 2618.4 588 2619C588 2619.6 588.4 2620 589 2620H603C603.6 2620 604 2619.6 604 2619C604 2618.4 603.6 2618 603 2618H602C601.9 2615.5 601.2 2613.4 600 2612C601.3 2610.5 602 2608.4 602 2606H603ZM597.9 2611.3L597 2612.1L598 2612.8C599.2 2613.7 600 2615.7 600.1 2618H592C592.1 2615.7 592.9 2613.7 594.1 2612.8L595.1 2612.1L594.1 2611.3C592.8 2610.1 592.1 2608.2 592 2606H600C599.9 2608.2 599.2 2610.1 597.9 2611.3Z" fill="#333333"/>
</svg>