<svg width="16" height="16" viewBox="0 0 16 16" fill="none" xmlns="http://www.w3.org/2000/svg">
  <path transform="translate(-84, -2604)" d="M98.5 2604C98.7761 2604 99 2604.22 99 2604.5C99 2604.75 98.8231 2604.95 98.5898 2604.99L98.5 2605H97V2605.5C97 2608.19 96.1826 2610.62 94.8096 2611.97L94.7754 2612L94.8096 2612.03C96.1277 2613.33 96.9337 2615.62 96.9961 2618.18L97 2618.5V2619H98.5C98.7761 2619 99 2619.22 99 2619.5C99 2619.75 98.8231 2619.95 98.5898 2619.99L98.5 2620H85.5C85.2239 2620 85 2619.78 85 2619.5C85 2619.25 85.1769 2619.05 85.4102 2619.01L85.5 2619H87V2618.5C87 2615.81 87.8174 2613.38 89.1904 2612.03L89.2236 2612L89.1904 2611.97C87.8723 2610.67 87.0663 2608.38 87.0039 2605.82L87 2605.5V2605H85.5C85.2239 2605 85 2604.78 85 2604.5C85 2604.25 85.1769 2604.05 85.4102 2604.01L85.5 2604H98.5ZM88 2605.5C88 2608.22 88.9094 2610.6 90.292 2611.59C90.5696 2611.79 90.5696 2612.21 90.292 2612.41C88.9606 2613.36 88.0682 2615.61 88.0039 2618.2L88 2618.5V2619H96V2618.5C96 2615.78 95.0906 2613.4 93.708 2612.41C93.4304 2612.21 93.4304 2611.79 93.708 2611.59C95.0394 2610.64 95.9318 2608.39 95.9961 2605.8L96 2605.5V2605H88V2605.5Z" fill="#333333"/>
</svg>