<svg width="16" height="16" viewBox="0 0 16 16" fill="none" xmlns="http://www.w3.org/2000/svg">
  <path transform="translate(-1188, -756)" d="M1190 765H1189C1188.72 765 1188.5 764.776 1188.5 764.5C1188.5 764.224 1188.72 764 1189 764H1190C1190.28 764 1190.5 764.224 1190.5 764.5C1190.5 764.776 1190.28 765 1190 765Z" fill="#333333"/>
  <path transform="translate(-1188, -756)" d="M1191.4 760.611L1189.99 759.197C1189.79 759.001 1189.79 758.685 1189.99 758.489C1190.18 758.294 1190.5 758.294 1190.7 758.489L1192.11 759.903C1192.31 760.099 1192.31 760.415 1192.11 760.611C1191.92 760.806 1191.6 760.806 1191.4 760.611Z" fill="#333333"/>
  <path transform="translate(-1188, -756)" fill-rule="evenodd" clip-rule="evenodd" d="M1191.77 762.935C1192.53 760.882 1194.64 759.665 1196.8 760.052C1198.95 760.438 1200.51 762.316 1200.5 764.502C1200.5 766.005 1199.74 767.398 1198.5 768.223V771.5C1198.5 771.776 1198.28 772 1198 772H1194C1193.72 772 1193.5 771.776 1193.5 771.5V768.223C1191.78 767.078 1191.06 764.896 1191.77 762.935ZM1194.5 767.945V771H1197.5V767.945C1197.5 767.766 1197.6 767.6 1197.75 767.511C1198.83 766.892 1199.5 765.743 1199.5 764.498C1199.51 762.797 1198.29 761.337 1196.62 761.036C1194.94 760.735 1193.3 761.681 1192.71 763.279C1192.13 764.876 1192.78 766.662 1194.25 767.512C1194.4 767.601 1194.5 767.766 1194.5 767.945Z" fill="#333333"/>
  <path transform="translate(-1188, -756)" d="M1195.5 758.5V756.5C1195.5 756.224 1195.72 756 1196 756C1196.28 756 1196.5 756.224 1196.5 756.5V758.5C1196.5 758.776 1196.28 759 1196 759C1195.72 759 1195.5 758.776 1195.5 758.5Z" fill="#333333"/>
  <path transform="translate(-1188, -756)" d="M1201.3 758.489L1199.89 759.903C1199.69 760.099 1199.69 760.415 1199.89 760.611C1200.08 760.806 1200.4 760.806 1200.6 760.611L1202.01 759.197C1202.21 759.001 1202.21 758.685 1202.01 758.489C1201.82 758.294 1201.5 758.294 1201.3 758.489Z" fill="#333333"/>
  <path transform="translate(-1188, -756)" d="M1202 765H1203C1203.28 765 1203.5 764.776 1203.5 764.5C1203.5 764.224 1203.28 764 1203 764H1202C1201.72 764 1201.5 764.224 1201.5 764.5C1201.5 764.776 1201.72 765 1202 765Z" fill="#333333"/>
</svg>