<svg width="16" height="16" viewBox="0 0 16 16" fill="none" xmlns="http://www.w3.org/2000/svg">
  <path transform="translate(-1692, -756)" d="M1703 769H1697V765C1695.8 764 1695 762.6 1695 761C1695 758.2 1697.2 756 1700 756C1702.8 756 1705 758.2 1705 761C1705 762.6 1704.2 764 1703 765V769ZM1699 767H1701V763.9C1701 763.9 1703 763 1703 761C1703 759.3 1701.7 758 1700 758C1698.3 758 1697 759.3 1697 761C1697 763 1699 763.9 1699 763.9V767Z" fill="#333333"/>
  <path transform="translate(-1692, -756)" d="M1703 770H1697V772H1703V770Z" fill="#333333"/>
</svg>