<svg width="16" height="16" viewBox="0 0 16 16" fill="none" xmlns="http://www.w3.org/2000/svg">
  <path transform="translate(-84, -756)" d="M90.5 762C91.3284 762 92 761.328 92 760.5C92 759.672 91.3284 759 90.5 759C89.6716 759 89 759.672 89 760.5C89 761.328 89.6716 762 90.5 762Z" fill="#333333"/>
  <path transform="translate(-84, -756)" fill-rule="evenodd" clip-rule="evenodd" d="M100 770.5C100 771.328 99.3281 772 98.5 772H85.5C84.6719 772 84 771.328 84 770.5V757.5C84 756.672 84.6719 756 85.5 756H98.5C99.3281 756 100 756.672 100 757.5V770.5ZM85 757.5V767.293L88.1464 764.146C88.3417 763.951 88.6583 763.951 88.8536 764.146L91.4585 766.751L95.1096 762.188C95.2957 761.955 95.6428 761.936 95.8536 762.146L99 765.293V757.5C99 757.224 98.7759 757 98.5 757H85.5C85.2241 757 85 757.224 85 757.5ZM88.5 765.207L85 768.707V770.5C85 770.776 85.2241 771 85.5 771H98.5C98.7759 771 99 770.776 99 770.5V766.707L95.5415 763.249L91.8904 767.812C91.7043 768.045 91.3572 768.064 91.1464 767.854L88.5 765.207Z" fill="#333333"/>
</svg>