<svg width="16" height="16" viewBox="0 0 16 16" fill="none" xmlns="http://www.w3.org/2000/svg">
  <path transform="translate(-588, -756)" d="M594 760C594.6 760 595 760.4 595 761C595 761.6 594.6 762 594 762C593.4 762 593 761.6 593 761C593 760.4 593.4 760 594 760Z" fill="#333333"/>
  <path transform="translate(-588, -756)" d="M603 772H589C588.4 772 588 771.6 588 771V757C588 756.4 588.4 756 589 756H603C603.6 756 604 756.4 604 757V771C604 771.6 603.6 772 603 772ZM590 770H602V758H590V770Z" fill="#333333"/>
  <path transform="translate(-588, -756)" d="M591 768L593 764L595 766L598 762L601 768H591Z" fill="#333333"/>
</svg>