<svg width="16" height="16" viewBox="0 0 16 16" fill="none" xmlns="http://www.w3.org/2000/svg">
  <path transform="translate(-84, -1430)" d="M92.5 1438C92.5 1437.72 92.2761 1437.5 92 1437.5C91.7239 1437.5 91.5 1437.72 91.5 1438V1442C91.5 1442.28 91.7239 1442.5 92 1442.5C92.2761 1442.5 92.5 1442.28 92.5 1442V1438Z" fill="#333333"/>
  <path transform="translate(-84, -1430)" d="M93 1434.5C93 1435.05 92.5523 1435.5 92 1435.5C91.4477 1435.5 91 1435.05 91 1434.5C91 1433.95 91.4477 1433.5 92 1433.5C92.5523 1433.5 93 1433.95 93 1434.5Z" fill="#333333"/>
  <path transform="translate(-84, -1430)" fill-rule="evenodd" clip-rule="evenodd" d="M86 1430.5C85.1719 1430.5 84.5 1431.17 84.5 1432V1444C84.5 1444.83 85.1719 1445.5 86 1445.5H98C98.8281 1445.5 99.5 1444.83 99.5 1444V1432C99.5 1431.17 98.8281 1430.5 98 1430.5H86ZM85.5 1432C85.5 1431.72 85.7241 1431.5 86 1431.5H98C98.2759 1431.5 98.5 1431.72 98.5 1432V1444C98.5 1444.28 98.2759 1444.5 98 1444.5H86C85.7241 1444.5 85.5 1444.28 85.5 1444V1432Z" fill="#333333"/>
</svg>