<svg width="16" height="16" viewBox="0 0 16 16" fill="none" xmlns="http://www.w3.org/2000/svg">
  <path transform="translate(-84, -1262)" d="M93 1266.5C93 1267.05 92.5523 1267.5 92 1267.5C91.4477 1267.5 91 1267.05 91 1266.5C91 1265.95 91.4477 1265.5 92 1265.5C92.5523 1265.5 93 1265.95 93 1266.5Z" fill="#333333"/>
  <path transform="translate(-84, -1262)" d="M92.5 1270V1274C92.5 1274.28 92.2761 1274.5 92 1274.5C91.7239 1274.5 91.5 1274.28 91.5 1274V1270C91.5 1269.72 91.7239 1269.5 92 1269.5C92.2761 1269.5 92.5 1269.72 92.5 1270Z" fill="#333333"/>
  <path transform="translate(-84, -1262)" fill-rule="evenodd" clip-rule="evenodd" d="M92 1277.5C96.1421 1277.5 99.5 1274.14 99.5 1270C99.5 1265.86 96.1421 1262.5 92 1262.5C87.8579 1262.5 84.5 1265.86 84.5 1270C84.5 1274.14 87.8579 1277.5 92 1277.5ZM92 1276.5C88.4101 1276.5 85.5 1273.59 85.5 1270C85.5 1266.41 88.4101 1263.5 92 1263.5C95.5899 1263.5 98.5 1266.41 98.5 1270C98.5 1273.59 95.5899 1276.5 92 1276.5Z" fill="#333333"/>
</svg>