<svg width="16" height="16" viewBox="0 0 16 16" fill="none" xmlns="http://www.w3.org/2000/svg">
  <path transform="translate(-1744, -420)" d="M1747.84 426.481L1749.17 424.962C1748.12 423.762 1746.9 423 1745.18 423H1744V425H1745.18C1746.47 425 1747.09 425.619 1747.84 426.481Z" fill="#333333"/>
  <path transform="translate(-1744, -420)" d="M1752.05 424.708C1752.98 423.645 1754.28 423 1756 423V421L1760 424L1756 427V425C1755.04 425 1754.22 425.268 1753.56 426.024L1748.95 431.292C1748 432.377 1746.63 433 1745.18 433H1744V431H1745.18C1746.05 431 1746.87 430.626 1747.44 429.975L1752.05 424.708Z" fill="#333333"/>
  <path transform="translate(-1744, -420)" d="M1756 431C1754.51 431 1753.99 430.467 1753.16 429.519L1751.83 431.038C1752.91 432.275 1754.07 433 1756 433V435L1760 432L1756 429V431Z" fill="#333333"/>
</svg>