<svg width="16" height="16" viewBox="0 0 16 16" fill="none" xmlns="http://www.w3.org/2000/svg">
  <path transform="translate(-1240, -420)" fill-rule="evenodd" clip-rule="evenodd" d="M1252.15 420.147C1252.34 419.951 1252.66 419.951 1252.85 420.146L1255.85 423.145C1255.95 423.239 1256 423.366 1256 423.499C1256 423.632 1255.95 423.759 1255.85 423.852L1252.85 426.853C1252.66 427.049 1252.34 427.049 1252.15 426.854C1251.95 426.658 1251.95 426.342 1252.15 426.147L1254.29 423.999H1252.3C1251.3 423.999 1250.34 424.427 1249.68 425.174L1249.68 425.174L1244.07 431.489C1243.21 432.45 1241.99 433 1240.7 433H1240.5C1240.22 433 1240 432.776 1240 432.5C1240 432.224 1240.22 432 1240.5 432H1240.7C1241.7 432 1242.66 431.572 1243.32 430.825L1243.32 430.825L1248.93 424.51C1248.93 424.51 1248.93 424.51 1248.93 424.51C1249.79 423.549 1251.01 422.999 1252.3 422.999H1254.29L1252.15 420.854C1251.95 420.658 1251.95 420.342 1252.15 420.147ZM1240 423.5C1240 423.224 1240.22 423 1240.5 423H1240.7C1241.99 423 1243.21 423.55 1244.07 424.511L1244.07 424.511L1245.1 425.668C1245.28 425.874 1245.26 426.19 1245.05 426.374C1244.85 426.557 1244.53 426.539 1244.35 426.332L1243.32 425.175C1243.32 425.175 1243.32 425.175 1243.32 425.175C1242.66 424.428 1241.7 424 1240.7 424H1240.5C1240.22 424 1240 423.776 1240 423.5ZM1252.15 429.146C1252.34 428.951 1252.66 428.951 1252.85 429.146L1255.85 432.146C1256.05 432.342 1256.05 432.658 1255.85 432.854L1252.85 435.854C1252.66 436.049 1252.34 436.049 1252.15 435.854C1251.95 435.658 1251.95 435.342 1252.15 435.146L1254.29 433H1252.3C1251.01 433 1249.79 432.45 1248.93 431.489L1247.9 430.332C1247.72 430.126 1247.74 429.81 1247.95 429.626C1248.15 429.443 1248.47 429.461 1248.65 429.668L1249.68 430.825L1249.68 430.825C1250.34 431.572 1251.3 432 1252.3 432H1254.29L1252.15 429.854C1251.95 429.658 1251.95 429.342 1252.15 429.146Z" fill="#333333"/>
</svg>