<svg width="16" height="16" viewBox="0 0 16 16" fill="none" xmlns="http://www.w3.org/2000/svg">
  <path transform="translate(-1712, -2268)" fill-rule="evenodd" clip-rule="evenodd" d="M1724.7 2268L1718.5 2274.3C1718 2274.1 1717.5 2274 1717 2274C1714.2 2274 1712 2276.2 1712 2279C1712 2281.8 1714.2 2284 1717 2284C1719.8 2284 1722 2281.8 1722 2279C1722 2278.5 1721.9 2277.9 1721.7 2277.4L1723 2276V2274H1725V2272H1727L1728 2271V2268H1724.7ZM1716.5 2280C1715.7 2280 1715 2279.3 1715 2278.5C1715 2277.7 1715.7 2277 1716.5 2277C1717.3 2277 1718 2277.7 1718 2278.5C1718 2279.3 1717.3 2280 1716.5 2280Z" fill="#333333"/>
</svg>