<svg width="16" height="16" viewBox="0 0 16 16" fill="none" xmlns="http://www.w3.org/2000/svg">
  <path transform="translate(-1208, -2268)" fill-rule="evenodd" clip-rule="evenodd" d="M1213 2277C1211.9 2277 1211 2277.9 1211 2279C1211 2280.1 1211.9 2281 1213 2281C1214.1 2281 1215 2280.1 1215 2279C1215 2277.9 1214.1 2277 1213 2277ZM1213 2278C1213.55 2278 1214 2278.45 1214 2279C1214 2279.55 1213.55 2280 1213 2280C1212.45 2280 1212 2279.55 1212 2279C1212 2278.45 1212.45 2278 1213 2278Z" fill="#333333"/>
  <path transform="translate(-1208, -2268)" fill-rule="evenodd" clip-rule="evenodd" d="M1220.5 2268L1220.42 2268.01C1220.32 2268.02 1220.22 2268.07 1220.15 2268.15L1214.14 2274.15L1213.84 2274.08C1213.56 2274.03 1213.28 2274 1213 2274C1210.24 2274 1208 2276.24 1208 2279C1208 2281.76 1210.24 2284 1213 2284C1215.76 2284 1218 2281.76 1218 2279L1217.99 2278.72C1217.97 2278.44 1217.92 2278.16 1217.85 2277.86L1219.85 2275.85L1219.9 2275.79C1219.97 2275.71 1220 2275.61 1220 2275.5V2273H1222.5C1222.63 2273 1222.76 2272.95 1222.85 2272.85L1223.85 2271.85C1223.95 2271.76 1224 2271.63 1224 2271.5V2268.5C1224 2268.22 1223.78 2268 1223.5 2268H1220.5ZM1223 2269V2271.29L1222.29 2272H1219.5L1219.41 2272.01C1219.18 2272.05 1219 2272.25 1219 2272.5V2275.29L1216.94 2277.36C1216.81 2277.49 1216.76 2277.68 1216.81 2277.85C1216.94 2278.27 1217 2278.64 1217 2279C1217 2281.21 1215.21 2283 1213 2283C1210.79 2283 1209 2281.21 1209 2279C1209 2276.79 1210.79 2275 1213 2275C1213.36 2275 1213.73 2275.06 1214.15 2275.19L1214.24 2275.21C1214.38 2275.22 1214.54 2275.17 1214.64 2275.06L1220.71 2269H1223Z" fill="#333333"/>
</svg>