<svg width="16" height="16" viewBox="0 0 16 16" fill="none" xmlns="http://www.w3.org/2000/svg">
  <path transform="translate(-1692, -1092)" d="M1700 1094C1701.9 1094 1703.6 1094.7 1704.9 1096.1L1706.4 1094.6C1704.7 1092.9 1702.4 1092 1700 1092C1697.6 1092 1695.3 1092.9 1693.6 1094.6L1695.1 1096.1C1696.4 1094.7 1698.1 1094 1700 1094Z" fill="#333333"/>
  <path transform="translate(-1692, -1092)" d="M1708 1101C1708 1100.4 1707.6 1100 1707 1100H1693C1692.4 1100 1692 1100.4 1692 1101V1107C1692 1107.6 1692.4 1108 1693 1108H1707C1707.6 1108 1708 1107.6 1708 1107V1101Z" fill="#333333"/>
  <path transform="translate(-1692, -1092)" d="M1703.6 1097.5L1702.1 1098.9C1701 1097.7 1699 1097.7 1697.9 1098.9L1696.5 1097.5C1698.4 1095.6 1701.6 1095.6 1703.6 1097.5Z" fill="#333333"/>
</svg>