<svg width="16" height="16" viewBox="0 0 16 16" fill="none" xmlns="http://www.w3.org/2000/svg">
  <path transform="translate(-1188, -1092)" d="M1191.5 1098C1191.78 1098 1192 1098.22 1192 1098.5C1192 1098.75 1191.82 1098.95 1191.59 1098.99L1191.5 1099H1190.5C1190.22 1099 1190 1098.78 1190 1098.5C1190 1098.25 1190.18 1098.05 1190.41 1098.01L1190.5 1098H1191.5Z" fill="#333333"/>
  <path transform="translate(-1188, -1092)" d="M1192 1101.5C1192 1101.22 1191.78 1101 1191.5 1101H1190.5L1190.41 1101.01C1190.18 1101.05 1190 1101.25 1190 1101.5C1190 1101.78 1190.22 1102 1190.5 1102H1191.5L1191.59 1101.99C1191.82 1101.95 1192 1101.75 1192 1101.5Z" fill="#333333"/>
  <path transform="translate(-1188, -1092)" d="M1195 1098.5C1195 1098.22 1194.78 1098 1194.5 1098H1193.5L1193.41 1098.01C1193.18 1098.05 1193 1098.25 1193 1098.5C1193 1098.78 1193.22 1099 1193.5 1099H1194.5L1194.59 1098.99C1194.82 1098.95 1195 1098.75 1195 1098.5Z" fill="#333333"/>
  <path transform="translate(-1188, -1092)" d="M1199 1101.5C1199 1101.22 1198.78 1101 1198.5 1101H1193.5L1193.41 1101.01C1193.18 1101.05 1193 1101.25 1193 1101.5C1193 1101.78 1193.22 1102 1193.5 1102H1198.5L1198.59 1101.99C1198.82 1101.95 1199 1101.75 1199 1101.5Z" fill="#333333"/>
  <path transform="translate(-1188, -1092)" fill-rule="evenodd" clip-rule="evenodd" d="M1203.5 1095H1188.5C1188.22 1095 1188 1095.22 1188 1095.5V1104.5C1188 1104.78 1188.22 1105 1188.5 1105H1203.5C1203.78 1105 1204 1104.78 1204 1104.5V1095.5C1204 1095.22 1203.78 1095 1203.5 1095ZM1203 1096V1104H1189V1096H1203Z" fill="#333333"/>
  <path transform="translate(-1188, -1092)" d="M1198.5 1098C1198.78 1098 1199 1098.22 1199 1098.5C1199 1098.75 1198.82 1098.95 1198.59 1098.99L1198.5 1099H1197.5C1197.22 1099 1197 1098.78 1197 1098.5C1197 1098.25 1197.18 1098.05 1197.41 1098.01L1197.5 1098H1198.5Z" fill="#333333"/>
  <path transform="translate(-1188, -1092)" d="M1202 1098.5C1202 1098.22 1201.78 1098 1201.5 1098H1200.5L1200.41 1098.01C1200.18 1098.05 1200 1098.25 1200 1098.5C1200 1098.78 1200.22 1099 1200.5 1099H1201.5L1201.59 1098.99C1201.82 1098.95 1202 1098.75 1202 1098.5Z" fill="#333333"/>
  <path transform="translate(-1188, -1092)" d="M1201.5 1101C1201.78 1101 1202 1101.22 1202 1101.5C1202 1101.75 1201.82 1101.95 1201.59 1101.99L1201.5 1102H1200.5C1200.22 1102 1200 1101.78 1200 1101.5C1200 1101.25 1200.18 1101.05 1200.41 1101.01L1200.5 1101H1201.5Z" fill="#333333"/>
</svg>