<svg width="16" height="16" viewBox="0 0 16 16" fill="none" xmlns="http://www.w3.org/2000/svg">
  <path transform="translate(-1188, -924)" d="M1202.99 927.356C1202.92 926.595 1202.28 926 1201.5 926H1190.5L1190.36 926.007C1189.59 926.08 1189 926.72 1189 927.5V933.5L1189.01 933.59C1189.05 933.823 1189.25 934 1189.5 934C1189.78 934 1190 933.776 1190 933.5V927.5L1190.01 927.41C1190.05 927.177 1190.25 927 1190.5 927H1201.5L1201.59 927.008C1201.82 927.05 1202 927.255 1202 927.5V933.5L1202.01 933.59C1202.05 933.823 1202.25 934 1202.5 934C1202.78 934 1203 933.776 1203 933.5V927.5L1202.99 927.356Z" fill="#333333"/>
  <path transform="translate(-1188, -924)" fill-rule="evenodd" clip-rule="evenodd" d="M1203.5 935H1188.5C1188.22 935 1188 935.224 1188 935.5C1188 936.881 1189.12 938 1190.5 938H1201.5C1202.88 938 1204 936.881 1204 935.5C1204 935.224 1203.78 935 1203.5 935ZM1202.91 936L1202.9 936.052C1202.68 936.607 1202.13 937 1201.5 937H1190.5L1190.36 936.993C1189.79 936.939 1189.31 936.565 1189.1 936.052L1189.09 936H1202.91Z" fill="#333333"/>
</svg>