<svg width="16" height="16" viewBox="0 0 16 16" fill="none" xmlns="http://www.w3.org/2000/svg">
  <path transform="translate(-588, -86)" fill-rule="evenodd" clip-rule="evenodd" d="M596 86C591.6 86 588 89.6 588 94C588 98.4 591.6 102 596 102C600.4 102 604 98.4 604 94C604 89.6 600.4 86 596 86ZM596 96C594.9 96 594 95.1 594 94C594 92.9 594.9 92 596 92C597.1 92 598 92.9 598 94C598 95.1 597.1 96 596 96ZM596 88C596.9 88 597.8 88.2 598.6 88.6L597.044 90.156C596.283 89.949 595.717 89.949 594.955 90.156L593.4 88.6C594.2 88.2 595.1 88 596 88ZM590 94C590 93.1 590.2 92.2 590.6 91.4L592.156 92.956C591.949 93.717 591.949 94.283 592.156 95.045L590.6 96.6C590.2 95.8 590 94.9 590 94ZM596 100C595.1 100 594.2 99.8 593.4 99.4L594.956 97.844C595.717 98.051 596.283 98.051 597.045 97.844L598.6 99.4C597.8 99.8 596.9 100 596 100ZM601.4 96.6L599.844 95.044C600.051 94.283 600.051 93.717 599.844 92.955L601.4 91.4C601.8 92.2 602 93.1 602 94C602 94.9 601.8 95.8 601.4 96.6Z" fill="#333333"/>
</svg>