<svg width="16" height="16" viewBox="0 0 16 16" fill="none" xmlns="http://www.w3.org/2000/svg">
  <path transform="translate(-84, -86)" fill-rule="evenodd" clip-rule="evenodd" d="M100 94C100 98.4183 96.4183 102 92 102C87.5817 102 84 98.4183 84 94C84 89.5817 87.5817 86 92 86C96.4183 86 100 89.5817 100 94ZM85 94C85 95.753 85.6444 97.3556 86.7093 98.5836L88.8401 96.4528C88.3135 95.7755 88 94.9244 88 94C88 93.0756 88.3135 92.2245 88.8401 91.5472L86.7093 89.4164C85.6444 90.6444 85 92.247 85 94ZM87.4164 88.7093L89.5472 90.8401C90.2245 90.3135 91.0756 90 92 90C92.9244 90 93.7755 90.3135 94.4528 90.8401L96.5836 88.7093C95.3556 87.6444 93.753 87 92 87C90.247 87 88.6444 87.6444 87.4164 88.7093ZM89.8556 91.902C89.8638 91.8948 89.8718 91.8873 89.8796 91.8796C89.8873 91.8718 89.8948 91.8638 89.902 91.8556C90.4429 91.3263 91.1834 91 92 91C92.8167 91 93.5571 91.3263 94.098 91.8557C94.1052 91.8638 94.1127 91.8718 94.1204 91.8796C94.1282 91.8873 94.1362 91.8948 94.1444 91.902C94.6737 92.4429 95 93.1834 95 94C95 94.8166 94.6737 95.5571 94.1444 96.098C94.1362 96.1052 94.1282 96.1127 94.1204 96.1204C94.1127 96.1282 94.1052 96.1362 94.098 96.1444C93.5571 96.6737 92.8166 97 92 97C91.1834 97 90.4429 96.6737 89.902 96.1444C89.8948 96.1362 89.8873 96.1282 89.8796 96.1204C89.8718 96.1127 89.8638 96.1052 89.8557 96.098C89.3263 95.5571 89 94.8167 89 94C89 93.1834 89.3263 92.4429 89.8556 91.902ZM92 101C90.247 101 88.6444 100.356 87.4164 99.2907L89.5472 97.1599C90.2245 97.6865 91.0756 98 92 98C92.9244 98 93.7755 97.6865 94.4528 97.1599L96.5836 99.2907C95.3556 100.356 93.753 101 92 101ZM95.1599 96.4528C95.6865 95.7755 96 94.9244 96 94C96 93.0756 95.6865 92.2245 95.1599 91.5472L97.2907 89.4164C98.3556 90.6444 99 92.247 99 94C99 95.753 98.3556 97.3556 97.2907 98.5836L95.1599 96.4528Z" fill="#333333"/>
</svg>