<svg width="16" height="16" viewBox="0 0 16 16" fill="none" xmlns="http://www.w3.org/2000/svg">
  <path transform="translate(-1188, -588)" d="M1196 592.005C1194.9 592.005 1194 592.9 1194 594.005C1194 594.281 1193.78 594.505 1193.5 594.505C1193.22 594.505 1193 594.281 1193 594.005C1193 592.348 1194.34 591.005 1196 591.005C1196.28 591.005 1196.5 591.228 1196.5 591.505C1196.5 591.781 1196.28 592.005 1196 592.005Z" fill="#333333"/>
  <path transform="translate(-1188, -588)" fill-rule="evenodd" clip-rule="evenodd" d="M1196.94 588.075C1194.03 587.611 1191.21 589.336 1190.3 592.143C1189.41 594.85 1190.56 597.788 1193 599.197V603.505C1193 603.781 1193.22 604.005 1193.5 604.005H1198.5C1198.78 604.005 1199 603.781 1199 603.505V599.202C1200.85 598.134 1202 596.156 1202 594.005C1202 591.053 1199.86 588.539 1196.94 588.075ZM1194 603.005V602.005H1198V603.005H1194ZM1194 598.9V601.005H1198V598.905C1198 598.717 1198.11 598.545 1198.27 598.459C1199.95 597.605 1201 595.884 1201 594.004C1201 591.545 1199.22 589.449 1196.79 589.063C1194.36 588.676 1192.01 590.114 1191.25 592.452C1190.49 594.791 1191.54 597.336 1193.73 598.454C1193.9 598.54 1194 598.712 1194 598.9Z" fill="#333333"/>
</svg>