<svg width="16" height="16" viewBox="0 0 16 16" fill="none" xmlns="http://www.w3.org/2000/svg">
  <path transform="translate(-873, -252)" d="M888.3 252H873.7C873.3 252 873 252.3 873 252.7V267.4C873 267.7 873.3 268 873.7 268H888.4C888.8 268 889.1 267.7 889.1 267.3V252.7C889 252.3 888.7 252 888.3 252ZM877.7 265.6H875.4V258H877.8V265.6H877.7ZM876.6 257C875.8 257 875.2 256.3 875.2 255.6C875.2 254.8 875.8 254.2 876.6 254.2C877.4 254.2 878 254.8 878 255.6C877.9 256.3 877.3 257 876.6 257ZM886.6 265.6H884.2V261.9C884.2 261 884.2 259.9 883 259.9C881.8 259.9 881.6 260.9 881.6 261.9V265.7H879.2V258H881.5V259C881.8 258.4 882.6 257.8 883.7 257.8C886.1 257.8 886.5 259.4 886.5 261.4V265.6H886.6Z" fill="#333333"/>
</svg>