<svg width="16" height="16" viewBox="0 0 16 16" fill="none" xmlns="http://www.w3.org/2000/svg">
  <path transform="translate(-2332, -588)" d="M2340.64 599.627C2341.82 598.448 2341.82 596.538 2340.64 595.359C2340.45 595.164 2340.45 594.847 2340.64 594.652C2340.84 594.457 2341.15 594.457 2341.35 594.652C2342.92 596.221 2342.92 598.765 2341.35 600.334L2339.36 602.324C2337.79 603.893 2335.25 603.893 2333.68 602.324C2332.11 600.755 2332.11 598.211 2333.68 596.637L2335.43 594.939C2335.63 594.746 2335.94 594.751 2336.14 594.949C2336.33 595.147 2336.32 595.464 2336.13 595.656L2334.38 597.349C2333.2 598.528 2333.2 600.438 2334.38 601.617C2335.56 602.796 2337.47 602.796 2338.65 601.617L2340.64 599.627Z" fill="#333333"/>
  <path transform="translate(-2332, -588)" d="M2339.36 592.374C2338.18 593.553 2338.18 595.463 2339.36 596.642C2339.55 596.837 2339.55 597.154 2339.36 597.349C2339.16 597.544 2338.85 597.544 2338.65 597.349C2337.08 595.78 2337.08 593.236 2338.65 591.667L2340.64 589.677C2342.21 588.108 2344.75 588.108 2346.32 589.677C2347.89 591.246 2347.89 593.79 2346.32 595.364L2344.57 597.062C2344.37 597.255 2344.06 597.25 2343.86 597.052C2343.67 596.854 2343.68 596.537 2343.87 596.345L2345.62 594.652C2346.8 593.473 2346.8 591.563 2345.62 590.384C2344.44 589.205 2342.53 589.205 2341.35 590.384L2339.36 592.374Z" fill="#333333"/>
</svg>