<svg width="16" height="16" viewBox="0 0 16 16" fill="none" xmlns="http://www.w3.org/2000/svg">
  <path transform="translate(-2836, -588)" d="M2838.04 601.955C2838.84 602.666 2839.82 603.111 2840.89 603.111C2841.96 603.111 2843.02 602.666 2843.73 601.955L2846.4 599.289C2848 597.689 2848 595.2 2846.4 593.6L2845.78 592.978L2844.53 594.222L2845.16 594.844C2846.04 595.733 2846.04 597.155 2845.16 598.044L2842.49 600.711C2841.6 601.6 2840.18 601.6 2839.29 600.711C2838.4 599.822 2838.4 598.4 2839.29 597.511L2839.91 596.889L2838.67 595.644L2838.04 596.266C2836.44 597.866 2836.44 600.355 2838.04 601.955Z" fill="#333333"/>
  <path transform="translate(-2836, -588)" d="M2841.6 598.4L2842.22 599.022L2843.47 597.778L2842.84 597.155C2841.96 596.266 2841.96 594.844 2842.84 593.955L2845.51 591.289C2846.4 590.4 2847.82 590.4 2848.71 591.289C2849.6 592.178 2849.6 593.6 2848.71 594.489L2848.09 595.111L2849.33 596.355L2849.96 595.733C2851.56 594.133 2851.56 591.644 2849.96 590.044C2849.16 589.333 2848.18 588.889 2847.11 588.889C2846.04 588.889 2845.07 589.244 2844.27 590.044L2841.6 592.711C2840 594.311 2840 596.8 2841.6 598.4Z" fill="#333333"/>
</svg>