<svg width="16" height="16" viewBox="0 0 16 16" fill="none" xmlns="http://www.w3.org/2000/svg">
  <path transform="translate(-84, -252)" d="M85.2439 257.634H88.1707V266.951H85.2439V257.634ZM86.7073 253C87.6436 253 88.4146 253.771 88.4146 254.707C88.4146 255.644 87.6436 256.415 86.7073 256.415C85.771 256.415 85 255.644 85 254.707C85 253.716 85.771 253 86.7073 253ZM89.9268 257.663H92.6977V258.919H92.752C93.1323 258.155 94.1103 257.39 95.5229 257.39C98.4567 257.39 99 259.356 99 261.868V267H96.1205V262.414C96.1205 261.322 96.1205 259.902 94.5992 259.902C93.078 259.902 92.8607 261.103 92.8607 262.304V266.945H89.9812V257.663H89.9268Z" fill="#333333"/>
</svg>