<svg width="16" height="16" viewBox="0 0 16 16" fill="none" xmlns="http://www.w3.org/2000/svg">
  <path transform="translate(-1208, -588)" d="M1224 590C1224 589.724 1223.78 589.5 1223.5 589.5H1208.5L1208.41 589.508C1208.18 589.55 1208 589.755 1208 590C1208 590.276 1208.22 590.5 1208.5 590.5H1223.5L1223.59 590.492C1223.82 590.45 1224 590.245 1224 590Z" fill="#333333"/>
  <path transform="translate(-1208, -588)" d="M1224 594C1224 593.724 1223.78 593.5 1223.5 593.5H1208.5L1208.41 593.508C1208.18 593.55 1208 593.755 1208 594C1208 594.276 1208.22 594.5 1208.5 594.5H1223.5L1223.59 594.492C1223.82 594.45 1224 594.245 1224 594Z" fill="#333333"/>
  <path transform="translate(-1208, -588)" d="M1223.5 597.5C1223.78 597.5 1224 597.724 1224 598C1224 598.245 1223.82 598.45 1223.59 598.492L1223.5 598.5H1208.5C1208.22 598.5 1208 598.276 1208 598C1208 597.755 1208.18 597.55 1208.41 597.508L1208.5 597.5H1223.5Z" fill="#333333"/>
  <path transform="translate(-1208, -588)" d="M1224 602C1224 601.724 1223.78 601.5 1223.5 601.5H1208.5L1208.41 601.508C1208.18 601.55 1208 601.755 1208 602C1208 602.276 1208.22 602.5 1208.5 602.5H1223.5L1223.59 602.492C1223.82 602.45 1224 602.245 1224 602Z" fill="#333333"/>
</svg>