<svg width="16" height="16" viewBox="0 0 16 16" fill="none" xmlns="http://www.w3.org/2000/svg">
  <path transform="translate(-84, -756)" fill-rule="evenodd" clip-rule="evenodd" d="M95 762C95 763.657 93.6569 765 92 765C90.3431 765 89 763.657 89 762C89 760.343 90.3431 759 92 759C93.6569 759 95 760.343 95 762ZM90 762C90 763.105 90.8954 764 92 764C93.1046 764 94 763.105 94 762C94 760.895 93.1046 760 92 760C90.8954 760 90 760.895 90 762Z" fill="#333333"/>
  <path transform="translate(-84, -756)" fill-rule="evenodd" clip-rule="evenodd" d="M97.8622 763.334C97.9532 762.879 98 762.434 98 762C98 758.686 95.3137 756 92 756C88.6863 756 86 758.686 86 762C86 762.434 86.0468 762.879 86.1378 763.334C86.4853 765.071 87.4549 766.899 88.8517 768.74C89.4656 769.549 90.1224 770.307 90.7793 770.994C91.0095 771.235 91.2235 771.449 91.416 771.636C91.5326 771.749 91.617 771.828 91.6637 771.87C91.8544 772.043 92.1456 772.043 92.3363 771.87C92.383 771.828 92.4674 771.749 92.584 771.636C92.7765 771.449 92.9905 771.235 93.2207 770.994C93.8776 770.307 94.5344 769.549 95.1483 768.74C96.5451 766.899 97.5147 765.071 97.8622 763.334ZM94.3517 768.135C93.7625 768.912 93.1302 769.642 92.4981 770.303C92.3208 770.488 92.1538 770.657 92 770.808C91.8462 770.657 91.6792 770.488 91.5019 770.303C90.8698 769.642 90.2375 768.912 89.6483 768.135C88.3348 766.404 87.431 764.7 87.1184 763.137C87.0399 762.745 87 762.366 87 762C87 759.239 89.2386 757 92 757C94.7614 757 97 759.239 97 762C97 762.366 96.9601 762.745 96.8816 763.137C96.569 764.7 95.6652 766.404 94.3517 768.135Z" fill="#333333"/>
</svg>