<svg width="16" height="16" viewBox="0 0 16 16" fill="none" xmlns="http://www.w3.org/2000/svg">
  <path transform="translate(-588, -756)" fill-rule="evenodd" clip-rule="evenodd" d="M596.046 756.459C592.375 756.459 589.458 759.377 589.458 763.047C589.458 764.835 590.117 766.53 591.434 767.753C591.528 767.847 595.293 771.235 595.387 771.33C595.764 771.612 596.328 771.612 596.611 771.33C596.705 771.235 600.564 767.847 600.564 767.753C601.881 766.53 602.54 764.835 602.54 763.047C602.634 759.377 599.717 756.459 596.046 756.459ZM596.046 764.93C595.011 764.93 594.164 764.083 594.164 763.047C594.164 762.012 595.011 761.165 596.046 761.165C597.081 761.165 597.928 762.012 597.928 763.047C597.928 764.083 597.081 764.93 596.046 764.93Z" fill="#333333"/>
</svg>