<svg width="16" height="16" viewBox="0 0 16 16" fill="none" xmlns="http://www.w3.org/2000/svg">
  <path transform="translate(-3456, -1764)" fill-rule="evenodd" clip-rule="evenodd" d="M3466 1775C3466 1776.1 3465.1 1777 3464 1777C3462.9 1777 3462 1776.1 3462 1775C3462 1773.9 3462.9 1773 3464 1773C3465.1 1773 3466 1773.9 3466 1775ZM3463 1775C3463 1775.55 3463.45 1776 3464 1776C3464.55 1776 3465 1775.55 3465 1775C3465 1774.45 3464.55 1774 3464 1774C3463.45 1774 3463 1774.45 3463 1775Z" fill="#333333"/>
  <path transform="translate(-3456, -1764)" fill-rule="evenodd" clip-rule="evenodd" d="M3458.5 1770H3460V1768C3460 1765.79 3461.79 1764 3464 1764C3466.21 1764 3468 1765.79 3468 1768V1770H3469.5C3470.33 1770 3471 1770.67 3471 1771.5V1778.5C3471 1779.33 3470.33 1780 3469.5 1780H3458.5C3457.67 1780 3457 1779.33 3457 1778.5V1771.5C3457 1770.67 3457.67 1770 3458.5 1770ZM3467 1768V1770H3461V1768C3461 1766.34 3462.34 1765 3464 1765C3465.66 1765 3467 1766.34 3467 1768ZM3458.5 1771H3469.5C3469.78 1771 3470 1771.22 3470 1771.5V1778.5C3470 1778.78 3469.78 1779 3469.5 1779H3458.5C3458.22 1779 3458 1778.78 3458 1778.5V1771.5C3458 1771.22 3458.22 1771 3458.5 1771Z" fill="#333333"/>
</svg>