<svg width="16" height="16" viewBox="0 0 16 16" fill="none" xmlns="http://www.w3.org/2000/svg">
  <path transform="translate(-3960, -1764)" fill-rule="evenodd" clip-rule="evenodd" d="M3968 1764C3965.8 1764 3964 1765.8 3964 1768V1769H3962C3961.4 1769 3961 1769.4 3961 1770V1779C3961 1779.6 3961.4 1780 3962 1780H3974C3974.6 1780 3975 1779.6 3975 1779V1770C3975 1769.4 3974.6 1769 3974 1769H3972V1768C3972 1765.8 3970.2 1764 3968 1764ZM3969 1775.7V1777H3967V1775.7C3966.4 1775.4 3966 1774.7 3966 1774C3966 1772.9 3966.9 1772 3968 1772C3969.1 1772 3970 1772.9 3970 1774C3970 1774.7 3969.6 1775.4 3969 1775.7ZM3970 1769H3966V1768C3966 1766.9 3966.9 1766 3968 1766C3969.1 1766 3970 1766.9 3970 1768V1769Z" fill="#333333"/>
</svg>