<svg width="16" height="16" viewBox="0 0 16 16" fill="none" xmlns="http://www.w3.org/2000/svg">
  <path transform="translate(-84, -84)" d="M86.113 88.1834C86.2879 87.9697 86.6029 87.9382 86.8166 88.113L92 92.354L97.1834 88.113C97.3971 87.9382 97.7121 87.9697 97.887 88.1834C98.0618 88.3971 98.0303 88.7121 97.8166 88.887L92.3166 93.387C92.1324 93.5377 91.8676 93.5377 91.6834 93.387L86.1834 88.887C85.9697 88.7121 85.9382 88.3971 86.113 88.1834Z" fill="#333333"/>
  <path transform="translate(-84, -84)" fill-rule="evenodd" clip-rule="evenodd" d="M84 97.5C84 98.3281 84.6719 99 85.5 99H98.5C99.3281 99 100 98.3281 100 97.5V86.5C100 85.6719 99.3281 85 98.5 85H85.5C84.6719 85 84 85.6719 84 86.5V97.5ZM99 97.5C99 97.7759 98.7759 98 98.5 98H85.5C85.2241 98 85 97.7759 85 97.5V86.5C85 86.2241 85.2241 86 85.5 86H98.5C98.7759 86 99 86.2241 99 86.5V97.5Z" fill="#333333"/>
</svg>