<svg width="16" height="16" viewBox="0 0 16 16" fill="none" xmlns="http://www.w3.org/2000/svg">
  <path transform="translate(-588, -588)" fill-rule="evenodd" clip-rule="evenodd" d="M602.6 588.1L598 589.9L594.4 588.1C594.2 588 593.9 588 593.6 588.1L588.6 590.1C588.2 590.2 588 590.6 588 591V603C588 603.7 588.7 604.2 589.4 603.9L594 602.1L597.6 603.9C597.9 604 598.1 604 598.4 603.9L603.4 602C603.8 601.9 604 601.5 604 601.1V589C604 588.3 603.3 587.8 602.6 588.1ZM595 590.6L597 591.6V601.4L595 600.4V590.6ZM590 591.7L593 590.5V600.3L590 601.5V591.7ZM602 600.4L599 601.5V591.7L602 590.5V600.4Z" fill="#333333"/>
</svg>