<svg width="16" height="16" viewBox="0 0 16 16" fill="none" xmlns="http://www.w3.org/2000/svg">
  <path transform="translate(-84, -588)" fill-rule="evenodd" clip-rule="evenodd" d="M84.8714 604.428L89.5 602.577L94.1286 604.428C94.367 604.524 94.633 604.524 94.8714 604.428L99.8714 602.428C100.251 602.277 100.5 601.909 100.5 601.5V588.5C100.5 587.793 99.7855 587.309 99.1286 587.572L94.5 589.423L90 587.623V587.5H89.5001C89.5 587.5 89.5002 587.5 89.5001 587.5H89V587.623L84.1286 589.572C83.749 589.723 83.5 590.091 83.5 590.5V603.5C83.5 604.207 84.2145 604.691 84.8714 604.428ZM89 588.7L84.5 590.5V603.5L89 601.7V588.7ZM90 588.7V601.7L94 603.3V590.3L90 588.7ZM99.5 588.5V601.5L95 603.3V590.3L99.5 588.5Z" fill="#333333"/>
</svg>