<svg width="16" height="16" viewBox="0 0 16 16" fill="none" xmlns="http://www.w3.org/2000/svg">
  <path transform="translate(-1240, -756)" d="M1243.5 756.5C1243.75 756.5 1243.95 756.677 1243.99 756.91L1244 757V759.5H1246.5C1246.78 759.5 1247 759.724 1247 760C1247 760.245 1246.82 760.45 1246.59 760.492L1246.5 760.5H1244V763C1244 763.276 1243.78 763.5 1243.5 763.5C1243.25 763.5 1243.05 763.323 1243.01 763.09L1243 763V760.5H1240.5C1240.22 760.5 1240 760.276 1240 760C1240 759.755 1240.18 759.55 1240.41 759.508L1240.5 759.5H1243V757C1243 756.724 1243.22 756.5 1243.5 756.5Z" fill="#333333"/>
  <path transform="translate(-1240, -756)" d="M1240.65 765.646C1240.82 765.473 1241.09 765.454 1241.28 765.589L1241.35 765.646L1243.5 767.793L1245.65 765.646C1245.84 765.451 1246.16 765.451 1246.35 765.646C1246.53 765.82 1246.55 766.089 1246.41 766.284L1246.35 766.354L1244.21 768.5L1246.35 770.646C1246.55 770.842 1246.55 771.158 1246.35 771.354C1246.18 771.527 1245.91 771.546 1245.72 771.411L1245.65 771.354L1243.5 769.207L1241.35 771.354C1241.16 771.549 1240.84 771.549 1240.65 771.354C1240.47 771.18 1240.45 770.911 1240.59 770.716L1240.65 770.646L1242.79 768.5L1240.65 766.354C1240.45 766.158 1240.45 765.842 1240.65 765.646Z" fill="#333333"/>
  <path transform="translate(-1240, -756)" d="M1256 760C1256 759.724 1255.78 759.5 1255.5 759.5H1249.5L1249.41 759.508C1249.18 759.55 1249 759.755 1249 760C1249 760.276 1249.22 760.5 1249.5 760.5H1255.5L1255.59 760.492C1255.82 760.45 1256 760.245 1256 760Z" fill="#333333"/>
  <path transform="translate(-1240, -756)" d="M1255.5 766.5C1255.78 766.5 1256 766.724 1256 767C1256 767.245 1255.82 767.45 1255.59 767.492L1255.5 767.5H1249.5C1249.22 767.5 1249 767.276 1249 767C1249 766.755 1249.18 766.55 1249.41 766.508L1249.5 766.5H1255.5Z" fill="#333333"/>
  <path transform="translate(-1240, -756)" d="M1256 770C1256 769.724 1255.78 769.5 1255.5 769.5H1249.5L1249.41 769.508C1249.18 769.55 1249 769.755 1249 770C1249 770.276 1249.22 770.5 1249.5 770.5H1255.5L1255.59 770.492C1255.82 770.45 1256 770.245 1256 770Z" fill="#333333"/>
</svg>