<svg width="16" height="16" viewBox="0 0 16 16" fill="none" xmlns="http://www.w3.org/2000/svg">
  <path transform="translate(-1744, -756)" d="M1749 759H1748V758C1748 757.4 1747.6 757 1747 757C1746.4 757 1746 757.4 1746 758V759H1745C1744.4 759 1744 759.4 1744 760C1744 760.6 1744.4 761 1745 761H1746V762C1746 762.6 1746.4 763 1747 763C1747.6 763 1748 762.6 1748 762V761H1749C1749.6 761 1750 760.6 1750 760C1750 759.4 1749.6 759 1749 759Z" fill="#333333"/>
  <path transform="translate(-1744, -756)" d="M1748.3 765.3L1747 766.6L1745.7 765.3C1745.3 764.9 1744.7 764.9 1744.3 765.3C1743.9 765.7 1743.9 766.3 1744.3 766.7L1745.6 768L1744.3 769.3C1743.9 769.7 1743.9 770.3 1744.3 770.7C1744.5 770.9 1745.2 771.2 1745.7 770.7L1747 769.4L1748.3 770.7C1748.8 771.2 1749.5 770.9 1749.7 770.7C1750.1 770.3 1750.1 769.7 1749.7 769.3L1748.4 768L1749.7 766.7C1750.1 766.3 1750.1 765.7 1749.7 765.3C1749.3 764.9 1748.7 764.9 1748.3 765.3Z" fill="#333333"/>
  <path transform="translate(-1744, -756)" d="M1759 761H1754C1753.4 761 1753 760.6 1753 760C1753 759.4 1753.4 759 1754 759H1759C1759.6 759 1760 759.4 1760 760C1760 760.6 1759.6 761 1759 761Z" fill="#333333"/>
  <path transform="translate(-1744, -756)" d="M1759 765H1754C1753.4 765 1753 765.4 1753 766C1753 766.6 1753.4 767 1754 767H1759C1759.6 767 1760 766.6 1760 766C1760 765.4 1759.6 765 1759 765Z" fill="#333333"/>
  <path transform="translate(-1744, -756)" d="M1754 769H1759C1759.6 769 1760 769.4 1760 770C1760 770.6 1759.6 771 1759 771H1754C1753.4 771 1753 770.6 1753 770C1753 769.4 1753.4 769 1754 769Z" fill="#333333"/>
</svg>