<svg width="16" height="16" viewBox="0 0 16 16" fill="none" xmlns="http://www.w3.org/2000/svg">
  <path transform="translate(-588, -590)" d="M603 591H589C588.4 591 588 591.4 588 592C588 592.6 588.4 593 589 593H603C603.6 593 604 592.6 604 592C604 591.4 603.6 591 603 591Z" fill="#333333"/>
  <path transform="translate(-588, -590)" d="M603 597H589C588.4 597 588 597.4 588 598C588 598.6 588.4 599 589 599H603C603.6 599 604 598.6 604 598C604 597.4 603.6 597 603 597Z" fill="#333333"/>
  <path transform="translate(-588, -590)" d="M589 603H603C603.6 603 604 603.4 604 604C604 604.6 603.6 605 603 605H589C588.4 605 588 604.6 588 604C588 603.4 588.4 603 589 603Z" fill="#333333"/>
</svg>