<svg width="16" height="16" viewBox="0 0 16 16" fill="none" xmlns="http://www.w3.org/2000/svg">
  <path transform="translate(-84, -590)" d="M85 592.5H99C99.2761 592.5 99.5 592.276 99.5 592C99.5 591.724 99.2761 591.5 99 591.5H85C84.7239 591.5 84.5 591.724 84.5 592C84.5 592.276 84.7239 592.5 85 592.5Z" fill="#333333"/>
  <path transform="translate(-84, -590)" d="M85 598.5H99C99.2761 598.5 99.5 598.276 99.5 598C99.5 597.724 99.2761 597.5 99 597.5H85C84.7239 597.5 84.5 597.724 84.5 598C84.5 598.276 84.7239 598.5 85 598.5Z" fill="#333333"/>
  <path transform="translate(-84, -590)" d="M99 604.5H85C84.7239 604.5 84.5 604.276 84.5 604C84.5 603.724 84.7239 603.5 85 603.5H99C99.2761 603.5 99.5 603.724 99.5 604C99.5 604.276 99.2761 604.5 99 604.5Z" fill="#333333"/>
</svg>