<svg width="16" height="16" viewBox="0 0 16 16" fill="none" xmlns="http://www.w3.org/2000/svg">
  <path transform="translate(-1208, -252)" fill-rule="evenodd" clip-rule="evenodd" d="M1216 263C1213.51 263 1211.5 260.985 1211.5 258.5V256.5C1211.5 254.015 1213.51 252 1216 252C1218.49 252 1220.5 254.015 1220.5 256.5V258.5C1220.5 260.985 1218.49 263 1216 263ZM1216 262C1217.93 262 1219.5 260.433 1219.5 258.5V256.5C1219.5 254.567 1217.93 253 1216 253C1214.07 253 1212.5 254.567 1212.5 256.5V258.5C1212.5 260.433 1214.07 262 1216 262Z" fill="#333333"/>
  <path transform="translate(-1208, -252)" d="M1216.5 265.984V267.5C1216.5 267.776 1216.28 268 1216 268C1215.72 268 1215.5 267.776 1215.5 267.5V265.984C1211.59 265.726 1208.5 262.474 1208.5 258.5C1208.5 258.224 1208.72 258 1209 258C1209.28 258 1209.5 258.224 1209.5 258.5C1209.5 262.09 1212.41 265 1216 265C1219.59 265 1222.5 262.09 1222.5 258.5C1222.5 258.224 1222.72 258 1223 258C1223.28 258 1223.5 258.224 1223.5 258.5C1223.5 262.474 1220.41 265.726 1216.5 265.984Z" fill="#333333"/>
</svg>