<svg width="16" height="16" viewBox="0 0 16 16" fill="none" xmlns="http://www.w3.org/2000/svg">
  <path transform="translate(-1712, -252)" d="M1724 258C1724 260.2 1722.2 262 1720 262C1717.8 262 1716 260.2 1716 258V256C1716 253.8 1717.8 252 1720 252C1722.2 252 1724 253.8 1724 256V258Z" fill="#333333"/>
  <path transform="translate(-1712, -252)" d="M1727.1 258C1727.6 258.1 1728 258.6 1727.9 259.1C1727.4 262.7 1724.5 265.5 1721 265.9V268H1719V265.9C1715.5 265.4 1712.6 262.7 1712.1 259.1C1712 258.6 1712.4 258.1 1712.9 258C1713.5 257.9 1714 258.3 1714.1 258.9C1714.5 261.8 1717 264 1720 264C1723 264 1725.5 261.8 1726 258.8C1726 258.3 1726.6 257.9 1727.1 258Z" fill="#333333"/>
</svg>