<svg width="16" height="16" viewBox="0 0 16 16" fill="none" xmlns="http://www.w3.org/2000/svg">
  <path transform="translate(-3456, -2268)" d="M3468.5 2276C3468.5 2276.28 3468.28 2276.5 3468 2276.5H3460C3459.72 2276.5 3459.5 2276.28 3459.5 2276C3459.5 2275.72 3459.72 2275.5 3460 2275.5H3468C3468.28 2275.5 3468.5 2275.72 3468.5 2276Z" fill="#333333"/>
  <path transform="translate(-3456, -2268)" fill-rule="evenodd" clip-rule="evenodd" d="M3471.5 2276C3471.5 2280.14 3468.14 2283.5 3464 2283.5C3459.86 2283.5 3456.5 2280.14 3456.5 2276C3456.5 2271.86 3459.86 2268.5 3464 2268.5C3468.14 2268.5 3471.5 2271.86 3471.5 2276ZM3457.5 2276C3457.5 2279.59 3460.41 2282.5 3464 2282.5C3467.59 2282.5 3470.5 2279.59 3470.5 2276C3470.5 2272.41 3467.59 2269.5 3464 2269.5C3460.41 2269.5 3457.5 2272.41 3457.5 2276Z" fill="#333333"/>
</svg>