<svg width="16" height="16" viewBox="0 0 16 16" fill="none" xmlns="http://www.w3.org/2000/svg">
  <path transform="translate(-4604, -2116)" fill-rule="evenodd" clip-rule="evenodd" d="M4610 2116.5C4610.13 2116.62 4610.19 2116.8 4610.16 2116.98C4610.05 2117.47 4610 2117.98 4610 2118.5C4610 2122.64 4613.36 2126 4617.5 2126C4618.02 2126 4618.53 2125.95 4619.02 2125.84C4619.2 2125.81 4619.38 2125.87 4619.5 2126C4619.62 2126.13 4619.66 2126.32 4619.6 2126.49C4618.55 2129.69 4615.55 2132 4612 2132C4607.58 2132 4604 2128.42 4604 2124C4604 2120.45 4606.31 2117.45 4609.51 2116.4C4609.68 2116.34 4609.87 2116.38 4610 2116.5ZM4609.04 2117.66C4606.65 2118.77 4605 2121.19 4605 2124C4605 2127.87 4608.13 2131 4612 2131C4614.81 2131 4617.23 2129.35 4618.34 2126.96C4618.06 2126.99 4617.78 2127 4617.5 2127C4612.81 2127 4609 2123.19 4609 2118.5C4609 2118.22 4609.01 2117.94 4609.04 2117.66Z" fill="#333333"/>
</svg>