<svg width="16" height="16" viewBox="0 0 16 16" fill="none" xmlns="http://www.w3.org/2000/svg">
  <path transform="translate(-84, -422)" fill-rule="evenodd" clip-rule="evenodd" d="M88 430C88 431.105 87.1046 432 86 432C84.8954 432 84 431.105 84 430C84 428.895 84.8954 428 86 428C87.1046 428 88 428.895 88 430ZM85 430C85 430.552 85.4477 431 86 431C86.5523 431 87 430.552 87 430C87 429.448 86.5523 429 86 429C85.4477 429 85 429.448 85 430Z" fill="#333333"/>
  <path transform="translate(-84, -422)" fill-rule="evenodd" clip-rule="evenodd" d="M92 432C93.1046 432 94 431.105 94 430C94 428.895 93.1046 428 92 428C90.8954 428 90 428.895 90 430C90 431.105 90.8954 432 92 432ZM92 431C91.4477 431 91 430.552 91 430C91 429.448 91.4477 429 92 429C92.5523 429 93 429.448 93 430C93 430.552 92.5523 431 92 431Z" fill="#333333"/>
  <path transform="translate(-84, -422)" fill-rule="evenodd" clip-rule="evenodd" d="M98 432C99.1046 432 100 431.105 100 430C100 428.895 99.1046 428 98 428C96.8954 428 96 428.895 96 430C96 431.105 96.8954 432 98 432ZM98 431C97.4477 431 97 430.552 97 430C97 429.448 97.4477 429 98 429C98.5523 429 99 429.448 99 430C99 430.552 98.5523 431 98 431Z" fill="#333333"/>
</svg>