<svg width="16" height="16" viewBox="0 0 16 16" fill="none" xmlns="http://www.w3.org/2000/svg">
  <path transform="translate(-588, -422)" d="M592 430C592 431.105 591.105 432 590 432C588.895 432 588 431.105 588 430C588 428.895 588.895 428 590 428C591.105 428 592 428.895 592 430Z" fill="#333333"/>
  <path transform="translate(-588, -422)" d="M598 430C598 431.105 597.105 432 596 432C594.895 432 594 431.105 594 430C594 428.895 594.895 428 596 428C597.105 428 598 428.895 598 430Z" fill="#333333"/>
  <path transform="translate(-588, -422)" d="M602 432C603.105 432 604 431.105 604 430C604 428.895 603.105 428 602 428C600.895 428 600 428.895 600 430C600 431.105 600.895 432 602 432Z" fill="#333333"/>
</svg>