<svg width="16" height="16" viewBox="0 0 16 16" fill="none" xmlns="http://www.w3.org/2000/svg">
  <path transform="translate(-1712, -1430)" d="M1712 1442H1716V1446H1712V1442Z" fill="#333333"/>
  <path transform="translate(-1712, -1430)" d="M1718 1430H1722V1434H1718V1430Z" fill="#333333"/>
  <path transform="translate(-1712, -1430)" d="M1718 1442H1722V1446H1718V1442Z" fill="#333333"/>
  <path transform="translate(-1712, -1430)" d="M1719 1439H1715V1441H1713V1438C1713 1437.4 1713.4 1437 1714 1437H1719V1435H1721V1437H1726C1726.6 1437 1727 1437.4 1727 1438V1441H1725V1439H1721V1441H1719V1439Z" fill="#333333"/>
  <path transform="translate(-1712, -1430)" d="M1728 1446V1442H1724V1446H1728Z" fill="#333333"/>
</svg>