<svg width="16" height="16" viewBox="0 0 16 16" fill="none" xmlns="http://www.w3.org/2000/svg">
  <path transform="translate(-1208, -1430)" d="M1210 1446C1210.83 1446 1211.5 1445.33 1211.5 1444.5C1211.5 1443.67 1210.83 1443 1210 1443C1209.17 1443 1208.5 1443.67 1208.5 1444.5C1208.5 1445.33 1209.17 1446 1210 1446Z" fill="#333333"/>
  <path transform="translate(-1208, -1430)" fill-rule="evenodd" clip-rule="evenodd" d="M1214 1430H1218C1218.28 1430 1218.5 1430.22 1218.5 1430.5V1434.5C1218.5 1434.78 1218.28 1435 1218 1435H1214C1213.72 1435 1213.5 1434.78 1213.5 1434.5V1430.5C1213.5 1430.22 1213.72 1430 1214 1430ZM1217.5 1434V1431H1214.5V1434H1217.5Z" fill="#333333"/>
  <path transform="translate(-1208, -1430)" d="M1216.49 1436.41C1216.45 1436.18 1216.25 1436 1216 1436C1215.72 1436 1215.5 1436.22 1215.5 1436.5V1439H1210L1209.91 1439.01C1209.68 1439.05 1209.5 1439.25 1209.5 1439.5V1441.5L1209.51 1441.59C1209.55 1441.82 1209.75 1442 1210 1442L1210.09 1441.99C1210.32 1441.95 1210.5 1441.75 1210.5 1441.5V1440H1215.5V1441.5L1215.51 1441.59C1215.55 1441.82 1215.75 1442 1216 1442C1216.28 1442 1216.5 1441.78 1216.5 1441.5V1440H1221.5V1441.5L1221.51 1441.59C1221.55 1441.82 1221.75 1442 1222 1442C1222.28 1442 1222.5 1441.78 1222.5 1441.5V1439.5L1222.49 1439.41C1222.45 1439.18 1222.25 1439 1222 1439H1216.5V1436.5L1216.49 1436.41Z" fill="#333333"/>
  <path transform="translate(-1208, -1430)" d="M1217.5 1444.5C1217.5 1445.33 1216.83 1446 1216 1446C1215.17 1446 1214.5 1445.33 1214.5 1444.5C1214.5 1443.67 1215.17 1443 1216 1443C1216.83 1443 1217.5 1443.67 1217.5 1444.5Z" fill="#333333"/>
  <path transform="translate(-1208, -1430)" d="M1222 1446C1222.83 1446 1223.5 1445.33 1223.5 1444.5C1223.5 1443.67 1222.83 1443 1222 1443C1221.17 1443 1220.5 1443.67 1220.5 1444.5C1220.5 1445.33 1221.17 1446 1222 1446Z" fill="#333333"/>
</svg>