<svg width="16" height="16" viewBox="0 0 16 16" fill="none" xmlns="http://www.w3.org/2000/svg">
  <path transform="translate(-84, -1260)" fill-rule="evenodd" clip-rule="evenodd" d="M92.5034 1265L89.4984 1268.01C88.6202 1268.89 88.6202 1270.31 89.4982 1271.19C90.3767 1272.07 91.801 1272.07 92.6803 1271.19L96.7466 1267.12C98.3088 1265.56 98.3088 1263.03 96.7466 1261.47C95.1843 1259.91 92.6517 1259.91 91.0894 1261.47L86.6704 1265.89C84.4252 1268.13 84.4252 1271.77 86.6704 1274.02C88.9157 1276.26 92.5562 1276.26 94.8025 1274.02L98.8676 1269.95C99.0628 1269.76 99.0628 1269.44 98.8675 1269.25C98.6722 1269.05 98.3556 1269.05 98.1604 1269.25L94.0954 1273.31C92.2398 1275.17 89.2323 1275.17 87.3776 1273.31C85.5228 1271.46 85.5228 1268.45 87.3776 1266.59L91.7966 1262.17C92.9683 1261 94.8677 1261 96.0394 1262.17C97.2112 1263.35 97.2112 1265.25 96.0394 1266.42L91.9734 1270.48C91.485 1270.97 90.6933 1270.97 90.2056 1270.48C89.7178 1270 89.7178 1269.2 90.2056 1268.72L93.2106 1265.71C93.4058 1265.52 93.4058 1265.2 93.2106 1265C93.0153 1264.81 92.6987 1264.81 92.5034 1265Z" fill="#333333"/>
</svg>