<svg width="16" height="16" viewBox="0 0 16 16" fill="none" xmlns="http://www.w3.org/2000/svg">
  <path transform="translate(-588, -1260)" fill-rule="evenodd" clip-rule="evenodd" d="M597.495 1272.59C595.989 1274.09 593.636 1274.09 592.13 1272.59C590.624 1271.08 590.53 1268.82 592.036 1267.41L596.271 1263.18C597.212 1262.24 598.718 1262.24 599.565 1263.18C600.506 1264.12 600.506 1265.62 599.565 1266.47L596.271 1269.86C595.895 1270.24 595.33 1270.24 594.953 1269.86C594.577 1269.48 594.577 1268.92 594.953 1268.54L597.589 1265.91L596.177 1264.59L593.636 1267.13C592.506 1268.26 592.506 1270.05 593.636 1271.08C594.765 1272.12 596.553 1272.21 597.589 1271.08L600.977 1267.69C602.671 1266 602.671 1263.36 600.977 1261.67C599.283 1259.98 596.647 1259.98 594.953 1261.67L590.718 1266.09C588.553 1268.26 588.647 1271.74 590.812 1273.91C591.942 1275.04 593.353 1275.6 594.859 1275.6C596.365 1275.6 597.777 1275.04 598.812 1273.91L602.859 1269.86L601.542 1268.54L597.495 1272.59Z" fill="#333333"/>
</svg>