<svg width="16" height="16" viewBox="0 0 16 16" fill="none" xmlns="http://www.w3.org/2000/svg">
  <path transform="translate(-1208, -84)" d="M1218 90C1218 89.7239 1217.78 89.5 1217.5 89.5H1208.5L1208.41 89.5081C1208.18 89.5504 1208 89.7545 1208 90C1208 90.2761 1208.22 90.5 1208.5 90.5H1217.5L1217.59 90.4919C1217.82 90.4496 1218 90.2455 1218 90Z" fill="#333333"/>
  <path transform="translate(-1208, -84)" d="M1218 98C1218 97.7239 1217.78 97.5 1217.5 97.5H1208.5L1208.41 97.5081C1208.18 97.5504 1208 97.7545 1208 98C1208 98.2761 1208.22 98.5 1208.5 98.5H1217.5L1217.59 98.4919C1217.82 98.4496 1218 98.2455 1218 98Z" fill="#333333"/>
  <path transform="translate(-1208, -84)" d="M1224 86C1224 85.7239 1223.78 85.5 1223.5 85.5H1208.5L1208.41 85.5081C1208.18 85.5504 1208 85.7545 1208 86C1208 86.2761 1208.22 86.5 1208.5 86.5H1223.5L1223.59 86.4919C1223.82 86.4496 1224 86.2455 1224 86Z" fill="#333333"/>
  <path transform="translate(-1208, -84)" d="M1223.5 93.5C1223.78 93.5 1224 93.7239 1224 94C1224 94.2455 1223.82 94.4496 1223.59 94.4919L1223.5 94.5H1208.5C1208.22 94.5 1208 94.2761 1208 94C1208 93.7545 1208.18 93.5504 1208.41 93.5081L1208.5 93.5H1223.5Z" fill="#333333"/>
</svg>