<svg width="16" height="16" viewBox="0 0 16 16" fill="none" xmlns="http://www.w3.org/2000/svg">
  <path transform="translate(-2836, -2268)" d="M2838 2269H2841C2841.6 2269 2842 2269.4 2842 2270V2282C2842 2282.6 2841.6 2283 2841 2283H2838C2837.4 2283 2837 2282.6 2837 2282V2270C2837 2269.4 2837.4 2269 2838 2269Z" fill="#333333"/>
  <path transform="translate(-2836, -2268)" d="M2847 2269H2850C2850.6 2269 2851 2269.4 2851 2270V2282C2851 2282.6 2850.6 2283 2850 2283H2847C2846.4 2283 2846 2282.6 2846 2282V2270C2846 2269.4 2846.4 2269 2847 2269Z" fill="#333333"/>
</svg>