<svg width="16" height="16" viewBox="0 0 16 16" fill="none" xmlns="http://www.w3.org/2000/svg">
  <path transform="translate(-2332, -2268)" fill-rule="evenodd" clip-rule="evenodd" d="M2333.5 2268C2333.22 2268 2333 2268.22 2333 2268.5V2283.5C2333 2283.78 2333.22 2284 2333.5 2284H2337.5C2337.78 2284 2338 2283.78 2338 2283.5V2268.5C2338 2268.22 2337.78 2268 2337.5 2268H2333.5ZM2334 2283V2269H2337V2283H2334Z" fill="#333333"/>
  <path transform="translate(-2332, -2268)" fill-rule="evenodd" clip-rule="evenodd" d="M2342.5 2268C2342.22 2268 2342 2268.22 2342 2268.5V2283.5C2342 2283.78 2342.22 2284 2342.5 2284H2346.5C2346.78 2284 2347 2283.78 2347 2283.5V2268.5C2347 2268.22 2346.78 2268 2346.5 2268H2342.5ZM2343 2283V2269H2346V2283H2343Z" fill="#333333"/>
</svg>