<svg width="16" height="16" viewBox="0 0 16 16" fill="none" xmlns="http://www.w3.org/2000/svg">
  <path transform="translate(-84, -252)" fill-rule="evenodd" clip-rule="evenodd" d="M89.5981 266.99C89.6949 266.971 89.7838 266.923 89.8536 266.854L99.8536 256.854C100.049 256.658 100.049 256.342 99.8536 256.146L95.8536 252.146C95.6583 251.951 95.3417 251.951 95.1465 252.146L92.647 254.646C92.6468 254.646 92.6471 254.646 92.647 254.646C92.6468 254.646 92.6461 254.647 92.6459 254.647L85.1464 262.146C85.0766 262.216 85.0291 262.305 85.0097 262.402L84.0097 267.402C83.9397 267.752 84.2482 268.06 84.5981 267.99L89.5981 266.99ZM93 255.707L85.9606 262.747L85.1374 266.863L89.2535 266.039L96.2929 259L93 255.707ZM93.7071 255L97 258.293L98.7929 256.5L95.5 253.207L93.7071 255Z" fill="#333333"/>
</svg>