<svg width="16" height="16" viewBox="0 0 16 16" fill="none" xmlns="http://www.w3.org/2000/svg">
  <path transform="translate(-1240, -1092)" fill-rule="evenodd" clip-rule="evenodd" d="M1241 1095C1241 1093.34 1242.34 1092 1244 1092C1245.66 1092 1247 1093.34 1247 1095C1247 1096.66 1245.66 1098 1244 1098C1242.34 1098 1241 1096.66 1241 1095ZM1246 1095C1246 1093.9 1245.1 1093 1244 1093C1242.9 1093 1242 1093.9 1242 1095C1242 1096.1 1242.9 1097 1244 1097C1245.1 1097 1246 1096.1 1246 1095Z" fill="#333333"/>
  <path transform="translate(-1240, -1092)" d="M1254.15 1093.15C1254.34 1092.95 1254.66 1092.95 1254.85 1093.15C1255.03 1093.32 1255.05 1093.59 1254.91 1093.78L1254.85 1093.85L1241.85 1106.85C1241.66 1107.05 1241.34 1107.05 1241.15 1106.85C1240.97 1106.68 1240.95 1106.41 1241.09 1106.22L1241.15 1106.15L1254.15 1093.15Z" fill="#333333"/>
  <path transform="translate(-1240, -1092)" fill-rule="evenodd" clip-rule="evenodd" d="M1252 1102C1250.34 1102 1249 1103.34 1249 1105C1249 1106.66 1250.34 1108 1252 1108C1253.66 1108 1255 1106.66 1255 1105C1255 1103.34 1253.66 1102 1252 1102ZM1252 1103C1253.1 1103 1254 1103.9 1254 1105C1254 1106.1 1253.1 1107 1252 1107C1250.9 1107 1250 1106.1 1250 1105C1250 1103.9 1250.9 1103 1252 1103Z" fill="#333333"/>
</svg>