<svg width="16" height="16" viewBox="0 0 16 16" fill="none" xmlns="http://www.w3.org/2000/svg">
  <path transform="translate(-1744, -1092)" fill-rule="evenodd" clip-rule="evenodd" d="M1745 1095C1745 1096.7 1746.3 1098 1748 1098C1749.7 1098 1751 1096.7 1751 1095C1751 1093.3 1749.7 1092 1748 1092C1746.3 1092 1745 1093.3 1745 1095ZM1747 1095C1747 1094.4 1747.4 1094 1748 1094C1748.6 1094 1749 1094.4 1749 1095C1749 1095.6 1748.6 1096 1748 1096C1747.4 1096 1747 1095.6 1747 1095Z" fill="#333333"/>
  <path transform="translate(-1744, -1092)" d="M1744.3 1107.7C1744.5 1107.9 1744.7 1108 1745 1108C1745.3 1108 1745.5 1107.9 1745.7 1107.7L1759.7 1093.7C1760.1 1093.3 1760.1 1092.7 1759.7 1092.3C1759.3 1091.9 1758.7 1091.9 1758.3 1092.3L1744.3 1106.3C1743.9 1106.7 1743.9 1107.3 1744.3 1107.7Z" fill="#333333"/>
  <path transform="translate(-1744, -1092)" fill-rule="evenodd" clip-rule="evenodd" d="M1753 1105C1753 1106.7 1754.3 1108 1756 1108C1757.7 1108 1759 1106.7 1759 1105C1759 1103.3 1757.7 1102 1756 1102C1754.3 1102 1753 1103.3 1753 1105ZM1755 1105C1755 1104.4 1755.4 1104 1756 1104C1756.6 1104 1757 1104.4 1757 1105C1757 1105.6 1756.6 1106 1756 1106C1755.4 1106 1755 1105.6 1755 1105Z" fill="#333333"/>
</svg>