<svg width="16" height="16" viewBox="0 0 16 16" fill="none" xmlns="http://www.w3.org/2000/svg">
  <path transform="translate(-1692, -252)" d="M1705.51 252.293C1705.9 251.902 1706.53 251.902 1706.92 252.293C1707.31 252.684 1707.31 253.316 1706.92 253.707L1693.92 266.707C1693.72 266.902 1693.47 267 1693.21 267C1692.96 267 1692.7 266.902 1692.51 266.707C1692.11 266.316 1692.11 265.684 1692.51 265.293L1694.91 262.892C1693.22 260.703 1692.21 257.974 1692.21 255L1692.22 255.003L1694.51 252.708C1694.9 252.317 1695.54 252.317 1695.93 252.708L1698.51 255.292C1698.9 255.683 1698.9 256.316 1698.51 256.706L1696.21 259L1697.51 260.293L1705.51 252.293Z" fill="#333333"/>
  <path transform="translate(-1692, -252)" d="M1704.92 261.711L1707.5 264.305C1707.89 264.696 1707.89 265.327 1707.5 265.717L1705.21 268C1702.45 268 1699.9 267.133 1697.79 265.665L1700.33 263.121L1701.21 264L1703.5 261.709C1703.89 261.318 1704.53 261.318 1704.92 261.711Z" fill="#333333"/>
</svg>