<svg width="16" height="16" viewBox="0 0 16 16" fill="none" xmlns="http://www.w3.org/2000/svg">
  <path transform="translate(-1188, -84)" fill-rule="evenodd" clip-rule="evenodd" d="M1198 95.2929L1192.71 90L1194.35 88.3536C1194.55 88.1583 1194.55 87.8417 1194.35 87.6464L1191.35 84.6464C1191.16 84.4512 1190.84 84.4512 1190.65 84.6464L1188.65 86.6464C1188.55 86.7402 1188.5 86.8674 1188.5 87C1188.5 93.9031 1194.1 99.5 1201 99.5C1201.13 99.5 1201.26 99.4473 1201.35 99.3536L1203.35 97.3536C1203.55 97.1583 1203.55 96.8417 1203.35 96.6464L1200.35 93.6464C1200.16 93.4512 1199.84 93.4512 1199.65 93.6464L1198 95.2929ZM1200 94.7071L1202.29 97L1200.79 98.4982C1194.61 98.3899 1189.61 93.3932 1189.5 87.2053L1191 85.7071L1193.29 88L1191.65 89.6464C1191.45 89.8417 1191.45 90.1583 1191.65 90.3536L1197.65 96.3536C1197.84 96.5488 1198.16 96.5488 1198.35 96.3536L1200 94.7071Z" fill="#333333"/>
</svg>