<svg width="16" height="16" viewBox="0 0 16 16" fill="none" xmlns="http://www.w3.org/2000/svg">
  <path transform="translate(-1188, -252)" fill-rule="evenodd" clip-rule="evenodd" d="M1194.35 255.646L1191.35 252.646C1191.16 252.451 1190.84 252.451 1190.65 252.646L1188.65 254.646C1188.55 254.74 1188.5 254.867 1188.5 255C1188.5 257.941 1189.52 260.726 1191.35 262.944L1188.65 265.646C1188.45 265.842 1188.45 266.158 1188.65 266.354C1188.84 266.549 1189.16 266.549 1189.35 266.354L1194.83 260.88C1194.84 260.872 1194.85 260.864 1194.85 260.855C1194.86 260.846 1194.87 260.836 1194.88 260.827L1202.35 253.354C1202.55 253.158 1202.55 252.842 1202.35 252.646C1202.16 252.451 1201.84 252.451 1201.65 252.646L1194.5 259.793L1192.71 258L1194.35 256.354C1194.55 256.158 1194.55 255.842 1194.35 255.646ZM1193.79 260.5L1191.65 258.354C1191.45 258.158 1191.45 257.842 1191.65 257.646L1193.29 256L1191 253.707L1189.5 255.205C1189.55 257.803 1190.46 260.257 1192.06 262.234L1193.79 260.5Z" fill="#333333"/>
  <path transform="translate(-1188, -252)" d="M1196.35 261.646C1196.16 261.451 1195.84 261.451 1195.65 261.646C1195.45 261.842 1195.45 262.158 1195.65 262.354L1197.65 264.354C1197.84 264.549 1198.16 264.549 1198.35 264.354L1200 262.707L1202.29 265L1200.79 266.498C1198.29 266.454 1195.92 265.608 1193.97 264.104C1193.75 263.936 1193.44 263.976 1193.27 264.194C1193.1 264.413 1193.14 264.727 1193.36 264.896C1195.53 266.574 1198.2 267.5 1201 267.5C1201.13 267.5 1201.26 267.447 1201.35 267.354L1203.35 265.354C1203.55 265.158 1203.55 264.842 1203.35 264.646L1200.35 261.646C1200.16 261.451 1199.84 261.451 1199.65 261.646L1198 263.293L1196.35 261.646Z" fill="#333333"/>
</svg>