<svg width="16" height="16" viewBox="0 0 16 16" fill="none" xmlns="http://www.w3.org/2000/svg">
  <path transform="translate(-116, -84)" fill-rule="evenodd" clip-rule="evenodd" d="M123 87.5V93H128.5C128.776 93 129 93.2239 129 93.5C129 97.0899 126.09 100 122.5 100C118.91 100 116 97.0899 116 93.5C116 89.9101 118.91 87 122.5 87C122.776 87 123 87.2239 123 87.5ZM122.5 94C122.224 94 122 93.7761 122 93.5V88.0224C119.197 88.275 117 90.631 117 93.5C117 96.5376 119.462 99 122.5 99C125.369 99 127.725 96.8033 127.978 94H122.5Z" fill="#333333"/>
  <path transform="translate(-116, -84)" fill-rule="evenodd" clip-rule="evenodd" d="M131.5 91H125.5C125.224 91 125 90.7761 125 90.5V84.5C125 84.2239 125.224 84 125.5 84C129.09 84 132 86.9101 132 90.5C132 90.7761 131.776 91 131.5 91ZM126 85.0224V90H130.978C130.74 87.3614 128.639 85.2602 126 85.0224Z" fill="#333333"/>
</svg>