<svg width="16" height="16" viewBox="0 0 16 16" fill="none" xmlns="http://www.w3.org/2000/svg">
  <path transform="translate(-84, -924)" d="M84.1464 939.146L87.6464 935.646C87.8417 935.451 88.1583 935.451 88.3536 935.646C88.5488 935.842 88.5488 936.158 88.3536 936.354L84.8536 939.854C84.6583 940.049 84.3417 940.049 84.1464 939.854C83.9512 939.658 83.9512 939.342 84.1464 939.146Z" fill="#333333"/>
  <path transform="translate(-84, -924)" fill-rule="evenodd" clip-rule="evenodd" d="M95.5044 925.797L98.2028 928.496C98.2082 928.501 98.2135 928.506 98.2187 928.512L99.8536 930.146C100.049 930.342 100.049 930.658 99.8536 930.854C99.6583 931.049 99.3417 931.049 99.1464 930.854L97.972 929.679L93.4743 937.767L94.8536 939.146C95.0488 939.342 95.0488 939.658 94.8536 939.854C94.6583 940.049 94.3417 940.049 94.1464 939.854L92.5082 938.215C92.5028 938.21 92.4975 938.205 92.4923 938.199L85.8006 931.508C85.7952 931.503 85.7899 931.497 85.7846 931.492L84.1464 929.854C83.9512 929.658 83.9512 929.342 84.1464 929.146C84.3417 928.951 84.6583 928.951 84.8536 929.146L86.2328 930.526L94.3209 926.028L93.1464 924.854C92.9512 924.658 92.9512 924.342 93.1464 924.146C93.3417 923.951 93.6583 923.951 93.8536 924.146L95.4884 925.781C95.4938 925.786 95.4991 925.792 95.5044 925.797ZM95.0562 926.763L97.2367 928.944L92.739 937.032L86.9681 931.261L95.0562 926.763Z" fill="#333333"/>
</svg>