<svg width="16" height="16" viewBox="0 0 16 16" fill="none" xmlns="http://www.w3.org/2000/svg">
  <path transform="translate(-588, -924)" fill-rule="evenodd" clip-rule="evenodd" d="M603.241 929.848L598.158 924.765C597.782 924.389 597.217 924.389 596.841 924.765C596.464 925.142 596.464 925.706 596.841 926.083L597.405 926.648L591.005 930.13L590.064 929.189C589.688 928.812 589.123 928.812 588.746 929.189C588.37 929.565 588.37 930.13 588.746 930.506L592.417 934.177L589.029 937.659L590.346 938.977L593.829 935.495L597.593 939.259C598.064 939.73 598.723 939.448 598.911 939.259C599.288 938.883 599.288 938.318 598.911 937.942L597.97 937.001L601.452 930.695L602.017 931.259C602.582 931.824 603.146 931.448 603.335 931.259C603.617 930.883 603.617 930.224 603.241 929.848ZM596.464 935.589L592.417 931.542L598.723 928.059L599.946 929.283L596.464 935.589Z" fill="#333333"/>
</svg>