<svg width="16" height="16" viewBox="0 0 16 16" fill="none" xmlns="http://www.w3.org/2000/svg">
  <path transform="translate(-3456, -2100)" d="M3463.5 2112C3463.5 2112.28 3463.72 2112.5 3464 2112.5C3464.28 2112.5 3464.5 2112.28 3464.5 2112V2108.5H3468C3468.28 2108.5 3468.5 2108.28 3468.5 2108C3468.5 2107.72 3468.28 2107.5 3468 2107.5H3464.5V2104C3464.5 2103.72 3464.28 2103.5 3464 2103.5C3463.72 2103.5 3463.5 2103.72 3463.5 2104V2107.5H3460C3459.72 2107.5 3459.5 2107.72 3459.5 2108C3459.5 2108.28 3459.72 2108.5 3460 2108.5H3463.5V2112Z" fill="#333333"/>
  <path transform="translate(-3456, -2100)" fill-rule="evenodd" clip-rule="evenodd" d="M3464 2115.5C3468.14 2115.5 3471.5 2112.14 3471.5 2108C3471.5 2103.86 3468.14 2100.5 3464 2100.5C3459.86 2100.5 3456.5 2103.86 3456.5 2108C3456.5 2112.14 3459.86 2115.5 3464 2115.5ZM3464 2114.5C3460.41 2114.5 3457.5 2111.59 3457.5 2108C3457.5 2104.41 3460.41 2101.5 3464 2101.5C3467.59 2101.5 3470.5 2104.41 3470.5 2108C3470.5 2111.59 3467.59 2114.5 3464 2114.5Z" fill="#333333"/>
</svg>