<svg width="16" height="16" viewBox="0 0 16 16" fill="none" xmlns="http://www.w3.org/2000/svg">
  <path transform="translate(-2332, -1428)" d="M2339.5 1435.5V1429C2339.5 1428.72 2339.72 1428.5 2340 1428.5C2340.28 1428.5 2340.5 1428.72 2340.5 1429V1435.5H2347C2347.28 1435.5 2347.5 1435.72 2347.5 1436C2347.5 1436.28 2347.28 1436.5 2347 1436.5H2340.5V1443C2340.5 1443.28 2340.28 1443.5 2340 1443.5C2339.72 1443.5 2339.5 1443.28 2339.5 1443V1436.5H2333C2332.72 1436.5 2332.5 1436.28 2332.5 1436C2332.5 1435.72 2332.72 1435.5 2333 1435.5H2339.5Z" fill="#333333"/>
</svg>