<svg width="16" height="16" viewBox="0 0 16 16" fill="none" xmlns="http://www.w3.org/2000/svg">
  <path transform="translate(-2836, -753)" fill-rule="evenodd" clip-rule="evenodd" d="M2848.38 758.603L2842.95 758V754.5C2842.95 753.672 2842.28 753 2841.45 753C2840.63 753 2839.95 753.672 2839.95 754.5V762H2838.95V760H2838.45C2837.63 760 2836.95 760.672 2836.95 761.5V763.333C2836.95 764.415 2837.3 765.468 2837.95 766.333L2839.95 769H2848.95L2850.92 762.446C2851.46 760.652 2850.24 758.809 2848.38 758.603ZM2843.95 766H2842.95V761H2843.95V766ZM2846.95 766H2845.95V761H2846.95V766Z" fill="#333333"/>
</svg>