<svg width="16" height="16" viewBox="0 0 16 16" fill="none" xmlns="http://www.w3.org/2000/svg">
  <path transform="translate(-2332, -753)" fill-rule="evenodd" clip-rule="evenodd" d="M2339.5 761C2339.78 761 2340 761.224 2340 761.5V765.5C2340 765.776 2339.78 766 2339.5 766C2339.22 766 2339 765.776 2339 765.5V761.5C2339 761.224 2339.22 761 2339.5 761Z" fill="#333333"/>
  <path transform="translate(-2332, -753)" fill-rule="evenodd" clip-rule="evenodd" d="M2337 754C2336.73 754 2336.48 754.105 2336.29 754.293C2336.11 754.48 2336 754.735 2336 755V763.5C2336 763.776 2335.78 764 2335.5 764C2335.22 764 2335 763.776 2335 763.5V761.086C2334.79 761.16 2334.6 761.28 2334.44 761.439C2334.16 761.721 2334 762.102 2334 762.5V764.257C2334 764.585 2334.06 764.911 2334.19 765.214C2334.32 765.518 2334.5 765.793 2334.73 766.025L2336.71 768H2344.14L2345.85 762.862C2345.97 762.508 2346.01 762.133 2345.96 761.763C2345.92 761.393 2345.79 761.038 2345.59 760.724C2345.39 760.41 2345.12 760.145 2344.8 759.948C2344.48 759.752 2344.13 759.628 2343.76 759.587L2338.44 758.997C2338.19 758.969 2338 758.755 2338 758.5V755C2338 754.735 2337.89 754.48 2337.71 754.293C2337.52 754.105 2337.27 754 2337 754ZM2335 760.05V755C2335 754.47 2335.21 753.961 2335.59 753.586C2335.96 753.211 2336.47 753 2337 753C2337.53 753 2338.04 753.211 2338.41 753.586C2338.79 753.961 2339 754.47 2339 755V758.052L2343.87 758.593C2344.39 758.651 2344.89 758.824 2345.33 759.099C2345.77 759.374 2346.15 759.746 2346.43 760.185C2346.71 760.625 2346.89 761.122 2346.95 761.639C2347.02 762.157 2346.97 762.683 2346.8 763.178L2344.97 768.658C2344.91 768.862 2344.72 769 2344.5 769H2336.5C2336.37 769 2336.24 768.947 2336.15 768.854L2334.03 766.733C2333.7 766.408 2333.44 766.022 2333.27 765.597C2333.09 765.172 2333 764.717 2333 764.257V762.5C2333 761.837 2333.26 761.201 2333.73 760.732C2334.08 760.383 2334.52 760.148 2335 760.05Z" fill="#333333"/>
  <path transform="translate(-2332, -753)" fill-rule="evenodd" clip-rule="evenodd" d="M2342.5 761C2342.78 761 2343 761.224 2343 761.5V765.5C2343 765.776 2342.78 766 2342.5 766C2342.22 766 2342 765.776 2342 765.5V761.5C2342 761.224 2342.22 761 2342.5 761Z" fill="#333333"/>
</svg>