<svg width="16" height="16" viewBox="0 0 16 16" fill="none" xmlns="http://www.w3.org/2000/svg">
  <path transform="translate(-116, -924)" d="M125.052 925.004C126.694 924.903 128.234 925.805 128.95 927.286C129.07 927.534 128.966 927.833 128.718 927.953C128.469 928.074 128.17 927.97 128.05 927.721C127.51 926.605 126.35 925.926 125.128 926.001C123.393 926.159 122.06 927.586 122.001 929.317L122.001 932.003H125.5C125.776 932.003 126 932.227 126 932.503C126 932.749 125.823 932.953 125.59 932.995L125.5 933.003H122.001L122 938.003H128.5C128.776 938.003 129 938.227 129 938.503C129 938.749 128.823 938.953 128.59 938.995L128.5 939.003H119.5C119.224 939.003 119 938.779 119 938.503C119 938.258 119.177 938.054 119.41 938.011L119.5 938.003H121L121.001 933.003H119.5C119.224 933.003 119 932.779 119 932.503C119 932.258 119.177 932.054 119.41 932.011L119.5 932.003H121.001L121.001 929.302C121.063 927.066 122.789 925.21 125.052 925.004Z" fill="#333333"/>
</svg>