<svg width="16" height="16" viewBox="0 0 16 16" fill="none" xmlns="http://www.w3.org/2000/svg">
  <path transform="translate(-620, -924)" fill-rule="evenodd" clip-rule="evenodd" d="M632.5 937H627.5V934H630.5C631.1 934 631.5 933.6 631.5 933C631.5 932.4 631.1 932 630.5 932H627.5V929C627.5 927.9 628.4 927 629.5 927C630.6 927 631.5 927.9 631.5 929C631.5 929.6 631.9 930 632.5 930C633.1 930 633.5 929.6 633.5 929C633.5 926.8 631.7 925 629.5 925C627.3 925 625.5 926.8 625.5 929V932H623.5C622.9 932 622.5 932.4 622.5 933C622.5 933.6 622.9 934 623.5 934H625.5V937H623.5C622.9 937 622.5 937.4 622.5 938C622.5 938.6 622.9 939 623.5 939H632.5C633.1 939 633.5 938.6 633.5 938C633.5 937.4 633.1 937 632.5 937Z" fill="#333333"/>
</svg>