<svg width="16" height="16" viewBox="0 0 16 16" fill="none" xmlns="http://www.w3.org/2000/svg">
  <path transform="translate(-4580, -420)" d="M4588.49 420.41C4588.45 420.177 4588.25 420 4588 420C4587.72 420 4587.5 420.224 4587.5 420.5V427.5L4587.51 427.59C4587.55 427.823 4587.75 428 4588 428C4588.28 428 4588.5 427.776 4588.5 427.5V420.5L4588.49 420.41Z" fill="#333333"/>
  <path transform="translate(-4580, -420)" d="M4592.64 422.607C4592.42 422.436 4592.11 422.474 4591.94 422.69C4591.77 422.907 4591.8 423.222 4592.02 423.393C4593.58 424.619 4594.5 426.483 4594.5 428.5C4594.5 432.09 4591.59 435 4588 435C4584.41 435 4581.5 432.09 4581.5 428.5C4581.5 426.483 4582.42 424.619 4583.98 423.393C4584.2 423.222 4584.23 422.907 4584.06 422.69C4583.89 422.474 4583.58 422.436 4583.36 422.607C4581.57 424.021 4580.5 426.173 4580.5 428.5C4580.5 432.642 4583.86 436 4588 436C4592.14 436 4595.5 432.642 4595.5 428.5C4595.5 426.173 4594.43 424.021 4592.64 422.607Z" fill="#333333"/>
</svg>