<svg width="16" height="16" viewBox="0 0 16 16" fill="none" xmlns="http://www.w3.org/2000/svg">
  <path transform="translate(-5084, -420)" d="M5093 420H5091V426H5093V420Z" fill="#333333"/>
  <path transform="translate(-5084, -420)" d="M5095.3 423.9C5095.7 423.5 5096.3 423.4 5096.7 423.8C5098.2 425.1 5099 427 5099 429C5099 432.9 5095.9 436 5092 436C5088.1 436 5085 432.9 5085 429C5085 427 5085.9 425.1 5087.4 423.8C5087.8 423.5 5088.4 423.5 5088.8 423.9C5089.1 424.3 5089.1 424.9 5088.7 425.3C5087.6 426.2 5087 427.6 5087 429C5087 431.8 5089.2 434 5092 434C5094.8 434 5097 431.8 5097 429C5097 427.6 5096.4 426.2 5095.4 425.3C5095 424.9 5094.9 424.3 5095.3 423.9Z" fill="#333333"/>
</svg>