<svg width="16" height="16" viewBox="0 0 16 16" fill="none" xmlns="http://www.w3.org/2000/svg">
  <path transform="translate(-84, -252)" d="M88 253H96V255.5C96 255.776 96.2239 256 96.5 256C96.7761 256 97 255.776 97 255.5V252.5C97 252.224 96.7761 252 96.5 252H87.5C87.2239 252 87 252.224 87 252.5V255.5C87 255.776 87.2239 256 87.5 256C87.7761 256 88 255.776 88 255.5V253Z" fill="#333333"/>
  <path transform="translate(-84, -252)" fill-rule="evenodd" clip-rule="evenodd" d="M87 265H84.5C84.2239 265 84 264.776 84 264.5V260.5C84 258.567 85.567 257 87.5 257H96.5C98.433 257 100 258.567 100 260.5V264.5C100 264.776 99.7761 265 99.5 265H97V267.5C97 267.776 96.7761 268 96.5 268H87.5C87.2239 268 87 267.776 87 267.5V265ZM85 264V260.5C85 259.119 86.1193 258 87.5 258H96.5C97.8807 258 99 259.119 99 260.5V264H97V261.5C97 261.224 96.7761 261 96.5 261H87.5C87.2239 261 87 261.224 87 261.5V264H85ZM96 262H88V267H96V262Z" fill="#333333"/>
</svg>