<svg width="16" height="16" viewBox="0 0 16 16" fill="none" xmlns="http://www.w3.org/2000/svg">
  <path transform="translate(-588, -252)" d="M600 252H592V255H600V252Z" fill="#333333"/>
  <path transform="translate(-588, -252)" fill-rule="evenodd" clip-rule="evenodd" d="M600 257H592C589.8 257 588 258.8 588 261V264C588 264.6 588.4 265 589 265H591V267C591 267.6 591.4 268 592 268H600C600.6 268 601 267.6 601 267V265H603C603.6 265 604 264.6 604 264V261C604 258.8 602.2 257 600 257ZM599 266H593V262H599V266Z" fill="#333333"/>
</svg>