<svg width="16" height="16" viewBox="0 0 16 16" fill="none" xmlns="http://www.w3.org/2000/svg">
  <path transform="translate(-1208, -590)" fill-rule="evenodd" clip-rule="evenodd" d="M1216 591C1214.34 591 1213 592.343 1213 594V596C1213 597.657 1214.34 599 1216 599C1217.66 599 1219 597.657 1219 596V594C1219 592.343 1217.66 591 1216 591ZM1212 594C1212 591.791 1213.79 590 1216 590C1218.21 590 1220 591.791 1220 594V596C1220 598.209 1218.21 600 1216 600C1213.79 600 1212 598.209 1212 596V594ZM1211 599.758C1211.13 599.999 1211.05 600.304 1210.8 600.437C1210.26 600.74 1209.8 601.184 1209.48 601.723C1209.17 602.261 1209 602.875 1209 603.5V605H1223V603.5C1223 602.875 1222.83 602.261 1222.52 601.723C1222.2 601.184 1221.74 600.74 1221.2 600.437C1220.95 600.304 1220.87 599.999 1221 599.758C1221.13 599.516 1221.44 599.429 1221.68 599.563C1222.38 599.952 1222.97 600.523 1223.38 601.215C1223.79 601.907 1224 602.696 1224 603.5V605.5C1224 605.776 1223.78 606 1223.5 606H1208.5C1208.22 606 1208 605.776 1208 605.5V603.5C1208 602.696 1208.21 601.907 1208.62 601.215C1209.03 600.523 1209.62 599.952 1210.32 599.563C1210.56 599.429 1210.87 599.516 1211 599.758Z" fill="#333333"/>
</svg>