<svg width="16" height="16" viewBox="0 0 16 16" fill="none" xmlns="http://www.w3.org/2000/svg">
  <path transform="translate(-1240, -924)" fill-rule="evenodd" clip-rule="evenodd" d="M1250.5 927H1243.5C1243.22 927 1243 927.224 1243 927.5V931.5C1243 931.776 1243.22 932 1243.5 932H1250.5C1250.78 932 1251 931.776 1251 931.5V927.5C1251 927.224 1250.78 927 1250.5 927ZM1250 928V931H1244V928H1250Z" fill="#333333"/>
  <path transform="translate(-1240, -924)" fill-rule="evenodd" clip-rule="evenodd" d="M1252.5 924H1241.5C1240.67 924 1240 924.672 1240 925.5V938.5C1240 939.328 1240.67 940 1241.5 940H1252.5C1253.33 940 1254 939.328 1254 938.5V925.5C1254 924.672 1253.33 924 1252.5 924ZM1241.5 925H1252.5C1252.78 925 1253 925.224 1253 925.5V938.5C1253 938.776 1252.78 939 1252.5 939H1241.5C1241.22 939 1241 938.776 1241 938.5V925.5C1241 925.224 1241.22 925 1241.5 925Z" fill="#333333"/>
  <path transform="translate(-1240, -924)" d="M1255.5 926C1255.75 926 1255.95 926.177 1255.99 926.41L1256 926.5V928.5C1256 928.776 1255.78 929 1255.5 929C1255.25 929 1255.05 928.823 1255.01 928.59L1255 928.5V926.5C1255 926.224 1255.22 926 1255.5 926Z" fill="#333333"/>
  <path transform="translate(-1240, -924)" d="M1255.99 930.41C1255.95 930.177 1255.75 930 1255.5 930C1255.22 930 1255 930.224 1255 930.5V932.5L1255.01 932.59C1255.05 932.823 1255.25 933 1255.5 933C1255.78 933 1256 932.776 1256 932.5V930.5L1255.99 930.41Z" fill="#333333"/>
</svg>