<svg width="16" height="16" viewBox="0 0 16 16" fill="none" xmlns="http://www.w3.org/2000/svg">
  <path transform="translate(-3456, -924)" d="M3469 927.599C3466.98 925.533 3463.83 924.888 3461.11 926.125C3457.94 927.565 3456.31 931.118 3457.28 934.461C3458.26 937.804 3461.54 939.921 3464.99 939.428C3468.44 938.936 3471 935.983 3471 932.5C3471 932.224 3470.78 932 3470.5 932C3470.23 932 3470 932.224 3470 932.5C3470 935.485 3467.81 938.016 3464.85 938.438C3461.89 938.861 3459.08 937.046 3458.24 934.181C3457.4 931.315 3458.8 928.27 3461.52 927.036C3463.94 925.936 3466.75 926.571 3468.48 928.5H3465.5C3465.22 928.5 3465 928.724 3465 929C3465 929.276 3465.22 929.5 3465.5 929.5H3469.47C3469.48 929.5 3469.48 929.5 3469.49 929.5H3469.5C3469.78 929.5 3470 929.276 3470 929V925C3470 924.724 3469.78 924.5 3469.5 924.5C3469.22 924.5 3469 924.724 3469 925V927.599Z" fill="#333333"/>
</svg>