<svg width="16" height="16" viewBox="0 0 16 16" fill="none" xmlns="http://www.w3.org/2000/svg">
  <path transform="translate(-3960, -924)" fill-rule="evenodd" clip-rule="evenodd" d="M3968 938C3965 938 3962.5 935.5 3962.5 932.5C3962.5 929.5 3965 927 3968 927C3969.2 927 3970.2 927.4 3971.2 928H3968.5V930H3974.5V924H3972.5V926.5C3971.2 925.5 3969.7 925 3968 925C3963.9 925 3960.5 928.4 3960.5 932.5C3960.5 936.6 3963.9 940 3968 940C3972.1 940 3975.5 936.6 3975.5 932.5H3973.5C3973.5 935.5 3971 938 3968 938Z" fill="#333333"/>
</svg>