<svg width="16" height="16" viewBox="0 0 16 16" fill="none" xmlns="http://www.w3.org/2000/svg">
  <path transform="translate(-1240, -1260)" fill-rule="evenodd" clip-rule="evenodd" d="M1240.17 1267.62L1247.17 1261.62C1247.5 1261.34 1248 1261.57 1248 1262V1265.54L1248.32 1265.56C1252.95 1265.81 1255.89 1268.31 1256 1273.69L1256 1274C1256 1274.5 1255.34 1274.69 1255.07 1274.26C1253.53 1271.76 1251.24 1270.65 1248.15 1270.51L1248 1270.51V1274C1248 1274.4 1247.56 1274.63 1247.24 1274.43L1247.17 1274.38L1240.17 1268.38C1239.94 1268.18 1239.94 1267.82 1240.17 1267.62ZM1247 1263.09L1241.27 1268L1247 1272.91V1270C1247 1269.75 1247.18 1269.55 1247.41 1269.51L1247.5 1269.5C1250.54 1269.5 1252.98 1270.31 1254.78 1272.23L1254.9 1272.36L1254.85 1272.05C1254.23 1268.25 1251.68 1266.61 1247.76 1266.54L1247.5 1266.53C1247.22 1266.53 1247 1266.31 1247 1266.03V1263.09Z" fill="#333333"/>
</svg>