<svg width="16" height="16" viewBox="0 0 16 16" fill="none" xmlns="http://www.w3.org/2000/svg">
  <path transform="translate(-2836, -2436)" d="M2851.4 2436.1C2851 2435.9 2850.6 2436 2850.3 2436.3L2845 2441.6V2437C2845 2436.6 2844.8 2436.2 2844.4 2436.1C2844 2435.9 2843.6 2436 2843.3 2436.3L2836.3 2443.3C2835.9 2443.7 2835.9 2444.3 2836.3 2444.7L2843.3 2451.7C2843.5 2451.9 2843.7 2452 2844 2452C2844.1 2452 2844.3 2452 2844.4 2451.9C2844.8 2451.8 2845 2451.4 2845 2451V2446.4L2850.3 2451.7C2850.5 2451.9 2850.7 2452 2851 2452C2851.1 2452 2851.3 2452 2851.4 2451.9C2851.8 2451.7 2852 2451.4 2852 2451V2437C2852 2436.6 2851.8 2436.2 2851.4 2436.1ZM2843 2448.6L2838.4 2444L2843 2439.4V2448.6ZM2850 2448.6L2845.4 2444L2850 2439.4V2448.6Z" fill="#333333"/>
</svg>