<svg width="16" height="16" viewBox="0 0 16 16" fill="none" xmlns="http://www.w3.org/2000/svg">
  <path transform="translate(-2332, -2436)" fill-rule="evenodd" clip-rule="evenodd" d="M2332.16 2443.64L2340.16 2436.14C2340.48 2435.84 2341 2436.06 2341 2436.5V2451.5C2341 2451.94 2340.48 2452.16 2340.16 2451.86L2332.16 2444.36C2331.95 2444.17 2331.95 2443.83 2332.16 2443.64ZM2333.23 2444L2340 2450.35V2437.65L2333.23 2444Z" fill="#333333"/>
  <path transform="translate(-2332, -2436)" d="M2343.34 2446.92L2347 2450.35V2437.65L2343.34 2441.08C2343.14 2441.27 2342.82 2441.26 2342.64 2441.06C2342.45 2440.86 2342.46 2440.54 2342.66 2440.35L2347.16 2436.14C2347.48 2435.84 2348 2436.06 2348 2436.5V2451.5C2348 2451.94 2347.48 2452.16 2347.16 2451.86L2342.66 2447.65C2342.46 2447.46 2342.45 2447.14 2342.64 2446.94C2342.82 2446.74 2343.14 2446.73 2343.34 2446.92Z" fill="#333333"/>
</svg>