<svg width="16" height="16" viewBox="0 0 16 16" fill="none" xmlns="http://www.w3.org/2000/svg">
  <path transform="translate(-84, -420)" d="M87 435C88.1046 435 89 434.105 89 433C89 431.895 88.1046 431 87 431C85.8954 431 85 431.895 85 433C85 434.105 85.8954 435 87 435Z" fill="#333333"/>
  <path transform="translate(-84, -420)" d="M94.3 435H91.7C91.7 431.3 88.7 428.3 85 428.3V425.7C90.1 425.7 94.3 429.9 94.3 435Z" fill="#333333"/>
  <path transform="translate(-84, -420)" d="M99 435H96.3C96.3 428.8 91.2 423.7 85 423.7V421C92.7 421 99 427.3 99 435Z" fill="#333333"/>
</svg>