<svg width="16" height="16" viewBox="0 0 16 16" fill="none" xmlns="http://www.w3.org/2000/svg">
  <path transform="translate(-5084, -588)" fill-rule="evenodd" clip-rule="evenodd" d="M5095.7 588.3C5095.5 588.1 5095.3 588 5095 588H5094V591C5094 591.6 5093.6 592 5093 592H5088C5087.4 592 5087 591.6 5087 591V588H5085C5084.4 588 5084 588.4 5084 589V603C5084 603.6 5084.4 604 5085 604H5099C5099.6 604 5100 603.6 5100 603V593C5100 592.7 5099.9 592.5 5099.7 592.3L5095.7 588.3ZM5097 602H5087V599C5087 598.4 5087.4 598 5088 598H5096C5096.6 598 5097 598.4 5097 599V602Z" fill="#333333"/>
  <path transform="translate(-5084, -588)" d="M5093 588H5091V591H5093V588Z" fill="#333333"/>
</svg>