<svg width="16" height="16" viewBox="0 0 16 16" fill="none" xmlns="http://www.w3.org/2000/svg">
  <path transform="translate(-4580, -588)" d="M4589.5 590C4589.75 590 4589.95 590.177 4589.99 590.41L4590 590.5V593.5C4590 593.745 4589.82 593.95 4589.59 593.992L4589.5 594H4583.5C4583.25 594 4583.05 593.823 4583.01 593.59L4583 593.5V590.5C4583 590.224 4583.22 590 4583.5 590C4583.75 590 4583.95 590.177 4583.99 590.41L4584 590.5V593H4589V590.5C4589 590.255 4589.18 590.05 4589.41 590.008L4589.5 590Z" fill="#333333"/>
  <path transform="translate(-4580, -588)" d="M4592.99 597.41C4592.95 597.177 4592.75 597 4592.5 597H4583.5L4583.41 597.008C4583.18 597.05 4583 597.255 4583 597.5V601.5L4583.01 601.59C4583.05 601.823 4583.25 602 4583.5 602L4583.59 601.992C4583.82 601.95 4584 601.745 4584 601.5V598H4592V601.5L4592.01 601.59C4592.05 601.823 4592.25 602 4592.5 602C4592.78 602 4593 601.776 4593 601.5V597.5L4592.99 597.41Z" fill="#333333"/>
  <path transform="translate(-4580, -588)" fill-rule="evenodd" clip-rule="evenodd" d="M4580.5 588H4591.5C4591.63 588 4591.76 588.053 4591.85 588.146L4595.85 592.146C4595.95 592.24 4596 592.367 4596 592.5V603.5C4596 603.776 4595.78 604 4595.5 604H4580.5C4580.22 604 4580 603.776 4580 603.5V588.5C4580 588.224 4580.22 588 4580.5 588ZM4595 592.707L4591.29 589H4581V603H4595V592.707Z" fill="#333333"/>
</svg>