<svg width="16" height="16" viewBox="0 0 16 16" fill="none" xmlns="http://www.w3.org/2000/svg">
  <path transform="translate(-1712, -1932)" fill-rule="evenodd" clip-rule="evenodd" d="M1727 1934H1725V1932H1723V1934H1721V1932H1719V1934H1717V1932H1715V1934H1713C1712.45 1934 1712 1934.45 1712 1935V1947C1712 1947.55 1712.45 1948 1713 1948H1727C1727.55 1948 1728 1947.55 1728 1947V1935C1728 1934.45 1727.55 1934 1727 1934ZM1726 1946H1714V1937H1726V1946Z" fill="#333333"/>
  <path transform="translate(-1712, -1932)" d="M1719 1943H1723V1941H1721V1939H1719V1943Z" fill="#333333"/>
</svg>