<svg width="16" height="16" viewBox="0 0 16 16" fill="none" xmlns="http://www.w3.org/2000/svg">
  <path transform="translate(-1208, -1932)" fill-rule="evenodd" clip-rule="evenodd" d="M1212.5 1932C1212.75 1932 1212.95 1932.18 1212.99 1932.41L1213 1932.5V1934H1219V1932.5C1219 1932.22 1219.22 1932 1219.5 1932C1219.75 1932 1219.95 1932.18 1219.99 1932.41L1220 1932.5V1934H1222.5C1223.28 1934 1223.92 1934.59 1223.99 1935.36L1224 1935.5V1937.5C1224 1937.74 1223.83 1937.94 1223.6 1937.99C1223.57 1938 1223.53 1938 1223.5 1938H1209V1946.5C1209 1946.75 1209.18 1946.95 1209.41 1946.99L1209.5 1947H1214.5C1214.78 1947 1215 1947.22 1215 1947.5C1215 1947.75 1214.82 1947.95 1214.59 1947.99L1214.5 1948H1209.5C1208.72 1948 1208.08 1947.41 1208.01 1946.64L1208 1946.5V1935.5C1208 1934.72 1208.59 1934.08 1209.36 1934.01L1209.5 1934H1212V1932.5C1212 1932.22 1212.22 1932 1212.5 1932ZM1209.5 1935C1209.25 1935 1209.05 1935.18 1209.01 1935.41L1209 1935.5V1937H1223V1935.5C1223 1935.25 1222.82 1935.05 1222.59 1935.01L1222.5 1935H1209.5Z" fill="#333333"/>
  <path transform="translate(-1208, -1932)" fill-rule="evenodd" clip-rule="evenodd" d="M1215 1943.5C1215 1941.01 1217.01 1939 1219.5 1939C1221.99 1939 1224 1941.01 1224 1943.5C1224 1945.99 1221.99 1948 1219.5 1948C1217.01 1948 1215 1945.99 1215 1943.5ZM1223 1943.5C1223 1941.57 1221.43 1940 1219.5 1940C1217.57 1940 1216 1941.57 1216 1943.5C1216 1945.43 1217.57 1947 1219.5 1947C1221.43 1947 1223 1945.43 1223 1943.5Z" fill="#333333"/>
  <path transform="translate(-1208, -1932)" d="M1219.99 1941.41C1219.95 1941.18 1219.75 1941 1219.5 1941C1219.22 1941 1219 1941.22 1219 1941.5V1943.5L1219.01 1943.59C1219.05 1943.82 1219.25 1944 1219.5 1944H1221.5L1221.59 1943.99C1221.82 1943.95 1222 1943.75 1222 1943.5L1221.99 1943.41C1221.95 1943.18 1221.75 1943 1221.5 1943H1220V1941.5L1219.99 1941.41Z" fill="#333333"/>
</svg>