<svg width="16" height="16" viewBox="0 0 16 16" fill="none" xmlns="http://www.w3.org/2000/svg">
  <path transform="translate(-4580, -755)" fill-rule="evenodd" clip-rule="evenodd" d="M4582.85 755.139C4582.67 754.975 4582.41 754.951 4582.21 755.095C4581.98 755.257 4581.93 755.57 4582.1 755.793L4587.38 763.089L4585.64 765.489C4585.17 765.18 4584.61 765 4584 765C4582.34 765 4581 766.343 4581 768C4581 769.657 4582.34 771 4584 771C4585.66 771 4587 769.657 4587 768C4587 767.313 4586.77 766.68 4586.38 766.175L4588 763.941L4589.62 766.175C4589.23 766.68 4589 767.313 4589 768C4589 769.657 4590.34 771 4592 771C4593.66 771 4595 769.657 4595 768C4595 766.343 4593.66 765 4592 765C4591.39 765 4590.83 765.18 4590.36 765.489L4588.62 763.089L4593.9 755.793L4593.95 755.716C4594.05 755.502 4593.99 755.239 4593.79 755.095C4593.57 754.933 4593.26 754.983 4593.1 755.207L4588 762.237L4582.9 755.207L4582.85 755.139ZM4590.6 766.572C4590.6 766.567 4590.61 766.562 4590.62 766.556C4590.98 766.212 4591.46 766 4592 766C4593.1 766 4594 766.895 4594 768C4594 769.105 4593.1 770 4592 770C4590.9 770 4590 769.105 4590 768C4590 767.441 4590.23 766.935 4590.6 766.572ZM4585.4 766.572C4585.4 766.567 4585.39 766.562 4585.38 766.556C4585.02 766.212 4584.54 766 4584 766C4582.9 766 4582 766.895 4582 768C4582 769.105 4582.9 770 4584 770C4585.1 770 4586 769.105 4586 768C4586 767.441 4585.77 766.935 4585.4 766.572Z" fill="#333333"/>
</svg>