<svg width="16" height="16" viewBox="0 0 16 16" fill="none" xmlns="http://www.w3.org/2000/svg">
  <path transform="translate(-5084, -755)" fill-rule="evenodd" clip-rule="evenodd" d="M5096 765C5095.6 765 5095.2 765.1 5094.9 765.2L5093.5 763.6L5097.2 759.9C5098.5 758.6 5098.7 756.6 5097.8 755L5092 761.8L5086.1 755C5085.2 756.6 5085.4 758.6 5086.7 759.9L5090.4 763.6L5089 765.2C5088.8 765.1 5088.4 765 5088 765C5086.3 765 5085 766.3 5085 768C5085 769.7 5086.3 771 5088 771C5089.7 771 5091 769.7 5091 768C5091 767.5 5090.8 767 5090.6 766.5L5092 765.1L5093.4 766.5C5093.2 767 5093 767.5 5093 768C5093 769.7 5094.3 771 5096 771C5097.7 771 5099 769.7 5099 768C5099 766.3 5097.7 765 5096 765ZM5088 769C5087.4 769 5087 768.6 5087 768C5087 767.4 5087.4 767 5088 767C5088.6 767 5089 767.4 5089 768C5089 768.6 5088.6 769 5088 769ZM5096 769C5095.4 769 5095 768.6 5095 768C5095 767.4 5095.4 767 5096 767C5096.6 767 5097 767.4 5097 768C5097 768.6 5096.6 769 5096 769Z" fill="#333333"/>
</svg>