<svg width="16" height="16" viewBox="0 0 16 16" fill="none" xmlns="http://www.w3.org/2000/svg">
  <path transform="translate(-2332, -420)" d="M2337.5 426.5H2332.5C2332.22 426.5 2332 426.276 2332 426C2332 425.724 2332.22 425.5 2332.5 425.5H2337.5C2337.78 425.5 2338 425.724 2338 426C2338 426.276 2337.78 426.5 2337.5 426.5Z" fill="#333333"/>
  <path transform="translate(-2332, -420)" d="M2332.5 430.5H2337.5C2337.78 430.5 2338 430.276 2338 430C2338 429.724 2337.78 429.5 2337.5 429.5H2332.5C2332.22 429.5 2332 429.724 2332 430C2332 430.276 2332.22 430.5 2332.5 430.5Z" fill="#333333"/>
  <path transform="translate(-2332, -420)" d="M2347.5 422.5H2332.5C2332.22 422.5 2332 422.276 2332 422C2332 421.724 2332.22 421.5 2332.5 421.5H2347.5C2347.78 421.5 2348 421.724 2348 422C2348 422.276 2347.78 422.5 2347.5 422.5Z" fill="#333333"/>
  <path transform="translate(-2332, -420)" d="M2332.5 434.5C2332.22 434.5 2332 434.276 2332 434C2332 433.724 2332.22 433.5 2332.5 433.5H2347.5C2347.78 433.5 2348 433.724 2348 434C2348 434.276 2347.78 434.5 2347.5 434.5H2332.5Z" fill="#333333"/>
  <path transform="translate(-2332, -420)" fill-rule="evenodd" clip-rule="evenodd" d="M2345.45 429.238C2345.79 428.748 2346 428.148 2346 427.5C2346 425.843 2344.66 424.5 2343 424.5C2341.34 424.5 2340 425.843 2340 427.5C2340 429.157 2341.34 430.5 2343 430.5C2343.65 430.5 2344.25 430.295 2344.74 429.945L2346.65 431.854C2346.84 432.049 2347.16 432.049 2347.35 431.854C2347.55 431.658 2347.55 431.342 2347.35 431.146L2345.45 429.238ZM2343 429.5C2341.9 429.5 2341 428.605 2341 427.5C2341 426.395 2341.9 425.5 2343 425.5C2344.1 425.5 2345 426.395 2345 427.5C2345 428.605 2344.1 429.5 2343 429.5Z" fill="#333333"/>
</svg>