<svg width="16" height="16" viewBox="0 0 16 16" fill="none" xmlns="http://www.w3.org/2000/svg">
  <path transform="translate(-2836, -420)" d="M2837 433.146H2840V431.146H2837C2836.45 431.146 2836 431.594 2836 432.146C2836 432.698 2836.45 433.146 2837 433.146Z" fill="#333333"/>
  <path transform="translate(-2836, -420)" d="M2840 428.146H2837C2836.45 428.146 2836 427.698 2836 427.146C2836 426.594 2836.45 426.146 2837 426.146H2840V428.146Z" fill="#333333"/>
  <path transform="translate(-2836, -420)" d="M2837 423.146H2851C2851.55 423.146 2852 422.698 2852 422.146C2852 421.594 2851.55 421.146 2851 421.146H2837C2836.45 421.146 2836 421.594 2836 422.146C2836 422.698 2836.45 423.146 2837 423.146Z" fill="#333333"/>
  <path transform="translate(-2836, -420)" fill-rule="evenodd" clip-rule="evenodd" d="M2851.71 433.439L2849.43 431.165C2849.78 430.57 2850 429.886 2850 429.146C2850 426.94 2848.21 425.146 2846 425.146C2843.79 425.146 2842 426.94 2842 429.146C2842 431.352 2843.79 433.146 2846 433.146C2846.74 433.146 2847.42 432.931 2848.02 432.579L2850.29 434.853L2851.71 433.439ZM2846 431.146C2844.9 431.146 2844 430.249 2844 429.146C2844 428.043 2844.9 427.146 2846 427.146C2847.1 427.146 2848 428.043 2848 429.146C2848 430.249 2847.1 431.146 2846 431.146Z" fill="#333333"/>
</svg>