<svg width="16" height="16" viewBox="0 0 16 16" fill="none" xmlns="http://www.w3.org/2000/svg">
  <path transform="translate(-1208, -2604)" fill-rule="evenodd" clip-rule="evenodd" d="M1219.23 2615.94C1218.09 2616.91 1216.61 2617.5 1215 2617.5C1211.41 2617.5 1208.5 2614.59 1208.5 2611C1208.5 2607.41 1211.41 2604.5 1215 2604.5C1218.59 2604.5 1221.5 2607.41 1221.5 2611C1221.5 2612.61 1220.91 2614.09 1219.94 2615.23L1223.35 2618.65C1223.55 2618.84 1223.55 2619.16 1223.35 2619.35C1223.16 2619.55 1222.84 2619.55 1222.65 2619.35L1219.23 2615.94ZM1218.87 2614.91C1217.87 2615.89 1216.51 2616.5 1215 2616.5C1211.96 2616.5 1209.5 2614.04 1209.5 2611C1209.5 2607.96 1211.96 2605.5 1215 2605.5C1218.04 2605.5 1220.5 2607.96 1220.5 2611C1220.5 2612.51 1219.89 2613.87 1218.91 2614.87C1218.9 2614.87 1218.9 2614.88 1218.89 2614.89C1218.88 2614.9 1218.87 2614.9 1218.87 2614.91Z" fill="#333333"/>
</svg>