<svg width="16" height="16" viewBox="0 0 16 16" fill="none" xmlns="http://www.w3.org/2000/svg">
  <path transform="translate(-1712, -2604)" d="M1724.7 2615.3C1725.6 2614.1 1726.1 2612.7 1726.1 2611.1C1726.1 2607.2 1723 2604 1719.1 2604C1715.2 2604 1712 2607.2 1712 2611.1C1712 2615 1715.2 2618.2 1719.1 2618.2C1720.7 2618.2 1722.2 2617.7 1723.3 2616.8L1726.3 2619.8C1726.5 2620 1726.8 2620.1 1727 2620.1C1727.2 2620.1 1727.5 2620 1727.7 2619.8C1728.1 2619.4 1728.1 2618.8 1727.7 2618.4L1724.7 2615.3ZM1719.1 2616.1C1716.3 2616.1 1714 2613.9 1714 2611.1C1714 2608.3 1716.3 2606 1719.1 2606C1721.9 2606 1724.2 2608.3 1724.2 2611.1C1724.2 2613.9 1721.9 2616.1 1719.1 2616.1Z" fill="#333333"/>
</svg>