<svg width="16" height="16" viewBox="0 0 16 16" fill="none" xmlns="http://www.w3.org/2000/svg">
  <path transform="translate(-1712, -2436)" d="M1724 2444.47C1724 2442.77 1722.48 2441.85 1721.25 2441.1C1721.01 2440.96 1720.77 2440.81 1720.55 2440.67C1719.15 2439.73 1719 2439.43 1719 2439C1719 2438.73 1719.11 2438.48 1719.29 2438.29C1719.48 2438.11 1719.73 2438 1720 2438C1720.27 2438 1720.52 2438.11 1720.71 2438.29C1720.89 2438.48 1721 2438.73 1721 2439C1721 2439.27 1721.11 2439.52 1721.29 2439.71C1721.48 2439.89 1721.73 2440 1722 2440C1722.27 2440 1722.52 2439.89 1722.71 2439.71C1722.89 2439.52 1723 2439.27 1723 2439C1723 2438.2 1722.68 2437.44 1722.12 2436.88C1721.56 2436.32 1720.8 2436 1720 2436C1719.2 2436 1718.44 2436.32 1717.88 2436.88C1717.32 2437.44 1717 2438.2 1717 2439C1716.99 2439.62 1717.19 2440.23 1717.57 2440.72C1717.09 2441.02 1716.7 2441.44 1716.43 2441.93C1716.15 2442.42 1716.01 2442.97 1716 2443.53C1716 2445.23 1717.52 2446.15 1718.75 2446.9C1718.99 2447.04 1719.23 2447.19 1719.45 2447.33C1720.85 2448.27 1721 2448.57 1721 2449C1721 2449.27 1720.89 2449.52 1720.71 2449.71C1720.52 2449.89 1720.27 2450 1720 2450C1719.73 2450 1719.48 2449.89 1719.29 2449.71C1719.11 2449.52 1719 2449.27 1719 2449C1719 2448.73 1718.89 2448.48 1718.71 2448.29C1718.52 2448.11 1718.27 2448 1718 2448C1717.73 2448 1717.48 2448.11 1717.29 2448.29C1717.11 2448.48 1717 2448.73 1717 2449C1717 2449.8 1717.32 2450.56 1717.88 2451.12C1718.44 2451.68 1719.2 2452 1720 2452C1720.8 2452 1721.56 2451.68 1722.12 2451.12C1722.68 2450.56 1723 2449.8 1723 2449C1723.01 2448.38 1722.81 2447.77 1722.43 2447.28C1722.91 2446.98 1723.3 2446.56 1723.57 2446.07C1723.85 2445.58 1723.99 2445.03 1724 2444.47ZM1718 2443.53C1718.02 2443.21 1718.15 2442.9 1718.36 2442.65C1718.57 2442.4 1718.85 2442.22 1719.17 2442.14C1719.26 2442.21 1719.35 2442.27 1719.45 2442.33C1719.69 2442.49 1719.95 2442.65 1720.22 2442.81C1721.05 2443.32 1722 2443.89 1722 2444.47C1721.98 2444.79 1721.85 2445.1 1721.64 2445.35C1721.43 2445.6 1721.15 2445.78 1720.83 2445.86C1720.74 2445.79 1720.65 2445.73 1720.56 2445.67C1720.31 2445.51 1720.05 2445.35 1719.78 2445.19C1718.95 2444.68 1718 2444.11 1718 2443.53Z" fill="#333333"/>
</svg>