<svg width="16" height="16" viewBox="0 0 16 16" fill="none" xmlns="http://www.w3.org/2000/svg">
  <path transform="translate(-1208, -2436)" fill-rule="evenodd" clip-rule="evenodd" d="M1214.23 2436.73C1214.7 2436.26 1215.34 2436 1216 2436C1216.66 2436 1217.3 2436.26 1217.77 2436.73C1218.24 2437.2 1218.5 2437.84 1218.5 2438.5C1218.5 2438.78 1218.28 2439 1218 2439C1217.72 2439 1217.5 2438.78 1217.5 2438.5C1217.5 2438.1 1217.34 2437.72 1217.06 2437.44C1216.78 2437.16 1216.4 2437 1216 2437C1215.6 2437 1215.22 2437.16 1214.94 2437.44C1214.66 2437.72 1214.5 2438.1 1214.5 2438.5C1214.5 2438.95 1214.6 2439.21 1214.82 2439.46C1215.07 2439.76 1215.51 2440.07 1216.28 2440.58L1216.29 2440.6C1216.94 2441.03 1217.72 2441.55 1218.34 2442.16C1218.97 2442.78 1219.5 2443.55 1219.5 2444.5C1219.5 2445.48 1219.09 2446.25 1218.43 2446.77C1218.1 2447.02 1217.72 2447.2 1217.32 2447.32C1217.52 2447.49 1217.71 2447.66 1217.87 2447.83C1218.28 2448.3 1218.5 2448.82 1218.5 2449.5C1218.5 2450.16 1218.24 2450.8 1217.77 2451.27C1217.3 2451.74 1216.66 2452 1216 2452C1215.34 2452 1214.7 2451.74 1214.23 2451.27C1213.76 2450.8 1213.5 2450.16 1213.5 2449.5C1213.5 2449.22 1213.72 2449 1214 2449C1214.28 2449 1214.5 2449.22 1214.5 2449.5C1214.5 2449.9 1214.66 2450.28 1214.94 2450.56C1215.22 2450.84 1215.6 2451 1216 2451C1216.4 2451 1216.78 2450.84 1217.06 2450.56C1217.34 2450.28 1217.5 2449.9 1217.5 2449.5C1217.5 2449.08 1217.38 2448.79 1217.12 2448.5C1216.83 2448.18 1216.39 2447.86 1215.72 2447.42L1215.7 2447.4C1214.97 2446.91 1214.18 2446.39 1213.58 2445.79C1212.97 2445.18 1212.5 2444.44 1212.5 2443.5C1212.5 2442.52 1212.91 2441.75 1213.57 2441.23C1213.9 2440.98 1214.27 2440.8 1214.68 2440.68C1214.43 2440.49 1214.22 2440.31 1214.06 2440.12C1213.65 2439.65 1213.5 2439.15 1213.5 2438.5C1213.5 2437.84 1213.76 2437.2 1214.23 2436.73ZM1215.85 2441.5C1215.17 2441.53 1214.59 2441.71 1214.18 2442.02C1213.77 2442.35 1213.5 2442.82 1213.5 2443.5C1213.5 2444.06 1213.78 2444.57 1214.29 2445.08C1214.78 2445.57 1215.44 2446.02 1216.15 2446.5C1216.83 2446.47 1217.41 2446.29 1217.82 2445.98C1218.23 2445.65 1218.5 2445.18 1218.5 2444.5C1218.5 2443.95 1218.19 2443.41 1217.64 2442.87C1217.13 2442.37 1216.48 2441.92 1215.85 2441.5Z" fill="#333333"/>
</svg>