<svg width="16" height="16" viewBox="0 0 16 16" fill="none" xmlns="http://www.w3.org/2000/svg">
  <path transform="translate(-1712, -1428)" fill-rule="evenodd" clip-rule="evenodd" d="M1727.71 1428.29C1727.43 1428.02 1727.03 1427.93 1726.66 1428.06L1712.66 1433.06C1712.29 1433.19 1712.03 1433.54 1712 1433.94C1711.98 1434.34 1712.19 1434.71 1712.55 1434.89L1717.14 1437.19L1723 1433L1718.81 1438.86L1721.1 1443.45C1721.28 1443.79 1721.62 1444 1722 1444C1722.02 1444 1722.04 1444 1722.06 1444C1722.46 1443.97 1722.81 1443.71 1722.94 1443.34L1727.94 1429.34C1728.07 1428.97 1727.98 1428.57 1727.71 1428.29Z" fill="#333333"/>
</svg>