<svg width="16" height="16" viewBox="0 0 16 16" fill="none" xmlns="http://www.w3.org/2000/svg">
  <path transform="translate(-1208, -1428)" fill-rule="evenodd" clip-rule="evenodd" d="M1223.09 1428.28C1223.45 1428.15 1223.81 1428.47 1223.74 1428.84L1223.72 1428.91L1218.72 1443.41C1218.59 1443.81 1218.07 1443.86 1217.84 1443.54L1217.8 1443.46L1214.8 1436.96C1214.72 1436.8 1214.74 1436.61 1214.84 1436.46L1214.9 1436.4L1217.9 1433.4C1218.09 1433.2 1218.41 1433.2 1218.6 1433.4C1218.78 1433.57 1218.8 1433.84 1218.66 1434.03L1218.6 1434.1L1215.85 1436.86L1218.18 1441.91L1222.44 1429.56L1210.09 1433.82L1213.44 1435.36C1213.66 1435.47 1213.78 1435.71 1213.72 1435.94L1213.69 1436.03C1213.58 1436.25 1213.34 1436.36 1213.11 1436.3L1213.02 1436.27L1208.54 1434.2C1208.16 1434.03 1208.16 1433.51 1208.5 1433.32L1208.59 1433.28L1223.09 1428.28Z" fill="#333333"/>
</svg>