<svg width="16" height="16" viewBox="0 0 16 16" fill="none" xmlns="http://www.w3.org/2000/svg">
  <path transform="translate(-84, -926)" fill-rule="evenodd" clip-rule="evenodd" d="M95 934C95 935.657 93.6569 937 92 937C90.3431 937 89 935.657 89 934C89 932.343 90.3431 931 92 931C93.6569 931 95 932.343 95 934ZM90 934C90 935.105 90.8954 936 92 936C93.1046 936 94 935.105 94 934C94 932.895 93.1046 932 92 932C90.8954 932 90 932.895 90 934Z" fill="#333333"/>
  <path transform="translate(-84, -926)" fill-rule="evenodd" clip-rule="evenodd" d="M99.678 931.299C99.8161 931.538 99.7342 931.844 99.495 931.982L97.8949 932.906C97.9642 933.271 98 933.635 98 934C98 934.363 97.9644 934.727 97.8957 935.094L99.497 936.019C99.7362 936.157 99.8181 936.463 99.68 936.702L98.18 939.3C98.0419 939.539 97.7362 939.621 97.497 939.483L95.8971 938.559C95.3383 939.036 94.6965 939.408 94.001 939.653V941.5C94.001 941.776 93.7771 942 93.501 942H90.501C90.2249 942 90.001 941.776 90.001 941.5V939.653C89.3049 939.407 88.6626 939.036 88.1045 938.559L86.505 939.482C86.2658 939.62 85.9601 939.538 85.822 939.299L84.322 936.701C84.1839 936.462 84.2658 936.156 84.505 936.018L86.1051 935.094C86.0358 934.729 86 934.364 86 934C86 933.635 86.0358 933.271 86.1051 932.906L84.505 931.982C84.2658 931.844 84.1839 931.538 84.322 931.299L85.822 928.701C85.9601 928.462 86.2659 928.38 86.5051 928.518L88.1038 929.441C88.6622 928.964 89.3043 928.593 90 928.347V926.5C90 926.224 90.2239 926 90.5 926H93.5C93.7761 926 94 926.224 94 926.5V928.347C94.6961 928.593 95.3384 928.964 95.8964 929.441L97.4949 928.518C97.7341 928.38 98.0399 928.462 98.178 928.701L99.678 931.299ZM96.081 937.511L97.564 938.367L98.564 936.635L97.08 935.778C96.8874 935.667 96.7914 935.442 96.8444 935.226C96.947 934.808 97 934.401 97 934C97 933.596 96.9466 933.191 96.843 932.778C96.7887 932.561 96.8846 932.335 97.078 932.223L98.562 931.366L97.562 929.634L96.0801 930.49C95.8863 930.602 95.6419 930.571 95.4815 930.416C94.89 929.841 94.1637 929.42 93.3641 929.194C93.1487 929.133 93 928.937 93 928.713V927H91V928.712C91 928.936 90.8516 929.132 90.6365 929.193C89.8371 929.42 89.1107 929.841 88.5182 930.416C88.3578 930.571 88.1135 930.602 87.9199 930.49L86.438 929.634L85.438 931.366L86.922 932.223C87.1154 932.335 87.2113 932.561 87.157 932.778C87.0534 933.191 87 933.596 87 934C87 934.403 87.0535 934.809 87.157 935.222C87.2113 935.439 87.1154 935.665 86.922 935.777L85.438 936.634L86.438 938.366L87.921 937.51C88.1147 937.398 88.3591 937.429 88.5195 937.584C89.111 938.159 89.8372 938.58 90.6369 938.806C90.8523 938.867 91.001 939.063 91.001 939.287V941H93.001V939.288C93.001 939.064 93.1495 938.868 93.3646 938.807C94.1639 938.58 94.8896 938.16 95.4831 937.585C95.6435 937.429 95.8875 937.399 96.081 937.511Z" fill="#333333"/>
</svg>