<svg width="16" height="16" viewBox="0 0 16 16" fill="none" xmlns="http://www.w3.org/2000/svg">
  <path transform="translate(-588, -926)" fill-rule="evenodd" clip-rule="evenodd" d="M601.3 931.2L602.4 929.1L601 927.7L598.9 928.8C598.6 928.6 598.2 928.5 597.8 928.4L597 926H595L594.2 928.3C593.9 928.4 593.5 928.5 593.2 928.7L591.1 927.6L589.6 929.1L590.7 931.2C590.5 931.5 590.4 931.9 590.3 932.2L588 933V935L590.3 935.8C590.4 936.2 590.6 936.5 590.7 936.9L589.6 939L591 940.4L593.1 939.3C593.4 939.5 593.8 939.6 594.2 939.7L595 942H597L597.8 939.7C598.2 939.6 598.5 939.4 598.9 939.3L601 940.4L602.4 939L601.3 936.9C601.5 936.6 601.6 936.2 601.7 935.8L604 935V933L601.7 932.2C601.6 931.9 601.5 931.5 601.3 931.2ZM596 937C594.3 937 593 935.7 593 934C593 932.3 594.3 931 596 931C597.7 931 599 932.3 599 934C599 935.7 597.7 937 596 937Z" fill="#333333"/>
</svg>