<svg width="16" height="16" viewBox="0 0 16 16" fill="none" xmlns="http://www.w3.org/2000/svg">
  <path transform="translate(-84, -1764)" fill-rule="evenodd" clip-rule="evenodd" d="M99 1767C99 1768.66 97.6569 1770 96 1770C95.1077 1770 94.3064 1769.61 93.7569 1768.99L90.7741 1770.86C90.9197 1771.21 91 1771.59 91 1772C91 1772.41 90.9197 1772.79 90.7741 1773.14L93.7569 1775.01C94.3064 1774.39 95.1077 1774 96 1774C97.6569 1774 99 1775.34 99 1777C99 1778.66 97.6569 1780 96 1780C94.3431 1780 93 1778.66 93 1777C93 1776.59 93.0804 1776.21 93.2261 1775.86L90.2435 1773.99C89.6939 1774.61 88.8925 1775 88 1775C86.3431 1775 85 1773.66 85 1772C85 1770.34 86.3431 1769 88 1769C88.8925 1769 89.6939 1769.39 90.2435 1770.01L93.2261 1768.14C93.0804 1767.79 93 1767.41 93 1767C93 1765.34 94.3431 1764 96 1764C97.6569 1764 99 1765.34 99 1767ZM89.6886 1770.93C89.3337 1770.37 88.7101 1770 88 1770C86.8954 1770 86 1770.9 86 1772C86 1773.1 86.8954 1774 88 1774C88.7101 1774 89.3337 1773.63 89.6886 1773.07C89.691 1773.07 89.6935 1773.06 89.696 1773.06C89.6986 1773.06 89.7014 1773.05 89.7041 1773.05C89.8918 1772.74 90 1772.38 90 1772C90 1771.62 89.8918 1771.26 89.7041 1770.95C89.7014 1770.95 89.6986 1770.94 89.696 1770.94C89.6935 1770.94 89.691 1770.93 89.6886 1770.93ZM94.3199 1768.09C94.3152 1768.08 94.3103 1768.07 94.305 1768.06C94.2996 1768.05 94.2939 1768.04 94.2881 1768.03C94.1052 1767.73 94 1767.38 94 1767C94 1765.9 94.8954 1765 96 1765C97.1046 1765 98 1765.9 98 1767C98 1768.1 97.1046 1769 96 1769C95.2956 1769 94.6762 1768.64 94.3199 1768.09ZM94 1777C94 1776.62 94.1052 1776.27 94.2881 1775.97C94.2939 1775.96 94.2996 1775.95 94.305 1775.94C94.3103 1775.93 94.3152 1775.92 94.3199 1775.91C94.6762 1775.36 95.2956 1775 96 1775C97.1046 1775 98 1775.9 98 1777C98 1778.1 97.1046 1779 96 1779C94.8954 1779 94 1778.1 94 1777Z" fill="#333333"/>
</svg>