<svg width="16" height="16" viewBox="0 0 16 16" fill="none" xmlns="http://www.w3.org/2000/svg">
  <path transform="translate(-588, -1764)" d="M600 1770C601.654 1770 603 1768.65 603 1767C603 1765.35 601.654 1764 600 1764C598.346 1764 597 1765.35 597 1767C597 1767.22 597.029 1767.44 597.075 1767.65L593.856 1769.66C593.344 1769.25 592.704 1769 592 1769C590.346 1769 589 1770.35 589 1772C589 1773.65 590.346 1775 592 1775C592.704 1775 593.344 1774.75 593.856 1774.34L597.075 1776.35C597.029 1776.56 597 1776.78 597 1777C597 1778.65 598.346 1780 600 1780C601.654 1780 603 1778.65 603 1777C603 1775.35 601.654 1774 600 1774C599.296 1774 598.657 1774.25 598.144 1774.66L594.925 1772.65C594.971 1772.44 595 1772.22 595 1772C595 1771.78 594.971 1771.56 594.925 1771.35L598.145 1769.34C598.657 1769.75 599.296 1770 600 1770ZM600 1766C600.551 1766 601 1766.45 601 1767C601 1767.55 600.551 1768 600 1768C599.449 1768 599 1767.55 599 1767C599 1766.45 599.449 1766 600 1766ZM592 1773C591.449 1773 591 1772.55 591 1772C591 1771.45 591.449 1771 592 1771C592.551 1771 593 1771.45 593 1772C593 1772.55 592.551 1773 592 1773ZM600 1776C600.551 1776 601 1776.45 601 1777C601 1777.55 600.551 1778 600 1778C599.449 1778 599 1777.55 599 1777C599 1776.45 599.449 1776 600 1776Z" fill="#333333"/>
</svg>