<svg width="16" height="16" viewBox="0 0 16 16" fill="none" xmlns="http://www.w3.org/2000/svg">
  <path transform="translate(-1208, -1598)" fill-rule="evenodd" clip-rule="evenodd" d="M1215.65 1598.65C1214.09 1600.2 1211.76 1601.37 1208.93 1601.77C1208.68 1601.81 1208.5 1602.02 1208.5 1602.27L1208.51 1602.54C1208.51 1602.62 1208.52 1602.71 1208.53 1602.81C1208.56 1603.22 1208.61 1603.69 1208.7 1604.18C1208.96 1605.6 1209.41 1607.02 1210.13 1608.35C1211.36 1610.65 1213.21 1612.42 1215.8 1613.46C1215.86 1613.49 1215.93 1613.5 1216 1613.5C1216.07 1613.5 1216.14 1613.49 1216.2 1613.46C1218.79 1612.42 1220.64 1610.65 1221.87 1608.35C1222.59 1607.02 1223.04 1605.6 1223.3 1604.18C1223.39 1603.69 1223.44 1603.22 1223.47 1602.81L1223.5 1602.43C1223.5 1602.36 1223.5 1602.31 1223.5 1602.27C1223.5 1602.02 1223.32 1601.81 1223.07 1601.77C1220.24 1601.37 1217.91 1600.2 1216.35 1598.65L1216.35 1598.64C1216.3 1598.6 1216.25 1598.56 1216.19 1598.54C1216.13 1598.51 1216.07 1598.5 1216 1598.5C1215.93 1598.5 1215.87 1598.51 1215.81 1598.54C1215.75 1598.56 1215.7 1598.6 1215.65 1598.64M1216.5 1612.23C1218.4 1611.32 1219.82 1609.93 1220.83 1608.18L1220.99 1607.88C1221.15 1607.59 1221.29 1607.3 1221.42 1607H1216.5V1612.23ZM1221.8 1606H1216.5V1600.12C1217.98 1601.3 1219.91 1602.19 1222.15 1602.63L1222.48 1602.69L1222.48 1602.73C1222.45 1603.12 1222.39 1603.54 1222.31 1604.01C1222.19 1604.68 1222.02 1605.34 1221.8 1606ZM1215.5 1612.23V1607H1210.58C1210.71 1607.3 1210.85 1607.59 1211.01 1607.88C1212.02 1609.77 1213.49 1611.26 1215.5 1612.23ZM1210.2 1606H1215.5V1600.12C1214.02 1601.3 1212.09 1602.19 1209.85 1602.63L1209.52 1602.69L1209.55 1603.03C1209.57 1603.23 1209.6 1603.44 1209.63 1603.67L1209.69 1604.01C1209.81 1604.68 1209.98 1605.34 1210.2 1606Z" fill="#333333"/>
</svg>