<svg width="16" height="16" viewBox="0 0 16 16" fill="none" xmlns="http://www.w3.org/2000/svg">
  <path transform="translate(-1712, -1598)" fill-rule="evenodd" clip-rule="evenodd" d="M1726.59 1601.29C1724.94 1601.29 1722.31 1599.97 1720.56 1598.66C1720.23 1598.41 1719.77 1598.41 1719.44 1598.66C1717.69 1599.97 1715.06 1601.29 1713.41 1601.29C1712.89 1601.29 1712.47 1601.72 1712.47 1602.24C1712.47 1607.49 1715.01 1611.48 1719.63 1613.45C1719.75 1613.5 1719.87 1613.53 1720 1613.53C1720.13 1613.53 1720.25 1613.5 1720.37 1613.45C1724.99 1611.48 1727.53 1607.49 1727.53 1602.24C1727.53 1601.72 1727.11 1601.29 1726.59 1601.29ZM1720 1611.56V1606H1714.93C1714.63 1605.1 1714.44 1604.14 1714.38 1603.09C1716.19 1602.78 1718.34 1601.71 1720 1600.57V1606H1725.07C1724.24 1608.48 1722.54 1610.37 1720 1611.56Z" fill="#333333"/>
</svg>