<svg width="16" height="16" viewBox="0 0 16 16" fill="none" xmlns="http://www.w3.org/2000/svg">
  <path transform="translate(-1712, -1766)" d="M1717 1780C1717 1781.1 1716.1 1782 1715 1782C1713.9 1782 1713 1781.1 1713 1780C1713 1778.9 1713.9 1778 1715 1778C1716.1 1778 1717 1778.9 1717 1780Z" fill="#333333"/>
  <path transform="translate(-1712, -1766)" d="M1727 1768H1719V1770H1725.7L1724.3 1775H1716V1767C1716 1766.4 1715.6 1766 1715 1766H1712V1768H1714V1776C1714 1776.6 1714.4 1777 1715 1777H1725C1725.4 1777 1725.8 1776.7 1726 1776.3L1728 1769.3C1728 1769 1728 1768 1727 1768Z" fill="#333333"/>
  <path transform="translate(-1712, -1766)" d="M1725 1782C1726.1 1782 1727 1781.1 1727 1780C1727 1778.9 1726.1 1778 1725 1778C1723.9 1778 1723 1778.9 1723 1780C1723 1781.1 1723.9 1782 1725 1782Z" fill="#333333"/>
</svg>