<svg width="16" height="16" viewBox="0 0 16 16" fill="none" xmlns="http://www.w3.org/2000/svg">
  <path transform="translate(-1208, -1766)" fill-rule="evenodd" clip-rule="evenodd" d="M1210 1780C1210 1778.9 1210.9 1778 1212 1778C1213.1 1778 1214 1778.9 1214 1780C1214 1781.1 1213.1 1782 1212 1782C1210.9 1782 1210 1781.1 1210 1780ZM1213 1780C1213 1779.45 1212.55 1779 1212 1779C1211.45 1779 1211 1779.45 1211 1780C1211 1780.55 1211.45 1781 1212 1781C1212.55 1781 1213 1780.55 1213 1780Z" fill="#333333"/>
  <path transform="translate(-1208, -1766)" d="M1211.5 1766C1211.75 1766 1211.95 1766.18 1211.99 1766.41L1212 1766.5V1775H1221.12L1222.84 1769H1214.5C1214.25 1769 1214.05 1768.82 1214.01 1768.59L1214 1768.5C1214 1768.25 1214.18 1768.05 1214.41 1768.01L1214.5 1768H1223.5C1223.8 1768 1224.03 1768.27 1224 1768.56L1223.98 1768.64L1221.98 1775.64C1221.93 1775.83 1221.77 1775.96 1221.58 1775.99L1221.5 1776H1211.5C1211.25 1776 1211.05 1775.82 1211.01 1775.59L1211 1775.5V1767H1208.5C1208.25 1767 1208.05 1766.82 1208.01 1766.59L1208 1766.5C1208 1766.25 1208.18 1766.05 1208.41 1766.01L1208.5 1766H1211.5Z" fill="#333333"/>
  <path transform="translate(-1208, -1766)" fill-rule="evenodd" clip-rule="evenodd" d="M1221 1778C1219.9 1778 1219 1778.9 1219 1780C1219 1781.1 1219.9 1782 1221 1782C1222.1 1782 1223 1781.1 1223 1780C1223 1778.9 1222.1 1778 1221 1778ZM1221 1779C1221.55 1779 1222 1779.45 1222 1780C1222 1780.55 1221.55 1781 1221 1781C1220.45 1781 1220 1780.55 1220 1780C1220 1779.45 1220.45 1779 1221 1779Z" fill="#333333"/>
</svg>