<svg width="16" height="16" viewBox="0 0 16 16" fill="none" xmlns="http://www.w3.org/2000/svg">
  <path transform="translate(-2836, -756)" d="M2838.3 759.7C2838.5 759.9 2838.7 760 2839 760C2839.3 760 2839.5 759.9 2839.7 759.7C2840.1 759.3 2840.1 758.7 2839.7 758.3L2837.7 756.3C2837.3 755.9 2836.7 755.9 2836.3 756.3C2835.9 756.7 2835.9 757.3 2836.3 757.7L2838.3 759.7Z" fill="#333333"/>
  <path transform="translate(-2836, -756)" d="M2843.1 769.2C2842 770.3 2840 770.3 2838.9 769.2C2838.3 768.6 2838 767.8 2838 767C2838 766.2 2838.3 765.4 2838.9 764.9L2840 763.7C2840.4 763.3 2840.4 762.7 2840 762.3C2839.6 761.9 2839 761.9 2838.6 762.3L2837.5 763.5C2836.5 764.4 2836 765.7 2836 767C2836 768.3 2836.5 769.6 2837.5 770.5C2838.4 771.5 2839.7 772 2841 772C2842.3 772 2843.6 771.5 2844.5 770.5L2845.7 769.3C2846.1 768.9 2846.1 768.3 2845.7 767.9C2845.3 767.5 2844.7 767.6 2844.3 768L2843.1 769.2Z" fill="#333333"/>
  <path transform="translate(-2836, -756)" d="M2841.2 765.4L2845.4 761.2C2845.8 760.8 2846.4 760.8 2846.8 761.2C2847.2 761.6 2847.2 762.2 2846.8 762.6L2842.6 766.8C2842.4 767 2842.1 767.1 2841.9 767.1C2841.7 767.1 2841.4 767 2841.2 766.8C2840.8 766.4 2840.8 765.8 2841.2 765.4Z" fill="#333333"/>
  <path transform="translate(-2836, -756)" d="M2850.6 764.5C2851.5 763.6 2852 762.3 2852 761C2852 759.7 2851.5 758.4 2850.5 757.5C2849.6 756.5 2848.3 756 2847 756C2845.7 756 2844.4 756.5 2843.5 757.5L2842.3 758.6C2841.9 759 2841.9 759.6 2842.3 760C2842.7 760.4 2843.3 760.4 2843.7 760L2844.9 758.8C2846 757.7 2848 757.7 2849.1 758.8C2849.7 759.4 2850 760.2 2850 761C2850 761.8 2849.7 762.6 2849.1 763.1L2848 764.3C2847.6 764.7 2847.6 765.3 2848 765.7C2848.2 765.9 2848.5 766 2848.7 766C2848.9 766 2849.2 765.9 2849.4 765.7L2850.6 764.5Z" fill="#333333"/>
  <path transform="translate(-2836, -756)" d="M2848.3 768.3C2848.7 767.9 2849.3 767.9 2849.7 768.3L2851.7 770.3C2852.1 770.7 2852.1 771.3 2851.7 771.7C2851.5 771.9 2851.2 772 2851 772C2850.8 772 2850.5 771.9 2850.3 771.7L2848.3 769.7C2847.9 769.3 2847.9 768.7 2848.3 768.3Z" fill="#333333"/>
</svg>