<svg width="16" height="16" viewBox="0 0 16 16" fill="none" xmlns="http://www.w3.org/2000/svg">
  <path transform="translate(-2332, -756)" d="M2333.15 757.853L2335.65 760.353C2335.84 760.549 2336.16 760.549 2336.35 760.353C2336.55 760.158 2336.55 759.841 2336.35 759.646L2333.85 757.146C2333.66 756.951 2333.34 756.951 2333.15 757.146C2332.95 757.341 2332.95 757.658 2333.15 757.853Z" fill="#333333"/>
  <path transform="translate(-2332, -756)" d="M2340.65 767.642L2338.63 769.617C2337.45 770.793 2335.55 770.793 2334.38 769.621C2333.21 768.449 2333.21 766.55 2334.38 765.378L2336.36 763.349C2336.55 763.151 2336.55 762.835 2336.35 762.642C2336.15 762.449 2335.83 762.453 2335.64 762.651L2333.67 764.676C2332.11 766.233 2332.11 768.766 2333.67 770.328C2335.23 771.891 2337.77 771.891 2339.33 770.328L2341.35 768.358C2341.55 768.165 2341.55 767.848 2341.36 767.651C2341.17 767.453 2340.85 767.449 2340.65 767.642Z" fill="#333333"/>
  <path transform="translate(-2332, -756)" d="M2343.35 761.353L2337.35 767.353C2337.16 767.549 2336.84 767.549 2336.65 767.353C2336.45 767.158 2336.45 766.841 2336.65 766.646L2342.65 760.646C2342.84 760.451 2343.16 760.451 2343.35 760.646C2343.55 760.841 2343.55 761.158 2343.35 761.353Z" fill="#333333"/>
  <path transform="translate(-2332, -756)" d="M2344.36 765.349L2346.33 763.324C2347.89 761.766 2347.89 759.233 2346.33 757.671C2344.77 756.109 2342.23 756.109 2340.67 757.671L2338.65 759.642C2338.45 759.835 2338.45 760.151 2338.64 760.349C2338.83 760.547 2339.15 760.551 2339.35 760.358L2341.37 758.383C2342.55 757.207 2344.45 757.207 2345.62 758.378C2346.79 759.55 2346.79 761.449 2345.62 762.621L2343.64 764.651C2343.45 764.848 2343.45 765.165 2343.65 765.358C2343.85 765.551 2344.17 765.547 2344.36 765.349Z" fill="#333333"/>
  <path transform="translate(-2332, -756)" d="M2346.15 770.853L2343.65 768.353C2343.45 768.158 2343.45 767.841 2343.65 767.646C2343.84 767.451 2344.16 767.451 2344.35 767.646L2346.85 770.146C2347.05 770.341 2347.05 770.658 2346.85 770.853C2346.66 771.049 2346.34 771.049 2346.15 770.853Z" fill="#333333"/>
</svg>