<svg width="16" height="16" viewBox="0 0 16 16" fill="none" xmlns="http://www.w3.org/2000/svg">
  <path transform="translate(-2364, -588)" fill-rule="evenodd" clip-rule="evenodd" d="M2370.5 589.52C2370.22 589.52 2370 589.744 2370 590.02V593.02C2370 593.296 2369.78 593.52 2369.5 593.52C2369.22 593.52 2369 593.296 2369 593.02V590.02C2369 589.191 2369.67 588.52 2370.5 588.52H2378.5C2379.33 588.52 2380 589.191 2380 590.02V602.02C2380 602.848 2379.33 603.52 2378.5 603.52H2370.5C2369.67 603.52 2369 602.848 2369 602.02V599.02C2369 598.743 2369.22 598.52 2369.5 598.52C2369.78 598.52 2370 598.743 2370 599.02V602.02C2370 602.295 2370.22 602.52 2370.5 602.52H2378.5C2378.78 602.52 2379 602.295 2379 602.02V590.02C2379 589.744 2378.78 589.52 2378.5 589.52H2370.5ZM2372.15 592.666C2372.34 592.471 2372.66 592.471 2372.85 592.666L2375.85 595.666C2376.05 595.861 2376.05 596.178 2375.85 596.373L2372.85 599.373C2372.66 599.568 2372.34 599.568 2372.15 599.373C2371.95 599.178 2371.95 598.861 2372.15 598.666L2374.29 596.52H2364.5C2364.22 596.52 2364 596.296 2364 596.02C2364 595.743 2364.22 595.52 2364.5 595.52H2374.29L2372.15 593.373C2371.95 593.178 2371.95 592.861 2372.15 592.666Z" fill="#333333"/>
</svg>