<svg width="16" height="16" viewBox="0 0 16 16" fill="none" xmlns="http://www.w3.org/2000/svg">
  <path transform="translate(-2364, -420)" fill-rule="evenodd" clip-rule="evenodd" d="M2371.5 421.5C2371.22 421.5 2371 421.724 2371 422V425C2371 425.276 2370.78 425.5 2370.5 425.5C2370.22 425.5 2370 425.276 2370 425V422C2370 421.172 2370.67 420.5 2371.5 420.5H2378.5C2379.33 420.5 2380 421.172 2380 422V434C2380 434.828 2379.33 435.5 2378.5 435.5H2371.5C2370.67 435.5 2370 434.828 2370 434V431C2370 430.724 2370.22 430.5 2370.5 430.5C2370.78 430.5 2371 430.724 2371 431V434C2371 434.276 2371.22 434.5 2371.5 434.5H2378.5C2378.78 434.5 2379 434.276 2379 434V422C2379 421.724 2378.78 421.5 2378.5 421.5H2371.5ZM2367.85 424.646C2368.05 424.842 2368.05 425.158 2367.85 425.354L2365.71 427.5H2375.5C2375.78 427.5 2376 427.724 2376 428C2376 428.276 2375.78 428.5 2375.5 428.5H2365.71L2367.85 430.646C2368.05 430.842 2368.05 431.158 2367.85 431.354C2367.66 431.549 2367.34 431.549 2367.15 431.354L2364.15 428.354C2363.95 428.158 2363.95 427.842 2364.15 427.646L2367.15 424.646C2367.34 424.451 2367.66 424.451 2367.85 424.646Z" fill="#333333"/>
</svg>