<svg width="16" height="16" viewBox="0 0 16 16" fill="none" xmlns="http://www.w3.org/2000/svg">
  <path transform="translate(-2836, -2604)" d="M2838 2605C2838 2604.45 2837.55 2604 2837 2604C2836.45 2604 2836 2604.45 2836 2605V2619C2836 2619.55 2836.45 2620 2837 2620C2837.55 2620 2838 2619.55 2838 2619V2605Z" fill="#333333"/>
  <path transform="translate(-2836, -2604)" d="M2840.43 2612.82C2840.16 2612.63 2840 2612.33 2840 2612V2612C2840 2611.67 2840.16 2611.37 2840.43 2611.18L2850.43 2604.18C2850.73 2603.97 2851.13 2603.94 2851.46 2604.11C2851.79 2604.28 2852 2604.63 2852 2605V2619C2852 2619.37 2851.79 2619.72 2851.46 2619.89C2851.13 2620.06 2850.73 2620.03 2850.43 2619.82L2840.43 2612.82Z" fill="#333333"/>
</svg>