<svg width="16" height="16" viewBox="0 0 16 16" fill="none" xmlns="http://www.w3.org/2000/svg">
  <path transform="translate(-2332, -2604)" d="M2332.5 2619.5V2604.5C2332.5 2604.22 2332.72 2604 2333 2604C2333.28 2604 2333.5 2604.22 2333.5 2604.5V2619.5C2333.5 2619.78 2333.28 2620 2333 2620C2332.72 2620 2332.5 2619.78 2332.5 2619.5Z" fill="#333333"/>
  <path transform="translate(-2332, -2604)" fill-rule="evenodd" clip-rule="evenodd" d="M2335.72 2611.59L2346.72 2604.09C2347.05 2603.86 2347.5 2604.1 2347.5 2604.5V2619.5C2347.5 2619.9 2347.05 2620.14 2346.72 2619.91L2335.72 2612.41C2335.43 2612.22 2335.43 2611.79 2335.72 2611.59ZM2336.89 2612L2346.5 2618.55V2605.45L2336.89 2612Z" fill="#333333"/>
</svg>