<svg width="16" height="16" viewBox="0 0 16 16" fill="none" xmlns="http://www.w3.org/2000/svg">
  <path transform="translate(-1712, -88)" d="M1713 91H1727C1727.55 91 1728 90.552 1728 90C1728 89.448 1727.55 89 1727 89H1713C1712.45 89 1712 89.448 1712 90C1712 90.552 1712.45 91 1713 91Z" fill="#333333"/>
  <path transform="translate(-1712, -88)" d="M1725 95H1715C1714.45 95 1714 94.552 1714 94C1714 93.448 1714.45 93 1715 93H1725C1725.55 93 1726 93.448 1726 94C1726 94.552 1725.55 95 1725 95Z" fill="#333333"/>
  <path transform="translate(-1712, -88)" d="M1717 99H1723C1723.55 99 1724 98.552 1724 98C1724 97.448 1723.55 97 1723 97H1717C1716.45 97 1716 97.448 1716 98C1716 98.552 1716.45 99 1717 99Z" fill="#333333"/>
  <path transform="translate(-1712, -88)" d="M1719 103H1721C1721.55 103 1722 102.552 1722 102C1722 101.448 1721.55 101 1721 101H1719C1718.45 101 1718 101.448 1718 102C1718 102.552 1718.45 103 1719 103Z" fill="#333333"/>
</svg>