<svg width="16" height="16" viewBox="0 0 16 16" fill="none" xmlns="http://www.w3.org/2000/svg">
  <path transform="translate(-1208, -88)" d="M1217.5 101.5C1217.78 101.5 1218 101.724 1218 102C1218 102.276 1217.78 102.5 1217.5 102.5H1214.5C1214.22 102.5 1214 102.276 1214 102C1214 101.724 1214.22 101.5 1214.5 101.5H1217.5ZM1219.5 97.5C1219.78 97.5 1220 97.7239 1220 98C1220 98.2761 1219.78 98.5 1219.5 98.5H1212.5C1212.22 98.5 1212 98.2761 1212 98C1212 97.7239 1212.22 97.5 1212.5 97.5H1219.5ZM1221.5 93.5C1221.78 93.5 1222 93.7239 1222 94C1222 94.2761 1221.78 94.5 1221.5 94.5H1210.5C1210.22 94.5 1210 94.2761 1210 94C1210 93.7239 1210.22 93.5 1210.5 93.5H1221.5ZM1223.5 89.5C1223.78 89.5 1224 89.7239 1224 90C1224 90.2761 1223.78 90.5 1223.5 90.5H1208.5C1208.22 90.5 1208 90.2761 1208 90C1208 89.7239 1208.22 89.5 1208.5 89.5H1223.5Z" fill="#333333"/>
</svg>