<svg width="16" height="16" viewBox="0 0 16 16" fill="none" xmlns="http://www.w3.org/2000/svg">
  <path transform="translate(-588, -924)" d="M601 927H591V936H601V927Z" fill="#333333"/>
  <path transform="translate(-588, -924)" d="M602 924H590C589.47 924 588.961 924.211 588.586 924.586C588.211 924.961 588 925.47 588 926V938C588 938.53 588.211 939.039 588.586 939.414C588.961 939.789 589.47 940 590 940H602C602.53 940 603.039 939.789 603.414 939.414C603.789 939.039 604 938.53 604 938V926C604 925.47 603.789 924.961 603.414 924.586C603.039 924.211 602.53 924 602 924ZM590 938V926H602V938H590Z" fill="#333333"/>
</svg>