<svg width="16" height="16" viewBox="0 0 16 16" fill="none" xmlns="http://www.w3.org/2000/svg">
  <path transform="translate(-84, -924)" fill-rule="evenodd" clip-rule="evenodd" d="M86.5 925C86.2239 925 86 925.224 86 925.5V936H98V925.5C98 925.224 97.7761 925 97.5 925H86.5ZM99 925.5C99 924.672 98.3284 924 97.5 924H86.5C85.6716 924 85 924.672 85 925.5V938.5C85 939.328 85.6716 940 86.5 940H97.5C98.3284 940 99 939.328 99 938.5V925.5ZM98 937H86V938.5C86 938.776 86.2239 939 86.5 939H97.5C97.7761 939 98 938.776 98 938.5V937ZM91 927.5C91 927.224 91.2239 927 91.5 927H92.5C92.7761 927 93 927.224 93 927.5C93 927.776 92.7761 928 92.5 928H91.5C91.2239 928 91 927.776 91 927.5Z" fill="#333333"/>
</svg>