<svg width="16" height="16" viewBox="0 0 16 16" fill="none" xmlns="http://www.w3.org/2000/svg">
  <path transform="translate(-4708, -2284)" d="M4713.03 2286.66L4711.91 2286.28L4711.53 2285.16C4711.41 2284.8 4710.81 2284.8 4710.69 2285.16L4710.31 2286.28L4709.19 2286.66C4709.1 2286.69 4709.03 2286.74 4708.97 2286.82C4708.92 2286.9 4708.89 2286.99 4708.89 2287.08C4708.89 2287.17 4708.92 2287.26 4708.97 2287.34C4709.03 2287.41 4709.1 2287.47 4709.19 2287.5L4710.31 2287.87L4710.69 2289C4710.72 2289.09 4710.77 2289.16 4710.85 2289.22C4710.93 2289.27 4711.02 2289.3 4711.11 2289.3C4711.2 2289.3 4711.3 2289.27 4711.37 2289.22C4711.45 2289.16 4711.5 2289.09 4711.53 2289L4711.91 2287.87L4713.03 2287.5C4713.12 2287.47 4713.19 2287.41 4713.25 2287.34C4713.3 2287.26 4713.33 2287.17 4713.33 2287.08C4713.33 2286.99 4713.3 2286.9 4713.25 2286.82C4713.19 2286.74 4713.12 2286.69 4713.03 2286.66Z" fill="#333333"/>
  <path transform="translate(-4708, -2284)" d="M4716.44 2286.44L4718.14 2290.74L4722.44 2292.44L4718.14 2294.14L4716.44 2298.44L4714.74 2294.14L4710.44 2292.44L4714.74 2290.74L4716.44 2286.44Z" fill="#333333"/>
</svg>