<svg width="16" height="16" viewBox="0 0 16 16" fill="none" xmlns="http://www.w3.org/2000/svg">
  <path transform="translate(-4604, -2284)" fill-rule="evenodd" clip-rule="evenodd" d="M4607.11 2284.39C4607.44 2284.39 4607.86 2284.56 4608.01 2285L4608.01 2285L4608.3 2285.89L4609.19 2286.18C4609.37 2286.25 4609.54 2286.37 4609.66 2286.53C4609.77 2286.69 4609.83 2286.88 4609.83 2287.08C4609.83 2287.28 4609.77 2287.47 4609.66 2287.63C4609.54 2287.79 4609.38 2287.91 4609.19 2287.97L4609.19 2287.97L4608.3 2288.27L4608.01 2289.16C4607.94 2289.34 4607.82 2289.51 4607.66 2289.62C4607.5 2289.74 4607.31 2289.8 4607.11 2289.8C4606.91 2289.8 4606.72 2289.74 4606.56 2289.62C4606.4 2289.51 4606.28 2289.34 4606.21 2289.16L4605.92 2288.27L4605.03 2287.97L4605.03 2287.97C4604.84 2287.91 4604.68 2287.79 4604.57 2287.63C4604.45 2287.47 4604.39 2287.28 4604.39 2287.08C4604.39 2286.88 4604.45 2286.69 4604.57 2286.53C4604.68 2286.37 4604.84 2286.25 4605.03 2286.18L4605.03 2286.18L4605.92 2285.89L4606.21 2285L4606.21 2285C4606.36 2284.56 4606.79 2284.39 4607.11 2284.39ZM4607.11 2285.48L4606.71 2286.68L4605.51 2287.08L4606.71 2287.48L4607.11 2288.68L4607.51 2287.48L4608.71 2287.08L4607.51 2286.68L4607.11 2285.48ZM4612.44 2285.94C4612.65 2285.94 4612.83 2286.07 4612.91 2286.26L4614.53 2290.36L4618.63 2291.98C4618.82 2292.05 4618.94 2292.24 4618.94 2292.44C4618.94 2292.65 4618.82 2292.83 4618.63 2292.91L4614.53 2294.53L4612.91 2298.63C4612.83 2298.82 4612.65 2298.94 4612.44 2298.94C4612.24 2298.94 4612.05 2298.82 4611.98 2298.63L4610.36 2294.53L4606.26 2292.91C4606.07 2292.83 4605.94 2292.65 4605.94 2292.44C4605.94 2292.24 4606.07 2292.05 4606.26 2291.98L4610.36 2290.36L4611.98 2286.26C4612.05 2286.07 4612.24 2285.94 4612.44 2285.94ZM4612.44 2287.8L4611.21 2290.93C4611.16 2291.06 4611.06 2291.16 4610.93 2291.21L4607.8 2292.44L4610.93 2293.68C4611.06 2293.73 4611.16 2293.83 4611.21 2293.96L4612.44 2297.08L4613.68 2293.96C4613.73 2293.83 4613.83 2293.73 4613.96 2293.68L4617.08 2292.44L4613.96 2291.21C4613.83 2291.16 4613.73 2291.06 4613.68 2290.93L4612.44 2287.8Z" fill="#333333"/>
</svg>