<svg width="16" height="16" viewBox="0 0 16 16" fill="none" xmlns="http://www.w3.org/2000/svg">
  <path transform="translate(-2332, -2100)" fill-rule="evenodd" clip-rule="evenodd" d="M2346.5 2116H2333.5C2332.67 2116 2332 2115.33 2332 2114.5V2101.5C2332 2100.67 2332.67 2100 2333.5 2100H2346.5C2347.33 2100 2348 2100.67 2348 2101.5V2114.5C2348 2115.33 2347.33 2116 2346.5 2116ZM2346.5 2115C2346.78 2115 2347 2114.78 2347 2114.5V2101.5C2347 2101.22 2346.78 2101 2346.5 2101H2333.5C2333.22 2101 2333 2101.22 2333 2101.5V2114.5C2333 2114.78 2333.22 2115 2333.5 2115H2346.5Z" fill="#333333"/>
</svg>