<svg width="16" height="16" viewBox="0 0 16 16" fill="none" xmlns="http://www.w3.org/2000/svg">
  <path transform="translate(-84, -1596)" fill-rule="evenodd" clip-rule="evenodd" d="M89.3505 1601.11L91.5522 1596.65C91.7356 1596.27 92.2655 1596.27 92.4489 1596.65L94.6506 1601.11L99.5724 1601.82C99.9826 1601.88 100.146 1602.38 99.8495 1602.67L96.2878 1606.15L97.1284 1611.05C97.1984 1611.46 96.7697 1611.77 96.4029 1611.58L92.0005 1609.26L87.5982 1611.58C87.2314 1611.77 86.8027 1611.46 86.8727 1611.05L87.7133 1606.15L84.1516 1602.67C83.8548 1602.38 84.0185 1601.88 84.4286 1601.82L89.3505 1601.11ZM92.0005 1598L90.1309 1601.78C90.0581 1601.93 89.9173 1602.03 89.7544 1602.06L85.5751 1602.67L88.5995 1605.61C88.7174 1605.73 88.7712 1605.89 88.7434 1606.06L88.0295 1610.22L91.7679 1608.25C91.9135 1608.18 92.0876 1608.18 92.2332 1608.25L95.9715 1610.22L95.2577 1606.06C95.2299 1605.89 95.2837 1605.73 95.4016 1605.61L98.426 1602.67L94.2466 1602.06C94.0838 1602.03 93.943 1601.93 93.8702 1601.78L92.0005 1598Z" fill="#333333"/>
</svg>