<svg width="16" height="16" viewBox="0 0 16 16" fill="none" xmlns="http://www.w3.org/2000/svg">
  <path transform="translate(-2364, -84)" d="M2369.85 86.6464C2369.66 86.4512 2369.34 86.4512 2369.15 86.6464L2364.15 91.6464L2364.09 91.7157C2363.95 91.9106 2363.97 92.18 2364.15 92.3535L2369.15 97.3535L2369.22 97.4114C2369.41 97.5464 2369.68 97.5271 2369.85 97.3535L2369.91 97.2843C2370.05 97.0894 2370.03 96.82 2369.85 96.6464L2365.21 92L2369.85 87.3535L2369.91 87.2843C2370.05 87.0894 2370.03 86.82 2369.85 86.6464Z" fill="#333333"/>
  <path transform="translate(-2364, -84)" fill-rule="evenodd" clip-rule="evenodd" d="M2372.15 86.6464L2367.15 91.6464C2366.95 91.8417 2366.95 92.1583 2367.15 92.3535L2372.15 97.3535L2372.21 97.4095C2372.53 97.6378 2373 97.4158 2373 97V94.507L2373.16 94.512C2375.94 94.6167 2377.93 95.4159 2379.07 97.2628C2379.34 97.6913 2380 97.5037 2380 97L2380 96.7198C2379.88 92.3683 2377 89.8182 2373.23 89.5279L2373 89.513V87C2373 86.5545 2372.46 86.3315 2372.15 86.6464ZM2368.21 92L2372 88.206V90C2372 90.2761 2372.22 90.5 2372.5 90.5L2372.74 90.5032C2375.75 90.5856 2378.14 92.2299 2378.81 95.2151L2378.86 95.433L2378.73 95.3225C2377.24 94.0196 2375.14 93.5 2372.5 93.5L2372.41 93.5081C2372.18 93.5504 2372 93.7545 2372 94V95.793L2368.21 92Z" fill="#333333"/>
</svg>