<svg width="16" height="16" viewBox="0 0 16 16" fill="none" xmlns="http://www.w3.org/2000/svg">
  <path transform="translate(-1240, -588)" d="M1244.99 588.41C1244.95 588.177 1244.75 588 1244.5 588H1242.5L1242.41 588.008C1242.18 588.05 1242 588.255 1242 588.5V593.5L1242.01 593.599C1242.04 593.727 1242.11 593.842 1242.22 593.916L1244.62 595.514L1244 601.448L1244 601.539C1244.02 601.775 1244.2 601.972 1244.45 601.997C1244.72 602.026 1244.97 601.826 1245 601.552L1245.64 595.317L1245.65 595.225C1245.63 595.074 1245.55 594.935 1245.42 594.849L1243 593.232V589H1244V590.5L1244.01 590.59C1244.05 590.823 1244.25 591 1244.5 591H1246.5L1246.59 590.992C1246.82 590.95 1247 590.745 1247 590.5V589H1249V590.5L1249.01 590.59C1249.05 590.823 1249.25 591 1249.5 591H1251.5L1251.59 590.992C1251.82 590.95 1252 590.745 1252 590.5V589H1253V593.231L1250.58 594.849L1250.5 594.907C1250.4 595.012 1250.34 595.163 1250.36 595.317L1251 601.552L1251.02 601.64C1251.09 601.868 1251.31 602.023 1251.55 601.997L1251.64 601.98C1251.87 601.914 1252.02 601.693 1252 601.448L1251.38 595.514L1253.78 593.916L1253.85 593.853C1253.95 593.76 1254 593.634 1254 593.5V588.5L1253.99 588.41C1253.95 588.177 1253.75 588 1253.5 588H1251.5L1251.41 588.008C1251.18 588.05 1251 588.255 1251 588.5V590H1250V588.5L1249.99 588.41C1249.95 588.177 1249.75 588 1249.5 588H1246.5L1246.41 588.008C1246.18 588.05 1246 588.255 1246 588.5V590H1245V588.5L1244.99 588.41Z" fill="#333333"/>
  <path transform="translate(-1240, -588)" d="M1255 603.5C1255 603.224 1254.78 603 1254.5 603H1241.5L1241.41 603.008C1241.18 603.05 1241 603.255 1241 603.5C1241 603.776 1241.22 604 1241.5 604H1254.5L1254.59 603.992C1254.82 603.95 1255 603.745 1255 603.5Z" fill="#333333"/>
</svg>