<svg width="16" height="16" viewBox="0 0 16 16" fill="none" xmlns="http://www.w3.org/2000/svg">
  <path transform="translate(-4604, -2448)" fill-rule="evenodd" clip-rule="evenodd" d="M4612 2448.5C4612.28 2448.5 4612.5 2448.72 4612.5 2449V2450C4612.5 2450.28 4612.28 2450.5 4612 2450.5C4611.72 2450.5 4611.5 2450.28 4611.5 2450V2449C4611.5 2448.72 4611.72 2448.5 4612 2448.5ZM4606.7 2450.7C4606.89 2450.5 4607.21 2450.5 4607.4 2450.7L4608.11 2451.4C4608.31 2451.6 4608.31 2451.92 4608.11 2452.11C4607.92 2452.31 4607.6 2452.31 4607.4 2452.11L4606.7 2451.4C4606.5 2451.21 4606.5 2450.89 4606.7 2450.7ZM4617.3 2450.7C4617.5 2450.89 4617.5 2451.21 4617.3 2451.4L4616.6 2452.11C4616.4 2452.31 4616.08 2452.31 4615.89 2452.11C4615.69 2451.92 4615.69 2451.6 4615.89 2451.4L4616.6 2450.7C4616.79 2450.5 4617.11 2450.5 4617.3 2450.7ZM4612 2453.5C4610.62 2453.5 4609.5 2454.62 4609.5 2456C4609.5 2457.38 4610.62 2458.5 4612 2458.5C4613.38 2458.5 4614.5 2457.38 4614.5 2456C4614.5 2454.62 4613.38 2453.5 4612 2453.5ZM4608.5 2456C4608.5 2454.07 4610.07 2452.5 4612 2452.5C4613.93 2452.5 4615.5 2454.07 4615.5 2456C4615.5 2457.93 4613.93 2459.5 4612 2459.5C4610.07 2459.5 4608.5 2457.93 4608.5 2456ZM4604.5 2456C4604.5 2455.72 4604.72 2455.5 4605 2455.5H4606C4606.28 2455.5 4606.5 2455.72 4606.5 2456C4606.5 2456.28 4606.28 2456.5 4606 2456.5H4605C4604.72 2456.5 4604.5 2456.28 4604.5 2456ZM4617.5 2456C4617.5 2455.72 4617.72 2455.5 4618 2455.5H4619C4619.28 2455.5 4619.5 2455.72 4619.5 2456C4619.5 2456.28 4619.28 2456.5 4619 2456.5H4618C4617.72 2456.5 4617.5 2456.28 4617.5 2456ZM4608.11 2459.89C4608.31 2460.08 4608.31 2460.4 4608.11 2460.6L4607.4 2461.3C4607.21 2461.5 4606.89 2461.5 4606.7 2461.3C4606.5 2461.11 4606.5 2460.79 4606.7 2460.6L4607.4 2459.89C4607.6 2459.69 4607.92 2459.69 4608.11 2459.89ZM4615.89 2459.89C4616.08 2459.69 4616.4 2459.69 4616.6 2459.89L4617.3 2460.6C4617.5 2460.79 4617.5 2461.11 4617.3 2461.3C4617.11 2461.5 4616.79 2461.5 4616.6 2461.3L4615.89 2460.6C4615.69 2460.4 4615.69 2460.08 4615.89 2459.89ZM4612 2461.5C4612.28 2461.5 4612.5 2461.72 4612.5 2462V2463C4612.5 2463.28 4612.28 2463.5 4612 2463.5C4611.72 2463.5 4611.5 2463.28 4611.5 2463V2462C4611.5 2461.72 4611.72 2461.5 4612 2461.5Z" fill="#333333"/>
</svg>