<svg width="16" height="16" viewBox="0 0 16 16" fill="none" xmlns="http://www.w3.org/2000/svg">
  <path transform="translate(-4708, -2448)" fill-rule="evenodd" clip-rule="evenodd" d="M4708.5 2456C4708.5 2455.72 4708.72 2455.5 4709 2455.5H4710C4710.28 2455.5 4710.5 2455.72 4710.5 2456C4710.5 2456.28 4710.28 2456.5 4710 2456.5H4709C4708.72 2456.5 4708.5 2456.28 4708.5 2456Z" fill="#333333"/>
  <path transform="translate(-4708, -2448)" fill-rule="evenodd" clip-rule="evenodd" d="M4712.11 2459.89C4712.31 2460.08 4712.31 2460.4 4712.11 2460.6L4711.4 2461.3C4711.21 2461.5 4710.89 2461.5 4710.7 2461.3C4710.5 2461.11 4710.5 2460.79 4710.7 2460.6L4711.4 2459.89C4711.6 2459.69 4711.92 2459.69 4712.11 2459.89Z" fill="#333333"/>
  <path transform="translate(-4708, -2448)" fill-rule="evenodd" clip-rule="evenodd" d="M4710.7 2450.7C4710.89 2450.5 4711.21 2450.5 4711.4 2450.7L4712.11 2451.4C4712.31 2451.6 4712.31 2451.92 4712.11 2452.11C4711.92 2452.31 4711.6 2452.31 4711.4 2452.11L4710.7 2451.4C4710.5 2451.21 4710.5 2450.89 4710.7 2450.7Z" fill="#333333"/>
  <path transform="translate(-4708, -2448)" fill-rule="evenodd" clip-rule="evenodd" d="M4716 2448.5C4716.28 2448.5 4716.5 2448.72 4716.5 2449V2450C4716.5 2450.28 4716.28 2450.5 4716 2450.5C4715.72 2450.5 4715.5 2450.28 4715.5 2450V2449C4715.5 2448.72 4715.72 2448.5 4716 2448.5Z" fill="#333333"/>
  <path transform="translate(-4708, -2448)" fill-rule="evenodd" clip-rule="evenodd" d="M4716 2461.5C4716.28 2461.5 4716.5 2461.72 4716.5 2462V2463C4716.5 2463.28 4716.28 2463.5 4716 2463.5C4715.72 2463.5 4715.5 2463.28 4715.5 2463V2462C4715.5 2461.72 4715.72 2461.5 4716 2461.5Z" fill="#333333"/>
  <path transform="translate(-4708, -2448)" d="M4716 2459C4717.66 2459 4719 2457.66 4719 2456C4719 2454.34 4717.66 2453 4716 2453C4714.34 2453 4713 2454.34 4713 2456C4713 2457.66 4714.34 2459 4716 2459Z" fill="#333333"/>
  <path transform="translate(-4708, -2448)" fill-rule="evenodd" clip-rule="evenodd" d="M4721.3 2450.7C4721.5 2450.89 4721.5 2451.21 4721.3 2451.4L4720.6 2452.11C4720.4 2452.31 4720.08 2452.31 4719.89 2452.11C4719.69 2451.92 4719.69 2451.6 4719.89 2451.4L4720.6 2450.7C4720.79 2450.5 4721.11 2450.5 4721.3 2450.7Z" fill="#333333"/>
  <path transform="translate(-4708, -2448)" fill-rule="evenodd" clip-rule="evenodd" d="M4719.89 2459.89C4720.08 2459.69 4720.4 2459.69 4720.6 2459.89L4721.3 2460.6C4721.5 2460.79 4721.5 2461.11 4721.3 2461.3C4721.11 2461.5 4720.79 2461.5 4720.6 2461.3L4719.89 2460.6C4719.69 2460.4 4719.69 2460.08 4719.89 2459.89Z" fill="#333333"/>
  <path transform="translate(-4708, -2448)" fill-rule="evenodd" clip-rule="evenodd" d="M4721.5 2456C4721.5 2455.72 4721.72 2455.5 4722 2455.5H4723C4723.28 2455.5 4723.5 2455.72 4723.5 2456C4723.5 2456.28 4723.28 2456.5 4723 2456.5H4722C4721.72 2456.5 4721.5 2456.28 4721.5 2456Z" fill="#333333"/>
</svg>