<svg width="16" height="16" viewBox="0 0 16 16" fill="none" xmlns="http://www.w3.org/2000/svg">
  <path transform="translate(-3960, -1092)" d="M3971.5 1096.5C3969.6 1094.6 3966.4 1094.6 3964.5 1096.5L3966.6 1098.6L3960.2 1099.3L3960.9 1092.9L3963.1 1095.1C3965.9 1092.4 3970.3 1092.4 3973 1095.1C3974 1096.1 3974.7 1097.4 3974.9 1098.9L3972.9 1099.2C3972.7 1098.2 3972.2 1097.2 3971.5 1096.5Z" fill="#333333"/>
  <path transform="translate(-3960, -1092)" d="M3969.4 1101.4L3975.8 1100.7L3975 1107.1L3972.8 1104.9C3971.5 1106.2 3969.7 1106.9 3967.9 1106.9C3966.1 1106.9 3964.4 1106.3 3963 1104.9C3962 1103.9 3961.3 1102.6 3961.1 1101.1L3963.1 1100.8C3963.3 1101.8 3963.8 1102.8 3964.5 1103.5C3966.4 1105.4 3969.6 1105.4 3971.5 1103.5L3969.4 1101.4Z" fill="#333333"/>
</svg>