<svg width="16" height="16" viewBox="0 0 16 16" fill="none" xmlns="http://www.w3.org/2000/svg">
  <path transform="translate(-3456, -1092)" d="M3469.14 1096H3466C3465.72 1096 3465.5 1096.22 3465.5 1096.5C3465.5 1096.78 3465.72 1097 3466 1097H3470C3470.28 1097 3470.5 1096.78 3470.5 1096.5V1092.5C3470.5 1092.22 3470.28 1092 3470 1092C3469.72 1092 3469.5 1092.22 3469.5 1092.5V1094.77C3468.13 1093.04 3466.17 1092 3464 1092C3459.86 1092 3456.5 1095.36 3456.5 1099.5C3456.5 1099.78 3456.72 1100 3457 1100C3457.28 1100 3457.5 1099.78 3457.5 1099.5C3457.5 1095.91 3460.41 1093 3464 1093C3466.08 1093 3467.95 1094.13 3469.14 1096Z" fill="#333333"/>
  <path transform="translate(-3456, -1092)" d="M3458.5 1105.23V1107.5C3458.5 1107.78 3458.28 1108 3458 1108C3457.72 1108 3457.5 1107.78 3457.5 1107.5V1103.5C3457.5 1103.22 3457.72 1103 3458 1103H3462C3462.28 1103 3462.5 1103.22 3462.5 1103.5C3462.5 1103.78 3462.28 1104 3462 1104H3458.86C3460.05 1105.87 3461.92 1107 3464 1107C3467.59 1107 3470.5 1104.09 3470.5 1100.5C3470.5 1100.22 3470.72 1100 3471 1100C3471.28 1100 3471.5 1100.22 3471.5 1100.5C3471.5 1104.64 3468.14 1108 3464 1108C3461.83 1108 3459.87 1106.96 3458.5 1105.23Z" fill="#333333"/>
</svg>