<svg width="16" height="16" viewBox="0 0 16 16" fill="none" xmlns="http://www.w3.org/2000/svg">
  <path transform="translate(-588, -1092)" d="M600 1092H592C591.47 1092 590.961 1092.21 590.586 1092.59C590.211 1092.96 590 1093.47 590 1094V1106C590 1106.53 590.211 1107.04 590.586 1107.41C590.961 1107.79 591.47 1108 592 1108H600C600.53 1108 601.039 1107.79 601.414 1107.41C601.789 1107.04 602 1106.53 602 1106V1094C602 1093.47 601.789 1092.96 601.414 1092.59C601.039 1092.21 600.53 1092 600 1092ZM592 1106V1094H600V1106H592Z" fill="#333333"/>
  <path transform="translate(-588, -1092)" d="M596 1098C596.552 1098 597 1097.55 597 1097C597 1096.45 596.552 1096 596 1096C595.448 1096 595 1096.45 595 1097C595 1097.55 595.448 1098 596 1098Z" fill="#333333"/>
</svg>