<svg width="16" height="16" viewBox="0 0 16 16" fill="none" xmlns="http://www.w3.org/2000/svg">
  <path transform="translate(-84, -1092)" fill-rule="evenodd" clip-rule="evenodd" d="M87.5 1093C87.2239 1093 87 1093.22 87 1093.5V1106.5C87 1106.78 87.2239 1107 87.5 1107H96.5C96.7761 1107 97 1106.78 97 1106.5V1093.5C97 1093.22 96.7761 1093 96.5 1093H87.5ZM86 1093.5C86 1092.67 86.6716 1092 87.5 1092H96.5C97.3284 1092 98 1092.67 98 1093.5V1106.5C98 1107.33 97.3284 1108 96.5 1108H87.5C86.6716 1108 86 1107.33 86 1106.5V1093.5ZM91 1095.5C91 1095.22 91.2239 1095 91.5 1095H92.5C92.7761 1095 93 1095.22 93 1095.5C93 1095.78 92.7761 1096 92.5 1096H91.5C91.2239 1096 91 1095.78 91 1095.5Z" fill="#333333"/>
</svg>