<svg width="16" height="16" viewBox="0 0 16 16" fill="none" xmlns="http://www.w3.org/2000/svg">
  <path transform="translate(-2836, -254)" fill-rule="evenodd" clip-rule="evenodd" d="M2851.7 262.3L2843.7 254.3C2843.5 254.1 2843.3 254 2843 254H2837C2836.4 254 2836 254.4 2836 255V261C2836 261.3 2836.1 261.5 2836.3 261.7L2844.3 269.7C2844.5 269.9 2844.7 270 2845 270C2845.3 270 2845.5 269.9 2845.7 269.7L2851.7 263.7C2852.1 263.3 2852.1 262.7 2851.7 262.3ZM2840 259C2839.4 259 2839 258.6 2839 258C2839 257.4 2839.4 257 2840 257C2840.6 257 2841 257.4 2841 258C2841 258.6 2840.6 259 2840 259Z" fill="#333333"/>
</svg>