<svg width="16" height="16" viewBox="0 0 16 16" fill="none" xmlns="http://www.w3.org/2000/svg">
  <path transform="translate(-2332, -254)" d="M2337 258C2337 258.552 2336.55 259 2336 259C2335.45 259 2335 258.552 2335 258C2335 257.448 2335.45 257 2336 257C2336.55 257 2337 257.448 2337 258Z" fill="#333333"/>
  <path transform="translate(-2332, -254)" fill-rule="evenodd" clip-rule="evenodd" d="M2339 254H2332.5C2332.22 254 2332 254.224 2332 254.5V261C2332 261.133 2332.05 261.26 2332.15 261.354L2340.65 269.854C2340.84 270.049 2341.16 270.049 2341.35 269.854L2347.85 263.354C2348.05 263.158 2348.05 262.842 2347.85 262.646L2339.35 254.146C2339.26 254.053 2339.13 254 2339 254ZM2338.79 255L2346.79 263L2341 268.793L2333 260.793V255H2338.79Z" fill="#333333"/>
</svg>