<svg width="16" height="16" viewBox="0 0 16 16" fill="none" xmlns="http://www.w3.org/2000/svg">
  <path transform="translate(-1208, -84)" d="M1211 96C1211.55 96 1212 95.5523 1212 95C1212 94.4477 1211.55 94 1211 94C1210.45 94 1210 94.4477 1210 95C1210 95.5523 1210.45 96 1211 96Z" fill="#333333"/>
  <path transform="translate(-1208, -84)" fill-rule="evenodd" clip-rule="evenodd" d="M1218.5 84C1218.75 84 1218.95 84.1769 1218.99 84.4101L1219 84.5V86H1220.65C1221.34 86 1221.93 86.4659 1222.1 87.1204L1222.13 87.2538L1222.97 92.2597L1223.56 92.8534C1223.84 93.1351 1224 93.5162 1224 93.914V99.5C1224 99.7455 1223.82 99.9496 1223.59 99.9919L1223.5 100H1219.5C1219.25 100 1219.05 99.8231 1219.01 99.5899L1219 99.5V98H1213V99.5C1213 99.7455 1212.82 99.9496 1212.59 99.9919L1212.5 100H1208.5C1208.25 100 1208.05 99.8231 1208.01 99.5899L1208 99.5V93.914C1208 93.5162 1208.16 93.1351 1208.44 92.8534L1209.03 92.2597L1209.87 87.2543C1209.98 86.5754 1210.54 86.067 1211.21 86.0061L1211.35 86H1213V84.5C1213 84.2545 1213.18 84.0504 1213.41 84.0081L1213.5 84H1218.5ZM1211.35 87C1211.13 87 1210.95 87.135 1210.88 87.3308L1210.85 87.4182L1210.09 92H1221.91L1221.15 87.4177C1221.11 87.2065 1220.95 87.0451 1220.74 87.008L1220.65 87H1211.35ZM1218 86H1214V85H1218V86ZM1209 97V93.914L1209.01 93.8353C1209.02 93.732 1209.07 93.6358 1209.15 93.5606L1209.71 93H1222.29L1222.85 93.5606L1222.9 93.6207C1222.97 93.7055 1223 93.8079 1223 93.914V97H1209ZM1223 99V98H1220V99H1223ZM1209 99V98H1212V99H1209Z" fill="#333333"/>
  <path transform="translate(-1208, -84)" d="M1222 95C1222 95.5523 1221.55 96 1221 96C1220.45 96 1220 95.5523 1220 95C1220 94.4477 1220.45 94 1221 94C1221.55 94 1222 94.4477 1222 95Z" fill="#333333"/>
</svg>