<svg width="16" height="16" viewBox="0 0 16 16" fill="none" xmlns="http://www.w3.org/2000/svg">
  <path transform="translate(-1712, -84)" fill-rule="evenodd" clip-rule="evenodd" d="M1727.7 92.3L1726.9 91.5L1726 86.8C1725.9 86.3 1725.5 86 1725 86H1722V84H1718V86H1715C1714.5 86 1714.1 86.3 1714 86.8L1713.1 91.5L1712.3 92.3C1712.1 92.5 1712 92.7 1712 93V97C1712 97.6 1712.4 98 1713 98V99C1713 99.6 1713.4 100 1714 100H1716C1716.6 100 1717 99.6 1717 99V98H1723V99C1723 99.6 1723.4 100 1724 100H1726C1726.6 100 1727 99.6 1727 99V98C1727.6 98 1728 97.6 1728 97V93C1728 92.7 1727.9 92.5 1727.7 92.3ZM1715 96C1714.4 96 1714 95.6 1714 95C1714 94.4 1714.4 94 1715 94C1715.6 94 1716 94.4 1716 95C1716 95.6 1715.6 96 1715 96ZM1715.2 91L1715.8 88H1724.2L1724.8 91H1715.2ZM1725 96C1724.4 96 1724 95.6 1724 95C1724 94.4 1724.4 94 1725 94C1725.6 94 1726 94.4 1726 95C1726 95.6 1725.6 96 1725 96Z" fill="#333333"/>
</svg>