<svg width="16" height="16" viewBox="0 0 16 16" fill="none" xmlns="http://www.w3.org/2000/svg">
  <path transform="translate(-1208, -758)" fill-rule="evenodd" clip-rule="evenodd" d="M1217 762.5C1217 764.433 1215.43 766 1213.5 766C1211.57 766 1210 764.433 1210 762.5C1210 760.567 1211.57 759 1213.5 759C1215.43 759 1217 760.567 1217 762.5ZM1211 762.5C1211 763.881 1212.12 765 1213.5 765C1214.88 765 1216 763.881 1216 762.5C1216 761.119 1214.88 760 1213.5 760C1212.12 760 1211 761.119 1211 762.5Z" fill="#333333"/>
  <path transform="translate(-1208, -758)" fill-rule="evenodd" clip-rule="evenodd" d="M1213.5 767C1210.46 767 1208 769.462 1208 772.5C1208 772.776 1208.22 773 1208.5 773H1218.5C1218.78 773 1219 772.776 1219 772.5C1219 769.462 1216.54 767 1213.5 767ZM1209.03 772C1209.28 769.75 1211.18 768 1213.5 768C1215.82 768 1217.72 769.75 1217.97 772H1209.03Z" fill="#333333"/>
  <path transform="translate(-1208, -758)" fill-rule="evenodd" clip-rule="evenodd" d="M1223 762.5C1223 763.881 1221.88 765 1220.5 765C1219.12 765 1218 763.881 1218 762.5C1218 761.119 1219.12 760 1220.5 760C1221.88 760 1223 761.119 1223 762.5ZM1219 762.5C1219 763.328 1219.67 764 1220.5 764C1221.33 764 1222 763.328 1222 762.5C1222 761.672 1221.33 761 1220.5 761C1219.67 761 1219 761.672 1219 762.5Z" fill="#333333"/>
  <path transform="translate(-1208, -758)" d="M1220 770.5C1220 770.224 1220.22 770 1220.5 770H1223V769.5C1223 768.119 1221.88 767 1220.5 767C1220.01 766.999 1219.53 767.144 1219.12 767.416C1218.89 767.569 1218.58 767.507 1218.42 767.277C1218.27 767.047 1218.33 766.737 1218.56 766.584C1219.14 766.202 1219.81 765.999 1220.5 766C1222.43 766 1224 767.567 1224 769.5V770.5C1224 770.776 1223.78 771 1223.5 771H1220.5C1220.22 771 1220 770.776 1220 770.5Z" fill="#333333"/>
</svg>