<svg width="16" height="16" viewBox="0 0 16 16" fill="none" xmlns="http://www.w3.org/2000/svg">
  <path transform="translate(-1713, -758)" d="M1720.06 767.788L1722.6 769.671C1723.07 770.047 1723.35 770.612 1723.35 771.177V773.059C1723.35 773.624 1722.98 774 1722.41 774H1713.94C1713.38 774 1713 773.624 1713 773.059V771.271C1713 770.706 1713.28 770.141 1713.75 769.765L1716.29 767.788C1715.45 767.13 1714.88 766.188 1714.88 765.059V764.118C1714.88 762.235 1716.48 760.73 1718.36 760.824C1720.15 760.918 1721.47 762.518 1721.47 764.306V765.059C1721.47 766.188 1720.91 767.13 1720.06 767.788Z" fill="#333333"/>
  <path transform="translate(-1713, -758)" d="M1725.52 763.835L1727.21 764.965C1727.78 765.341 1728.06 765.906 1728.06 766.565V767.318C1728.06 767.882 1727.68 768.259 1727.12 768.259H1723.92C1723.92 768.165 1722.79 767.318 1722.79 767.318C1723.16 766.659 1723.35 765.812 1723.35 764.965V764.024C1723.35 762.518 1722.69 761.2 1721.66 760.259C1722.13 759.412 1723.07 758.753 1724.2 758.941C1725.33 759.13 1726.18 760.259 1726.18 761.388V762.235C1726.18 762.894 1725.89 763.459 1725.52 763.835Z" fill="#333333"/>
</svg>