<svg width="16" height="16" viewBox="0 0 16 16" fill="none" xmlns="http://www.w3.org/2000/svg">
  <path transform="translate(-2332, -1260)" fill-rule="evenodd" clip-rule="evenodd" d="M2332.5 1260.5C2332.5 1260.22 2332.72 1260 2333 1260H2347C2347.28 1260 2347.5 1260.22 2347.5 1260.5V1262.5C2347.5 1262.78 2347.28 1263 2347 1263C2346.72 1263 2346.5 1262.78 2346.5 1262.5V1261H2340.5V1275H2343C2343.28 1275 2343.5 1275.22 2343.5 1275.5C2343.5 1275.78 2343.28 1276 2343 1276H2337C2336.72 1276 2336.5 1275.78 2336.5 1275.5C2336.5 1275.22 2336.72 1275 2337 1275H2339.5V1261H2333.5V1262.5C2333.5 1262.78 2333.28 1263 2333 1263C2332.72 1263 2332.5 1262.78 2332.5 1262.5V1260.5Z" fill="#333333"/>
</svg>