<svg width="16" height="16" viewBox="0 0 16 16" fill="none" xmlns="http://www.w3.org/2000/svg">
  <path transform="translate(-1712, -1260)" d="M1716 1268H1712V1270H1716V1268Z" fill="#333333"/>
  <path transform="translate(-1712, -1260)" d="M1712 1260V1264H1713L1713.72 1262.55C1713.89 1262.21 1714.24 1262 1714.62 1262H1718V1273.28C1718 1273.71 1717.72 1274.09 1717.32 1274.23L1715 1275V1276H1723V1275L1720.68 1274.23C1720.28 1274.09 1720 1273.71 1720 1273.28V1262H1723.38C1723.76 1262 1724.11 1262.21 1724.28 1262.55L1725 1264H1726V1260H1712Z" fill="#333333"/>
  <path transform="translate(-1712, -1260)" d="M1728 1268H1726V1266H1724V1268H1722V1270H1724V1272H1726V1270H1728V1268Z" fill="#333333"/>
</svg>