<svg width="16" height="16" viewBox="0 0 16 16" fill="none" xmlns="http://www.w3.org/2000/svg">
  <path transform="translate(-1208, -1260)" d="M1213.5 1268.5C1213.5 1268.22 1213.28 1268 1213 1268H1209L1208.91 1268.01C1208.68 1268.05 1208.5 1268.25 1208.5 1268.5C1208.5 1268.78 1208.72 1269 1209 1269H1213L1213.09 1268.99C1213.32 1268.95 1213.5 1268.75 1213.5 1268.5Z" fill="#333333"/>
  <path transform="translate(-1208, -1260)" d="M1223.49 1260.41C1223.45 1260.18 1223.25 1260 1223 1260H1209L1208.91 1260.01C1208.68 1260.05 1208.5 1260.25 1208.5 1260.5V1262.5L1208.51 1262.59C1208.55 1262.82 1208.75 1263 1209 1263L1209.09 1262.99C1209.32 1262.95 1209.5 1262.75 1209.5 1262.5V1261H1215.5V1275H1213L1212.91 1275.01C1212.68 1275.05 1212.5 1275.25 1212.5 1275.5C1212.5 1275.78 1212.72 1276 1213 1276H1219L1219.09 1275.99C1219.32 1275.95 1219.5 1275.75 1219.5 1275.5C1219.5 1275.22 1219.28 1275 1219 1275H1216.5V1261H1222.5V1262.5L1222.51 1262.59C1222.55 1262.82 1222.75 1263 1223 1263C1223.28 1263 1223.5 1262.78 1223.5 1262.5V1260.5L1223.49 1260.41Z" fill="#333333"/>
  <path transform="translate(-1208, -1260)" d="M1221.49 1266.41C1221.45 1266.18 1221.25 1266 1221 1266C1220.72 1266 1220.5 1266.22 1220.5 1266.5V1268H1219L1218.91 1268.01C1218.68 1268.05 1218.5 1268.25 1218.5 1268.5C1218.5 1268.78 1218.72 1269 1219 1269H1220.5V1270.5L1220.51 1270.59C1220.55 1270.82 1220.75 1271 1221 1271C1221.28 1271 1221.5 1270.78 1221.5 1270.5V1269H1223L1223.09 1268.99C1223.32 1268.95 1223.5 1268.75 1223.5 1268.5C1223.5 1268.22 1223.28 1268 1223 1268H1221.5V1266.5L1221.49 1266.41Z" fill="#333333"/>
</svg>