<svg width="16" height="16" viewBox="0 0 16 16" fill="none" xmlns="http://www.w3.org/2000/svg">
  <path transform="translate(-4580, -1596)" fill-rule="evenodd" clip-rule="evenodd" d="M4586.03 1596.32C4586.11 1596.13 4586.29 1596 4586.5 1596H4587.5C4588.33 1596 4589 1596.67 4589 1597.5V1602H4593.5C4595.15 1602 4596.35 1603.58 4595.91 1605.17L4594.52 1610.17C4594.22 1611.25 4593.23 1612 4592.11 1612H4580.5C4580.22 1612 4580 1611.78 4580 1611.5V1604.5C4580 1604.22 4580.22 1604 4580.5 1604H4583.15L4586.03 1596.32ZM4583 1605H4581V1611H4583V1605ZM4584 1611H4592.11C4592.78 1611 4593.38 1610.55 4593.56 1609.9L4594.94 1604.9C4595.21 1603.95 4594.49 1603 4593.5 1603H4588.5C4588.22 1603 4588 1602.78 4588 1602.5V1597.5C4588 1597.22 4587.78 1597 4587.5 1597H4586.85L4584 1604.59V1611Z" fill="#333333"/>
</svg>