<svg width="16" height="16" viewBox="0 0 16 16" fill="none" xmlns="http://www.w3.org/2000/svg">
  <path transform="translate(-4580, -1764)" fill-rule="evenodd" clip-rule="evenodd" d="M4583.49 1764H4580.49C4580.22 1764 4579.99 1764.22 4579.99 1764.5V1772.5C4579.99 1772.78 4580.22 1773 4580.49 1773H4583.49C4583.77 1773 4583.99 1772.78 4583.99 1772.5V1764.5C4583.99 1764.22 4583.77 1764 4583.49 1764ZM4582.99 1765V1772H4580.99V1765H4582.99Z" fill="#333333"/>
  <path transform="translate(-4580, -1764)" d="M4594.79 1765.79C4594.48 1764.73 4593.51 1764 4592.39 1764H4585.49L4585.4 1764.01C4585.17 1764.05 4584.99 1764.25 4584.99 1764.5C4584.99 1764.78 4585.22 1765 4585.49 1765H4592.39L4592.53 1765.01C4593.18 1765.07 4593.72 1765.53 4593.86 1766.17L4594.97 1771.17L4594.99 1771.32C4595.04 1771.72 4594.93 1772.12 4594.67 1772.44C4594.39 1772.79 4593.96 1773 4593.5 1773L4589.49 1773L4589.4 1773.01C4589.17 1773.05 4588.99 1773.25 4588.99 1773.5V1777.5L4588.99 1777.64C4588.93 1778.26 4588.49 1778.77 4587.92 1778.94L4587.84 1778.96L4585.97 1773.34L4585.93 1773.26C4585.82 1773.05 4585.57 1772.95 4585.34 1773.03C4585.07 1773.11 4584.93 1773.4 4585.02 1773.66L4587.02 1779.66L4587.06 1779.74C4587.14 1779.9 4587.31 1780 4587.49 1780L4587.66 1779.99C4588.96 1779.91 4589.99 1778.83 4589.99 1777.5L4589.99 1774H4593.5L4593.69 1773.99C4594.38 1773.94 4595.02 1773.61 4595.45 1773.07C4595.93 1772.47 4596.11 1771.7 4595.95 1770.96L4594.83 1765.96L4594.79 1765.79Z" fill="#333333"/>
</svg>