<svg width="16" height="16" viewBox="0 0 16 16" fill="none" xmlns="http://www.w3.org/2000/svg">
  <path transform="translate(-588, -758)" d="M590 763H589C588.4 763 588 762.6 588 762C588 761.4 588.4 761 589 761H590V759C590 758.4 590.4 758 591 758H594C594.6 758 595 758.4 595 759V765C595 765.6 594.6 766 594 766H591C590.4 766 590 765.6 590 765V763Z" fill="#333333"/>
  <path transform="translate(-588, -758)" d="M589 771H594C594.6 771 595 770.6 595 770C595 769.4 594.6 769 594 769H589C588.4 769 588 769.4 588 770C588 770.6 588.4 771 589 771Z" fill="#333333"/>
  <path transform="translate(-588, -758)" d="M598 761H603C603.6 761 604 761.4 604 762C604 762.6 603.6 763 603 763H598C597.4 763 597 762.6 597 762C597 761.4 597.4 761 598 761Z" fill="#333333"/>
  <path transform="translate(-588, -758)" d="M602 769H603C603.6 769 604 769.4 604 770C604 770.6 603.6 771 603 771H602V773C602 773.6 601.6 774 601 774H598C597.4 774 597 773.6 597 773V767C597 766.4 597.4 766 598 766H601C601.6 766 602 766.4 602 767V769Z" fill="#333333"/>
</svg>