<svg width="16" height="16" viewBox="0 0 16 16" fill="none" xmlns="http://www.w3.org/2000/svg">
  <path transform="translate(-84, -758)" fill-rule="evenodd" clip-rule="evenodd" d="M87.5 758C87.2239 758 87 758.224 87 758.5V761H84.5C84.2239 761 84 761.224 84 761.5C84 761.776 84.2239 762 84.5 762H87V764.5C87 764.776 87.2239 765 87.5 765H90.5C90.7761 765 91 764.776 91 764.5V758.5C91 758.224 90.7761 758 90.5 758H87.5ZM88 764H90V759H88V764Z" fill="#333333"/>
  <path transform="translate(-84, -758)" d="M91 770.5C91 770.776 90.7761 771 90.5 771H84.5C84.2239 771 84 770.776 84 770.5C84 770.224 84.2239 770 84.5 770H90.5C90.7761 770 91 770.224 91 770.5Z" fill="#333333"/>
  <path transform="translate(-84, -758)" fill-rule="evenodd" clip-rule="evenodd" d="M99.5 771H97V773.5C97 773.776 96.7761 774 96.5 774H93.5C93.2239 774 93 773.776 93 773.5V767.5C93 767.224 93.2239 767 93.5 767H96.5C96.7761 767 97 767.224 97 767.5V770H99.5C99.7761 770 100 770.224 100 770.5C100 770.776 99.7761 771 99.5 771ZM96 768V773H94V768H96Z" fill="#333333"/>
  <path transform="translate(-84, -758)" d="M93.5 762H99.5C99.7761 762 100 761.776 100 761.5C100 761.224 99.7761 761 99.5 761H93.5C93.2239 761 93 761.224 93 761.5C93 761.776 93.2239 762 93.5 762Z" fill="#333333"/>
</svg>