<svg width="16" height="16" viewBox="0 0 16 16" fill="none" xmlns="http://www.w3.org/2000/svg">
  <path transform="translate(-1208, -1262)" fill-rule="evenodd" clip-rule="evenodd" d="M1213.74 1262.91C1213.7 1262.68 1213.5 1262.5 1213.25 1262.5C1212.97 1262.5 1212.75 1262.72 1212.75 1263V1264.5H1209.25L1209.16 1264.51C1208.93 1264.55 1208.75 1264.75 1208.75 1265C1208.75 1265.28 1208.97 1265.5 1209.25 1265.5H1210.78C1210.94 1266.93 1211.55 1268.25 1212.5 1269.27C1212.34 1269.38 1212.18 1269.49 1212.01 1269.59C1211.4 1269.95 1210.74 1270.19 1210.07 1270.35C1209.79 1270.42 1209.56 1270.46 1209.39 1270.48L1209.22 1270.5C1208.94 1270.52 1208.73 1270.76 1208.75 1271.03C1208.77 1271.31 1209.01 1271.52 1209.28 1271.5C1209.5 1271.48 1209.85 1271.43 1210.31 1271.33C1211.06 1271.15 1211.81 1270.86 1212.51 1270.45C1212.77 1270.3 1213.01 1270.14 1213.24 1269.96C1213.93 1270.51 1214.73 1270.93 1215.62 1271.17C1215.89 1271.24 1216.16 1271.08 1216.23 1270.82C1216.3 1270.55 1216.15 1270.27 1215.88 1270.2C1215.19 1270.01 1214.55 1269.7 1214 1269.28C1214.91 1268.32 1215.51 1267.07 1215.7 1265.5H1217.25L1217.34 1265.49C1217.57 1265.45 1217.75 1265.25 1217.75 1265C1217.75 1264.72 1217.53 1264.5 1217.25 1264.5H1213.75V1263L1213.74 1262.91ZM1214.69 1265.5H1211.79C1211.94 1266.69 1212.46 1267.77 1213.25 1268.62C1214.01 1267.83 1214.51 1266.8 1214.69 1265.5Z" fill="#333333"/>
  <path transform="translate(-1208, -1262)" fill-rule="evenodd" clip-rule="evenodd" d="M1218.79 1268.8C1218.95 1268.43 1219.45 1268.4 1219.66 1268.71L1219.71 1268.8L1221.89 1273.78C1221.89 1273.79 1221.9 1273.81 1221.91 1273.82L1223.21 1276.8C1223.32 1277.05 1223.2 1277.35 1222.95 1277.46C1222.73 1277.56 1222.47 1277.48 1222.34 1277.28L1222.29 1277.2L1221.11 1274.5H1217.39L1216.21 1277.2C1216.11 1277.43 1215.87 1277.54 1215.64 1277.49L1215.55 1277.46C1215.32 1277.36 1215.21 1277.12 1215.26 1276.89L1215.29 1276.8L1218.79 1268.8ZM1217.83 1273.5H1220.67L1219.25 1270.25L1217.83 1273.5Z" fill="#333333"/>
</svg>