<svg width="16" height="16" viewBox="0 0 16 16" fill="none" xmlns="http://www.w3.org/2000/svg">
  <path transform="translate(-1712, -1262)" fill-rule="evenodd" clip-rule="evenodd" d="M1719.55 1271.31L1720.18 1269.51C1719.53 1269.31 1718.9 1269.03 1718.31 1268.68C1718.75 1268.19 1719.12 1267.65 1719.42 1267.06C1719.73 1266.45 1719.96 1265.8 1720.1 1265.13C1720.69 1265.13 1721.08 1265.15 1721.52 1265.19V1263.38C1721.04 1263.44 1720.55 1263.46 1720.07 1263.45H1717.69V1262.84C1717.69 1262.64 1717.71 1262.44 1717.75 1262.23H1715.74C1715.78 1262.44 1715.8 1262.65 1715.8 1262.85V1263.45H1713.59C1713.11 1263.46 1712.62 1263.44 1712.14 1263.38V1265.19C1712.64 1265.15 1712.98 1265.13 1713.57 1265.13C1713.74 1265.73 1713.97 1266.3 1714.26 1266.84C1714.61 1267.51 1715.04 1268.12 1715.55 1268.67C1714.45 1269.31 1713.25 1269.75 1712 1269.98C1712.42 1270.51 1712.74 1271.11 1712.96 1271.75C1714.38 1271.37 1715.73 1270.75 1716.94 1269.91C1717.74 1270.49 1718.62 1270.96 1719.55 1271.31ZM1715.49 1265.13H1718.14C1717.92 1266.03 1717.5 1266.86 1716.89 1267.55C1716.23 1266.87 1715.75 1266.04 1715.49 1265.13Z" fill="#333333"/>
  <path transform="translate(-1712, -1262)" fill-rule="evenodd" clip-rule="evenodd" d="M1725.72 1277.76L1724.99 1275.39H1721.35L1720.62 1277.76H1718.34L1721.87 1267.73H1724.46L1728 1277.76H1725.72ZM1724.49 1273.61C1723.82 1271.45 1723.44 1270.23 1723.35 1269.95C1723.27 1269.67 1723.21 1269.45 1723.17 1269.28C1723.02 1269.86 1722.59 1271.31 1721.88 1273.61H1724.49Z" fill="#333333"/>
</svg>