<svg width="16" height="16" viewBox="0 0 16 16" fill="none" xmlns="http://www.w3.org/2000/svg">
  <path transform="translate(-84, -588)" fill-rule="evenodd" clip-rule="evenodd" d="M95 591V588.5C95 588.224 94.7761 588 94.5 588H89.5C89.2239 588 89 588.224 89 588.5V591H84.5C84.2239 591 84 591.224 84 591.5C84 591.776 84.2239 592 84.5 592H99.5C99.7761 592 100 591.776 100 591.5C100 591.224 99.7761 591 99.5 591H95ZM94 589H90V591H94V589Z" fill="#333333"/>
  <path transform="translate(-84, -588)" d="M86 594.5V601.5C86 602.881 87.1189 604 88.5 604H95.5C96.8811 604 98 602.881 98 601.5V594.5C98 594.224 97.7761 594 97.5 594C97.2239 594 97 594.224 97 594.5V601.5C97 602.329 96.3289 603 95.5 603H88.5C87.6711 603 87 602.329 87 601.5V594.5C87 594.224 86.7761 594 86.5 594C86.2239 594 86 594.224 86 594.5Z" fill="#333333"/>
</svg>