<svg width="16" height="16" viewBox="0 0 16 16" fill="none" xmlns="http://www.w3.org/2000/svg">
  <path transform="translate(-84, -252)" fill-rule="evenodd" clip-rule="evenodd" d="M92 268C96.4183 268 100 264.418 100 260C100 258.144 99.3678 256.435 98.307 255.078L98.3001 255.069C96.8357 253.201 94.558 252 92 252C91.7924 252 91.5866 252.008 91.383 252.023C91.3731 252.024 91.3632 252.025 91.3534 252.026C89.9052 252.142 88.5659 252.643 87.438 253.427C87.4262 253.435 87.4147 253.443 87.4035 253.451C85.3451 254.899 84 257.292 84 260C84 264.418 87.5817 268 92 268ZM99 260C99 258.513 98.5365 257.135 97.746 256.001C96.5865 256.497 95.37 256.86 94.0807 257.09C93.4995 257.131 93.1228 256.892 92.7946 256.386C92.7701 256.349 92.7013 256.231 92.6192 256.092C92.4949 255.88 92.3402 255.617 92.2642 255.502C92.162 255.346 92.0904 255.26 91.7142 254.829C91.5726 254.666 91.4785 254.555 91.387 254.44C91.0153 253.972 90.818 253.593 90.8182 253.194C90.8174 253.163 90.8172 253.131 90.8175 253.099C90.0011 253.238 89.2328 253.519 88.5388 253.914C88.853 254.23 89.124 254.587 89.343 254.972C90.0253 256.132 90.3411 257.391 89.6685 258.261C89.37 258.647 88.9646 258.911 88.2482 259.266L88.159 259.31C88.0375 259.369 87.831 259.47 87.7604 259.506C87.2407 259.768 87.045 259.934 87.045 260C87.045 260.177 87.2173 260.433 87.7506 261.048C87.8991 261.22 87.9806 261.316 88.0681 261.424C88.1659 261.545 88.2494 261.656 88.323 261.765C88.9954 262.758 88.9954 264.06 88.3307 265.042C88.1924 265.259 88.0276 265.457 87.8408 265.631C89.0037 266.491 90.4424 267 92 267C95.866 267 99 263.866 99 260ZM91.818 253.182C91.8165 253.121 91.8181 253.061 91.8228 253.002C91.8817 253.001 91.9408 253 92 253C94.0042 253 95.8116 253.842 97.0877 255.192C96.0787 255.602 95.0294 255.906 93.9564 256.099C93.8377 256.105 93.7803 256.068 93.6333 255.842C93.6197 255.821 93.5727 255.741 93.5105 255.634C93.3853 255.421 93.1986 255.103 93.0998 254.952C92.961 254.741 92.8849 254.65 92.4681 254.172C92.3357 254.02 92.2498 253.918 92.17 253.818C91.9296 253.515 91.818 253.301 91.818 253.182ZM85 260C85 257.76 86.0521 255.766 87.6891 254.485C88.0014 254.77 88.2675 255.104 88.4772 255.473C88.964 256.3 89.1983 257.234 88.8774 257.649C88.7019 257.876 88.388 258.08 87.8041 258.37L87.7264 258.408C87.6069 258.467 87.3875 258.574 87.3102 258.613C86.4416 259.051 86.045 259.387 86.045 260C86.045 260.535 86.2617 260.857 86.9947 261.703C87.136 261.866 87.212 261.955 87.2902 262.052C87.3716 262.153 87.4388 262.242 87.4951 262.325C87.9381 262.98 87.9381 263.838 87.495 264.493C87.3769 264.678 87.2357 264.839 87.0745 264.974C85.7935 263.705 85 261.945 85 260Z" fill="#333333"/>
  <path transform="translate(-84, -252)" fill-rule="evenodd" clip-rule="evenodd" d="M97.282 260.609L97.2801 260.573C97.1509 259.086 95.8568 257.975 94.3674 258.072C92.7673 258.071 91.3478 259.245 91.5133 260.674C91.603 261.449 91.6016 262.042 91.5441 262.882C91.4381 264.428 91.5383 264.845 92.4924 265.236C94.3001 265.973 97.3147 262.983 97.282 260.609ZM92.5067 260.559C92.4194 259.805 93.3065 259.071 94.4 259.071C95.373 259.008 96.1912 259.705 96.2822 260.641C96.2893 262.377 93.9085 264.733 92.8709 264.31C92.4786 264.149 92.4638 264.087 92.5417 262.95C92.6031 262.054 92.6046 261.405 92.5067 260.559Z" fill="#333333"/>
</svg>