<svg width="16" height="16" viewBox="0 0 16 16" fill="none" xmlns="http://www.w3.org/2000/svg">
  <path transform="translate(-588, -252)" fill-rule="evenodd" clip-rule="evenodd" d="M596 252C591.6 252 588 255.6 588 260C588 264.4 591.6 268 596 268C600.4 268 604 264.4 604 260C604 255.6 600.4 252 596 252ZM596 266C594.5 266 593.2 265.5 592.1 264.6C592.7 263.8 592.8 262.8 592.2 262C592.052 261.793 591.879 261.587 591.707 261.382C591.297 260.895 590.9 260.423 590.9 260C590.9 259.554 591.49 259.264 592.117 258.955C592.614 258.71 593.134 258.454 593.4 258.1C594.1 257.3 593.4 255.8 592.7 255C593.5 254.5 594.4 254.1 595.5 254C595.631 254.328 595.978 254.699 596.285 255.028C596.446 255.201 596.597 255.362 596.7 255.5C596.803 255.666 596.89 255.818 596.968 255.956C597.267 256.486 597.445 256.8 598 256.8C598.2 256.8 600 256.8 601 256.5C601.6 257.5 602 258.7 602 260C602 263.3 599.3 266 596 266Z" fill="#333333"/>
  <path transform="translate(-588, -252)" d="M596 260.6C595.9 259.5 597 258.7 598.2 258.7C599.5 258.7 600.4 259.5 600.4 260.6C600.5 262.6 597.9 265 596.6 264.5C595.933 264.197 595.965 263.746 596.026 262.88C596.066 262.319 596.118 261.583 596 260.6Z" fill="#333333"/>
</svg>