<svg width="16" height="16" viewBox="0 0 16 16" fill="none" xmlns="http://www.w3.org/2000/svg">
  <path transform="translate(-620, -252)" d="M623.299 263H622.239L620.68 266.508L622.508 267.32L624.132 263.666L623.299 263Z" fill="#333333"/>
  <path transform="translate(-620, -252)" d="M628.375 265.781C628.552 265.923 628.773 266 629 266C629.181 266 629.359 265.951 629.515 265.857L635.372 262.343L634.343 260.628L629.082 263.785L624.625 260.219C624.448 260.077 624.227 260 624 260H620V262H623.649L628.375 265.781Z" fill="#333333"/>
  <path transform="translate(-620, -252)" d="M625.249 259.438L625.811 259.888L626.4 258.553L629.4 260.8C629.62 260.965 629.898 261.032 630.169 260.986C630.44 260.939 630.679 260.784 630.832 260.555L635.387 253.723L633.723 252.613L629.754 258.565L626.6 256.2C626.356 256.017 626.043 255.956 625.748 256.032C625.453 256.109 625.21 256.316 625.086 256.594L624.016 259C624.464 259.004 624.898 259.159 625.249 259.438Z" fill="#333333"/>
</svg>