<svg width="16" height="16" viewBox="0 0 16 16" fill="none" xmlns="http://www.w3.org/2000/svg">
  <path transform="translate(-116, -252)" d="M116.947 266.724L118.697 263.224C118.821 262.977 118.721 262.676 118.474 262.553C118.227 262.429 117.926 262.529 117.803 262.776L116.053 266.276C115.929 266.523 116.03 266.824 116.277 266.947C116.523 267.071 116.824 266.971 116.947 266.724Z" fill="#333333"/>
  <path transform="translate(-116, -252)" d="M121.694 257.23L127.223 260.916C127.464 261.077 127.791 261 127.934 260.748L131.934 253.748C132.071 253.508 131.988 253.203 131.748 253.066C131.508 252.929 131.203 253.012 131.066 253.252L127.332 259.787L121.777 256.084C121.527 255.917 121.187 256.007 121.053 256.276L119.191 260H116.5C116.224 260 116 260.224 116 260.5C116 260.776 116.224 261 116.5 261H119.34L126.209 265.907C126.408 266.049 126.681 266.026 126.854 265.854L131.854 260.854C132.049 260.658 132.049 260.342 131.854 260.147C131.658 259.951 131.342 259.951 131.147 260.147L126.446 264.847L120.138 260.342L121.694 257.23Z" fill="#333333"/>
</svg>