<svg width="16" height="16" viewBox="0 0 16 16" fill="none" xmlns="http://www.w3.org/2000/svg">
  <path transform="translate(-1208, -1092)" fill-rule="evenodd" clip-rule="evenodd" d="M1216.5 1092C1216.68 1092 1216.85 1092.1 1216.94 1092.26L1216.97 1092.34L1218.63 1097.32C1218.64 1097.33 1218.64 1097.35 1218.65 1097.36L1219.86 1101H1220.5C1220.78 1101 1221 1101.22 1221 1101.5C1221 1101.75 1220.82 1101.95 1220.59 1101.99L1220.5 1102H1219.51C1219.5 1102 1219.5 1102 1219.49 1102H1217.5C1217.22 1102 1217 1101.78 1217 1101.5C1217 1101.25 1217.18 1101.05 1217.41 1101.01L1217.5 1101H1218.81L1217.81 1098H1214.19L1213.19 1101H1214.5C1214.78 1101 1215 1101.22 1215 1101.5C1215 1101.75 1214.82 1101.95 1214.59 1101.99L1214.5 1102H1212.51C1212.5 1102 1212.5 1102 1212.49 1102H1211.5C1211.22 1102 1211 1101.78 1211 1101.5C1211 1101.25 1211.18 1101.05 1211.41 1101.01L1211.5 1101H1212.14L1213.35 1097.36C1213.36 1097.35 1213.36 1097.33 1213.37 1097.32L1215.03 1092.34C1215.08 1092.17 1215.23 1092.04 1215.41 1092.01L1215.5 1092H1216.5ZM1214.53 1097H1217.47L1216.14 1093H1215.86L1214.53 1097Z" fill="#333333"/>
  <path transform="translate(-1208, -1092)" fill-rule="evenodd" clip-rule="evenodd" d="M1208.5 1104H1223.5C1223.78 1104 1224 1104.22 1224 1104.5V1107.5C1224 1107.78 1223.78 1108 1223.5 1108H1208.5C1208.22 1108 1208 1107.78 1208 1107.5V1104.5C1208 1104.22 1208.22 1104 1208.5 1104ZM1223 1107V1105H1209V1107H1223Z" fill="#333333"/>
</svg>