<svg width="16" height="16" viewBox="0 0 16 16" fill="none" xmlns="http://www.w3.org/2000/svg">
  <path transform="translate(-2364, -756)" d="M2379.57 763.246C2377.79 761.802 2375.58 761 2373.25 761C2370.11 761 2367.14 762.479 2365.25 764.847V761.5L2365.24 761.41C2365.2 761.177 2365 761 2364.75 761C2364.47 761 2364.25 761.224 2364.25 761.5V766.49C2364.25 766.523 2364.25 766.556 2364.26 766.589C2364.27 766.649 2364.29 766.705 2364.32 766.756C2364.39 766.867 2364.5 766.951 2364.63 766.984C2364.67 766.996 2364.71 767.001 2364.76 767H2369.75L2369.84 766.992C2370.07 766.95 2370.25 766.745 2370.25 766.5L2370.24 766.41C2370.2 766.177 2370 766 2369.75 766H2365.64C2367.3 763.561 2370.19 762 2373.25 762C2375.35 762 2377.34 762.721 2378.93 764.022C2379.15 764.196 2379.46 764.164 2379.64 763.95C2379.81 763.736 2379.78 763.421 2379.57 763.246Z" fill="#333333"/>
</svg>