<svg width="16" height="16" viewBox="0 0 16 16" fill="none" xmlns="http://www.w3.org/2000/svg">
  <path transform="translate(-3456, -1932)" fill-rule="evenodd" clip-rule="evenodd" d="M3466 1943C3466 1944.1 3465.1 1945 3464 1945C3462.9 1945 3462 1944.1 3462 1943C3462 1941.9 3462.9 1941 3464 1941C3465.1 1941 3466 1941.9 3466 1943ZM3463 1943C3463 1943.55 3463.45 1944 3464 1944C3464.55 1944 3465 1943.55 3465 1943C3465 1942.45 3464.55 1942 3464 1942C3463.45 1942 3463 1942.45 3463 1943Z" fill="#333333"/>
  <path transform="translate(-3456, -1932)" fill-rule="evenodd" clip-rule="evenodd" d="M3458.5 1938H3460V1936C3460 1933.79 3461.79 1932 3464 1932C3465.78 1932 3467.33 1933.17 3467.83 1934.86C3467.91 1935.12 3467.76 1935.4 3467.5 1935.48C3467.23 1935.56 3466.95 1935.41 3466.88 1935.14C3466.5 1933.88 3465.34 1933 3464 1933C3462.34 1933 3461 1934.34 3461 1936V1938H3469.5C3470.33 1938 3471 1938.67 3471 1939.5V1946.5C3471 1947.33 3470.33 1948 3469.5 1948H3458.5C3457.67 1948 3457 1947.33 3457 1946.5V1939.5C3457 1938.67 3457.67 1938 3458.5 1938ZM3458.5 1939H3469.5C3469.78 1939 3470 1939.22 3470 1939.5V1946.5C3470 1946.78 3469.78 1947 3469.5 1947H3458.5C3458.22 1947 3458 1946.78 3458 1946.5V1939.5C3458 1939.22 3458.22 1939 3458.5 1939Z" fill="#333333"/>
</svg>