<svg width="16" height="16" viewBox="0 0 16 16" fill="none" xmlns="http://www.w3.org/2000/svg">
  <path transform="translate(-3960, -1932)" fill-rule="evenodd" clip-rule="evenodd" d="M3961 1947C3961 1947.6 3961.4 1948 3962 1948H3974C3974.6 1948 3975 1947.6 3975 1947V1938C3975 1937.4 3974.6 1937 3974 1937H3966V1936C3966 1934.9 3966.9 1934 3968 1934C3968.6 1934 3969.1 1934.2 3969.5 1934.7L3970.2 1935.4L3971.7 1934.1L3971 1933.3C3970.2 1932.5 3969.1 1932 3968 1932C3965.8 1932 3964 1933.8 3964 1936V1937H3962C3961.4 1937 3961 1937.4 3961 1938V1947ZM3968 1940C3969.1 1940 3970 1940.9 3970 1942C3970 1942.7 3969.6 1943.4 3969 1943.7V1945H3967V1943.7C3966.4 1943.4 3966 1942.7 3966 1942C3966 1940.9 3966.9 1940 3968 1940Z" fill="#333333"/>
</svg>