<svg width="16" height="16" viewBox="0 0 16 16" fill="none" xmlns="http://www.w3.org/2000/svg">
  <path transform="translate(-3456, -756)" d="M3457 756H3471C3471.28 756 3471.5 756.224 3471.5 756.5C3471.5 756.776 3471.28 757 3471 757H3457C3456.72 757 3456.5 756.776 3456.5 756.5C3456.5 756.224 3456.72 756 3457 756Z" fill="#333333"/>
  <path transform="translate(-3456, -756)" d="M3464.5 760.5V771.5C3464.5 771.776 3464.28 772 3464 772C3463.72 772 3463.5 771.776 3463.5 771.5V760.5C3463.5 760.224 3463.72 760 3464 760C3464.28 760 3464.5 760.224 3464.5 760.5Z" fill="#333333"/>
  <path transform="translate(-3456, -756)" fill-rule="evenodd" clip-rule="evenodd" d="M3468.65 764.854C3468.84 765.049 3469.16 765.049 3469.35 764.854C3469.55 764.658 3469.55 764.342 3469.35 764.146L3464.35 759.146C3464.16 758.951 3463.84 758.951 3463.65 759.146L3458.65 764.146C3458.45 764.342 3458.45 764.658 3458.65 764.854C3458.84 765.049 3459.16 765.049 3459.35 764.854L3464 760.207L3468.65 764.854Z" fill="#333333"/>
</svg>