<svg width="16" height="16" viewBox="0 0 16 16" fill="none" xmlns="http://www.w3.org/2000/svg">
  <path transform="translate(-2332, -422)" d="M2342.09 431.542C2341.28 431.184 2340.39 431 2339.5 431H2338.5L2338.27 431.004C2334.78 431.127 2332 433.988 2332 437.5C2332 437.776 2332.22 438 2332.5 438H2341.5L2341.59 437.992C2341.82 437.95 2342 437.745 2342 437.5L2341.99 437.41C2341.95 437.177 2341.75 437 2341.5 437L2333.02 436.999L2333.04 436.843C2333.36 434.115 2335.68 432 2338.5 432H2339.5L2339.78 432.007C2340.44 432.041 2341.09 432.194 2341.69 432.458C2341.95 432.569 2342.24 432.453 2342.35 432.2C2342.46 431.947 2342.35 431.652 2342.09 431.542Z" fill="#333333"/>
  <path transform="translate(-2332, -422)" fill-rule="evenodd" clip-rule="evenodd" d="M2339 422C2336.79 422 2335 423.791 2335 426C2335 428.209 2336.79 430 2339 430C2341.21 430 2343 428.209 2343 426C2343 423.791 2341.21 422 2339 422ZM2339 423C2340.66 423 2342 424.343 2342 426C2342 427.657 2340.66 429 2339 429C2337.34 429 2336 427.657 2336 426C2336 424.343 2337.34 423 2339 423Z" fill="#333333"/>
  <path transform="translate(-2332, -422)" d="M2344.5 431C2344.75 431 2344.95 431.177 2344.99 431.41L2345 431.5V434H2347.5C2347.78 434 2348 434.224 2348 434.5C2348 434.745 2347.82 434.95 2347.59 434.992L2347.5 435H2345V437.5C2345 437.776 2344.78 438 2344.5 438C2344.25 438 2344.05 437.823 2344.01 437.59L2344 437.5V435H2341.5C2341.22 435 2341 434.776 2341 434.5C2341 434.255 2341.18 434.05 2341.41 434.008L2341.5 434H2344V431.5C2344 431.224 2344.22 431 2344.5 431Z" fill="#333333"/>
</svg>