<svg width="16" height="16" viewBox="0 0 16 16" fill="none" xmlns="http://www.w3.org/2000/svg">
  <path transform="translate(-1208, -422)" fill-rule="evenodd" clip-rule="evenodd" d="M1216 431C1217.66 431 1219 429.657 1219 428C1219 426.343 1217.66 425 1216 425C1214.34 425 1213 426.343 1213 428C1213 429.657 1214.34 431 1216 431ZM1216 430C1214.9 430 1214 429.105 1214 428C1214 426.895 1214.9 426 1216 426C1217.1 426 1218 426.895 1218 428C1218 429.105 1217.1 430 1216 430Z" fill="#333333"/>
  <path transform="translate(-1208, -422)" fill-rule="evenodd" clip-rule="evenodd" d="M1224 430C1224 434.418 1220.42 438 1216 438C1211.58 438 1208 434.418 1208 430C1208 425.582 1211.58 422 1216 422C1220.42 422 1224 425.582 1224 430ZM1211.67 435.503C1212.86 436.441 1214.37 437 1216 437C1217.63 437 1219.14 436.441 1220.33 435.503C1219.44 433.963 1217.8 433 1216 433C1214.2 433 1212.56 433.963 1211.67 435.503ZM1210.92 434.816C1209.73 433.561 1209 431.866 1209 430C1209 426.134 1212.13 423 1216 423C1219.87 423 1223 426.134 1223 430C1223 431.866 1222.27 433.561 1221.08 434.816C1219.99 433.078 1218.08 432 1216 432C1213.92 432 1212.01 433.078 1210.92 434.816Z" fill="#333333"/>
</svg>