<svg width="16" height="16" viewBox="0 0 16 16" fill="none" xmlns="http://www.w3.org/2000/svg">
  <path transform="translate(-2836, -422)" d="M2844 438H2836V437C2836 434.2 2838.2 432 2841 432H2844V434H2841C2839.7 434 2838.6 434.8 2838.2 436H2844V438Z" fill="#333333"/>
  <path transform="translate(-2836, -422)" d="M2843 424C2844.1 424 2845 424.9 2845 426V427C2845 428.1 2844.1 429 2843 429C2841.9 429 2841 428.1 2841 427V426C2841 424.9 2841.9 424 2843 424ZM2843 422C2840.8 422 2839 423.8 2839 426V427C2839 429.2 2840.8 431 2843 431C2845.2 431 2847 429.2 2847 427V426C2847 423.8 2845.2 422 2843 422Z" fill="#333333"/>
  <path transform="translate(-2836, -422)" d="M2850 432H2848V434H2846V436H2848V438H2850V436H2852V434H2850V432Z" fill="#333333"/>
</svg>