<svg width="16" height="16" viewBox="0 0 16 16" fill="none" xmlns="http://www.w3.org/2000/svg">
  <path transform="translate(-1712, -422)" d="M1720 432C1721.66 432 1723 430.657 1723 429C1723 427.343 1721.66 426 1720 426C1718.34 426 1717 427.343 1717 429C1717 430.657 1718.34 432 1720 432Z" fill="#333333"/>
  <path transform="translate(-1712, -422)" fill-rule="evenodd" clip-rule="evenodd" d="M1720 422C1715.6 422 1712 425.6 1712 430C1712 434.4 1715.6 438 1720 438C1724.4 438 1728 434.4 1728 430C1728 425.6 1724.4 422 1720 422ZM1724 434.4C1723.4 433.7 1722.6 433 1721 433H1719C1717.4 433 1716.6 433.7 1716 434.4C1714.8 433.3 1714 431.8 1714 430C1714 426.7 1716.7 424 1720 424C1723.3 424 1726 426.7 1726 430C1726 431.8 1725.2 433.3 1724 434.4Z" fill="#333333"/>
</svg>