<svg width="16" height="16" viewBox="0 0 16 16" fill="none" xmlns="http://www.w3.org/2000/svg">
  <path transform="translate(-84, -588)" fill-rule="evenodd" clip-rule="evenodd" d="M95 599.739L99.3143 601.464C99.6427 601.596 100 601.354 100 601V594C100 593.646 99.6427 593.404 99.3143 593.536L95 595.261V593C95 592.172 94.3281 591.5 93.5 591.5H92V589C92 588.724 91.7761 588.5 91.5 588.5H86.5C86.2239 588.5 86 588.724 86 589C86 589.276 86.2239 589.5 86.5 589.5H91V591.5H85.5C84.6719 591.5 84 592.172 84 593V602C84 602.828 84.6719 603.5 85.5 603.5H93.5C94.3281 603.5 95 602.828 95 602V599.739ZM85.5 592.5C85.2241 592.5 85 592.724 85 593V602C85 602.276 85.2241 602.5 85.5 602.5H93.5C93.7759 602.5 94 602.276 94 602V599.011C93.9998 599.004 93.9998 598.996 94 598.988V596.012C93.9998 596.004 93.9998 595.996 94 595.989V593C94 592.724 93.7759 592.5 93.5 592.5H85.5ZM95 596.339V598.661L99 600.261V594.739L95 596.339Z" fill="#333333"/>
</svg>