<svg width="16" height="16" viewBox="0 0 16 16" fill="none" xmlns="http://www.w3.org/2000/svg">
  <path transform="translate(-84, -756)" d="M84.5 760.5H91.3486L97.2226 756.584C97.5549 756.362 98 756.601 98 757V760C98 760.276 97.7761 760.5 97.5 760.5C97.2239 760.5 97 760.276 97 760V757.934L91.7773 761.416C91.6952 761.471 91.5987 761.5 91.5 761.5H85V766.5H91.5C91.5987 766.5 91.6952 766.529 91.7773 766.584L97 770.066V768C97 767.724 97.2239 767.5 97.5 767.5C97.7761 767.5 98 767.724 98 768V771C98 771.399 97.5549 771.637 97.2226 771.416L91.3486 767.5H84.5C84.2239 767.5 84 767.276 84 767V761C84 760.724 84.2239 760.5 84.5 760.5Z" fill="#333333"/>
  <path transform="translate(-84, -756)" d="M100 764C100 764.276 99.7761 764.5 99.5 764.5H95.5C95.2239 764.5 95 764.276 95 764C95 763.724 95.2239 763.5 95.5 763.5H99.5C99.7761 763.5 100 763.724 100 764Z" fill="#333333"/>
</svg>