<svg width="16" height="16" viewBox="0 0 16 16" fill="none" xmlns="http://www.w3.org/2000/svg">
  <path transform="translate(-84, -924)" d="M84.5 928.5H91.3486L97.2226 924.584C97.5549 924.362 98 924.601 98 925V928C98 928.276 97.7761 928.5 97.5 928.5C97.2239 928.5 97 928.276 97 928V925.934L91.7773 929.416C91.6952 929.471 91.5987 929.5 91.5 929.5H85V934.5H91.5C91.5987 934.5 91.6952 934.529 91.7773 934.584L97 938.066V936C97 935.724 97.2239 935.5 97.5 935.5C97.7761 935.5 98 935.724 98 936V939C98 939.399 97.5549 939.637 97.2226 939.416L91.3486 935.5H84.5C84.2239 935.5 84 935.276 84 935V929C84 928.724 84.2239 928.5 84.5 928.5Z" fill="#333333"/>
  <path transform="translate(-84, -924)" d="M97 930V931.5H95.5C95.2239 931.5 95 931.724 95 932C95 932.276 95.2239 932.5 95.5 932.5H97V934C97 934.276 97.2239 934.5 97.5 934.5C97.7761 934.5 98 934.276 98 934V932.5H99.5C99.7761 932.5 100 932.276 100 932C100 931.724 99.7761 931.5 99.5 931.5H98V930C98 929.724 97.7761 929.5 97.5 929.5C97.2239 929.5 97 929.724 97 930Z" fill="#333333"/>
</svg>