<svg width="16" height="16" viewBox="0 0 16 16" fill="none" xmlns="http://www.w3.org/2000/svg">
  <path transform="translate(-588, -588)" d="M597.437 588.222C598.137 587.722 599.037 588.222 599.037 589.022V603.022C599.037 603.822 598.137 604.222 597.437 603.822L591.737 600.022H589.037C588.437 600.022 588.037 599.622 588.037 599.022V593.022C588.037 592.422 588.437 592.022 589.037 592.022H591.737L597.437 588.222Z" fill="#333333"/>
  <path transform="translate(-588, -588)" d="M600.837 598.822C600.437 599.222 600.437 599.822 600.837 600.222C601.237 600.622 601.937 600.622 602.237 600.222C604.537 597.822 604.537 594.022 602.237 591.722C601.837 591.322 601.237 591.322 600.837 591.722C600.437 592.122 600.437 592.722 600.837 593.122C602.437 594.722 602.437 597.222 600.837 598.822Z" fill="#333333"/>
</svg>