<svg width="16" height="16" viewBox="0 0 16 16" fill="none" xmlns="http://www.w3.org/2000/svg">
  <path transform="translate(-84, -588)" fill-rule="evenodd" clip-rule="evenodd" d="M84.5 592.5H89.3486L95.2226 588.584C95.5549 588.362 96 588.601 96 589V603C96 603.399 95.5549 603.637 95.2226 603.416L89.3486 599.5H84.5C84.2239 599.5 84 599.276 84 599V593C84 592.724 84.2239 592.5 84.5 592.5ZM95 602.066V589.934L89.7773 593.416C89.6952 593.471 89.5987 593.5 89.5 593.5H85V598.5H89.5C89.5987 598.5 89.6952 598.529 89.7773 598.584L95 602.066Z" fill="#333333"/>
  <path transform="translate(-84, -588)" d="M99 596C99 594.774 98.5081 593.627 97.6501 592.787C97.4529 592.594 97.4496 592.277 97.6428 592.08C97.836 591.883 98.1526 591.879 98.3499 592.073C99.398 593.099 100 594.503 100 596C100 597.459 99.4287 598.829 98.4269 599.85C98.2335 600.047 97.9169 600.05 97.7198 599.857C97.5227 599.663 97.5197 599.347 97.7131 599.15C98.5333 598.314 99 597.195 99 596Z" fill="#333333"/>
</svg>