<svg width="16" height="16" viewBox="0 0 16 16" fill="none" xmlns="http://www.w3.org/2000/svg">
  <path transform="translate(-588, -924)" d="M601 927.022C598.2 927.022 596 929.222 596 932.022C596 934.822 598.2 937.022 601 937.022V939.022C601 939.822 600.1 940.222 599.4 939.822L593.7 936.022H589C588.4 936.022 588 935.622 588 935.022V929.022C588 928.422 588.4 928.022 589 928.022H593.7L599.4 924.222C600.1 923.722 601 924.222 601 925.022V927.022Z" fill="#333333"/>
  <path transform="translate(-588, -924)" d="M602 931.022H604V933.022H602V935.022H600V933.022H598V931.022H600V929.022H602V931.022Z" fill="#333333"/>
</svg>