<svg width="16" height="16" viewBox="0 0 16 16" fill="none" xmlns="http://www.w3.org/2000/svg">
  <path transform="translate(-1692, -420)" fill-rule="evenodd" clip-rule="evenodd" d="M1708 428.8L1706 420.8C1705.9 420.3 1705.5 420 1705 420H1702V422H1704.2L1705.7 428H1694.3L1695.8 422H1698V420H1695C1694.5 420 1694.1 420.3 1694 420.8L1692 428.8C1692 428.8 1692 428.9 1692 429V432C1692 434.2 1693.8 436 1696 436C1698.2 436 1700 434.2 1700 432C1700 434.2 1701.8 436 1704 436C1706.2 436 1708 434.2 1708 432V429C1708 428.9 1708 428.8 1708 428.8ZM1698 432C1698 433.1 1697.1 434 1696 434C1694.9 434 1694 433.1 1694 432V430H1698V432ZM1706 432C1706 433.1 1705.1 434 1704 434C1702.9 434 1702 433.1 1702 432V430H1706V432Z" fill="#333333"/>
</svg>