<svg width="16" height="16" viewBox="0 0 16 16" fill="none" xmlns="http://www.w3.org/2000/svg">
  <path transform="translate(-1188, -420)" fill-rule="evenodd" clip-rule="evenodd" d="M1190.88 422H1192.5C1192.78 422 1193 421.776 1193 421.5C1193 421.224 1192.78 421 1192.5 421H1190.5C1190.28 421 1190.08 421.148 1190.02 421.363L1188.02 428.352C1188.01 428.377 1188.01 428.404 1188 428.431C1188 428.458 1188 428.485 1188 428.512V431.5C1188 433.433 1189.57 435 1191.5 435C1193.26 435 1194.72 433.696 1194.96 432H1197.04C1197.28 433.696 1198.74 435 1200.5 435C1202.43 435 1204 433.433 1204 431.5V428.512C1204 428.485 1204 428.458 1204 428.431C1203.99 428.404 1203.99 428.377 1203.98 428.351L1201.98 421.363C1201.92 421.148 1201.72 421 1201.5 421H1199.5C1199.22 421 1199 421.224 1199 421.5C1199 421.776 1199.22 422 1199.5 422H1201.12L1202.84 428H1189.16L1190.88 422ZM1197 429H1195V431H1197V429ZM1198 431.5C1198 432.881 1199.12 434 1200.5 434C1201.88 434 1203 432.881 1203 431.5V429H1198V431.5ZM1194 429V431.5C1194 432.881 1192.88 434 1191.5 434C1190.12 434 1189 432.881 1189 431.5V429H1194Z" fill="#333333"/>
</svg>