<svg width="16" height="16" viewBox="0 0 16 16" fill="none" xmlns="http://www.w3.org/2000/svg">
  <path transform="translate(-84, -1598)" d="M91.5 1604V1607.5C91.5 1607.78 91.7239 1608 92 1608C92.2761 1608 92.5 1607.78 92.5 1607.5V1604C92.5 1603.72 92.2761 1603.5 92 1603.5C91.7239 1603.5 91.5 1603.72 91.5 1604Z" fill="#333333"/>
  <path transform="translate(-84, -1598)" d="M93 1610C93 1610.55 92.5523 1611 92 1611C91.4477 1611 91 1610.55 91 1610C91 1609.45 91.4477 1609 92 1609C92.5523 1609 93 1609.45 93 1610Z" fill="#333333"/>
  <path transform="translate(-84, -1598)" fill-rule="evenodd" clip-rule="evenodd" d="M84.5598 1612.26C84.3804 1612.6 84.6217 1613 85 1613H99C99.3783 1613 99.6196 1612.6 99.4402 1612.26L92.4402 1599.26C92.2515 1598.91 91.7486 1598.91 91.5598 1599.26L84.5598 1612.26ZM92 1600.55L98.1629 1612H85.8371L92 1600.55Z" fill="#333333"/>
</svg>