<svg width="16" height="16" viewBox="0 0 16 16" fill="none" xmlns="http://www.w3.org/2000/svg">
  <path transform="translate(-588, -1598)" fill-rule="evenodd" clip-rule="evenodd" d="M603.216 1611.47L596.882 1599.59C596.506 1598.89 595.494 1598.89 595.117 1599.59L588.784 1611.47C588.429 1612.13 588.912 1612.94 589.667 1612.94H602.334C603.088 1612.94 603.571 1612.13 603.216 1611.47ZM596 1610.94C595.448 1610.94 595 1610.49 595 1609.94C595 1609.39 595.448 1608.94 596 1608.94C596.552 1608.94 597 1609.39 597 1609.94C597 1610.49 596.552 1610.94 596 1610.94ZM597 1607.94H595V1603.94H597V1607.94Z" fill="#333333"/>
</svg>