<svg width="16" height="16" viewBox="0 0 16 16" fill="none" xmlns="http://www.w3.org/2000/svg">
  <path transform="translate(-1208, -926)" d="M1222.36 931.636C1218.85 928.122 1213.15 928.122 1209.64 931.636C1209.44 931.831 1209.13 931.831 1208.93 931.636C1208.73 931.44 1208.73 931.124 1208.93 930.929C1212.83 927.025 1219.16 927.025 1223.07 930.929C1223.27 931.124 1223.27 931.44 1223.07 931.636C1222.87 931.831 1222.56 931.831 1222.36 931.636Z" fill="#333333"/>
  <path transform="translate(-1208, -926)" d="M1212.47 934.464C1214.42 932.513 1217.58 932.513 1219.53 934.464C1219.73 934.659 1220.05 934.659 1220.24 934.464C1220.44 934.268 1220.44 933.952 1220.24 933.757C1217.9 931.416 1214.1 931.416 1211.76 933.757C1211.56 933.952 1211.56 934.268 1211.76 934.464C1211.95 934.659 1212.27 934.659 1212.47 934.464Z" fill="#333333"/>
  <path transform="translate(-1208, -926)" fill-rule="evenodd" clip-rule="evenodd" d="M1216 939.999C1217.11 939.999 1218 939.104 1218 937.999C1218 936.895 1217.11 935.999 1216 935.999C1214.9 935.999 1214 936.895 1214 937.999C1214 939.104 1214.9 939.999 1216 939.999ZM1216 938.999C1215.45 938.999 1215 938.551 1215 937.999C1215 937.447 1215.45 936.999 1216 936.999C1216.55 936.999 1217 937.447 1217 937.999C1217 938.551 1216.55 938.999 1216 938.999Z" fill="#333333"/>
</svg>