<svg width="16" height="16" viewBox="0 0 16 16" fill="none" xmlns="http://www.w3.org/2000/svg">
  <path transform="translate(-1712, -926)" d="M1712 931.2C1714.2 929.1 1717 928 1720 928C1723 928 1725.8 929.1 1728 931.2L1726.6 932.7C1724.8 930.9 1722.5 930 1720 930C1717.5 930 1715.2 930.9 1713.4 932.6L1712 931.2Z" fill="#333333"/>
  <path transform="translate(-1712, -926)" d="M1723.5 936C1722.6 935 1721.3 934.5 1720 934.5C1718.7 934.5 1717.4 935 1716.5 936L1715.1 934.6C1716.4 933.2 1718.1 932.5 1720 932.5C1721.9 932.5 1723.6 933.2 1724.9 934.6L1723.5 936Z" fill="#333333"/>
  <path transform="translate(-1712, -926)" d="M1721.5 938.5C1721.5 939.328 1720.83 940 1720 940C1719.17 940 1718.5 939.328 1718.5 938.5C1718.5 937.672 1719.17 937 1720 937C1720.83 937 1721.5 937.672 1721.5 938.5Z" fill="#333333"/>
</svg>