<svg width="16" height="16" viewBox="0 0 16 16" fill="none" xmlns="http://www.w3.org/2000/svg">
  <path transform="translate(-588, -1094)" fill-rule="evenodd" clip-rule="evenodd" d="M600.907 1099.33L598.648 1097.07L600.907 1094.81C600.437 1094.53 599.872 1094.44 599.307 1094.44C596.954 1094.44 595.072 1096.32 595.072 1098.67C595.072 1099.14 595.166 1099.52 595.26 1099.99L589.048 1104.6C588.295 1105.17 588.295 1106.2 588.86 1106.86L591.025 1109.12C591.684 1109.78 592.719 1109.69 593.284 1108.93L597.895 1102.72C598.366 1102.81 598.837 1102.91 599.307 1102.91C601.66 1102.91 603.542 1101.03 603.542 1098.67C603.542 1098.11 603.448 1097.54 603.26 1097.07L600.907 1099.33Z" fill="#333333"/>
</svg>