<svg width="16" height="16" viewBox="0 0 16 16" fill="none" xmlns="http://www.w3.org/2000/svg">
  <path transform="translate(-84, -1094)" fill-rule="evenodd" clip-rule="evenodd" d="M95.7071 1097L97.4936 1095.21C97.7406 1094.97 97.6646 1094.55 97.3463 1094.4C96.7628 1094.14 96.1393 1094 95.5 1094C93.0149 1094 91 1096.01 91 1098.5C91 1098.97 91.0734 1099.44 91.2154 1099.88L84.2015 1105.1C83.9568 1105.28 83.9308 1105.64 84.1464 1105.85L88.1464 1109.85C88.3621 1110.07 88.719 1110.04 88.9011 1109.8L94.1208 1102.78C94.5627 1102.93 95.0266 1103 95.5 1103C97.9851 1103 100 1100.99 100 1098.5C100 1097.86 99.8598 1097.24 99.5954 1096.65C99.4512 1096.34 99.0335 1096.26 98.7864 1096.51L97 1098.29L95.7071 1097ZM98.9231 1097.78C98.974 1098.02 99 1098.26 99 1098.5C99 1100.43 97.4329 1102 95.5 1102C95.0259 1102 94.5653 1101.91 94.1373 1101.73C93.9251 1101.64 93.6793 1101.7 93.5419 1101.89L88.4444 1108.74L85.2627 1105.56L92.1125 1100.46C92.2972 1100.32 92.3642 1100.07 92.2747 1099.86C92.0942 1099.43 92 1098.97 92 1098.5C92 1096.57 93.5671 1095 95.5 1095C95.7419 1095 95.9812 1095.03 96.216 1095.08L94.6464 1096.65C94.4512 1096.84 94.4512 1097.16 94.6464 1097.35L96.6464 1099.35C96.8417 1099.55 97.1583 1099.55 97.3535 1099.35L98.9231 1097.78Z" fill="#333333"/>
</svg>