<svg width="16" height="16" viewBox="0 0 16 16" fill="none" xmlns="http://www.w3.org/2000/svg">
  <path transform="translate(-3456, -2436)" d="M3463.29 2444L3460.65 2446.65C3460.45 2446.84 3460.45 2447.16 3460.65 2447.35C3460.84 2447.55 3461.16 2447.55 3461.35 2447.35L3464 2444.71L3466.65 2447.35C3466.84 2447.55 3467.16 2447.55 3467.35 2447.35C3467.55 2447.16 3467.55 2446.84 3467.35 2446.65L3464.71 2444L3467.35 2441.35C3467.55 2441.16 3467.55 2440.84 3467.35 2440.65C3467.16 2440.45 3466.84 2440.45 3466.65 2440.65L3464 2443.29L3461.35 2440.65C3461.16 2440.45 3460.84 2440.45 3460.65 2440.65C3460.45 2440.84 3460.45 2441.16 3460.65 2441.35L3463.29 2444Z" fill="#333333"/>
  <path transform="translate(-3456, -2436)" fill-rule="evenodd" clip-rule="evenodd" d="M3464 2451.5C3468.14 2451.5 3471.5 2448.14 3471.5 2444C3471.5 2439.86 3468.14 2436.5 3464 2436.5C3459.86 2436.5 3456.5 2439.86 3456.5 2444C3456.5 2448.14 3459.86 2451.5 3464 2451.5ZM3464 2450.5C3460.41 2450.5 3457.5 2447.59 3457.5 2444C3457.5 2440.41 3460.41 2437.5 3464 2437.5C3467.59 2437.5 3470.5 2440.41 3470.5 2444C3470.5 2447.59 3467.59 2450.5 3464 2450.5Z" fill="#333333"/>
</svg>