<svg width="16" height="16" viewBox="0 0 16 16" fill="none" xmlns="http://www.w3.org/2000/svg">
  <path transform="translate(-2332, -84)" d="M2336 90.5H2342C2342.28 90.5 2342.5 90.7239 2342.5 91C2342.5 91.2761 2342.28 91.5 2342 91.5H2336C2335.72 91.5 2335.5 91.2761 2335.5 91C2335.5 90.7239 2335.72 90.5 2336 90.5Z" fill="#333333"/>
  <path transform="translate(-2332, -84)" fill-rule="evenodd" clip-rule="evenodd" d="M2339 97.5C2340.61 97.5 2342.09 96.911 2343.23 95.9362L2346.65 99.3536C2346.84 99.5488 2347.16 99.5488 2347.35 99.3536C2347.55 99.1583 2347.55 98.8417 2347.35 98.6464L2343.94 95.2291C2344.91 94.0923 2345.5 92.6149 2345.5 91C2345.5 87.4101 2342.59 84.5 2339 84.5C2335.41 84.5 2332.5 87.4101 2332.5 91C2332.5 94.5899 2335.41 97.5 2339 97.5ZM2339 96.5C2340.51 96.5 2341.87 95.8928 2342.87 94.9096C2342.87 94.9024 2342.88 94.8953 2342.89 94.8884C2342.9 94.8815 2342.9 94.8749 2342.91 94.8685C2343.89 93.8748 2344.5 92.5083 2344.5 91C2344.5 87.9624 2342.04 85.5 2339 85.5C2335.96 85.5 2333.5 87.9624 2333.5 91C2333.5 94.0376 2335.96 96.5 2339 96.5Z" fill="#333333"/>
</svg>