<svg width="16" height="16" viewBox="0 0 16 16" fill="none" xmlns="http://www.w3.org/2000/svg">
  <path transform="translate(-2836, -252)" d="M2844 256H2842V258H2840V260H2842V262H2844V260H2846V258H2844V256Z" fill="#333333"/>
  <path transform="translate(-2836, -252)" d="M2848.7 263.3C2849.6 262.1 2850.1 260.7 2850.1 259.1C2850.1 255.2 2847 252 2843.1 252C2839.2 252 2836 255.2 2836 259.1C2836 263 2839.2 266.2 2843.1 266.2C2844.7 266.2 2846.2 265.7 2847.3 264.8L2850.3 267.8C2850.5 268 2850.8 268.1 2851 268.1C2851.2 268.1 2851.5 268 2851.7 267.8C2852.1 267.4 2852.1 266.8 2851.7 266.4L2848.7 263.3ZM2843.1 264.1C2840.3 264.1 2838 261.9 2838 259.1C2838 256.3 2840.3 254 2843.1 254C2845.9 254 2848.2 256.3 2848.2 259.1C2848.2 261.9 2845.9 264.1 2843.1 264.1Z" fill="#333333"/>
</svg>