<svg width="16" height="16" viewBox="0 0 16 16" fill="none" xmlns="http://www.w3.org/2000/svg">
  <path transform="translate(-2332, -252)" d="M2338.5 262C2338.5 262.276 2338.72 262.5 2339 262.5C2339.28 262.5 2339.5 262.276 2339.5 262V259.5H2342C2342.28 259.5 2342.5 259.276 2342.5 259C2342.5 258.724 2342.28 258.5 2342 258.5H2339.5V256C2339.5 255.724 2339.28 255.5 2339 255.5C2338.72 255.5 2338.5 255.724 2338.5 256V258.5H2336C2335.72 258.5 2335.5 258.724 2335.5 259C2335.5 259.276 2335.72 259.5 2336 259.5H2338.5V262Z" fill="#333333"/>
  <path transform="translate(-2332, -252)" fill-rule="evenodd" clip-rule="evenodd" d="M2343.23 263.936C2342.09 264.911 2340.61 265.5 2339 265.5C2335.41 265.5 2332.5 262.59 2332.5 259C2332.5 255.41 2335.41 252.5 2339 252.5C2342.59 252.5 2345.5 255.41 2345.5 259C2345.5 260.615 2344.91 262.092 2343.94 263.229L2347.35 266.646C2347.55 266.842 2347.55 267.158 2347.35 267.354C2347.16 267.549 2346.84 267.549 2346.65 267.354L2343.23 263.936ZM2342.87 262.91C2341.87 263.893 2340.51 264.5 2339 264.5C2335.96 264.5 2333.5 262.038 2333.5 259C2333.5 255.962 2335.96 253.5 2339 253.5C2342.04 253.5 2344.5 255.962 2344.5 259C2344.5 260.508 2343.89 261.875 2342.91 262.868C2342.9 262.875 2342.9 262.882 2342.89 262.888C2342.88 262.895 2342.87 262.902 2342.87 262.91Z" fill="#333333"/>
</svg>