<svg width="16" height="16" viewBox="0 0 16 16" fill="none" xmlns="http://www.w3.org/2000/svg">
  <path transform="translate(-2836, -84)" d="M2846 90H2840V92H2846V90Z" fill="#333333"/>
  <path transform="translate(-2836, -84)" d="M2848.7 95.3C2849.6 94.1 2850.1 92.7 2850.1 91.1C2850.1 87.2 2847 84 2843.1 84C2839.2 84 2836 87.2 2836 91.1C2836 95 2839.2 98.2 2843.1 98.2C2844.7 98.2 2846.2 97.7 2847.3 96.8L2850.3 99.8C2850.5 100 2850.8 100.1 2851 100.1C2851.2 100.1 2851.5 100 2851.7 99.8C2852.1 99.4 2852.1 98.8 2851.7 98.4L2848.7 95.3ZM2843.1 96.1C2840.3 96.1 2838 93.9 2838 91.1C2838 88.3 2840.3 86 2843.1 86C2845.9 86 2848.2 88.3 2848.2 91.1C2848.2 93.9 2845.9 96.1 2843.1 96.1Z" fill="#333333"/>
</svg>